  0
SECTION
  2
HEADER
  9
$ACADVER
  1
AC1015
  9
$ACADMAINTVER
 70
     6
  9
$DWGCODEPAGE
  3
ANSI_1252
  9
$INSBASE
 10
0.0
 20
0.0
 30
0.0
  9
$EXTMIN
 10
-18.0
 20
-18.001
 30
0.0
  9
$EXTMAX
 10
18.0
 20
18.0
 30
0.0
  9
$LIMMIN
 10
0.0
 20
0.0
  9
$LIMMAX
 10
420.0
 20
297.0
  9
$ORTHOMODE
 70
     0
  9
$REGENMODE
 70
     1
  9
$FILLMODE
 70
     1
  9
$QTEXTMODE
 70
     0
  9
$MIRRTEXT
 70
     1
  9
$LTSCALE
 40
1.0
  9
$ATTMODE
 70
     1
  9
$TEXTSIZE
 40
3.5
  9
$TRACEWID
 40
1.0
  9
$TEXTSTYLE
  7
Standard
  9
$CLAYER
  8
0
  9
$CELTYPE
  6
ByLayer
  9
$CECOLOR
 62
   256
  9
$CELTSCALE
 40
1.0
  9
$DISPSILH
 70
     0
  9
$DIMSCALE
 40
1.0
  9
$DIMASZ
 40
3.302
  9
$DIMEXO
 40
0.0
  9
$DIMDLI
 40
3.75
  9
$DIMRND
 40
0.0
  9
$DIMDLE
 40
0.0
  9
$DIMEXE
 40
1.0
  9
$DIMTP
 40
0.0
  9
$DIMTM
 40
0.0
  9
$DIMTXT
 40
3.5
  9
$DIMCEN
 40
2.5
  9
$DIMTSZ
 40
0.0
  9
$DIMTOL
 70
     0
  9
$DIMLIM
 70
     0
  9
$DIMTIH
 70
     1
  9
$DIMTOH
 70
     1
  9
$DIMSE1
 70
     0
  9
$DIMSE2
 70
     0
  9
$DIMTAD
 70
     1
  9
$DIMZIN
 70
     1
  9
$DIMBLK
  1

  9
$DIMASO
 70
     1
  9
$DIMSHO
 70
     1
  9
$DIMPOST
  1

  9
$DIMAPOST
  1

  9
$DIMALT
 70
     0
  9
$DIMALTD
 70
     3
  9
$DIMALTF
 40
0.0393700787
  9
$DIMLFAC
 40
1.0
  9
$DIMTOFL
 70
     1
  9
$DIMTVP
 40
0.0
  9
$DIMTIX
 70
     0
  9
$DIMSOXD
 70
     0
  9
$DIMSAH
 70
     0
  9
$DIMBLK1
  1

  9
$DIMBLK2
  1

  9
$DIMSTYLE
  2
ISO-25
  9
$DIMCLRD
 70
     0
  9
$DIMCLRE
 70
     0
  9
$DIMCLRT
 70
     0
  9
$DIMTFAC
 40
1.0
  9
$DIMGAP
 40
1.524
  9
$DIMJUST
 70
     0
  9
$DIMSD1
 70
     0
  9
$DIMSD2
 70
     0
  9
$DIMTOLJ
 70
     0
  9
$DIMTZIN
 70
     1
  9
$DIMALTZ
 70
     0
  9
$DIMALTTZ
 70
     0
  9
$DIMUPT
 70
     0
  9
$DIMDEC
 70
     2
  9
$DIMTDEC
 70
     2
  9
$DIMALTU
 70
     2
  9
$DIMALTTD
 70
     3
  9
$DIMTXSTY
  7
Standard
  9
$DIMAUNIT
 70
     0
  9
$DIMADEC
 70
     2
  9
$DIMALTRND
 40
0.0
  9
$DIMAZIN
 70
     0
  9
$DIMDSEP
 70
    44
  9
$DIMATFIT
 70
     3
  9
$DIMFRAC
 70
     0
  9
$DIMLDRBLK
  1

  9
$DIMLUNIT
 70
     2
  9
$DIMLWD
 70
    -2
  9
$DIMLWE
 70
    -2
  9
$DIMTMOVE
 70
     0
  9
$LUNITS
 70
     2
  9
$LUPREC
 70
     2
  9
$SKETCHINC
 40
1.0
  9
$FILLETRAD
 40
0.0
  9
$AUNITS
 70
     0
  9
$AUPREC
 70
     2
  9
$MENU
  1
.
  9
$ELEVATION
 40
0.0
  9
$PELEVATION
 40
0.0
  9
$THICKNESS
 40
0.0
  9
$LIMCHECK
 70
     0
  9
$CHAMFERA
 40
0.0
  9
$CHAMFERB
 40
0.0
  9
$CHAMFERC
 40
0.0
  9
$CHAMFERD
 40
0.0
  9
$SKPOLY
 70
     0
  9
$TDCREATE
 40
2461086.044984838
  9
$TDUCREATE
 40
2461085.961651505
  9
$TDUPDATE
 40
2461086.045139421
  9
$TDUUPDATE
 40
2461085.961806088
  9
$TDINDWG
 40
0.0000000116
  9
$TDUSRTIMER
 40
0.0000000116
  9
$USRTIMER
 70
     1
  9
$ANGBASE
 50
0.0
  9
$ANGDIR
 70
     0
  9
$PDMODE
 70
     0
  9
$PDSIZE
 40
-1.0
  9
$PLINEWID
 40
0.0
  9
$SPLFRAME
 70
     0
  9
$SPLINETYPE
 70
     6
  9
$SPLINESEGS
 70
     8
  9
$HANDSEED
  5
335
  9
$SURFTAB1
 70
     6
  9
$SURFTAB2
 70
     6
  9
$SURFTYPE
 70
     6
  9
$SURFU
 70
     6
  9
$SURFV
 70
     6
  9
$UCSBASE
  2

  9
$UCSNAME
  2

  9
$UCSORG
 10
0.0
 20
0.0
 30
0.0
  9
$UCSXDIR
 10
1.0
 20
0.0
 30
0.0
  9
$UCSYDIR
 10
0.0
 20
1.0
 30
0.0
  9
$UCSORTHOREF
  2

  9
$UCSORTHOVIEW
 70
     0
  9
$UCSORGTOP
 10
0.0
 20
0.0
 30
0.0
  9
$UCSORGBOTTOM
 10
0.0
 20
0.0
 30
0.0
  9
$UCSORGLEFT
 10
0.0
 20
0.0
 30
0.0
  9
$UCSORGRIGHT
 10
0.0
 20
0.0
 30
0.0
  9
$UCSORGFRONT
 10
0.0
 20
0.0
 30
0.0
  9
$UCSORGBACK
 10
0.0
 20
0.0
 30
0.0
  9
$PUCSBASE
  2

  9
$PUCSNAME
  2

  9
$PUCSORG
 10
0.0
 20
0.0
 30
0.0
  9
$PUCSXDIR
 10
1.0
 20
0.0
 30
0.0
  9
$PUCSYDIR
 10
0.0
 20
1.0
 30
0.0
  9
$PUCSORTHOREF
  2

  9
$PUCSORTHOVIEW
 70
     0
  9
$PUCSORGTOP
 10
0.0
 20
0.0
 30
0.0
  9
$PUCSORGBOTTOM
 10
0.0
 20
0.0
 30
0.0
  9
$PUCSORGLEFT
 10
0.0
 20
0.0
 30
0.0
  9
$PUCSORGRIGHT
 10
0.0
 20
0.0
 30
0.0
  9
$PUCSORGFRONT
 10
0.0
 20
0.0
 30
0.0
  9
$PUCSORGBACK
 10
0.0
 20
0.0
 30
0.0
  9
$USERI1
 70
     0
  9
$USERI2
 70
     0
  9
$USERI3
 70
     0
  9
$USERI4
 70
     0
  9
$USERI5
 70
     0
  9
$USERR1
 40
0.0
  9
$USERR2
 40
0.0
  9
$USERR3
 40
0.0
  9
$USERR4
 40
0.0
  9
$USERR5
 40
0.0
  9
$WORLDVIEW
 70
     1
  9
$SHADEDGE
 70
     3
  9
$SHADEDIF
 70
    70
  9
$TILEMODE
 70
     1
  9
$MAXACTVP
 70
    64
  9
$PINSBASE
 10
0.0
 20
0.0
 30
0.0
  9
$PLIMCHECK
 70
     0
  9
$PEXTMIN
 10
-18.0
 20
-18.001
 30
0.0
  9
$PEXTMAX
 10
18.0
 20
18.0
 30
0.0
  9
$PLIMMIN
 10
-21.6924102564
 20
-19.3856538462
  9
$PLIMMAX
 10
33.1398820513
 20
19.3846538462
  9
$UNITMODE
 70
     0
  9
$VISRETAIN
 70
     1
  9
$PLINEGEN
 70
     0
  9
$PSLTSCALE
 70
     1
  9
$TREEDEPTH
 70
  3020
  9
$CMLSTYLE
  2
Standard
  9
$CMLJUST
 70
     0
  9
$CMLSCALE
 40
20.0
  9
$PROXYGRAPHICS
 70
     1
  9
$MEASUREMENT
 70
     1
  9
$CELWEIGHT
370
    -1
  9
$ENDCAPS
280
     0
  9
$JOINSTYLE
280
     0
  9
$LWDISPLAY
290
     1
  9
$INSUNITS
 70
     4
  9
$HYPERLINKBASE
  1

  9
$STYLESHEET
  1

  9
$XEDIT
290
     1
  9
$CEPSNTYPE
380
     0
  9
$PSTYLEMODE
290
     1
  9
$FINGERPRINTGUID
  2
{2bb5390a-d690-4199-ba27-58694c476564}
  9
$VERSIONGUID
  2
{FAEB1C32-E019-11D5-929B-00C0DF256EC4}
  9
$EXTNAMES
290
     1
  9
$PSVPSCALE
 40
0.0
  9
$OLESTARTUP
290
     0
  0
ENDSEC
  0
SECTION
  2
CLASSES
  0
CLASS
  1
ACDBDICTIONARYWDFLT
  2
AcDbDictionaryWithDefault
  3
ObjectDBX Classes
 90
        0
280
     0
281
     0
  0
CLASS
  1
VISUALSTYLE
  2
AcDbVisualStyle
  3
ObjectDBX Classes
 90
     4095
280
     0
281
     0
  0
CLASS
  1
MATERIAL
  2
AcDbMaterial
  3
ObjectDBX Classes
 90
     1153
280
     0
281
     0
  0
CLASS
  1
SCALE
  2
AcDbScale
  3
ObjectDBX Classes
 90
     1153
280
     0
281
     0
  0
CLASS
  1
TABLESTYLE
  2
AcDbTableStyle
  3
ObjectDBX Classes
 90
     4095
280
     0
281
     0
  0
CLASS
  1
MLEADERSTYLE
  2
AcDbMLeaderStyle
  3
ACDB_MLEADERSTYLE_CLASS
 90
     4095
280
     0
281
     0
  0
CLASS
  1
SUN
  2
AcDbSun
  3
SCENEOE
 90
     1153
280
     0
281
     0
  0
CLASS
  1
ACDBPLACEHOLDER
  2
AcDbPlaceHolder
  3
ObjectDBX Classes
 90
        0
280
     0
281
     0
  0
CLASS
  1
LAYOUT
  2
AcDbLayout
  3
ObjectDBX Classes
 90
        0
280
     0
281
     0
  0
ENDSEC
  0
SECTION
  2
TABLES
  0
TABLE
  2
VPORT
  5
8
330
0
100
AcDbSymbolTable
 70
     1
  0
VPORT
  5
29
330
8
100
AcDbSymbolTableRecord
100
AcDbViewportTableRecord
  2
*Active
 70
     0
 10
0.0
 20
0.0
 11
1.0
 21
1.0
 12
0.0
 22
-0.0005
 13
0.0
 23
0.0
 14
10.0
 24
10.0
 15
10.0
 25
10.0
 16
0.0
 26
0.0
 36
1.0
 17
0.0
 27
0.0
 37
0.0
 40
36.72102
 41
0.999972223
 42
50.0
 43
0.0
 44
0.0
 50
0.0
 51
0.0
 71
     0
 72
   100
 73
     1
 74
     3
 75
     0
 76
     0
 77
     0
 78
     0
281
     0
 65
     1
110
0.0
120
0.0
130
0.0
111
1.0
121
0.0
131
0.0
112
0.0
122
1.0
132
0.0
 79
     0
146
0.0
  0
ENDTAB
  0
TABLE
  2
LTYPE
  5
5
330
0
100
AcDbSymbolTable
 70
     6
  0
LTYPE
  5
14
330
5
100
AcDbSymbolTableRecord
100
AcDbLinetypeTableRecord
  2
ByBlock
 70
     0
  3

 72
    65
 73
     0
 40
0.0
  0
LTYPE
  5
15
330
5
100
AcDbSymbolTableRecord
100
AcDbLinetypeTableRecord
  2
ByLayer
 70
     0
  3

 72
    65
 73
     0
 40
0.0
  0
LTYPE
  5
16
330
5
100
AcDbSymbolTableRecord
100
AcDbLinetypeTableRecord
  2
Continuous
 70
     0
  3
Solid line
 72
    65
 73
     0
 40
0.0
  0
LTYPE
  5
5E
330
5
100
AcDbSymbolTableRecord
100
AcDbLinetypeTableRecord
  2
HIDDEN
 70
     0
  3
Hidden __ __ __ __ __ __ __ __ __ __ __ __ __ __
 72
    65
 73
     2
 40
1.905
 49
1.27
 74
     0
 49
-0.635
 74
     0
  0
LTYPE
  5
5F
330
5
100
AcDbSymbolTableRecord
100
AcDbLinetypeTableRecord
  2
PHANTOM
 70
     0
  3
Phantom ______  __  __  ______  __  __  ______
 72
    65
 73
     6
 40
12.7
 49
6.35
 74
     0
 49
-1.27
 74
     0
 49
1.27
 74
     0
 49
-1.27
 74
     0
 49
1.27
 74
     0
 49
-1.27
 74
     0
  0
LTYPE
  5
60
330
5
100
AcDbSymbolTableRecord
100
AcDbLinetypeTableRecord
  2
CENTER
 70
     0
  3
Center ____ _ ____ _ ____ _ ____ _ ____ _ ____
 72
    65
 73
     4
 40
10.16
 49
6.35
 74
     0
 49
-1.27
 74
     0
 49
1.27
 74
     0
 49
-1.27
 74
     0
  0
LTYPE
  5
61
330
5
100
AcDbSymbolTableRecord
100
AcDbLinetypeTableRecord
  2
CENTERX2
 70
     0
  3
Center (2x) ________  __  ________  __  _____
 72
    65
 73
     4
 40
20.32
 49
12.7
 74
     0
 49
-2.54
 74
     0
 49
2.54
 74
     0
 49
-2.54
 74
     0
  0
LTYPE
  5
62
330
5
100
AcDbSymbolTableRecord
100
AcDbLinetypeTableRecord
  2
DOT2
 70
     0
  3
Dot (.5x) ........................................
 72
    65
 73
     2
 40
0.635
 49
0.0
 74
     0
 49
-0.635
 74
     0
  0
ENDTAB
  0
TABLE
  2
LAYER
  5
2
330
0
100
AcDbSymbolTable
 70
     1
  0
LAYER
  5
10
330
2
100
AcDbSymbolTableRecord
100
AcDbLayerTableRecord
  2
0
 70
     0
 62
     7
  6
Continuous
370
    -3
390
F
  0
ENDTAB
  0
TABLE
  2
STYLE
  5
3
330
0
100
AcDbSymbolTable
 70
     2
  0
STYLE
  5
11
330
3
100
AcDbSymbolTableRecord
100
AcDbTextStyleTableRecord
  2
Standard
 70
     0
 40
0.0
 41
1.0
 50
0.0
 71
     0
 42
3.5
  3
txt
  4

  0
STYLE
  5
32D
330
3
100
AcDbSymbolTableRecord
100
AcDbTextStyleTableRecord
  2
SLDTEXTSTYLE0
 70
     0
 40
0.0
 41
0.7
 50
0.0
 71
     0
 42
3.5
  3
TXT
  4

  0
ENDTAB
  0
TABLE
  2
VIEW
  5
6
330
0
100
AcDbSymbolTable
 70
     0
  0
ENDTAB
  0
TABLE
  2
UCS
  5
7
330
0
100
AcDbSymbolTable
 70
     0
  0
ENDTAB
  0
TABLE
  2
APPID
  5
9
330
0
100
AcDbSymbolTable
 70
     1
  0
APPID
  5
12
330
9
100
AcDbSymbolTableRecord
100
AcDbRegAppTableRecord
  2
ACAD
 70
     0
  0
ENDTAB
  0
TABLE
  2
DIMSTYLE
  5
A
330
0
100
AcDbSymbolTable
 70
     1
100
AcDbDimStyleTable
  0
DIMSTYLE
105
27
330
A
100
AcDbSymbolTableRecord
100
AcDbDimStyleTableRecord
  2
ISO-25
 70
     0
 41
2.5
 42
0.625
 43
3.75
 44
1.25
 73
     0
 74
     0
 77
     1
 78
     8
140
2.5
141
2.5
143
0.0393700787
147
0.625
171
     3
172
     1
178
     0
271
     2
272
     2
274
     3
278
    44
283
     0
284
     8
340
11
  0
ENDTAB
  0
TABLE
  2
BLOCK_RECORD
  5
1
330
0
100
AcDbSymbolTable
 70
     1
  0
BLOCK_RECORD
  5
1F
330
1
100
AcDbSymbolTableRecord
100
AcDbBlockTableRecord
  2
*Model_Space
340
22
  0
BLOCK_RECORD
  5
1B
330
1
100
AcDbSymbolTableRecord
100
AcDbBlockTableRecord
  2
*Paper_Space
340
1E
  0
BLOCK_RECORD
  5
23
330
1
100
AcDbSymbolTableRecord
100
AcDbBlockTableRecord
  2
*Paper_Space0
340
26
  0
ENDTAB
  0
ENDSEC
  0
SECTION
  2
BLOCKS
  0
BLOCK
  5
20
330
1F
100
AcDbEntity
  8
0
100
AcDbBlockBegin
  2
*Model_Space
 70
     0
 10
0.0
 20
0.0
 30
0.0
  3
*Model_Space
  1

  0
ENDBLK
  5
21
330
1F
100
AcDbEntity
  8
0
100
AcDbBlockEnd
  0
BLOCK
  5
1C
330
1B
100
AcDbEntity
 67
     1
  8
0
100
AcDbBlockBegin
  2
*Paper_Space
 70
     0
 10
0.0
 20
0.0
 30
0.0
  3
*Paper_Space
  1

  0
ENDBLK
  5
1D
330
1B
100
AcDbEntity
 67
     1
  8
0
100
AcDbBlockEnd
  0
BLOCK
  5
24
330
23
100
AcDbEntity
  8
0
100
AcDbBlockBegin
  2
*Paper_Space0
 70
     0
 10
0.0
 20
0.0
 30
0.0
  3
*Paper_Space0
  1

  0
SPLINE
  5
242
330
23
100
AcDbEntity
  8
0
  6
Continuous
 62
     7
370
    25
100
AcDbSpline
210
0.0
220
0.0
230
1.0
 70
     8
 71
     3
 72
    10
 73
     6
 74
     0
 42
0.00000001
 43
0.00000001
 40
0.0
 40
0.0
 40
0.0
 40
0.0
 40
0.5
 40
0.5
 40
1.0
 40
1.0
 40
1.0
 40
1.0
 10
15.6563824818142
 20
-16.722563280909
 30
0.0
 10
15.79635006863319
 20
-16.7700865418874
 30
0.0
 10
15.94125768792821
 20
-16.82168577043701
 30
0.0
 10
16.24095299147
 20
-16.9310463140947
 30
0.0
 10
16.3595137708932
 20
-16.9728741802316
 30
0.0
 10
16.4467876779685
 20
-17.0036684298895
 30
0.0
  0
SPLINE
  5
243
330
23
100
AcDbEntity
  8
0
  6
Continuous
 62
     7
370
    25
100
AcDbSpline
210
0.0
220
0.0
230
1.0
 70
     8
 71
     3
 72
     8
 73
     4
 74
     0
 42
0.00000001
 43
0.00000001
 40
0.0
 40
0.0
 40
0.0
 40
0.0
 40
1.0
 40
1.0
 40
1.0
 40
1.0
 10
15.1352090555999
 20
-16.5674949590293
 30
0.0
 10
15.3130502247347
 20
-16.6061200333527
 30
0.0
 10
15.4884213776314
 20
-16.66407311355101
 30
0.0
 10
15.6563824818142
 20
-16.722563280909
 30
0.0
  0
SPLINE
  5
244
330
23
100
AcDbEntity
  8
0
  6
Continuous
 62
     7
370
    25
100
AcDbSpline
210
0.0
220
0.0
230
1.0
 70
     8
 71
     3
 72
     8
 73
     4
 74
     0
 42
0.00000001
 43
0.00000001
 40
0.0
 40
0.0
 40
0.0
 40
0.0
 40
1.0
 40
1.0
 40
1.0
 40
1.0
 10
14.5251150448183
 20
-16.5050567261091
 30
0.0
 10
14.7655299586487
 20
-16.5050567261091
 30
0.0
 10
14.9639545964333
 20
-16.5288698847059
 30
0.0
 10
15.1352090555999
 20
-16.5674949590293
 30
0.0
  0
SPLINE
  5
245
330
23
100
AcDbEntity
  8
0
  6
Continuous
 62
     7
370
    25
100
AcDbSpline
210
0.0
220
0.0
230
1.0
 70
     8
 71
     3
 72
    18
 73
    14
 74
     0
 42
0.00000001
 43
0.00000001
 40
0.0
 40
0.0
 40
0.0
 40
0.0
 40
0.0846613473626707
 40
0.1644313695814378
 40
0.2399647298529634
 40
0.3120316438523381
 40
0.3815176951245413
 40
0.4494095379740665
 40
0.5167639233002771
 40
0.6325117373206202
 40
0.747987330137623
 40
0.8688330304942297
 40
1.0
 40
1.0
 40
1.0
 40
1.0
 10
13.6877795401423
 20
-16.846547017732
 30
0.0
 10
13.68860819150842
 20
-16.83257507891001
 30
0.0
 10
13.69021761875333
 20
-16.80543843263901
 30
0.0
 10
13.70427243257316
 20
-16.76524209634757
 30
0.0
 10
13.72707035535132
 20
-16.72723295320288
 30
0.0
 10
13.75935629637651
 20
-16.69147823680942
 30
0.0
 10
13.80099468070641
 20
-16.65812473672317
 30
0.0
 10
13.85204958492682
 20
-16.62728413248188
 30
0.0
 10
13.92673014142524
 20
-16.59249346885188
 30
0.0
 10
14.03310066591395
 20
-16.55671831005963
 30
0.0
 10
14.17969349991065
 20
-16.52655755513684
 30
0.0
 10
14.34623115538944
 20
-16.50811988632775
 30
0.0
 10
14.4638809518261
 20
-16.50610528245634
 30
0.0
 10
14.5251150448183
 20
-16.5050567261091
 30
0.0
  0
SPLINE
  5
246
330
23
100
AcDbEntity
  8
0
  6
Continuous
 62
     7
370
    25
100
AcDbSpline
210
0.0
220
0.0
230
1.0
 70
     8
 71
     3
 72
    10
 73
     6
 74
     0
 42
0.00000001
 43
0.00000001
 40
0.0
 40
0.0
 40
0.0
 40
0.0
 40
0.5
 40
0.5
 40
1.0
 40
1.0
 40
1.0
 40
1.0
 10
14.1373224954551
 20
-17.0036684298895
 30
0.0
 10
14.1603759803429
 20
-17.0225771796795
 30
0.0
 10
14.1883694977067
 20
-17.04055033250141
 30
0.0
 10
14.2542365973863
 20
-17.0747256246936
 30
0.0
 10
14.2822301147501
 20
-17.0883125075435
 30
0.0
 10
14.3052835996379
 20
-17.0986037741161
 30
0.0
  0
SPLINE
  5
247
330
23
100
AcDbEntity
  8
0
  6
Continuous
 62
     7
370
    25
100
AcDbSpline
210
0.0
220
0.0
230
1.0
 70
     8
 71
     3
 72
     8
 73
     4
 74
     0
 42
0.00000001
 43
0.00000001
 40
0.0
 40
0.0
 40
0.0
 40
0.0
 40
1.0
 40
1.0
 40
1.0
 40
1.0
 10
14.0409918621738
 20
-16.8569638814185
 30
0.0
 10
14.0409918621738
 20
-16.9077790617857
 30
0.0
 10
14.0813354607275
 20
-16.9593679303817
 30
0.0
 10
14.1373224954551
 20
-17.0036684298895
 30
0.0
  0
SPLINE
  5
24A
330
23
100
AcDbEntity
  8
0
  6
Continuous
 62
     7
370
    25
100
AcDbSpline
210
0.0
220
0.0
230
1.0
 70
     8
 71
     3
 72
     8
 73
     4
 74
     0
 42
0.00000001
 43
0.00000001
 40
0.0
 40
0.0
 40
0.0
 40
0.0
 40
1.0
 40
1.0
 40
1.0
 40
1.0
 10
14.2089529663566
 20
-17.9414379617036
 30
0.0
 10
15.0726353109044
 20
-17.9768746494655
 30
0.0
 10
15.9363176554522
 20
-17.9962479266291
 30
0.0
 10
16.8
 20
-17.9995058222553
 30
0.0
  0
SPLINE
  5
24C
330
23
100
AcDbEntity
  8
0
  6
Continuous
 62
     7
370
    25
100
AcDbSpline
210
0.0
220
0.0
230
1.0
 70
     8
 71
     3
 72
    10
 73
     6
 74
     0
 42
0.00000001
 43
0.00000001
 40
0.0
 40
0.0
 40
0.0
 40
0.0
 40
0.5
 40
0.5
 40
1.0
 40
1.0
 40
1.0
 40
1.0
 10
14.9054975454676
 20
-17.5181373572454
 30
0.0
 10
14.9054975454676
 20
-17.4821834271446
 30
0.0
 10
14.9182592960305
 20
-17.4498642319769
 30
0.0
 10
14.9693062982821
 20
-17.39569161359039
 30
0.0
 10
15.0199416311608
 20
-17.3687923725452
 30
0.0
 10
15.0956887957922
 20
-17.3423293709429
 30
0.0
  0
SPLINE
  5
24F
330
23
100
AcDbEntity
  8
0
  6
Continuous
 62
     7
370
    25
100
AcDbSpline
210
0.0
220
0.0
230
1.0
 70
     8
 71
     3
 72
    10
 73
     6
 74
     0
 42
0.00000001
 43
0.00000001
 40
0.0
 40
0.0
 40
0.0
 40
0.0
 40
0.5
 40
0.5
 40
1.0
 40
1.0
 40
1.0
 40
1.0
 10
15.2488298025471
 20
-17.5333448128752
 30
0.0
 10
15.2488298025471
 20
-17.5586763212517
 30
0.0
 10
15.2574748593801
 20
-17.5829014070977
 30
0.0
 10
15.2920550867118
 20
-17.6291430907424
 30
0.0
 10
15.3081101922587
 20
-17.646771948925
 30
0.0
 10
15.3229302896866
 20
-17.6598352879135
 30
0.0
  0
SPLINE
  5
250
330
23
100
AcDbEntity
  8
0
  6
Continuous
 62
     7
370
    25
100
AcDbSpline
210
0.0
220
0.0
230
1.0
 70
     8
 71
     3
 72
    10
 73
     6
 74
     0
 42
0.00000001
 43
0.00000001
 40
0.0
 40
0.0
 40
0.0
 40
0.0
 40
0.5
 40
0.5
 40
1.0
 40
1.0
 40
1.0
 40
1.0
 10
16.4220875155887
 20
-17.613442259876
 30
0.0
 10
16.4500810329525
 20
-17.59681019051339
 30
0.0
 10
16.47189950972141
 20
-17.5810935820285
 30
0.0
 10
16.5031863820691
 20
-17.5519982661964
 30
0.0
 10
16.5110081001561
 20
-17.5352103867769
 30
0.0
 10
16.5110081001561
 20
-17.5158639438686
 30
0.0
  0
SPLINE
  5
251
330
23
100
AcDbEntity
  8
0
  6
Continuous
 62
     7
370
    25
100
AcDbSpline
210
0.0
220
0.0
230
1.0
 70
     8
 71
     3
 72
     8
 73
     4
 74
     0
 42
0.00000001
 43
0.00000001
 40
0.0
 40
0.0
 40
0.0
 40
0.0
 40
1.0
 40
1.0
 40
1.0
 40
1.0
 10
16.2590664438819
 20
-17.6782214588203
 30
0.0
 10
16.3051734136575
 20
-17.66644269324371
 30
0.0
 10
16.3693938358451
 20
-17.6426332387574
 30
0.0
 10
16.4220875155887
 20
-17.613442259876
 30
0.0
  0
SPLINE
  5
252
330
23
100
AcDbEntity
  8
0
  6
Continuous
 62
     7
370
    25
100
AcDbSpline
210
0.0
220
0.0
230
1.0
 70
     8
 71
     3
 72
    10
 73
     6
 74
     0
 42
0.00000001
 43
0.00000001
 40
0.0
 40
0.0
 40
0.0
 40
0.0
 40
0.5
 40
0.5
 40
1.0
 40
1.0
 40
1.0
 40
1.0
 10
16.5653484573917
 20
-17.3303681297533
 30
0.0
 10
16.657562396943
 20
-17.35350643396691
 30
0.0
 10
16.73042787596351
 20
-17.3817592584027
 30
0.0
 10
16.8374619129428
 20
-17.4463577297147
 30
0.0
 10
16.8642204221875
 20
-17.4812159948322
 30
0.0
 10
16.8642204221875
 20
-17.5175694986792
 30
0.0
  0
SPLINE
  5
253
330
23
100
AcDbEntity
  8
0
  6
Continuous
 62
     7
370
    25
100
AcDbSpline
210
0.0
220
0.0
230
1.0
 70
     8
 71
     3
 72
     8
 73
     4
 74
     0
 42
0.00000001
 43
0.00000001
 40
0.0
 40
0.0
 40
0.0
 40
0.0
 40
1.0
 40
1.0
 40
1.0
 40
1.0
 10
15.8317536347109
 20
-17.2556801230711
 30
0.0
 10
16.1248622282849
 20
-17.2556801230711
 30
0.0
 10
16.38092057828891
 20
-17.2840915213259
 30
0.0
 10
16.5653484573917
 20
-17.3303681297533
 30
0.0
  0
SPLINE
  5
254
330
23
100
AcDbEntity
  8
0
  6
Continuous
 62
     7
370
    25
100
AcDbSpline
210
0.0
220
0.0
230
1.0
 70
     8
 71
     3
 72
    10
 73
     6
 74
     0
 42
0.00000001
 43
0.00000001
 40
0.0
 40
0.0
 40
0.0
 40
0.0
 40
0.5
 40
0.5
 40
1.0
 40
1.0
 40
1.0
 40
1.0
 10
15.0956887957922
 20
-17.3423293709429
 30
0.0
 10
15.1714359604237
 20
-17.3154253193138
 30
0.0
 10
15.266943254959
 20
-17.29392521150961
 30
0.0
 10
15.4974781038374
 20
-17.2634618542125
 30
0.0
 10
15.6473257556083
 20
-17.2556801230711
 30
0.0
 10
15.8317536347109
 20
-17.2556801230711
 30
0.0
  0
SPLINE
  5
255
330
23
100
AcDbEntity
  8
0
  6
Continuous
 62
     7
370
    25
100
AcDbSpline
210
0.0
220
0.0
230
1.0
 70
     8
 71
     3
 72
    18
 73
    14
 74
     0
 42
0.00000001
 43
0.00000001
 40
0.0
 40
0.0
 40
0.0
 40
0.0
 40
0.1068831872500265
 40
0.2055499411262008
 40
0.296275173623807
 40
0.3794126150429168
 40
0.4554220048910638
 40
0.5249047171304694
 40
0.5886471203542274
 40
0.6909287837388729
 40
0.7886526594035037
 40
0.8893644114281359
 40
1.0
 40
1.0
 40
1.0
 40
1.0
 10
15.2759999811649
 20
-15.38797925433061
 30
0.0
 10
15.35115539002437
 20
-15.38842321322681
 30
0.0
 10
15.4956887845071
 20
-15.38927700255816
 30
0.0
 10
15.70360732006605
 20
-15.39685784484737
 30
0.0
 10
15.89384593404117
 20
-15.40915356820786
 30
0.0
 10
16.06645036257716
 20
-15.42650093084184
 30
0.0
 10
16.2214480890642
 20
-15.4487860569452
 30
0.0
 10
16.35893985579316
 20
-15.47601466971093
 30
0.0
 10
16.50571866134199
 20
-15.51536981684321
 30
0.0
 10
16.653218449818
 20
-15.5740640996336
 30
0.0
 10
16.77772146123449
 20
-15.66067817858802
 30
0.0
 10
16.85247044683287
 20
-15.7622597711491
 30
0.0
 10
16.86018304839746
 20
-15.83307822290459
 30
0.0
 10
16.8642204221875
 20
-15.87015009269771
 30
0.0
  0
SPLINE
  5
256
330
23
100
AcDbEntity
  8
0
  6
Continuous
 62
     7
370
    25
100
AcDbSpline
210
0.0
220
0.0
230
1.0
 70
     8
 71
     3
 72
    20
 73
    16
 74
     0
 42
0.00000001
 43
0.00000001
 40
0.0
 40
0.0
 40
0.0
 40
0.0
 40
0.0514220529533511
 40
0.1001758041389313
 40
0.146780452096713
 40
0.191829563501278
 40
0.2359794895703159
 40
0.2799268881895338
 40
0.3243779409295752
 40
0.3700154554664531
 40
0.4174710536750826
 40
0.5340179632649805
 40
0.6681633710644624
 40
0.822850039025124
 40
1.0
 40
1.0
 40
1.0
 40
1.0
 10
13.6902495563803
 20
-15.87015009269771
 30
0.0
 10
13.69113151180519
 20
-15.85305971365284
 30
0.0
 10
13.69284965779177
 20
-15.81976577913387
 30
0.0
 10
13.70778524734144
 20
-15.77072625388175
 30
0.0
 10
13.73199646189726
 20
-15.7243698831151
 30
0.0
 10
13.76628063163024
 20
-15.68075923688085
 30
0.0
 10
13.81046669760013
 20
-15.64002335910699
 30
0.0
 10
13.86458909920797
 20
-15.60227205909511
 30
0.0
 10
13.92859293399593
 20
-15.56761170670969
 30
0.0
 10
14.0024015884408
 20
-15.53610524915661
 30
0.0
 10
14.12504069903702
 20
-15.49469980978437
 30
0.0
 10
14.31747314098203
 20
-15.45072200267737
 30
0.0
 10
14.59368742293139
 20
-15.41397356476304
 30
0.0
 10
14.91866810487021
 20
-15.39159230044662
 30
0.0
 10
15.15163260254335
 20
-15.38923675500183
 30
0.0
 10
15.2759999811649
 20
-15.38797925433061
 30
0.0
  0
SPLINE
  5
263
330
23
100
AcDbEntity
  8
0
  6
Continuous
 62
     7
370
    25
100
AcDbSpline
210
0.0
220
0.0
230
1.0
 70
     8
 71
     3
 72
    10
 73
     6
 74
     0
 42
0.00000001
 43
0.00000001
 40
0.0
 40
0.0
 40
0.0
 40
0.0
 40
0.5
 40
0.5
 40
1.0
 40
1.0
 40
1.0
 40
1.0
 10
15.2759999811649
 20
-15.388834142067
 30
0.0
 10
15.82269690850499
 20
-15.388834142067
 30
0.0
 10
16.2240745471771
 20
-15.43046374486971
 30
0.0
 10
16.7361912471854
 20
-15.591701381457
 30
0.0
 10
16.8642204221875
 20
-15.7148467796632
 30
0.0
 10
16.8642204221875
 20
-15.8710317677029
 30
0.0
  0
SPLINE
  5
264
330
23
100
AcDbEntity
  8
0
  6
Continuous
 62
     7
370
    25
100
AcDbSpline
210
0.0
220
0.0
230
1.0
 70
     8
 71
     3
 72
    10
 73
     6
 74
     0
 42
0.00000001
 43
0.00000001
 40
0.0
 40
0.0
 40
0.0
 40
0.0
 40
0.5
 40
0.5
 40
1.0
 40
1.0
 40
1.0
 40
1.0
 10
16.8642204221875
 20
-15.8710317677029
 30
0.0
 10
16.8642204221875
 20
-16.029547874967
 30
0.0
 10
16.7337212309475
 20
-16.13808372116261
 30
0.0
 10
16.2117244659872
 20
-16.2750142819846
 30
0.0
 10
15.8136401822991
 20
-16.3078937311946
 30
0.0
 10
15.2784699974029
 20
-16.3078937311946
 30
0.0
  0
SPLINE
  5
265
330
23
100
AcDbEntity
  8
0
  6
Continuous
 62
     7
370
    25
100
AcDbSpline
210
0.0
220
0.0
230
1.0
 70
     8
 71
     3
 72
    10
 73
     6
 74
     0
 42
0.00000001
 43
0.00000001
 40
0.0
 40
0.0
 40
0.0
 40
0.0
 40
0.5
 40
0.5
 40
1.0
 40
1.0
 40
1.0
 40
1.0
 10
15.2784699974029
 20
-16.3078937311946
 30
0.0
 10
14.7284797150789
 20
-16.30789373119459
 30
0.0
 10
14.3262787376607
 20
-16.27466931815381
 30
0.0
 10
13.8174553926364
 20
-16.1362809803435
 30
0.0
 10
13.6902495563803
 20
-16.02799379548399
 30
0.0
 10
13.6902495563803
 20
-15.8710317677029
 30
0.0
  0
SPLINE
  5
266
330
23
100
AcDbEntity
  8
0
  6
Continuous
 62
     7
370
    25
100
AcDbSpline
210
0.0
220
0.0
230
1.0
 70
     8
 71
     3
 72
    10
 73
     6
 74
     0
 42
0.00000001
 43
0.00000001
 40
0.0
 40
0.0
 40
0.0
 40
0.0
 40
0.5
 40
0.5
 40
1.0
 40
1.0
 40
1.0
 40
1.0
 10
13.6902495563803
 20
-15.8710317677029
 30
0.0
 10
13.6902495563803
 20
-15.7132927001803
 30
0.0
 10
13.8219837557394
 20
-15.5896214568306
 30
0.0
 10
14.3489205531756
 20
-15.4300333233147
 30
0.0
 10
14.7457698287447
 20
-15.388834142067
 30
0.0
 10
15.2759999811649
 20
-15.388834142067
 30
0.0
  0
SPLINE
  5
267
330
23
100
AcDbEntity
  8
0
  6
Continuous
 62
     7
370
    25
100
AcDbSpline
210
0.0
220
0.0
230
1.0
 70
     8
 71
     3
 72
     8
 73
     4
 74
     0
 42
0.00000001
 43
0.00000001
 40
0.0
 40
0.0
 40
0.0
 40
0.0
 40
1.0
 40
1.0
 40
1.0
 40
1.0
 10
15.2759999811649
 20
-15.6000259836987
 30
0.0
 10
15.6942560641299
 20
-15.6000259836987
 30
0.0
 10
16.0038314326237
 20
-15.6149459753832
 30
0.0
 10
16.2047260866463
 20
-15.653972599195
 30
0.0
  0
SPLINE
  5
268
330
23
100
AcDbEntity
  8
0
  6
Continuous
 62
     7
370
    25
100
AcDbSpline
210
0.0
220
0.0
230
1.0
 70
     8
 71
     3
 72
     8
 73
     4
 74
     0
 42
0.00000001
 43
0.00000001
 40
0.0
 40
0.0
 40
0.0
 40
0.0
 40
1.0
 40
1.0
 40
1.0
 40
1.0
 10
14.3448038594456
 20
-15.6551920338017
 30
0.0
 10
14.5522852234362
 20
-15.6145491266209
 30
0.0
 10
14.8577438981999
 20
-15.6000259836987
 30
0.0
 10
15.2759999811649
 20
-15.6000259836987
 30
0.0
  0
SPLINE
  5
269
330
23
100
AcDbEntity
  8
0
  6
Continuous
 62
     7
370
    25
100
AcDbSpline
210
0.0
220
0.0
230
1.0
 70
     8
 71
     3
 72
     8
 73
     4
 74
     0
 42
0.00000001
 43
0.00000001
 40
0.0
 40
0.0
 40
0.0
 40
0.0
 40
1.0
 40
1.0
 40
1.0
 40
1.0
 10
14.0286417809839
 20
-15.8710317677029
 30
0.0
 10
14.0286417809839
 20
-15.76380028337709
 30
0.0
 10
14.1373224954552
 20
-15.6958349409825
 30
0.0
 10
14.3448038594456
 20
-15.6551920338017
 30
0.0
  0
SPLINE
  5
26A
330
23
100
AcDbEntity
  8
0
  6
Continuous
 62
     7
370
    25
100
AcDbSpline
210
0.0
220
0.0
230
1.0
 70
     8
 71
     3
 72
     8
 73
     4
 74
     0
 42
0.00000001
 43
0.00000001
 40
0.0
 40
0.0
 40
0.0
 40
0.0
 40
1.0
 40
1.0
 40
1.0
 40
1.0
 10
14.3497438919216
 20
-16.0804132100217
 30
0.0
 10
14.135675817963
 20
-16.0419261130661
 30
0.0
 10
14.0286417809839
 20
-15.97826325202849
 30
0.0
 10
14.0286417809839
 20
-15.8710317677029
 30
0.0
  0
SPLINE
  5
26B
330
23
100
AcDbEntity
  8
0
  6
Continuous
 62
     7
370
    25
100
AcDbSpline
210
0.0
220
0.0
230
1.0
 70
     8
 71
     3
 72
     8
 73
     4
 74
     0
 42
0.00000001
 43
0.00000001
 40
0.0
 40
0.0
 40
0.0
 40
0.0
 40
1.0
 40
1.0
 40
1.0
 40
1.0
 10
15.2784699974029
 20
-16.1278718007853
 30
0.0
 10
14.8799740443417
 20
-16.1278718007853
 30
0.0
 10
14.557225255912
 20
-16.1174200340173
 30
0.0
 10
14.3497438919216
 20
-16.0804132100217
 30
0.0
  0
SPLINE
  5
26C
330
23
100
AcDbEntity
  8
0
  6
Continuous
 62
     7
370
    25
100
AcDbSpline
210
0.0
220
0.0
230
1.0
 70
     8
 71
     3
 72
    10
 73
     6
 74
     0
 42
0.00000001
 43
0.00000001
 40
0.0
 40
0.0
 40
0.0
 40
0.0
 40
0.5
 40
0.5
 40
1.0
 40
1.0
 40
1.0
 40
1.0
 10
16.1973160379323
 20
-16.0815232633395
 30
0.0
 10
16.0853419684771
 20
-16.1007615631518
 30
0.0
 10
15.957724462848
 20
-16.1132165715526
 30
0.0
 10
15.6712025792421
 20
-16.12495035912559
 30
0.0
 10
15.4925380713614
 20
-16.1278718007853
 30
0.0
 10
15.2784699974029
 20
-16.1278718007853
 30
0.0
  0
SPLINE
  5
26D
330
23
100
AcDbEntity
  8
0
  6
Continuous
 62
     7
370
    25
100
AcDbSpline
210
0.0
220
0.0
230
1.0
 70
     8
 71
     3
 72
     8
 73
     4
 74
     0
 42
0.00000001
 43
0.00000001
 40
0.0
 40
0.0
 40
0.0
 40
0.0
 40
1.0
 40
1.0
 40
1.0
 40
1.0
 10
16.525828197584
 20
-15.8710317677029
 30
0.0
 10
16.525828197584
 20
-15.9829254904775
 30
0.0
 10
16.4080907569069
 20
-16.0460064021475
 30
0.0
 10
16.1973160379323
 20
-16.0815232633395
 30
0.0
  0
SPLINE
  5
26E
330
23
100
AcDbEntity
  8
0
  6
Continuous
 62
     7
370
    25
100
AcDbSpline
210
0.0
220
0.0
230
1.0
 70
     8
 71
     3
 72
     8
 73
     4
 74
     0
 42
0.00000001
 43
0.00000001
 40
0.0
 40
0.0
 40
0.0
 40
0.0
 40
1.0
 40
1.0
 40
1.0
 40
1.0
 10
16.2047260866463
 20
-15.653972599195
 30
0.0
 10
16.4187941606047
 20
-15.6946253323322
 30
0.0
 10
16.525828197584
 20
-15.7653543628601
 30
0.0
 10
16.525828197584
 20
-15.8710317677029
 30
0.0
  0
SPLINE
  5
272
330
23
100
AcDbEntity
  8
0
  6
Continuous
 62
     7
370
    25
100
AcDbSpline
210
0.0
220
0.0
230
1.0
 70
     8
 71
     3
 72
     8
 73
     4
 74
     0
 42
0.00000001
 43
0.00000001
 40
0.0
 40
0.0
 40
0.0
 40
0.0
 40
1.0
 40
1.0
 40
1.0
 40
1.0
 10
16.1973160379323
 20
-16.080629895012
 30
0.0
 10
16.4080907569069
 20
-16.0451150068694
 30
0.0
 10
16.525828197584
 20
-15.9820375994999
 30
0.0
 10
16.525828197584
 20
-15.8701500926977
 30
0.0
  0
SPLINE
  5
273
330
23
100
AcDbEntity
  8
0
  6
Continuous
 62
     7
370
    25
100
AcDbSpline
210
0.0
220
0.0
230
1.0
 70
     8
 71
     3
 72
    10
 73
     6
 74
     0
 42
0.00000001
 43
0.00000001
 40
0.0
 40
0.0
 40
0.0
 40
0.0
 40
0.5
 40
0.5
 40
1.0
 40
1.0
 40
1.0
 40
1.0
 10
15.2784699974029
 20
-16.1269758576821
 30
0.0
 10
15.4925380713614
 20
-16.1269758576821
 30
0.0
 10
15.6712025792421
 20
-16.1240545783157
 30
0.0
 10
15.95772446284799
 20
-16.1123214425836
 30
0.0
 10
16.0853419684771
 20
-16.0998671260892
 30
0.0
 10
16.1973160379323
 20
-16.080629895012
 30
0.0
  0
SPLINE
  5
274
330
23
100
AcDbEntity
  8
0
  6
Continuous
 62
     7
370
    25
100
AcDbSpline
210
0.0
220
0.0
230
1.0
 70
     8
 71
     3
 72
     8
 73
     4
 74
     0
 42
0.00000001
 43
0.00000001
 40
0.0
 40
0.0
 40
0.0
 40
0.0
 40
1.0
 40
1.0
 40
1.0
 40
1.0
 10
14.3497438919216
 20
-16.0795199033604
 30
0.0
 10
14.557225255912
 20
-16.1165246715356
 30
0.0
 10
14.8799740443417
 20
-16.1269758576821
 30
0.0
 10
15.2784699974029
 20
-16.1269758576821
 30
0.0
  0
SPLINE
  5
275
330
23
100
AcDbEntity
  8
0
  6
Continuous
 62
     7
370
    25
100
AcDbSpline
210
0.0
220
0.0
230
1.0
 70
     8
 71
     3
 72
     8
 73
     4
 74
     0
 42
0.00000001
 43
0.00000001
 40
0.0
 40
0.0
 40
0.0
 40
0.0
 40
1.0
 40
1.0
 40
1.0
 40
1.0
 10
14.0286417809839
 20
-15.8701500926977
 30
0.0
 10
14.0286417809839
 20
-15.9773756200497
 30
0.0
 10
14.135675817963
 20
-16.0410349444582
 30
0.0
 10
14.3497438919216
 20
-16.0795199033604
 30
0.0
  0
SPLINE
  5
280
330
23
100
AcDbEntity
  8
0
  6
Continuous
 62
     7
370
    25
100
AcDbSpline
210
0.0
220
0.0
230
1.0
 70
     8
 71
     3
 72
    10
 73
     6
 74
     0
 42
0.00000001
 43
0.00000001
 40
0.0
 40
0.0
 40
0.0
 40
0.0
 40
0.5
 40
0.5
 40
1.0
 40
1.0
 40
1.0
 40
1.0
 10
16.3677471583531
 20
-17.1263724511153
 30
0.0
 10
16.24095299147
 20
-17.0847924682906
 30
0.0
 10
16.1186871876899
 20
-17.0440523853865
 30
0.0
 10
15.8832123063356
 20
-16.9651730501151
 30
0.0
 10
15.7609465025555
 20
-16.9254056573841
 30
0.0
 10
15.6341523356724
 20
-16.8854566736093
 30
0.0
  0
SPLINE
  5
281
330
23
100
AcDbEntity
  8
0
  6
Continuous
 62
     7
370
    25
100
AcDbSpline
210
0.0
220
0.0
230
1.0
 70
     8
 71
     3
 72
    10
 73
     6
 74
     0
 42
0.00000001
 43
0.00000001
 40
0.0
 40
0.0
 40
0.0
 40
0.0
 40
0.5
 40
0.5
 40
1.0
 40
1.0
 40
1.0
 40
1.0
 10
15.6341523356724
 20
-16.8854566736093
 30
0.0
 10
15.3789173244142
 20
-16.80498800629149
 30
0.0
 10
15.1747293154077
 20
-16.7461860823308
 30
0.0
 10
14.8684473018979
 20
-16.683329120713
 30
0.0
 10
14.710366262667
 20
-16.6671555452963
 30
0.0
 10
14.5473451909602
 20
-16.6671555452963
 30
0.0
  0
SPLINE
  5
282
330
23
100
AcDbEntity
  8
0
  6
Continuous
 62
     7
370
    25
100
AcDbSpline
210
0.0
220
0.0
230
1.0
 70
     8
 71
     3
 72
     8
 73
     4
 74
     0
 42
0.00000001
 43
0.00000001
 40
0.0
 40
0.0
 40
0.0
 40
0.0
 40
1.0
 40
1.0
 40
1.0
 40
1.0
 10
14.5473451909602
 20
-16.6671555452963
 30
0.0
 10
14.3760907317934
 20
-16.6671555452963
 30
0.0
 10
14.2468265486723
 20
-16.6881525395452
 30
0.0
 10
14.1644926740729
 20
-16.7234923122024
 30
0.0
  0
SPLINE
  5
283
330
23
100
AcDbEntity
  8
0
  6
Continuous
 62
     7
370
    25
100
AcDbSpline
210
0.0
220
0.0
230
1.0
 70
     8
 71
     3
 72
     8
 73
     4
 74
     0
 42
0.00000001
 43
0.00000001
 40
0.0
 40
0.0
 40
0.0
 40
0.0
 40
1.0
 40
1.0
 40
1.0
 40
1.0
 10
14.1644926740729
 20
-16.7234923122024
 30
0.0
 10
14.0821587994735
 20
-16.7588320848594
 30
0.0
 10
14.0409918621738
 20
-16.8047724667321
 30
0.0
 10
14.0409918621738
 20
-16.8579003794119
 30
0.0
  0
SPLINE
  5
284
330
23
100
AcDbEntity
  8
0
  6
Continuous
 62
     7
370
    25
100
AcDbSpline
210
0.0
220
0.0
230
1.0
 70
     8
 71
     3
 72
     8
 73
     4
 74
     0
 42
0.00000001
 43
0.00000001
 40
0.0
 40
0.0
 40
0.0
 40
0.0
 40
1.0
 40
1.0
 40
1.0
 40
1.0
 10
14.0409918621738
 20
-16.8579003794119
 30
0.0
 10
14.0409918621738
 20
-16.9087183828447
 30
0.0
 10
14.0813354607275
 20
-16.960310117489
 30
0.0
 10
14.1373224954551
 20
-17.0046130781356
 30
0.0
  0
SPLINE
  5
285
330
23
100
AcDbEntity
  8
0
  6
Continuous
 62
     7
370
    25
100
AcDbSpline
210
0.0
220
0.0
230
1.0
 70
     8
 71
     3
 72
    10
 73
     6
 74
     0
 42
0.00000001
 43
0.00000001
 40
0.0
 40
0.0
 40
0.0
 40
0.0
 40
0.5
 40
0.5
 40
1.0
 40
1.0
 40
1.0
 40
1.0
 10
14.1373224954551
 20
-17.0046130781356
 30
0.0
 10
14.1603759803429
 20
-17.0235228784117
 30
0.0
 10
14.1883694977067
 20
-17.0414970297421
 30
0.0
 10
14.2542365973863
 20
-17.0756742205616
 30
0.0
 10
14.2822301147501
 20
-17.0892618582384
 30
0.0
 10
14.3052835996379
 20
-17.099553696548
 30
0.0
  0
SPLINE
  5
288
330
23
100
AcDbEntity
  8
0
  6
Continuous
 62
     7
370
    25
100
AcDbSpline
210
0.0
220
0.0
230
1.0
 70
     8
 71
     3
 72
    10
 73
     6
 74
     0
 42
0.00000001
 43
0.00000001
 40
0.0
 40
0.0
 40
0.0
 40
0.0
 40
0.5
 40
0.5
 40
1.0
 40
1.0
 40
1.0
 40
1.0
 10
13.870560741753
 20
-17.1064876451379
 30
0.0
 10
13.8293938044533
 20
-17.0803420056965
 30
0.0
 10
13.7886385365266
 20
-17.0433216773367
 30
0.0
 10
13.7079513394192
 20
-16.94395268091709
 30
0.0
 10
13.6877795401423
 20
-16.8950442512116
 30
0.0
 10
13.6877795401423
 20
-16.8474829370108
 30
0.0
  0
SPLINE
  5
289
330
23
100
AcDbEntity
  8
0
  6
Continuous
 62
     7
370
    25
100
AcDbSpline
210
0.0
220
0.0
230
1.0
 70
     8
 71
     3
 72
    10
 73
     6
 74
     0
 42
0.00000001
 43
0.00000001
 40
0.0
 40
0.0
 40
0.0
 40
0.0
 40
0.5
 40
0.5
 40
1.0
 40
1.0
 40
1.0
 40
1.0
 10
13.6877795401423
 20
-16.8474829370108
 30
0.0
 10
13.6877795401423
 20
-16.7471401643676
 30
0.0
 10
13.7631150354008
 20
-16.6626592777787
 30
0.0
 10
14.0644570164346
 20
-16.5384139543192
 30
0.0
 10
14.2682333560682
 20
-16.505973673705
 30
0.0
 10
14.5251150448183
 20
-16.505973673705
 30
0.0
  0
SPLINE
  5
28A
330
23
100
AcDbEntity
  8
0
  6
Continuous
 62
     7
370
    25
100
AcDbSpline
210
0.0
220
0.0
230
1.0
 70
     8
 71
     3
 72
     8
 73
     4
 74
     0
 42
0.00000001
 43
0.00000001
 40
0.0
 40
0.0
 40
0.0
 40
0.0
 40
1.0
 40
1.0
 40
1.0
 40
1.0
 10
14.5251150448183
 20
-16.505973673705
 30
0.0
 10
14.7655299586487
 20
-16.505973673705
 30
0.0
 10
14.9639545964333
 20
-16.5297881552551
 30
0.0
 10
15.1352090555999
 20
-16.5684153754159
 30
0.0
  0
SPLINE
  5
28B
330
23
100
AcDbEntity
  8
0
  6
Continuous
 62
     7
370
    25
100
AcDbSpline
210
0.0
220
0.0
230
1.0
 70
     8
 71
     3
 72
     8
 73
     4
 74
     0
 42
0.00000001
 43
0.00000001
 40
0.0
 40
0.0
 40
0.0
 40
0.0
 40
1.0
 40
1.0
 40
1.0
 40
1.0
 10
15.1352090555999
 20
-16.5684153754159
 30
0.0
 10
15.3130502247347
 20
-16.6070425955767
 30
0.0
 10
15.4884213776314
 20
-16.6649988953906
 30
0.0
 10
15.6563824818142
 20
-16.7234923122024
 30
0.0
  0
SPLINE
  5
28C
330
23
100
AcDbEntity
  8
0
  6
Continuous
 62
     7
370
    25
100
AcDbSpline
210
0.0
220
0.0
230
1.0
 70
     8
 71
     3
 72
    10
 73
     6
 74
     0
 42
0.00000001
 43
0.00000001
 40
0.0
 40
0.0
 40
0.0
 40
0.0
 40
0.5
 40
0.5
 40
1.0
 40
1.0
 40
1.0
 40
1.0
 10
15.6563824818142
 20
-16.7234923122024
 30
0.0
 10
15.79635006863319
 20
-16.7710182133619
 30
0.0
 10
15.94125768792821
 20
-16.8226203085354
 30
0.0
 10
16.24095299147
 20
-16.9319869277788
 30
0.0
 10
16.3595137708932
 20
-16.9738171176861
 30
0.0
 10
16.4467876779685
 20
-17.0046130781356
 30
0.0
  0
SPLINE
  5
296
330
23
100
AcDbEntity
  8
0
  6
Continuous
 62
     7
370
    25
100
AcDbSpline
210
0.0
220
0.0
230
1.0
 70
     8
 71
     3
 72
     8
 73
     4
 74
     0
 42
0.00000001
 43
0.00000001
 40
0.0
 40
0.0
 40
0.0
 40
0.0
 40
1.0
 40
1.0
 40
1.0
 40
1.0
 10
15.8317536347109
 20
-17.2566387719668
 30
0.0
 10
16.1248622282849
 20
-17.2566387719668
 30
0.0
 10
16.38092057828891
 20
-17.2850517486327
 30
0.0
 10
16.5653484573917
 20
-17.3313309279827
 30
0.0
  0
SPLINE
  5
297
330
23
100
AcDbEntity
  8
0
  6
Continuous
 62
     7
370
    25
100
AcDbSpline
210
0.0
220
0.0
230
1.0
 70
     8
 71
     3
 72
    10
 73
     6
 74
     0
 42
0.00000001
 43
0.00000001
 40
0.0
 40
0.0
 40
0.0
 40
0.0
 40
0.5
 40
0.5
 40
1.0
 40
1.0
 40
1.0
 40
1.0
 10
16.5653484573917
 20
-17.3313309279827
 30
0.0
 10
16.657562396943
 20
-17.3544705176577
 30
0.0
 10
16.73042787596351
 20
-17.3827249116949
 30
0.0
 10
16.8374619129428
 20
-17.4473269718108
 30
0.0
 10
16.8642204221875
 20
-17.48218717349861
 30
0.0
 10
16.8642204221875
 20
-17.5185426969846
 30
0.0
  0
SPLINE
  5
298
330
23
100
AcDbEntity
  8
0
  6
Continuous
 62
     7
370
    25
100
AcDbSpline
210
0.0
220
0.0
230
1.0
 70
     8
 71
     3
 72
    10
 73
     6
 74
     0
 42
0.00000001
 43
0.00000001
 40
0.0
 40
0.0
 40
0.0
 40
0.0
 40
0.5
 40
0.5
 40
1.0
 40
1.0
 40
1.0
 40
1.0
 10
16.8642204221875
 20
-17.5185426969846
 30
0.0
 10
16.8642204221875
 20
-17.55186859351349
 30
0.0
 10
16.8481653166406
 20
-17.5831160951497
 30
0.0
 10
16.7839448944531
 20
-17.6416429930199
 30
0.0
 10
16.74236628778041
 20
-17.6653981069797
 30
0.0
 10
16.6913192855288
 20
-17.6847593359656
 30
0.0
  0
SPLINE
  5
29B
330
23
100
AcDbEntity
  8
0
  6
Continuous
 62
     7
370
    25
100
AcDbSpline
210
0.0
220
0.0
230
1.0
 70
     8
 71
     3
 72
     8
 73
     4
 74
     0
 42
0.00000001
 43
0.00000001
 40
0.0
 40
0.0
 40
0.0
 40
0.0
 40
1.0
 40
1.0
 40
1.0
 40
1.0
 10
16.2590664438819
 20
-17.6792035822347
 30
0.0
 10
16.3051734136575
 20
-17.66742416228229
 30
0.0
 10
16.3693938358451
 20
-17.6436133850484
 30
0.0
 10
16.4220875155887
 20
-17.614420784446
 30
0.0
  0
SPLINE
  5
29C
330
23
100
AcDbEntity
  8
0
  6
Continuous
 62
     7
370
    25
100
AcDbSpline
210
0.0
220
0.0
230
1.0
 70
     8
 71
     3
 72
    10
 73
     6
 74
     0
 42
0.00000001
 43
0.00000001
 40
0.0
 40
0.0
 40
0.0
 40
0.0
 40
0.5
 40
0.5
 40
1.0
 40
1.0
 40
1.0
 40
1.0
 10
16.4220875155887
 20
-17.614420784446
 30
0.0
 10
16.4500810329525
 20
-17.5977877910795
 30
0.0
 10
16.47189950972141
 20
-17.5820703094497
 30
0.0
 10
16.5031863820691
 20
-17.5529733772112
 30
0.0
 10
16.5110081001561
 20
-17.5361845651318
 30
0.0
 10
16.5110081001561
 20
-17.516837047421
 30
0.0
  0
SPLINE
  5
29D
330
23
100
AcDbEntity
  8
0
  6
Continuous
 62
     7
370
    25
100
AcDbSpline
210
0.0
220
0.0
230
1.0
 70
     8
 71
     3
 72
     8
 73
     4
 74
     0
 42
0.00000001
 43
0.00000001
 40
0.0
 40
0.0
 40
0.0
 40
0.0
 40
1.0
 40
1.0
 40
1.0
 40
1.0
 10
16.5110081001561
 20
-17.516837047421
 30
0.0
 10
16.5110081001561
 20
-17.4789007381844
 30
0.0
 10
16.4541977266824
 20
-17.4387823862199
 30
0.0
 10
16.3257568823074
 20
-17.4103320239133
 30
0.0
  0
SPLINE
  5
29E
330
23
100
AcDbEntity
  8
0
  6
Continuous
 62
     7
370
    25
100
AcDbSpline
210
0.0
220
0.0
230
1.0
 70
     8
 71
     3
 72
     8
 73
     4
 74
     0
 42
0.00000001
 43
0.00000001
 40
0.0
 40
0.0
 40
0.0
 40
0.0
 40
1.0
 40
1.0
 40
1.0
 40
1.0
 10
16.3257568823074
 20
-17.4103320239133
 30
0.0
 10
16.20390274790019
 20
-17.3843919876925
 30
0.0
 10
16.0466450474154
 20
-17.3701442865395
 30
0.0
 10
15.829283618473
 20
-17.3701442865395
 30
0.0
  0
SPLINE
  5
29F
330
23
100
AcDbEntity
  8
0
  6
Continuous
 62
     7
370
    25
100
AcDbSpline
210
0.0
220
0.0
230
1.0
 70
     8
 71
     3
 72
     8
 73
     4
 74
     0
 42
0.00000001
 43
0.00000001
 40
0.0
 40
0.0
 40
0.0
 40
0.0
 40
1.0
 40
1.0
 40
1.0
 40
1.0
 10
15.829283618473
 20
-17.3701442865395
 30
0.0
 10
15.61192218953039
 20
-17.3701442865395
 30
0.0
 10
15.4818346676635
 20
-17.3863707471092
 30
0.0
 10
15.3896207281121
 20
-17.4147170618138
 30
0.0
  0
SPLINE
  5
2A0
330
23
100
AcDbEntity
  8
0
  6
Continuous
 62
     7
370
    25
100
AcDbSpline
210
0.0
220
0.0
230
1.0
 70
     8
 71
     3
 72
     8
 73
     4
 74
     0
 42
0.00000001
 43
0.00000001
 40
0.0
 40
0.0
 40
0.0
 40
0.0
 40
1.0
 40
1.0
 40
1.0
 40
1.0
 10
15.3896207281121
 20
-17.4147170618138
 30
0.0
 10
15.2875267236089
 20
-17.4438970916568
 30
0.0
 10
15.2488298025471
 20
-17.4873784849989
 30
0.0
 10
15.2488298025471
 20
-17.5343188875871
 30
0.0
  0
SPLINE
  5
2A1
330
23
100
AcDbEntity
  8
0
  6
Continuous
 62
     7
370
    25
100
AcDbSpline
210
0.0
220
0.0
230
1.0
 70
     8
 71
     3
 72
    10
 73
     6
 74
     0
 42
0.00000001
 43
0.00000001
 40
0.0
 40
0.0
 40
0.0
 40
0.0
 40
0.5
 40
0.5
 40
1.0
 40
1.0
 40
1.0
 40
1.0
 10
15.2488298025471
 20
-17.5343188875871
 30
0.0
 10
15.2488298025471
 20
-17.5596518032695
 30
0.0
 10
15.2574748593801
 20
-17.5838782349537
 30
0.0
 10
15.2920550867118
 20
-17.6301224875807
 30
0.0
 10
15.3081101922587
 20
-17.6477523251443
 30
0.0
 10
15.3229302896866
 20
-17.6608163898739
 30
0.0
  0
SPLINE
  5
2A7
330
23
100
AcDbEntity
  8
0
  6
Continuous
 62
     7
370
    25
100
AcDbSpline
210
0.0
220
0.0
230
1.0
 70
     8
 71
     3
 72
     8
 73
     4
 74
     0
 42
0.00000001
 43
0.00000001
 40
0.0
 40
0.0
 40
0.0
 40
0.0
 40
1.0
 40
1.0
 40
1.0
 40
1.0
 10
14.9227876591335
 20
-17.5806242856706
 30
0.0
 10
14.9096142391975
 20
-17.5593958012942
 30
0.0
 10
14.9054975454676
 20
-17.5372777925932
 30
0.0
 10
14.9054975454676
 20
-17.5191105870986
 30
0.0
  0
SPLINE
  5
2A8
330
23
100
AcDbEntity
  8
0
  6
Continuous
 62
     7
370
    25
100
AcDbSpline
210
0.0
220
0.0
230
1.0
 70
     8
 71
     3
 72
    10
 73
     6
 74
     0
 42
0.00000001
 43
0.00000001
 40
0.0
 40
0.0
 40
0.0
 40
0.0
 40
0.5
 40
0.5
 40
1.0
 40
1.0
 40
1.0
 40
1.0
 10
14.9054975454676
 20
-17.5191105870986
 30
0.0
 10
14.9054975454676
 20
-17.4831546595572
 30
0.0
 10
14.9182592960305
 20
-17.4508336688787
 30
0.0
 10
14.9693062982821
 20
-17.39665804090219
 30
0.0
 10
15.0199416311608
 20
-17.3697573054548
 30
0.0
 10
15.0956887957922
 20
-17.3432928336857
 30
0.0
  0
SPLINE
  5
2A9
330
23
100
AcDbEntity
  8
0
  6
Continuous
 62
     7
370
    25
100
AcDbSpline
210
0.0
220
0.0
230
1.0
 70
     8
 71
     3
 72
    10
 73
     6
 74
     0
 42
0.00000001
 43
0.00000001
 40
0.0
 40
0.0
 40
0.0
 40
0.0
 40
0.5
 40
0.5
 40
1.0
 40
1.0
 40
1.0
 40
1.0
 10
15.0956887957922
 20
-17.3432928336857
 30
0.0
 10
15.1714359604237
 20
-17.3163872873871
 30
0.0
 10
15.266943254959
 20
-17.2948859851325
 30
0.0
 10
15.4974781038374
 20
-17.2644209354266
 30
0.0
 10
15.6473257556083
 20
-17.2566387719668
 30
0.0
 10
15.8317536347109
 20
-17.2566387719668
 30
0.0
  0
SPLINE
  5
2BF
330
23
100
AcDbEntity
  8
0
  6
Continuous
 62
     7
370
    25
100
AcDbSpline
210
0.0
220
0.0
230
1.0
 70
     8
 71
     3
 72
     8
 73
     4
 74
     0
 42
0.00000001
 43
0.00000001
 40
0.0
 40
0.0
 40
0.0
 40
0.0
 40
1.0
 40
1.0
 40
1.0
 40
1.0
 10
14.2089529663566
 20
-17.9424347082571
 30
0.0
 10
15.0726353109044
 20
-17.9778733647238
 30
0.0
 10
15.9363176554522
 20
-17.9972477181806
 30
0.0
 10
16.8
 20
-18.000505794801
 30
0.0
  0
SPLINE
  5
2C2
330
23
100
AcDbEntity
  8
0
  6
Continuous
 62
     7
370
    25
100
AcDbSpline
210
0.0
220
0.0
230
1.0
 70
     8
 71
     3
 72
     9
 73
     5
 74
     0
 42
0.00000001
 43
0.00000001
 40
0.0
 40
0.0
 40
0.0
 40
0.0
 40
0.4385539046946129
 40
0.9999999999999999
 40
0.9999999999999999
 40
0.9999999999999999
 40
0.9999999999999999
 10
16.21816638318614
 20
-17.99699161308099
 30
0.0
 10
15.91000559350136
 20
-17.99755823176162
 30
0.0
 10
15.20733076519407
 20
-17.99885024780472
 30
0.0
 10
14.50466260927404
 20
-17.97902848966893
 30
0.0
 10
14.1101523168373
 20
-17.9678996409615
 30
0.0
  0
LINE
  5
2C9
330
23
100
AcDbEntity
  8
0
  6
Continuous
 62
     7
370
    25
100
AcDbLine
 10
51.8
 20
3.5
 30
0.0
 11
48.8
 21
3.5
 31
0.0
  0
LINE
  5
2CA
330
23
100
AcDbEntity
  8
0
  6
Continuous
 62
     7
370
    25
100
AcDbLine
 10
48.8
 20
-3.5
 30
0.0
 11
51.8
 21
-3.5
 31
0.0
  0
LINE
  5
2CB
330
23
100
AcDbEntity
  8
0
  6
Continuous
 62
     7
370
    25
100
AcDbLine
 10
26.8
 20
18.0
 30
0.0
 11
0.0
 21
18.0
 31
0.0
  0
LINE
  5
2CC
330
23
100
AcDbEntity
  8
0
  6
Continuous
 62
     7
370
    25
100
AcDbLine
 10
16.8
 20
-18.0
 30
0.0
 11
26.8
 21
-18.0
 31
0.0
  0
LINE
  5
2CD
330
23
100
AcDbEntity
  8
0
  6
Continuous
 62
     7
370
    25
100
AcDbLine
 10
14.1101523168
 20
-18.0
 30
0.0
 11
15.7559204915
 21
-18.0
 31
0.0
  0
LINE
  5
2CE
330
23
100
AcDbEntity
  8
0
  6
Continuous
 62
     7
370
    25
100
AcDbLine
 10
0.0
 20
-18.0
 30
0.0
 11
13.7519999623
 21
-18.0
 31
0.0
  0
LINE
  5
2CF
330
23
100
AcDbEntity
  8
0
  6
Continuous
 62
     7
370
    25
100
AcDbLine
 10
44.2
 20
16.5
 30
0.0
 11
26.8
 21
16.5
 31
0.0
  0
LINE
  5
2D0
330
23
100
AcDbEntity
  8
0
  6
Continuous
 62
     7
370
    25
100
AcDbLine
 10
26.8
 20
-16.5
 30
0.0
 11
44.2
 21
-16.5
 31
0.0
  0
LINE
  5
2D1
330
23
100
AcDbEntity
  8
0
  6
Continuous
 62
     7
370
    25
100
AcDbLine
 10
-6.0
 20
1.0
 30
0.0
 11
0.0
 21
1.0
 31
0.0
  0
LINE
  5
2D2
330
23
100
AcDbEntity
  8
0
  6
Continuous
 62
     7
370
    25
100
AcDbLine
 10
0.0
 20
13.0
 30
0.0
 11
-6.0
 21
13.0
 31
0.0
  0
LINE
  5
2D3
330
23
100
AcDbEntity
  8
0
  6
Continuous
 62
     7
370
    25
100
AcDbLine
 10
-21.5
 20
4.0
 30
0.0
 11
-6.0
 21
4.0
 31
0.0
  0
LINE
  5
2D4
330
23
100
AcDbEntity
  8
0
  6
Continuous
 62
     7
370
    25
100
AcDbLine
 10
-6.0
 20
10.0
 30
0.0
 11
-9.5
 21
10.0
 31
0.0
  0
LINE
  5
2D5
330
23
100
AcDbEntity
  8
0
  6
Continuous
 62
     7
370
    25
100
AcDbLine
 10
16.2181663832
 20
-18.001
 30
0.0
 11
16.8
 21
-18.001
 31
0.0
  0
LINE
  5
2D6
330
23
100
AcDbEntity
  8
0
  6
Continuous
 62
     7
370
    25
100
AcDbLine
 10
13.7519999623
 20
-18.001
 30
0.0
 11
14.1101523168
 21
-18.001
 31
0.0
  0
LINE
  5
2D7
330
23
100
AcDbEntity
  8
0
  6
Continuous
 62
     7
370
    25
100
AcDbLine
 10
52.0
 20
0.0
 30
0.0
 11
48.8
 21
0.0
 31
0.0
  0
LINE
  5
2D8
330
23
100
AcDbEntity
  8
0
  6
Continuous
 62
     7
370
    25
100
AcDbLine
 10
52.0
 20
-3.3
 30
0.0
 11
52.0
 21
3.3
 31
0.0
  0
LINE
  5
2D9
330
23
100
AcDbEntity
  8
0
  6
Continuous
 62
     7
370
    25
100
AcDbLine
 10
46.0
 20
16.3783393542
 30
0.0
 11
48.8
 21
16.3783393542
 31
0.0
  0
LINE
  5
2DA
330
23
100
AcDbEntity
  8
0
  6
Continuous
 62
     7
370
    25
100
AcDbLine
 10
46.0
 20
2.0
 30
0.0
 11
48.8
 21
2.0
 31
0.0
  0
LINE
  5
2DB
330
23
100
AcDbEntity
  8
0
  6
Continuous
 62
     7
370
    25
100
AcDbLine
 10
46.0
 20
-2.0
 30
0.0
 11
48.8
 21
-2.0
 31
0.0
  0
LINE
  5
2DC
330
23
100
AcDbEntity
  8
0
  6
Continuous
 62
     7
370
    25
100
AcDbLine
 10
48.8
 20
16.3783393542
 30
0.0
 11
48.8
 21
-16.3783393542
 31
0.0
  0
LINE
  5
2DD
330
23
100
AcDbEntity
  8
0
  6
Continuous
 62
     7
370
    25
100
AcDbLine
 10
46.0
 20
-16.3783393542
 30
0.0
 11
48.8
 21
-16.3783393542
 31
0.0
  0
LINE
  5
2DE
330
23
100
AcDbEntity
  8
0
  6
Continuous
 62
     7
370
    25
100
AcDbLine
 10
46.0
 20
16.4829457319
 30
0.0
 11
46.0
 21
-16.4829457319
 31
0.0
  0
LINE
  5
2DF
330
23
100
AcDbEntity
  8
0
  6
Continuous
 62
     7
370
    25
100
AcDbLine
 10
54.3
 20
13.0
 30
0.0
 11
54.3
 21
12.7
 31
0.0
  0
LINE
  5
2E0
330
23
100
AcDbEntity
  8
0
  6
Continuous
 62
     7
370
    25
100
AcDbLine
 10
55.3
 20
12.7
 30
0.0
 11
55.3
 21
13.0
 31
0.0
  0
LINE
  5
2E1
330
23
100
AcDbEntity
  8
0
  6
Continuous
 62
     7
370
    25
100
AcDbLine
 10
48.8
 20
12.7
 30
0.0
 11
55.3
 21
12.7
 31
0.0
  0
LINE
  5
2E2
330
23
100
AcDbEntity
  8
0
  6
Continuous
 62
     7
370
    25
100
AcDbLine
 10
48.8
 20
13.0
 30
0.0
 11
55.3
 21
13.0
 31
0.0
  0
LINE
  5
2E3
330
23
100
AcDbEntity
  8
0
  6
Continuous
 62
     7
370
    25
100
AcDbLine
 10
54.3
 20
-12.7
 30
0.0
 11
54.3
 21
-13.0
 31
0.0
  0
LINE
  5
2E4
330
23
100
AcDbEntity
  8
0
  6
Continuous
 62
     7
370
    25
100
AcDbLine
 10
55.3
 20
-13.0
 30
0.0
 11
55.3
 21
-12.7
 31
0.0
  0
LINE
  5
2E5
330
23
100
AcDbEntity
  8
0
  6
Continuous
 62
     7
370
    25
100
AcDbLine
 10
48.8
 20
-12.7
 30
0.0
 11
55.3
 21
-12.7
 31
0.0
  0
LINE
  5
2E6
330
23
100
AcDbEntity
  8
0
  6
Continuous
 62
     7
370
    25
100
AcDbLine
 10
48.8
 20
-13.0
 30
0.0
 11
55.3
 21
-13.0
 31
0.0
  0
LINE
  5
2E7
330
23
100
AcDbEntity
  8
0
  6
Continuous
 62
     7
370
    25
100
AcDbLine
 10
0.0
 20
-18.0
 30
0.0
 11
0.0
 21
18.0
 31
0.0
  0
LINE
  5
2E8
330
23
100
AcDbEntity
  8
0
  6
Continuous
 62
     7
370
    25
100
AcDbLine
 10
26.8
 20
18.0
 30
0.0
 11
26.8
 21
-18.0
 31
0.0
  0
LINE
  5
2E9
330
23
100
AcDbEntity
  8
0
  6
Continuous
 62
     7
370
    25
100
AcDbLine
 10
16.446787678
 20
-16.454389627
 30
0.0
 11
16.8
 21
-16.454389627
 31
0.0
  0
LINE
  5
2EA
330
23
100
AcDbEntity
  8
0
  6
Continuous
 62
     7
370
    25
100
AcDbLine
 10
15.2809400136
 20
-17.7601422534
 30
0.0
 11
15.6514424493
 21
-17.7601422534
 31
0.0
  0
LINE
  5
2EB
330
23
100
AcDbEntity
  8
0
  6
Continuous
 62
     7
370
    25
100
AcDbLine
 10
13.7519999623
 20
-17.9414379617
 30
0.0
 11
14.2089529664
 21
-17.9414379617
 31
0.0
  0
LINE
  5
2EC
330
23
100
AcDbEntity
  8
0
  6
Continuous
 62
     7
370
    25
100
AcDbLine
 10
14.1101523168
 20
-17.5796476386
 30
0.0
 11
14.9227876591
 21
-17.5796476386
 31
0.0
  0
LINE
  5
2ED
330
23
100
AcDbEntity
  8
0
  6
Continuous
 62
     7
370
    25
100
AcDbLine
 10
13.7519999623
 20
-17.2605927801
 30
0.0
 11
14.1101523168
 21
-17.2605927801
 31
0.0
  0
LINE
  5
2EE
330
23
100
AcDbEntity
  8
0
  6
Continuous
 62
     7
370
    25
100
AcDbLine
 10
44.2
 20
16.4829457319
 30
0.0
 11
44.2
 21
16.5
 31
0.0
  0
LINE
  5
2EF
330
23
100
AcDbEntity
  8
0
  6
Continuous
 62
     7
370
    25
100
AcDbLine
 10
46.0
 20
16.4829457319
 30
0.0
 11
44.2
 21
16.4829457319
 31
0.0
  0
LINE
  5
2F0
330
23
100
AcDbEntity
  8
0
  6
Continuous
 62
     7
370
    25
100
AcDbLine
 10
44.2
 20
0.75
 30
0.0
 11
46.0
 21
0.75
 31
0.0
  0
LINE
  5
2F1
330
23
100
AcDbEntity
  8
0
  6
Continuous
 62
     7
370
    25
100
AcDbLine
 10
44.2
 20
-0.75
 30
0.0
 11
44.2
 21
0.75
 31
0.0
  0
LINE
  5
2F2
330
23
100
AcDbEntity
  8
0
  6
Continuous
 62
     7
370
    25
100
AcDbLine
 10
44.2
 20
0.0
 30
0.0
 11
26.8
 21
0.0
 31
0.0
  0
LINE
  5
2F3
330
23
100
AcDbEntity
  8
0
  6
Continuous
 62
     7
370
    25
100
AcDbLine
 10
46.0
 20
-0.75
 30
0.0
 11
44.2
 21
-0.75
 31
0.0
  0
LINE
  5
2F4
330
23
100
AcDbEntity
  8
0
  6
Continuous
 62
     7
370
    25
100
AcDbLine
 10
44.2
 20
-16.4829457319
 30
0.0
 11
46.0
 21
-16.4829457319
 31
0.0
  0
LINE
  5
2F5
330
23
100
AcDbEntity
  8
0
  6
Continuous
 62
     7
370
    25
100
AcDbLine
 10
44.2
 20
-16.5
 30
0.0
 11
44.2
 21
-16.4829457319
 31
0.0
  0
LINE
  5
2F6
330
23
100
AcDbEntity
  8
0
  6
Continuous
 62
     7
370
    25
100
AcDbLine
 10
16.8642204222
 20
-15.8701500927
 30
0.0
 11
16.8642204222
 21
-15.8710317677
 31
0.0
  0
LINE
  5
2F7
330
23
100
AcDbEntity
  8
0
  6
Continuous
 62
     7
370
    25
100
AcDbLine
 10
15.2759999812
 20
-15.3879792543
 30
0.0
 11
15.2759999812
 21
-15.3888341421
 31
0.0
  0
LINE
  5
2F8
330
23
100
AcDbEntity
  8
0
  6
Continuous
 62
     7
370
    25
100
AcDbLine
 10
13.6902495564
 20
-15.8701500927
 30
0.0
 11
13.6902495564
 21
-15.8710317677
 31
0.0
  0
LINE
  5
2F9
330
23
100
AcDbEntity
  8
0
  6
Continuous
 62
     7
370
    25
100
AcDbLine
 10
16.1973160379
 20
-16.080629895
 30
0.0
 11
16.1973160379
 21
-16.0815232633
 31
0.0
  0
LINE
  5
2FA
330
23
100
AcDbEntity
  8
0
  6
Continuous
 62
     7
370
    25
100
AcDbLine
 10
16.5258281976
 20
-15.8701500927
 30
0.0
 11
16.5258281976
 21
-15.8710317677
 31
0.0
  0
LINE
  5
2FB
330
23
100
AcDbEntity
  8
0
  6
Continuous
 62
     7
370
    25
100
AcDbLine
 10
14.3497438919
 20
-16.0795199034
 30
0.0
 11
14.3497438919
 21
-16.08041321
 31
0.0
  0
LINE
  5
2FC
330
23
100
AcDbEntity
  8
0
  6
Continuous
 62
     7
370
    25
100
AcDbLine
 10
14.028641781
 20
-15.8701500927
 30
0.0
 11
14.028641781
 21
-15.8710317677
 31
0.0
  0
LINE
  5
2FD
330
23
100
AcDbEntity
  8
0
  6
Continuous
 62
     7
370
    25
100
AcDbLine
 10
15.2784699974
 20
-16.1269758577
 30
0.0
 11
15.2784699974
 21
-16.1278718008
 31
0.0
  0
LINE
  5
2FE
330
23
100
AcDbEntity
  8
0
  6
Continuous
 62
     7
370
    25
100
AcDbLine
 10
16.8
 20
-16.454389627
 30
0.0
 11
16.8
 21
-17.1263724511
 31
0.0
  0
LINE
  5
2FF
330
23
100
AcDbEntity
  8
0
  6
Continuous
 62
     7
370
    25
100
AcDbLine
 10
16.446787678
 20
-16.4553037598
 30
0.0
 11
16.8
 21
-16.4553037598
 31
0.0
  0
LINE
  5
300
330
23
100
AcDbEntity
  8
0
  6
Continuous
 62
     7
370
    25
100
AcDbLine
 10
16.446787678
 20
-17.0046130781
 30
0.0
 11
16.446787678
 21
-16.454389627
 31
0.0
  0
LINE
  5
301
330
23
100
AcDbEntity
  8
0
  6
Continuous
 62
     7
370
    25
100
AcDbLine
 10
16.8
 20
-17.1263724511
 30
0.0
 11
16.3677471584
 21
-17.1263724511
 31
0.0
  0
LINE
  5
302
330
23
100
AcDbEntity
  8
0
  6
Continuous
 62
     7
370
    25
100
AcDbLine
 10
14.3052835996
 20
-17.0986037741
 30
0.0
 11
14.3052835996
 21
-17.1064876451
 31
0.0
  0
LINE
  5
303
330
23
100
AcDbEntity
  8
0
  6
Continuous
 62
     7
370
    25
100
AcDbLine
 10
14.3052835996
 20
-17.1064876451
 30
0.0
 11
13.8705607418
 21
-17.1064876451
 31
0.0
  0
LINE
  5
304
330
23
100
AcDbEntity
  8
0
  6
Continuous
 62
     7
370
    25
100
AcDbLine
 10
15.1352090556
 20
-16.567494959
 30
0.0
 11
15.1352090556
 21
-16.5684153754
 31
0.0
  0
LINE
  5
305
330
23
100
AcDbEntity
  8
0
  6
Continuous
 62
     7
370
    25
100
AcDbLine
 10
14.5251150448
 20
-16.5050567261
 30
0.0
 11
14.5251150448
 21
-16.5059736737
 31
0.0
  0
LINE
  5
306
330
23
100
AcDbEntity
  8
0
  6
Continuous
 62
     7
370
    25
100
AcDbLine
 10
13.6877795401
 20
-16.8465470177
 30
0.0
 11
13.6877795401
 21
-16.847482937
 31
0.0
  0
LINE
  5
307
330
23
100
AcDbEntity
  8
0
  6
Continuous
 62
     7
370
    25
100
AcDbLine
 10
15.6563824818
 20
-16.7225632809
 30
0.0
 11
15.6563824818
 21
-16.7234923122
 31
0.0
  0
LINE
  5
308
330
23
100
AcDbEntity
  8
0
  6
Continuous
 62
     7
370
    25
100
AcDbLine
 10
14.1373224955
 20
-17.0036684299
 30
0.0
 11
14.1373224955
 21
-17.0046130781
 31
0.0
  0
LINE
  5
309
330
23
100
AcDbEntity
  8
0
  6
Continuous
 62
     7
370
    25
100
AcDbLine
 10
14.0409918622
 20
-16.8569638814
 30
0.0
 11
14.0409918622
 21
-16.8579003794
 31
0.0
  0
LINE
  5
30A
330
23
100
AcDbEntity
  8
0
  6
Continuous
 62
     7
370
    25
100
AcDbLine
 10
-6.0
 20
1.0
 30
0.0
 11
-6.0
 21
13.0
 31
0.0
  0
LINE
  5
30B
330
23
100
AcDbEntity
  8
0
  6
Continuous
 62
     7
370
    25
100
AcDbLine
 10
16.6913192855
 20
-17.684759336
 30
0.0
 11
16.2590664439
 21
-17.684759336
 31
0.0
  0
LINE
  5
30C
330
23
100
AcDbEntity
  8
0
  6
Continuous
 62
     7
370
    25
100
AcDbLine
 10
16.2590664439
 20
-17.684759336
 30
0.0
 11
16.2590664439
 21
-17.6782214588
 31
0.0
  0
LINE
  5
30D
330
23
100
AcDbEntity
  8
0
  6
Continuous
 62
     7
370
    25
100
AcDbLine
 10
15.3229302897
 20
-17.6608163899
 30
0.0
 11
13.7519999623
 21
-17.6608163899
 31
0.0
  0
LINE
  5
30E
330
23
100
AcDbEntity
  8
0
  6
Continuous
 62
     7
370
    25
100
AcDbLine
 10
13.7519999623
 20
-17.6608163899
 30
0.0
 11
13.7519999623
 21
-17.2605927801
 31
0.0
  0
LINE
  5
30F
330
23
100
AcDbEntity
  8
0
  6
Continuous
 62
     7
370
    25
100
AcDbLine
 10
13.7519999623
 20
-17.261551702
 30
0.0
 11
14.1101523168
 21
-17.261551702
 31
0.0
  0
LINE
  5
310
330
23
100
AcDbEntity
  8
0
  6
Continuous
 62
     7
370
    25
100
AcDbLine
 10
14.1101523168
 20
-17.2605927801
 30
0.0
 11
14.1101523168
 21
-17.5806242857
 31
0.0
  0
LINE
  5
311
330
23
100
AcDbEntity
  8
0
  6
Continuous
 62
     7
370
    25
100
AcDbLine
 10
14.1101523168
 20
-17.5806242857
 30
0.0
 11
14.9227876591
 21
-17.5806242857
 31
0.0
  0
LINE
  5
312
330
23
100
AcDbEntity
  8
0
  6
Continuous
 62
     7
370
    25
100
AcDbLine
 10
16.5653484574
 20
-17.3303681298
 30
0.0
 11
16.5653484574
 21
-17.331330928
 31
0.0
  0
LINE
  5
313
330
23
100
AcDbEntity
  8
0
  6
Continuous
 62
     7
370
    25
100
AcDbLine
 10
15.8317536347
 20
-17.2556801231
 30
0.0
 11
15.8317536347
 21
-17.256638772
 31
0.0
  0
LINE
  5
314
330
23
100
AcDbEntity
  8
0
  6
Continuous
 62
     7
370
    25
100
AcDbLine
 10
15.0956887958
 20
-17.3423293709
 30
0.0
 11
15.0956887958
 21
-17.3432928337
 31
0.0
  0
LINE
  5
315
330
23
100
AcDbEntity
  8
0
  6
Continuous
 62
     7
370
    25
100
AcDbLine
 10
16.8642204222
 20
-17.5175694987
 30
0.0
 11
16.8642204222
 21
-17.518542697
 31
0.0
  0
LINE
  5
316
330
23
100
AcDbEntity
  8
0
  6
Continuous
 62
     7
370
    25
100
AcDbLine
 10
14.9054975455
 20
-17.5181373572
 30
0.0
 11
14.9054975455
 21
-17.5191105871
 31
0.0
  0
LINE
  5
317
330
23
100
AcDbEntity
  8
0
  6
Continuous
 62
     7
370
    25
100
AcDbLine
 10
16.4220875156
 20
-17.6134422599
 30
0.0
 11
16.4220875156
 21
-17.6144207844
 31
0.0
  0
LINE
  5
318
330
23
100
AcDbEntity
  8
0
  6
Continuous
 62
     7
370
    25
100
AcDbLine
 10
15.3229302897
 20
-17.6598352879
 30
0.0
 11
15.3229302897
 21
-17.6608163899
 31
0.0
  0
LINE
  5
319
330
23
100
AcDbEntity
  8
0
  6
Continuous
 62
     7
370
    25
100
AcDbLine
 10
15.2488298025
 20
-17.5333448129
 30
0.0
 11
15.2488298025
 21
-17.5343188876
 31
0.0
  0
LINE
  5
31A
330
23
100
AcDbEntity
  8
0
  6
Continuous
 62
     7
370
    25
100
AcDbLine
 10
-21.5
 20
4.0
 30
0.0
 11
-21.5
 21
9.75
 31
0.0
  0
LINE
  5
31B
330
23
100
AcDbEntity
  8
0
  6
Continuous
 62
     7
370
    25
100
AcDbLine
 10
-9.5
 20
9.75
 30
0.0
 11
-21.5
 21
9.75
 31
0.0
  0
LINE
  5
31C
330
23
100
AcDbEntity
  8
0
  6
Continuous
 62
     7
370
    25
100
AcDbLine
 10
-9.5
 20
10.0
 30
0.0
 11
-9.5
 21
9.75
 31
0.0
  0
LINE
  5
31D
330
23
100
AcDbEntity
  8
0
  6
Continuous
 62
     7
370
    25
100
AcDbLine
 10
15.6514424493
 20
-17.7601422534
 30
0.0
 11
15.6514424493
 21
-17.9122351282
 31
0.0
  0
LINE
  5
31E
330
23
100
AcDbEntity
  8
0
  6
Continuous
 62
     7
370
    25
100
AcDbLine
 10
15.6514424493
 20
-17.9122351282
 30
0.0
 11
15.2809400136
 21
-17.9122351282
 31
0.0
  0
LINE
  5
31F
330
23
100
AcDbEntity
  8
0
  6
Continuous
 62
     7
370
    25
100
AcDbLine
 10
15.2809400136
 20
-17.9122351282
 30
0.0
 11
15.2809400136
 21
-17.7601422534
 31
0.0
  0
LINE
  5
320
330
23
100
AcDbEntity
  8
0
  6
Continuous
 62
     7
370
    25
100
AcDbLine
 10
15.2809400136
 20
-17.761128928
 30
0.0
 11
15.6514424493
 21
-17.761128928
 31
0.0
  0
LINE
  5
321
330
23
100
AcDbEntity
  8
0
  6
Continuous
 62
     7
370
    25
100
AcDbLine
 10
16.8
 20
-17.9995058223
 30
0.0
 11
16.8
 21
-18.001
 31
0.0
  0
LINE
  5
322
330
23
100
AcDbEntity
  8
0
  6
Continuous
 62
     7
370
    25
100
AcDbLine
 10
14.2089529664
 20
-17.9414379617
 30
0.0
 11
14.2089529664
 21
-17.9424347083
 31
0.0
  0
LINE
  5
323
330
23
100
AcDbEntity
  8
0
  6
Continuous
 62
     7
370
    25
100
AcDbLine
 10
14.1101523168
 20
-17.967899641
 30
0.0
 11
14.1101523168
 21
-18.001
 31
0.0
  0
LINE
  5
324
330
23
100
AcDbEntity
  8
0
  6
Continuous
 62
     7
370
    25
100
AcDbLine
 10
13.7519999623
 20
-18.001
 30
0.0
 11
13.7519999623
 21
-17.9414379617
 31
0.0
  0
LINE
  5
325
330
23
100
AcDbEntity
  8
0
  6
Continuous
 62
     7
370
    25
100
AcDbLine
 10
13.7519999623
 20
-17.9424347083
 30
0.0
 11
14.2089529664
 21
-17.9424347083
 31
0.0
  0
LINE
  5
326
330
23
100
AcDbEntity
  8
0
  6
Continuous
 62
     7
370
    25
100
AcDbLine
 10
51.8
 20
3.5
 30
0.0
 11
51.8
 21
-3.5
 31
0.0
  0
ARC
  5
327
330
23
100
AcDbEntity
  8
0
  6
Continuous
 62
     7
370
    25
100
AcDbCircle
 10
51.8
 20
3.3
 30
0.0
 40
0.2000000000000028
100
AcDbArc
 50
0.0
 51
90.0
  0
ARC
  5
328
330
23
100
AcDbEntity
  8
0
  6
Continuous
 62
     7
370
    25
100
AcDbCircle
 10
51.8
 20
-3.3
 30
0.0
 40
0.1999999999999886
100
AcDbArc
 50
270.0
 51
0.0
  0
VIEWPORT
  5
32B
330
23
100
AcDbEntity
  8
0
100
AcDbViewport
 10
0.0
 20
0.0
 30
0.0
 40
205.6
 41
156.0
 68
     1
 69
     1
 12
0.0
 22
-0.0005
 13
0.0
 23
0.0
 14
10.0
 24
10.0
 15
10.0
 25
10.0
 16
0.0
 26
0.0
 36
1.0
 17
0.0
 27
0.0
 37
0.0
 42
50.0
 43
0.0
 44
0.0
 45
36.72102
 50
0.0
 51
0.0
 72
   100
 90
   557152
  1

281
     0
 71
     1
 74
     0
110
0.0
120
0.0
130
0.0
111
1.0
121
0.0
131
0.0
112
0.0
122
1.0
132
0.0
 79
     0
146
0.0
  0
MTEXT
  5
332
330
23
100
AcDbEntity
  8
0
  6
Continuous
 62
     7
100
AcDbMText
 10
-21.5
 20
-19.0205663917
 30
0.0
 40
4.83362
 41
0.0
 71
     1
 72
     1
  1
SOLIDWORKS Educational Product.
  7
SLDTEXTSTYLE0
 73
     1
 44
1.0
  0
MTEXT
  5
333
330
23
100
AcDbEntity
  8
0
  6
Continuous
 62
     7
100
AcDbMText
 10
-21.5
 20
-26.2709963917
 30
0.0
 40
4.83362
 41
0.0
 71
     1
 72
     1
  1
For Instructional Use Only.
  7
SLDTEXTSTYLE0
 73
     1
 44
1.0
  0
ENDBLK
  5
25
330
23
100
AcDbEntity
  8
0
100
AcDbBlockEnd
  0
ENDSEC
  0
SECTION
  2
ENTITIES
  0
CIRCLE
  5
67
330
1F
100
AcDbEntity
  8
0
  6
Continuous
 62
     7
370
    25
100
AcDbCircle
 10
0.0
 20
7.0
 30
0.0
 40
6.000000000000003
  0
CIRCLE
  5
68
330
1F
100
AcDbEntity
  8
0
  6
Continuous
 62
     7
370
    25
100
AcDbCircle
 10
7.75
 20
-13.4233937587
 30
0.0
 40
1.499999999999999
  0
CIRCLE
  5
6B
330
1F
100
AcDbEntity
  8
0
  6
Continuous
 62
     7
370
    25
100
AcDbCircle
 10
7.75
 20
13.4233937587
 30
0.0
 40
1.5
  0
CIRCLE
  5
6C
330
1F
100
AcDbEntity
  8
0
  6
Continuous
 62
     7
370
    25
100
AcDbCircle
 10
15.5
 20
0.0
 30
0.0
 40
1.5
  0
CIRCLE
  5
6D
330
1F
100
AcDbEntity
  8
0
  6
Continuous
 62
     7
370
    25
100
AcDbCircle
 10
0.0
 20
0.0
 30
0.0
 40
18.0
  0
CIRCLE
  5
6E
330
1F
100
AcDbEntity
  8
0
  6
Continuous
 62
     7
370
    25
100
AcDbCircle
 10
-15.5
 20
0.0
 30
0.0
 40
1.5
  0
CIRCLE
  5
6F
330
1F
100
AcDbEntity
  8
0
  6
Continuous
 62
     7
370
    25
100
AcDbCircle
 10
-7.75
 20
-13.4233937587
 30
0.0
 40
1.500000000000003
  0
CIRCLE
  5
70
330
1F
100
AcDbEntity
  8
0
  6
Continuous
 62
     7
370
    25
100
AcDbCircle
 10
-13.4233937587
 20
7.75
 30
0.0
 40
1.5
  0
CIRCLE
  5
71
330
1F
100
AcDbEntity
  8
0
  6
Continuous
 62
     7
370
    25
100
AcDbCircle
 10
0.0
 20
-15.5
 30
0.0
 40
1.500000000000006
  0
CIRCLE
  5
72
330
1F
100
AcDbEntity
  8
0
  6
Continuous
 62
     7
370
    25
100
AcDbCircle
 10
-7.75
 20
13.4233937587
 30
0.0
 40
1.500000000000004
  0
CIRCLE
  5
73
330
1F
100
AcDbEntity
  8
0
  6
Continuous
 62
     7
370
    25
100
AcDbCircle
 10
13.4233937587
 20
7.75
 30
0.0
 40
1.499999999999998
  0
SPLINE
  5
76
330
1F
100
AcDbEntity
  8
0
  6
Continuous
 62
     7
370
    25
100
AcDbSpline
210
0.0
220
0.0
230
1.0
 70
     8
 71
     3
 72
    10
 73
     6
 74
     0
 42
0.00000001
 43
0.00000001
 40
0.0
 40
0.0
 40
0.0
 40
0.0
 40
0.5
 40
0.5
 40
1.0
 40
1.0
 40
1.0
 40
1.0
 10
6.34021448273881
 20
-16.8474829370108
 30
0.0
 10
6.60684949241561
 20
-16.7471401643676
 30
0.0
 10
6.81299778007648
 20
-16.6626592777787
 30
0.0
 10
7.109090135734419
 20
-16.5384139543192
 30
0.0
 10
7.182536744281751
 20
-16.505973673705
 30
0.0
 10
7.182536744281751
 20
-16.505973673705
 30
0.0
  0
SPLINE
  5
78
330
1F
100
AcDbEntity
  8
0
  6
Continuous
 62
     7
370
    25
100
AcDbSpline
210
0.0
220
0.0
230
1.0
 70
     8
 71
     3
 72
    10
 73
     6
 74
     0
 42
0.00000001
 43
0.00000001
 40
0.0
 40
0.0
 40
0.0
 40
0.0
 40
0.5
 40
0.5
 40
1.0
 40
1.0
 40
1.0
 40
1.0
 10
5.60393446131778
 20
-17.1064876451379
 30
0.0
 10
5.683746254472409
 20
-17.0803420056965
 30
0.0
 10
5.795090928514831
 20
-17.0433216773367
 30
0.0
 10
6.07959855156856
 20
-16.94395268091709
 30
0.0
 10
6.21383257063767
 20
-16.8950442512116
 30
0.0
 10
6.34021448273881
 20
-16.8474829370108
 30
0.0
  0
SPLINE
  5
7A
330
1F
100
AcDbEntity
  8
0
  6
Continuous
 62
     7
370
    25
100
AcDbSpline
210
0.0
220
0.0
230
1.0
 70
     8
 71
     3
 72
    10
 73
     6
 74
     0
 42
0.00000001
 43
0.00000001
 40
0.0
 40
0.0
 40
0.0
 40
0.0
 40
0.5
 40
0.5
 40
1.0
 40
1.0
 40
1.0
 40
1.0
 10
-2.67999636560808
 20
-17.8003825936503
 30
0.0
 10
-2.59206189751085
 20
-17.8136218627318
 30
0.0
 10
-2.47268746815326
 20
-17.8309923313836
 30
0.0
 10
-2.170580485602021
 20
-17.8703131927922
 30
0.0
 10
-2.027037008569061
 20
-17.887028928448
 30
0.0
 10
-1.89111153768467
 20
-17.9013881627106
 30
0.0
  0
SPLINE
  5
7D
330
1F
100
AcDbEntity
  8
0
  6
Continuous
 62
     7
370
    25
100
AcDbSpline
210
0.0
220
0.0
230
1.0
 70
     8
 71
     3
 72
     8
 73
     4
 74
     0
 42
0.00000001
 43
0.00000001
 40
0.0
 40
0.0
 40
0.0
 40
0.0
 40
1.0
 40
1.0
 40
1.0
 40
1.0
 10
-1.89111153768467
 20
-17.9013881627106
 30
0.0
 10
-1.61598528336447
 20
-17.9304526368808
 30
0.0
 10
-1.41892167862583
 20
-17.9457760026441
 30
0.0
 10
-1.25135759123279
 20
-17.9574526361303
 30
0.0
  0
SPLINE
  5
80
330
1F
100
AcDbEntity
  8
0
  6
Continuous
 62
     7
370
    25
100
AcDbSpline
210
0.0
220
0.0
230
1.0
 70
     8
 71
     3
 72
    10
 73
     6
 74
     0
 42
0.00000001
 43
0.00000001
 40
0.0
 40
0.0
 40
0.0
 40
0.0
 40
0.5
 40
0.5
 40
1.0
 40
1.0
 40
1.0
 40
1.0
 10
8.49390084876002
 20
-15.8710317677029
 30
0.0
 10
8.788639602630063
 20
-15.7132927001803
 30
0.0
 10
9.0011527174447
 20
-15.5896214568306
 30
0.0
 10
9.27215763254221
 20
-15.4300333233147
 30
0.0
 10
9.339153320722051
 20
-15.388834142067
 30
0.0
 10
9.33915332072205
 20
-15.388834142067
 30
0.0
  0
SPLINE
  5
82
330
1F
100
AcDbEntity
  8
0
  6
Continuous
 62
     7
370
    25
100
AcDbSpline
210
0.0
220
0.0
230
1.0
 70
     8
 71
     3
 72
    10
 73
     6
 74
     0
 42
0.00000001
 43
0.00000001
 40
0.0
 40
0.0
 40
0.0
 40
0.0
 40
0.5
 40
0.5
 40
1.0
 40
1.0
 40
1.0
 40
1.0
 10
7.62158796131505
 20
-16.3078937311946
 30
0.0
 10
7.62158796131505
 20
-16.30789373119459
 30
0.0
 10
7.693782953910532
 20
-16.27466931815381
 30
0.0
 10
7.979866211656328
 20
-16.1362809803435
 30
0.0
 10
8.20061400993368
 20
-16.02799379548399
 30
0.0
 10
8.49390084876002
 20
-15.8710317677029
 30
0.0
  0
SPLINE
  5
86
330
1F
100
AcDbEntity
  8
0
  6
Continuous
 62
     7
370
    25
100
AcDbSpline
210
0.0
220
0.0
230
1.0
 70
     8
 71
     3
 72
     8
 73
     4
 74
     0
 42
0.00000001
 43
0.00000001
 40
0.0
 40
0.0
 40
0.0
 40
0.0
 40
1.0
 40
1.0
 40
1.0
 40
1.0
 10
-6.501749835398781
 20
-16.7858050172725
 30
0.0
 10
-6.308264184250858
 20
-16.8607490130601
 30
0.0
 10
-6.132715140365191
 20
-16.9249855939581
 30
0.0
 10
-5.97114801399961
 20
-16.9817959119437
 30
0.0
  0
SPLINE
  5
8B
330
1F
100
AcDbEntity
  8
0
  6
Continuous
 62
     7
370
    25
100
AcDbSpline
210
0.0
220
0.0
230
1.0
 70
     8
 71
     3
 72
    10
 73
     6
 74
     0
 42
0.00000001
 43
0.00000001
 40
0.0
 40
0.0
 40
0.0
 40
0.0
 40
0.5
 40
0.5
 40
1.0
 40
1.0
 40
1.0
 40
1.0
 10
-4.283740043606221
 20
-17.4838660552752
 30
0.0
 10
-4.072611259761059
 20
-17.535594936225
 30
0.0
 10
-3.913387296986131
 20
-17.5707429374518
 30
0.0
 10
-3.700958012946419
 20
-17.6168028356783
 30
0.0
 10
-3.599342995030201
 20
-17.6377576141958
 30
0.0
 10
-3.50242514468249
 20
-17.6569821630395
 30
0.0
  0
SPLINE
  5
96
330
1F
100
AcDbEntity
  8
0
  6
Continuous
 62
     7
370
    25
100
AcDbSpline
210
0.0
220
0.0
230
1.0
 70
     8
 71
     3
 72
    10
 73
     6
 74
     0
 42
0.00000001
 43
0.00000001
 40
0.0
 40
0.0
 40
0.0
 40
0.0
 40
0.5
 40
0.5
 40
1.0
 40
1.0
 40
1.0
 40
1.0
 10
-5.97114801399961
 20
-16.9817959119437
 30
0.0
 10
-5.90589975142889
 20
-17.00473854036101
 30
0.0
 10
-5.833530041954062
 20
-17.029769109814
 30
0.0
 10
-5.67436920281208
 20
-17.08345411619409
 30
0.0
 10
-5.610216102578571
 20
-17.1045047390548
 30
0.0
 10
-5.56166394511314
 20
-17.1202773097175
 30
0.0
  0
SPLINE
  5
98
330
1F
100
AcDbEntity
  8
0
  6
Continuous
 62
     7
370
    25
100
AcDbSpline
210
0.0
220
0.0
230
1.0
 70
     8
 71
     3
 72
     8
 73
     4
 74
     0
 42
0.00000001
 43
0.00000001
 40
0.0
 40
0.0
 40
0.0
 40
0.0
 40
1.0
 40
1.0
 40
1.0
 40
1.0
 10
-1.25135759123279
 20
-17.9574526361303
 30
0.0
 10
-1.07393679281663
 20
-17.9698161304099
 30
0.0
 10
-0.980165776017504
 20
-17.9742948693829
 30
0.0
 10
-0.980165776017504
 20
-17.9742948693829
 30
0.0
  0
SPLINE
  5
9A
330
1F
100
AcDbEntity
  8
0
  6
Continuous
 62
     7
370
    25
100
AcDbSpline
210
0.0
220
0.0
230
1.0
 70
     8
 71
     3
 72
     8
 73
     4
 74
     0
 42
0.00000001
 43
0.00000001
 40
0.0
 40
0.0
 40
0.0
 40
0.0
 40
1.0
 40
1.0
 40
1.0
 40
1.0
 10
-3.50242514468249
 20
-17.6569821630395
 30
0.0
 10
-3.28597527890593
 20
-17.69991698879051
 30
0.0
 10
-3.1917637109583
 20
-17.7157739151698
 30
0.0
 10
-3.1917637109583
 20
-17.7157739151698
 30
0.0
  0
SPLINE
  5
9C
330
1F
100
AcDbEntity
  8
0
  6
Continuous
 62
     7
370
    25
100
AcDbSpline
210
0.0
220
0.0
230
1.0
 70
     8
 71
     3
 72
     8
 73
     4
 74
     0
 42
0.00000001
 43
0.00000001
 40
0.0
 40
0.0
 40
0.0
 40
0.0
 40
1.0
 40
1.0
 40
1.0
 40
1.0
 10
-7.83352715924766
 20
-16.2071543845713
 30
0.0
 10
-7.83352715924766
 20
-16.2071543845713
 30
0.0
 10
-7.70505738084865
 20
-16.2706511022784
 30
0.0
 10
-7.47133391828123
 20
-16.3772760397308
 30
0.0
  0
SPLINE
  5
9E
330
1F
100
AcDbEntity
  8
0
  6
Continuous
 62
     7
370
    25
100
AcDbSpline
210
0.0
220
0.0
230
1.0
 70
     8
 71
     3
 72
    11
 73
     7
 74
     0
 42
0.00000001
 43
0.00000001
 40
0.0
 40
0.0
 40
0.0
 40
0.0
 40
0.0104942639072098
 40
0.3207937379801621
 40
0.6448197988386875
 40
1.0
 40
1.0
 40
1.0
 40
1.0
 10
-1.493751267667804
 20
-17.938910916963
 30
0.0
 10
-1.492915071613014
 20
-17.93898223670241
 30
0.0
 10
-1.467353825919909
 20
-17.94116237301297
 30
0.0
 10
-1.434321112202735
 20
-17.94375493097938
 30
0.0
 10
-1.399240428348802
 20
-17.94654675135119
 30
0.0
 10
-1.39595619627867
 20
-17.94679479639974
 30
0.0
 10
-1.394238758921922
 20
-17.9469245076453
 30
0.0
  0
SPLINE
  5
9F
330
1F
100
AcDbEntity
  8
0
  6
Continuous
 62
     7
370
    25
100
AcDbSpline
210
0.0
220
0.0
230
1.0
 70
     8
 71
     3
 72
     9
 73
     5
 74
     0
 42
0.00000001
 43
0.00000001
 40
0.0
 40
0.0
 40
0.0
 40
0.0
 40
0.4270840614692088
 40
1.0
 40
1.0
 40
1.0
 40
1.0
 10
6.707052021376396
 20
-16.70477827044273
 30
0.0
 10
6.731200687788833
 20
-16.69505638459204
 30
0.0
 10
6.787743810305188
 20
-16.67229298336076
 30
0.0
 10
6.79562591081433
 20
-16.66902679605945
 30
0.0
 10
6.80014169182512
 20
-16.6671555452963
 30
0.0
  0
SPLINE
  5
A4
330
1F
100
AcDbEntity
  8
0
  6
Continuous
 62
     7
370
    25
100
AcDbSpline
210
0.0
220
0.0
230
1.0
 70
     8
 71
     3
 72
     9
 73
     5
 74
     0
 42
0.00000001
 43
0.00000001
 40
0.0
 40
0.0
 40
0.0
 40
0.0
 40
0.4632374086126362
 40
1.0
 40
1.0
 40
1.0
 40
1.0
 10
-3.191760492290465
 20
-17.71575605006545
 30
0.0
 10
-3.151431950958679
 20
-17.72291714316525
 30
0.0
 10
-3.064373909915387
 20
-17.73837594024569
 30
0.0
 10
-3.055453466543899
 20
-17.73983333441383
 30
0.0
 10
-3.050665306243495
 20
-17.7406156090842
 30
0.0
  0
SPLINE
  5
B5
330
1F
100
AcDbEntity
  8
0
  6
Continuous
 62
     7
370
    25
100
AcDbSpline
210
0.0
220
0.0
230
1.0
 70
     8
 71
     3
 72
     9
 73
     5
 74
     0
 42
0.00000001
 43
0.00000001
 40
0.0
 40
0.0
 40
0.0
 40
0.0
 40
0.6568549188104268
 40
1.0
 40
1.0
 40
1.0
 40
1.0
 10
-9.448723169400791
 20
-15.3218024875675
 30
0.0
 10
-9.381725213797557
 20
-15.36291515242621
 30
0.0
 10
-9.27972711089141
 20
-15.42550532824946
 30
0.0
 10
-9.17072806524233
 20
-15.4895203379512
 30
0.0
 10
-9.133325578873494
 20
-15.51148677365266
 30
0.0
  0
LINE
  5
BA
330
1F
100
AcDbEntity
  8
0
  6
Continuous
 62
     7
370
    25
100
AcDbLine
 10
1.1989578808
 20
9.75
 30
0.0
 11
-1.1989578808
 21
9.75
 31
0.0
  0
LINE
  5
BB
330
1F
100
AcDbEntity
  8
0
  6
Continuous
 62
     7
370
    25
100
AcDbLine
 10
7.1821377366
 20
-16.5050567261
 30
0.0
 11
7.1825367443
 21
-16.5059736737
 31
0.0
  0
LINE
  5
BC
330
1F
100
AcDbEntity
  8
0
  6
Continuous
 62
     7
370
    25
100
AcDbLine
 10
6.3398622682
 20
-16.8465470177
 30
0.0
 11
6.3402144827
 21
-16.847482937
 31
0.0
  0
LINE
  5
BD
330
1F
100
AcDbEntity
  8
0
  6
Continuous
 62
     7
370
    25
100
AcDbLine
 10
5.6036231489
 20
-17.1055373375
 30
0.0
 11
5.6039344613
 21
-17.1064876451
 31
0.0
  0
LINE
  5
BE
330
1F
100
AcDbEntity
  8
0
  6
Continuous
 62
     7
370
    25
100
AcDbLine
 10
-1.8910064818
 20
-17.9003936964
 30
0.0
 11
-1.8911115377
 21
-17.9013881627
 31
0.0
  0
LINE
  5
BF
330
1F
100
AcDbEntity
  8
0
  6
Continuous
 62
     7
370
    25
100
AcDbLine
 10
-2.6798474852
 20
-17.7993937384
 30
0.0
 11
-2.6799963656
 21
-17.8003825937
 31
0.0
  0
LINE
  5
C0
330
1F
100
AcDbEntity
  8
0
  6
Continuous
 62
     7
370
    25
100
AcDbLine
 10
-1.2512880752
 20
-17.9564550553
 30
0.0
 11
-1.2513575912
 21
-17.9574526361
 31
0.0
  0
LINE
  5
C1
330
1F
100
AcDbEntity
  8
0
  6
Continuous
 62
     7
370
    25
100
AcDbLine
 10
9.3386345077
 20
-15.3879792543
 30
0.0
 11
9.3391533207
 21
-15.3888341421
 31
0.0
  0
LINE
  5
C2
330
1F
100
AcDbEntity
  8
0
  6
Continuous
 62
     7
370
    25
100
AcDbLine
 10
8.4934289916
 20
-15.8701500927
 30
0.0
 11
8.4939008488
 21
-15.8710317677
 31
0.0
  0
LINE
  5
C3
330
1F
100
AcDbEntity
  8
0
  6
Continuous
 62
     7
370
    25
100
AcDbLine
 10
7.6211645633
 20
-16.3069877874
 30
0.0
 11
7.6215879613
 21
-16.3078937312
 31
0.0
  0
LINE
  5
C4
330
1F
100
AcDbEntity
  8
0
  6
Continuous
 62
     7
370
    25
100
AcDbLine
 10
-6.5013886471
 20
-16.7848725244
 30
0.0
 11
-6.5017498354
 21
-16.7858050173
 31
0.0
  0
LINE
  5
C5
330
1F
100
AcDbEntity
  8
0
  6
Continuous
 62
     7
370
    25
100
AcDbLine
 10
-7.4709188672
 20
-16.3763662416
 30
0.0
 11
-7.4713339183
 21
-16.3772760397
 31
0.0
  0
LINE
  5
C6
330
1F
100
AcDbEntity
  8
0
  6
Continuous
 62
     7
370
    25
100
AcDbLine
 10
-5.970816302
 20
-16.9808525312
 30
0.0
 11
-5.971148014
 21
-16.9817959119
 31
0.0
  0
LINE
  5
C7
330
1F
100
AcDbEntity
  8
0
  6
Continuous
 62
     7
370
    25
100
AcDbLine
 10
-4.2835020713
 20
-17.4828947833
 30
0.0
 11
-4.2837400436
 21
-17.4838660553
 31
0.0
  0
LINE
  5
C8
330
1F
100
AcDbEntity
  8
0
  6
Continuous
 62
     7
370
    25
100
AcDbLine
 10
-5.0634189436
 20
-17.2731522485
 30
0.0
 11
-5.0637002447
 21
-17.2741118681
 31
0.0
  0
LINE
  5
C9
330
1F
100
AcDbEntity
  8
0
  6
Continuous
 62
     7
370
    25
100
AcDbLine
 10
-3.5022305763
 20
-17.6560012741
 30
0.0
 11
-3.5024251447
 21
-17.656982163
 31
0.0
  0
LINE
  5
CA
330
1F
100
AcDbEntity
  8
0
  6
Continuous
 62
     7
370
    25
100
AcDbLine
 10
1.4507942192
 20
-17.9414379617
 30
0.0
 11
1.4508748188
 21
-17.9424347083
 31
0.0
  0
LINE
  5
CB
330
1F
100
AcDbEntity
  8
0
  6
Continuous
 62
     7
370
    25
100
AcDbLine
 10
-0.4815956077
 20
-17.9935562263
 30
0.0
 11
-0.481622363
 21
-17.9945558684
 31
0.0
  0
LINE
  5
CC
330
1F
100
AcDbEntity
  8
0
  6
Continuous
 62
     7
370
    25
100
AcDbLine
 10
5.1060686323
 20
-17.2605927801
 30
0.0
 11
5.1063523028
 21
-17.261551702
 31
0.0
  0
LINE
  5
CD
330
1F
100
AcDbEntity
  8
0
  6
Continuous
 62
     7
370
    25
100
AcDbLine
 10
3.482846193
 20
-17.6598352879
 30
0.0
 11
3.4830396844
 21
-17.6608163899
 31
0.0
  0
LINE
  5
CE
330
1F
100
AcDbEntity
  8
0
  6
Continuous
 62
     7
370
    25
100
AcDbLine
 10
-9.1329893267
 20
-15.5109157034
 30
0.0
 11
-9.133496715
 21
-15.5117774209
 31
0.0
  0
LINE
  5
CF
330
1F
100
AcDbEntity
  8
0
  6
Continuous
 62
     7
370
    25
100
AcDbLine
 10
-8.21338092
 20
-16.0168777814
 30
0.0
 11
-8.2138372189
 21
-16.0177676079
 31
0.0
  0
LINE
  5
D0
330
1F
100
AcDbEntity
  8
0
  6
Continuous
 62
     7
370
    25
100
AcDbLine
 10
-5.5613549809
 20
-17.119326236
 30
0.0
 11
-5.5616639451
 21
-17.1202773097
 31
0.0
  0
LINE
  5
D1
330
1F
100
AcDbEntity
  8
0
  6
Continuous
 62
     7
370
    25
100
AcDbLine
 10
-0.9801113254
 20
-17.9732963529
 30
0.0
 11
-0.980165776
 21
-17.9742948694
 31
0.0
  0
LINE
  5
D2
330
1F
100
AcDbEntity
  8
0
  6
Continuous
 62
     7
370
    25
100
AcDbLine
 10
-3.1915864006
 20
-17.7147897602
 30
0.0
 11
-3.191763711
 21
-17.7157739152
 31
0.0
  0
LINE
  5
D3
330
1F
100
AcDbEntity
  8
0
  6
Continuous
 62
     7
370
    25
100
AcDbLine
 10
-7.8330919875
 20
-16.2062540371
 30
0.0
 11
-7.8335271592
 21
-16.2071543846
 31
0.0
  0
LINE
  5
D4
330
1F
100
AcDbEntity
  8
0
  6
Continuous
 62
     7
370
    25
100
AcDbLine
 10
-2.0114356173
 20
-17.8882678803
 30
0.0
 11
-1.9309366485
 21
-17.8967564352
 31
0.0
  0
LINE
  5
D5
330
1F
100
AcDbEntity
  8
0
  6
Continuous
 62
     7
370
    25
100
AcDbLine
 10
-2.1463846693
 20
-17.8725777058
 30
0.0
 11
-2.0114356173
 21
-17.8882678803
 31
0.0
  0
LINE
  5
D6
330
1F
100
AcDbEntity
  8
0
  6
Continuous
 62
     7
370
    25
100
AcDbLine
 10
5.1226461414
 20
-17.2556801231
 30
0.0
 11
5.1229307329
 21
-17.256638772
 31
0.0
  0
LINE
  5
D7
330
1F
100
AcDbEntity
  8
0
  6
Continuous
 62
     7
370
    25
100
AcDbLine
 10
-3.0504958343
 20
-17.7396300741
 30
0.0
 11
-3.0506653062
 21
-17.7406156091
 31
0.0
  0
LINE
  5
D8
330
1F
100
AcDbEntity
  8
0
  6
Continuous
 62
     7
370
    25
100
AcDbLine
 10
-3.6113902579
 20
-17.6350180438
 30
0.0
 11
-3.5452933501
 21
-17.6480930103
 31
0.0
  0
LINE
  5
D9
330
1F
100
AcDbEntity
  8
0
  6
Continuous
 62
     7
370
    25
100
AcDbLine
 10
-5.5496078357
 20
-17.1231379388
 30
0.0
 11
-5.5499161472
 21
-17.1240892242
 31
0.0
  0
LINE
  5
DA
330
1F
100
AcDbEntity
  8
0
  6
Continuous
 62
     7
370
    25
100
AcDbLine
 10
-6.5911227497
 20
-16.749838832
 30
0.0
 11
-6.5914889232
 21
-16.7507693786
 31
0.0
  0
LINE
  5
DB
330
1F
100
AcDbEntity
  8
0
  6
Continuous
 62
     7
370
    25
100
AcDbLine
 10
1.7853513768
 20
-17.9112400593
 30
0.0
 11
1.7854505629
 21
-17.9122351282
 31
0.0
  0
LINE
  5
DC
330
1F
100
AcDbEntity
  8
0
  6
Continuous
 62
     7
370
    25
100
AcDbLine
 10
2.9287108324
 20
-17.7601422534
 30
0.0
 11
2.9288735385
 21
-17.761128928
 31
0.0
  0
LINE
  5
DD
330
1F
100
AcDbEntity
  8
0
  6
Continuous
 62
     7
370
    25
100
AcDbLine
 10
-0.920913672
 20
-17.9764267308
 30
0.0
 11
-0.9209648339
 21
-17.9774254212
 31
0.0
  0
LINE
  5
DE
330
1F
100
AcDbEntity
  8
0
  6
Continuous
 62
     7
370
    25
100
AcDbLine
 10
5.5425584564
 20
-17.1254210388
 30
0.0
 11
5.5428663763
 21
-17.1263724511
 31
0.0
  0
LINE
  5
DF
330
1F
100
AcDbEntity
  8
0
  6
Continuous
 62
     7
370
    25
100
AcDbLine
 10
-2.733569937
 20
-17.7912224257
 30
0.0
 11
-2.733721802
 21
-17.7922108269
 31
0.0
  0
LINE
  5
E0
330
1F
100
AcDbEntity
  8
0
  6
Continuous
 62
     7
370
    25
100
AcDbLine
 10
-2.7628626232
 20
-17.7866969988
 30
0.0
 11
-2.7630161156
 21
-17.7876851486
 31
0.0
  0
LINE
  5
E1
330
1F
100
AcDbEntity
  8
0
  6
Continuous
 62
     7
370
    25
100
AcDbLine
 10
-2.7630161156
 20
-17.7876851486
 30
0.0
 11
-2.733721802
 21
-17.7922108269
 31
0.0
  0
LINE
  5
E2
330
1F
100
AcDbEntity
  8
0
  6
Continuous
 62
     7
370
    25
100
AcDbLine
 10
3.3882865954
 20
-17.6782214588
 30
0.0
 11
3.3884748336
 21
-17.6792035822
 31
0.0
  0
LINE
  5
E3
330
1F
100
AcDbEntity
  8
0
  6
Continuous
 62
     7
370
    25
100
AcDbLine
 10
3.3884748336
 20
-17.6792035822
 30
0.0
 11
3.4863091801
 21
-17.6600122354
 31
0.0
  0
LINE
  5
E4
330
1F
100
AcDbEntity
  8
0
  6
Continuous
 62
     7
370
    25
100
AcDbLine
 10
3.3591716855
 20
-17.6837769039
 30
0.0
 11
3.3593583061
 21
-17.684759336
 31
0.0
  0
LINE
  5
E5
330
1F
100
AcDbEntity
  8
0
  6
Continuous
 62
     7
370
    25
100
AcDbLine
 10
3.3593583061
 20
-17.684759336
 30
0.0
 11
3.3884748336
 21
-17.6792035822
 31
0.0
  0
LINE
  5
E6
330
1F
100
AcDbEntity
  8
0
  6
Continuous
 62
     7
370
    25
100
AcDbLine
 10
-9.4481982695
 20
-15.3209513236
 30
0.0
 11
-9.4487231694
 21
-15.3218024876
 31
0.0
  0
LINE
  5
E7
330
1F
100
AcDbEntity
  8
0
  6
Continuous
 62
     7
370
    25
100
AcDbLine
 10
-9.4671125586
 20
-15.3092710409
 30
0.0
 11
-9.4676385093
 21
-15.310121556
 31
0.0
  0
LINE
  5
E8
330
1F
100
AcDbEntity
  8
0
  6
Continuous
 62
     7
370
    25
100
AcDbLine
 10
-9.4676385093
 20
-15.310121556
 30
0.0
 11
-9.4487231694
 21
-15.3218024876
 31
0.0
  0
LINE
  5
E9
330
1F
100
AcDbEntity
  8
0
  6
Continuous
 62
     7
370
    25
100
AcDbLine
 10
7.2974695616
 20
-16.454389627
 30
0.0
 11
7.2978749765
 21
-16.4553037598
 31
0.0
  0
ARC
  5
EA
330
1F
100
AcDbEntity
  8
0
  6
Continuous
 62
     7
370
    25
100
AcDbCircle
 10
0.0
 20
7.0
 30
0.0
 40
3.000000000000001
100
AcDbArc
 50
113.5564643091
 51
66.4435356909
  0
ARC
  5
EB
330
1F
100
AcDbEntity
  8
0
  6
Continuous
 62
     7
370
    25
100
AcDbCircle
 10
0.0
 20
7.0
 30
0.0
 40
2.999999999999998
100
AcDbArc
 50
66.4435356909
 51
113.5564643091
  0
ARC
  5
EC
330
1F
100
AcDbEntity
  8
0
  6
Continuous
 62
     7
370
    25
100
AcDbCircle
 10
5.2760320364
 20
7.2587376034
 30
0.0
 40
15.00000000000002
100
AcDbArc
 50
180.8584580351
 51
287.1182923588
  0
ARC
  5
ED
330
1F
100
AcDbEntity
  8
0
  6
Continuous
 62
     7
370
    25
100
AcDbCircle
 10
0.0
 20
0.0
 30
0.0
 40
12.00000000000001
100
AcDbArc
 50
144.1145344048
 51
323.8622159891
  0
ARC
  5
EE
330
1F
100
AcDbEntity
  8
0
  6
Continuous
 62
     7
370
    25
100
AcDbCircle
 10
0.0
 20
-0.0000000001
 30
0.0
 40
18.00099999993158
100
AcDbArc
 50
253.662129068
 51
256.2331030894
  0
ARC
  5
EF
330
1F
100
AcDbEntity
  8
0
  6
Continuous
 62
     7
370
    25
100
AcDbCircle
 10
0.0
 20
0.0
 30
0.0
 40
18.0009999999961
100
AcDbArc
 50
268.4668506156
 51
274.6230361164
  0
ARC
  5
F0
330
1F
100
AcDbEntity
  8
0
  6
Continuous
 62
     7
370
    25
100
AcDbCircle
 10
0.0
 20
0.0
 30
0.0
 40
18.00100000003781
100
AcDbArc
 50
281.1566120617
 51
286.4793931396
  0
ARC
  5
F1
330
1F
100
AcDbEntity
  8
0
  6
Continuous
 62
     7
370
    25
100
AcDbCircle
 10
0.0
 20
0.0000000001
 30
0.0
 40
18.00100000009725
100
AcDbArc
 50
239.5099785
 51
242.8514584972
  0
ARC
  5
F2
330
1F
100
AcDbEntity
  8
0
  6
Continuous
 62
     7
370
    25
100
AcDbCircle
 10
0.0
 20
0.0
 30
0.0
 40
18.00100000002375
100
AcDbArc
 50
248.5201811029
 51
252.0424941353
  0
ARC
  5
F3
330
1F
100
AcDbEntity
  8
0
  6
Continuous
 62
     7
370
    25
100
AcDbCircle
 10
0.0
 20
0.0
 30
0.0
 40
18.00100000001559
100
AcDbArc
 50
275.6923094787
 51
279.3640063227
  0
ARC
  5
F4
330
1F
100
AcDbEntity
  8
0
  6
Continuous
 62
     7
370
    25
100
AcDbCircle
 10
0.0
 20
0.0
 30
0.0
 40
18.00100000001326
100
AcDbArc
 50
289.1525769006
 51
293.9171342614
  0
MTEXT
  5
330
330
1F
100
AcDbEntity
  8
0
  6
Continuous
 62
     7
100
AcDbMText
 10
-18.0
 20
-19.0205663917
 30
0.0
 40
4.83362
 41
0.0
 71
     1
 72
     1
  1
SOLIDWORKS Educational Product.
  7
SLDTEXTSTYLE0
 73
     1
 44
1.0
  0
MTEXT
  5
331
330
1F
100
AcDbEntity
  8
0
  6
Continuous
 62
     7
100
AcDbMText
 10
-18.0
 20
-26.2709963917
 30
0.0
 40
4.83362
 41
0.0
 71
     1
 72
     1
  1
For Instructional Use Only.
  7
SLDTEXTSTYLE0
 73
     1
 44
1.0
  0
CIRCLE
  5
F5
330
1B
100
AcDbEntity
 67
     1
  8
0
  6
Continuous
 62
     7
370
    25
100
AcDbCircle
 10
0.0
 20
0.0
 30
0.0
 40
3.499999999999999
  0
CIRCLE
  5
F7
330
1B
100
AcDbEntity
 67
     1
  8
0
  6
Continuous
 62
     7
370
    25
100
AcDbCircle
 10
0.0
 20
0.0
 30
0.0
 40
3.3
  0
CIRCLE
  5
F8
330
1B
100
AcDbEntity
 67
     1
  8
0
  6
Continuous
 62
     7
370
    25
100
AcDbCircle
 10
0.0
 20
0.0
 30
0.0
 40
1.4
  0
CIRCLE
  5
119
330
1B
100
AcDbEntity
 67
     1
  8
0
  6
Continuous
 62
     7
370
    25
100
AcDbCircle
 10
10.5
 20
0.0
 30
0.0
 40
1.5
  0
LWPOLYLINE
  5
13E
330
1B
100
AcDbEntity
 67
     1
  8
0
  6
Continuous
 62
     7
370
    25
100
AcDbPolyline
 90
        3
 70
   128
 43
0.0
 10
0.75
 20
-16.4829457319
 10
1.8082549632
 20
-16.4006162685
 10
2.0
 20
-16.3783393542
  0
LWPOLYLINE
  5
13F
330
1B
100
AcDbEntity
 67
     1
  8
0
  6
Continuous
 62
     7
370
    25
100
AcDbPolyline
 90
        3
 70
   128
 43
0.0
 10
16.3783393542
 20
-2.0
 10
16.4006162685
 20
-1.8082549632
 10
16.4829457319
 20
-0.75
  0
LWPOLYLINE
  5
143
330
1B
100
AcDbEntity
 67
     1
  8
0
  6
Continuous
 62
     7
370
    25
100
AcDbPolyline
 90
        3
 70
   128
 43
0.0
 10
-16.4829457319
 20
-0.75
 10
-16.4006162685
 20
-1.8082549632
 10
-16.3783393542
 20
-2.0
  0
LWPOLYLINE
  5
144
330
1B
100
AcDbEntity
 67
     1
  8
0
  6
Continuous
 62
     7
370
    25
100
AcDbPolyline
 90
        3
 70
   128
 43
0.0
 10
-2.0
 20
-16.3783393542
 10
-1.8082549632
 20
-16.4006162685
 10
-0.75
 20
-16.4829457319
  0
LWPOLYLINE
  5
147
330
1B
100
AcDbEntity
 67
     1
  8
0
  6
Continuous
 62
     7
370
    25
100
AcDbPolyline
 90
        3
 70
   128
 43
0.0
 10
-0.75
 20
16.4829457319
 10
-1.8082549632
 20
16.4006162685
 10
-2.0
 20
16.3783393542
  0
LWPOLYLINE
  5
148
330
1B
100
AcDbEntity
 67
     1
  8
0
  6
Continuous
 62
     7
370
    25
100
AcDbPolyline
 90
        3
 70
   128
 43
0.0
 10
-16.3783393542
 20
2.0
 10
-16.4006162685
 20
1.8082549632
 10
-16.4829457319
 20
0.75
  0
LWPOLYLINE
  5
14C
330
1B
100
AcDbEntity
 67
     1
  8
0
  6
Continuous
 62
     7
370
    25
100
AcDbPolyline
 90
        3
 70
   128
 43
0.0
 10
16.4829457319
 20
0.75
 10
16.4006162685
 20
1.8082549632
 10
16.3783393542
 20
2.0
  0
LWPOLYLINE
  5
14D
330
1B
100
AcDbEntity
 67
     1
  8
0
  6
Continuous
 62
     7
370
    25
100
AcDbPolyline
 90
        3
 70
   128
 43
0.0
 10
2.0
 20
16.3783393542
 10
1.8082549632
 20
16.4006162685
 10
0.75
 20
16.4829457319
  0
CIRCLE
  5
157
330
1B
100
AcDbEntity
 67
     1
  8
0
  6
Continuous
 62
     7
370
    25
100
AcDbCircle
 10
0.0
 20
0.0
 30
0.0
 40
17.99999999999999
  0
SPLINE
  5
15A
330
1B
100
AcDbEntity
 67
     1
  8
0
  6
Continuous
 62
     7
370
    25
100
AcDbSpline
210
0.0
220
0.0
230
1.0
 70
     8
 71
     3
 72
    10
 73
     6
 74
     0
 42
0.00000001
 43
0.00000001
 40
0.0
 40
0.0
 40
0.0
 40
0.0
 40
0.5
 40
0.5
 40
1.0
 40
1.0
 40
1.0
 40
1.0
 10
-9.33915332072205
 20
-15.388834142067
 30
0.0
 10
-9.339153320722051
 20
-15.388834142067
 30
0.0
 10
-9.271456046074261
 20
-15.43046374486971
 30
0.0
 10
-8.997598884234996
 20
-15.591701381457
 30
0.0
 10
-8.78573577254267
 20
-15.7148467796632
 30
0.0
 10
-8.49390084876002
 20
-15.8710317677029
 30
0.0
  0
SPLINE
  5
15C
330
1B
100
AcDbEntity
 67
     1
  8
0
  6
Continuous
 62
     7
370
    25
100
AcDbSpline
210
0.0
220
0.0
230
1.0
 70
     8
 71
     3
 72
    10
 73
     6
 74
     0
 42
0.00000001
 43
0.00000001
 40
0.0
 40
0.0
 40
0.0
 40
0.0
 40
0.5
 40
0.5
 40
1.0
 40
1.0
 40
1.0
 40
1.0
 10
-8.49390084876002
 20
-15.8710317677029
 30
0.0
 10
-8.19771017984629
 20
-16.029547874967
 30
0.0
 10
-7.976164101247732
 20
-16.13808372116261
 30
0.0
 10
-7.693035601933667
 20
-16.2750142819846
 30
0.0
 10
-7.621587961315051
 20
-16.3078937311946
 30
0.0
 10
-7.62158796131505
 20
-16.3078937311946
 30
0.0
  0
SPLINE
  5
15E
330
1B
100
AcDbEntity
 67
     1
  8
0
  6
Continuous
 62
     7
370
    25
100
AcDbSpline
210
0.0
220
0.0
230
1.0
 70
     8
 71
     3
 72
    10
 73
     6
 74
     0
 42
0.00000001
 43
0.00000001
 40
0.0
 40
0.0
 40
0.0
 40
0.0
 40
0.5
 40
0.5
 40
1.0
 40
1.0
 40
1.0
 40
1.0
 10
-4.86425423520912
 20
-17.3313309279827
 30
0.0
 10
-4.78180791007824
 20
-17.3544705176577
 30
0.0
 10
-4.678986453584493
 20
-17.3827249116949
 30
0.0
 10
-4.43204831719873
 20
-17.4473269718108
 30
0.0
 10
-4.29349799376055
 20
-17.48218717349861
 30
0.0
 10
-4.13964524735224
 20
-17.5185426969846
 30
0.0
  0
SPLINE
  5
163
330
1B
100
AcDbEntity
 67
     1
  8
0
  6
Continuous
 62
     7
370
    25
100
AcDbSpline
210
0.0
220
0.0
230
1.0
 70
     8
 71
     3
 72
     8
 73
     4
 74
     0
 42
0.00000001
 43
0.00000001
 40
0.0
 40
0.0
 40
0.0
 40
0.0
 40
1.0
 40
1.0
 40
1.0
 40
1.0
 10
1.18974590465119
 20
-17.9616398383434
 30
0.0
 10
1.36720807289717
 20
-17.9498850715292
 30
0.0
 10
1.62016152890492
 20
-17.9307875101351
 30
0.0
 10
1.93777826106614
 20
-17.8963967437845
 30
0.0
  0
SPLINE
  5
165
330
1B
100
AcDbEntity
 67
     1
  8
0
  6
Continuous
 62
     7
370
    25
100
AcDbSpline
210
0.0
220
0.0
230
1.0
 70
     8
 71
     3
 72
    10
 73
     6
 74
     0
 42
0.00000001
 43
0.00000001
 40
0.0
 40
0.0
 40
0.0
 40
0.0
 40
0.5
 40
0.5
 40
1.0
 40
1.0
 40
1.0
 40
1.0
 10
1.93777826106614
 20
-17.8963967437845
 30
0.0
 10
2.09003782854549
 20
-17.8799104485752
 30
0.0
 10
2.24044960248613
 20
-17.8616640521741
 30
0.0
 10
2.537509676695809
 20
-17.82187071164769
 30
0.0
 10
2.66212633735758
 20
-17.8033566696808
 30
0.0
 10
2.76301611556103
 20
-17.7876851485838
 30
0.0
  0
SPLINE
  5
167
330
1B
100
AcDbEntity
 67
     1
  8
0
  6
Continuous
 62
     7
370
    25
100
AcDbSpline
210
0.0
220
0.0
230
1.0
 70
     8
 71
     3
 72
     8
 73
     4
 74
     0
 42
0.00000001
 43
0.00000001
 40
0.0
 40
0.0
 40
0.0
 40
0.0
 40
1.0
 40
1.0
 40
1.0
 40
1.0
 10
6.504053174785881
 20
-16.7849126688094
 30
0.0
 10
6.906359093060301
 20
-16.6290215339184
 30
0.0
 10
7.239872359957219
 20
-16.4829076544696
 30
0.0
 10
7.4735811889171
 20
-16.3762506457572
 30
0.0
  0
SPLINE
  5
16A
330
1B
100
AcDbEntity
 67
     1
  8
0
  6
Continuous
 62
     7
370
    25
100
AcDbSpline
210
0.0
220
0.0
230
1.0
 70
     8
 71
     3
 72
    10
 73
     6
 74
     0
 42
0.00000001
 43
0.00000001
 40
0.0
 40
0.0
 40
0.0
 40
0.0
 40
0.5
 40
0.5
 40
1.0
 40
1.0
 40
1.0
 40
1.0
 10
5.97580837924907
 20
-16.9801565132509
 30
0.0
 10
6.070564564470698
 20
-16.9468090700049
 30
0.0
 10
6.155723707688901
 20
-16.91595695199061
 30
0.0
 10
6.30712592846482
 20
-16.8600861787809
 30
0.0
 10
6.398102379515131
 20
-16.8259679676929
 30
0.0
 10
6.504053174785881
 20
-16.7849126688094
 30
0.0
  0
SPLINE
  5
16D
330
1B
100
AcDbEntity
 67
     1
  8
0
  6
Continuous
 62
     7
370
    25
100
AcDbSpline
210
0.0
220
0.0
230
1.0
 70
     8
 71
     3
 72
    10
 73
     6
 74
     0
 42
0.00000001
 43
0.00000001
 40
0.0
 40
0.0
 40
0.0
 40
0.0
 40
0.5
 40
0.5
 40
1.0
 40
1.0
 40
1.0
 40
1.0
 10
8.21383721892105
 20
-16.0177676079118
 30
0.0
 10
8.213837218921048
 20
-16.0177676079118
 30
0.0
 10
8.28658380426137
 20
-15.98096457177611
 30
0.0
 10
8.5747111037991
 20
-15.8283573013417
 30
0.0
 10
8.76735199353228
 20
-15.7240316316103
 30
0.0
 10
9.00547411221439
 20
-15.586450430237
 30
0.0
  0
SPLINE
  5
16F
330
1B
100
AcDbEntity
 67
     1
  8
0
  6
Continuous
 62
     7
370
    25
100
AcDbSpline
210
0.0
220
0.0
230
1.0
 70
     8
 71
     3
 72
    10
 73
     6
 74
     0
 42
0.00000001
 43
0.00000001
 40
0.0
 40
0.0
 40
0.0
 40
0.0
 40
0.5
 40
0.5
 40
1.0
 40
1.0
 40
1.0
 40
1.0
 10
9.00547411221439
 20
-15.586450430237
 30
0.0
 10
9.062509350222088
 20
-15.5534968490698
 30
0.0
 10
9.13827434114191
 20
-15.5093419964266
 30
0.0
 10
9.326298805293202
 20
-15.3970151749186
 30
0.0
 10
9.404611427837551
 20
-15.349096924044
 30
0.0
 10
9.46763850925203
 20
-15.3101215559553
 30
0.0
  0
SPLINE
  5
171
330
1B
100
AcDbEntity
 67
     1
  8
0
  6
Continuous
 62
     7
370
    25
100
AcDbSpline
210
0.0
220
0.0
230
1.0
 70
     8
 71
     3
 72
    10
 73
     6
 74
     0
 42
0.00000001
 43
0.00000001
 40
0.0
 40
0.0
 40
0.0
 40
0.0
 40
0.5
 40
0.5
 40
1.0
 40
1.0
 40
1.0
 40
1.0
 10
3.361784815793809
 20
-17.6842982290024
 30
0.0
 10
3.47503056634222
 20
-17.6627702136005
 30
0.0
 10
3.595760826339122
 20
-17.63871058700911
 30
0.0
 10
3.851918977035589
 20
-17.5845041416521
 30
0.0
 10
4.017219057981619
 20
-17.5482479279241
 30
0.0
 10
4.21893264036482
 20
-17.4996173779904
 30
0.0
  0
SPLINE
  5
179
330
1B
100
AcDbEntity
 67
     1
  8
0
  6
Continuous
 62
     7
370
    25
100
AcDbSpline
210
0.0
220
0.0
230
1.0
 70
     8
 71
     3
 72
     8
 73
     4
 74
     0
 42
0.00000001
 43
0.00000001
 40
0.0
 40
0.0
 40
0.0
 40
0.0
 40
1.0
 40
1.0
 40
1.0
 40
1.0
 10
-1.45087481883598
 20
-17.9424347082571
 30
0.0
 10
-1.01261800195025
 20
-17.9778733647238
 30
0.0
 10
-0.573062393080912
 20
-17.9972477181806
 30
0.0
 10
-0.133387148319837
 20
-18.000505794801
 30
0.0
  0
SPLINE
  5
17E
330
1B
100
AcDbEntity
 67
     1
  8
0
  6
Continuous
 62
     7
370
    25
100
AcDbSpline
210
0.0
220
0.0
230
1.0
 70
     8
 71
     3
 72
    10
 73
     6
 74
     0
 42
0.00000001
 43
0.00000001
 40
0.0
 40
0.0
 40
0.0
 40
0.0
 40
0.5
 40
0.5
 40
1.0
 40
1.0
 40
1.0
 40
1.0
 10
5.54991614723586
 20
-17.1240892242084
 30
0.0
 10
5.59847911507949
 20
-17.1083499696493
 30
0.0
 10
5.6642143636097
 20
-17.0868389045769
 30
0.0
 10
5.82964036031323
 20
-17.0311184128309
 30
0.0
 10
5.90590627539706
 20
-17.0047570861372
 30
0.0
 10
5.97580837924907
 20
-16.9801565132509
 30
0.0
  0
SPLINE
  5
180
330
1B
100
AcDbEntity
 67
     1
  8
0
  6
Continuous
 62
     7
370
    25
100
AcDbSpline
210
0.0
220
0.0
230
1.0
 70
     8
 71
     3
 72
     8
 73
     4
 74
     0
 42
0.00000001
 43
0.00000001
 40
0.0
 40
0.0
 40
0.0
 40
0.0
 40
1.0
 40
1.0
 40
1.0
 40
1.0
 10
0.920964833908036
 20
-17.9774254211971
 30
0.0
 10
0.920964833908036
 20
-17.9774254211971
 30
0.0
 10
1.01885640930319
 20
-17.97295924342379
 30
0.0
 10
1.18974590465119
 20
-17.9616398383434
 30
0.0
  0
SPLINE
  5
182
330
1B
100
AcDbEntity
 67
     1
  8
0
  6
Continuous
 62
     7
370
    25
100
AcDbSpline
210
0.0
220
0.0
230
1.0
 70
     8
 71
     3
 72
     8
 73
     4
 74
     0
 42
0.00000001
 43
0.00000001
 40
0.0
 40
0.0
 40
0.0
 40
0.0
 40
1.0
 40
1.0
 40
1.0
 40
1.0
 10
-5.12293073287669
 20
-17.2566387719668
 30
0.0
 10
-5.12293073287669
 20
-17.2566387719668
 30
0.0
 10
-5.029146885470902
 20
-17.2850517486327
 30
0.0
 10
-4.86425423520912
 20
-17.3313309279827
 30
0.0
  0
SPLINE
  5
184
330
1B
100
AcDbEntity
 67
     1
  8
0
  6
Continuous
 62
     7
370
    25
100
AcDbSpline
210
0.0
220
0.0
230
1.0
 70
     8
 71
     3
 72
    10
 73
     6
 74
     0
 42
0.00000001
 43
0.00000001
 40
0.0
 40
0.0
 40
0.0
 40
0.0
 40
0.5
 40
0.5
 40
1.0
 40
1.0
 40
1.0
 40
1.0
 10
3.05066530624349
 20
-17.7406156090842
 30
0.0
 10
3.05066530624349
 20
-17.74061560908419
 30
0.0
 10
3.079076712508019
 20
-17.7357862163605
 30
0.0
 10
3.19258992658879
 20
-17.7157194413745
 30
0.0
 10
3.267952622482271
 20
-17.7021357274783
 30
0.0
 10
3.361784815793809
 20
-17.6842982290024
 30
0.0
  0
SPLINE
  5
186
330
1B
100
AcDbEntity
 67
     1
  8
0
  6
Continuous
 62
     7
370
    25
100
AcDbSpline
210
0.0
220
0.0
230
1.0
 70
     8
 71
     3
 72
     8
 73
     4
 74
     0
 42
0.00000001
 43
0.00000001
 40
0.0
 40
0.0
 40
0.0
 40
0.0
 40
1.0
 40
1.0
 40
1.0
 40
1.0
 10
7.4735811889171
 20
-16.3762506457572
 30
0.0
 10
7.707290017877
 20
-16.26959363704501
 30
0.0
 10
7.83352715924766
 20
-16.2071543845713
 30
0.0
 10
7.83352715924766
 20
-16.2071543845713
 30
0.0
  0
SPLINE
  5
190
330
1B
100
AcDbEntity
 67
     1
  8
0
  6
Continuous
 62
     7
370
    25
100
AcDbSpline
210
0.0
220
0.0
230
1.0
 70
     8
 71
     3
 72
    10
 73
     6
 74
     0
 42
0.00000001
 43
0.00000001
 40
0.0
 40
0.0
 40
0.0
 40
0.0
 40
0.4432837174681594
 40
0.8729829795327974
 40
0.9999999999999999
 40
0.9999999999999999
 40
0.9999999999999999
 40
0.9999999999999999
 10
3.191763710958295
 20
-17.7157739151698
 30
0.0
 10
3.197532484782928
 20
-17.71471959502383
 30
0.0
 10
3.208893248021521
 20
-17.71264326443432
 30
0.0
 10
3.270628398426954
 20
-17.70158318777964
 30
0.0
 10
3.328851716299739
 20
-17.69045465502492
 30
0.0
 10
3.342135596419579
 20
-17.68791563628767
 30
0.0
  0
SPLINE
  5
191
330
1B
100
AcDbEntity
 67
     1
  8
0
  6
Continuous
 62
     7
370
    25
100
AcDbSpline
210
0.0
220
0.0
230
1.0
 70
     8
 71
     3
 72
     9
 73
     5
 74
     0
 42
0.00000001
 43
0.00000001
 40
0.0
 40
0.0
 40
0.0
 40
0.0
 40
0.7254054711080028
 40
1.0
 40
1.0
 40
1.0
 40
1.0
 10
3.37430746018344
 20
-17.68178431816124
 30
0.0
 10
3.393030053560834
 20
-17.6783018670667
 30
0.0
 10
3.418839885610758
 20
-17.67350117113422
 30
0.0
 10
3.455878874586082
 20
-17.66607181698285
 30
0.0
 10
3.466049578314397
 20
-17.66403175697968
 30
0.0
  0
SPLINE
  5
192
330
1B
100
AcDbEntity
 67
     1
  8
0
  6
Continuous
 62
     7
370
    25
100
AcDbSpline
210
0.0
220
0.0
230
1.0
 70
     8
 71
     3
 72
    10
 73
     6
 74
     0
 42
0.00000001
 43
0.00000001
 40
0.0
 40
0.0
 40
0.0
 40
0.0
 40
0.4198361810625756
 40
0.7932187830672087
 40
1.0
 40
1.0
 40
1.0
 40
1.0
 10
1.39423875892192
 20
-17.9469245076453
 30
0.0
 10
1.396830614924725
 20
-17.94671805344021
 30
0.0
 10
1.401727546054449
 20
-17.9463279885513
 30
0.0
 10
1.435468342932274
 20
-17.94374577242894
 30
0.0
 10
1.475566741177385
 20
-17.94036974591895
 30
0.0
 10
1.489858558963207
 20
-17.93916646703918
 30
0.0
  0
LINE
  5
19B
330
1B
100
AcDbEntity
 67
     1
  8
0
  6
Continuous
 62
     7
370
    25
100
AcDbLine
 10
-3.3
 20
0.0
 30
0.0
 11
-3.5
 21
0.0
 31
0.0
  0
LINE
  5
19C
330
1B
100
AcDbEntity
 67
     1
  8
0
  6
Continuous
 62
     7
370
    25
100
AcDbLine
 10
-1.5
 20
13.0
 30
0.0
 11
-1.5
 21
12.7
 31
0.0
  0
LINE
  5
19D
330
1B
100
AcDbEntity
 67
     1
  8
0
  6
Continuous
 62
     7
370
    25
100
AcDbLine
 10
1.5
 20
13.0
 30
0.0
 11
-1.5
 21
13.0
 31
0.0
  0
LINE
  5
19E
330
1B
100
AcDbEntity
 67
     1
  8
0
  6
Continuous
 62
     7
370
    25
100
AcDbLine
 10
-0.5
 20
12.7
 30
0.0
 11
-0.5
 21
13.0
 31
0.0
  0
LINE
  5
19F
330
1B
100
AcDbEntity
 67
     1
  8
0
  6
Continuous
 62
     7
370
    25
100
AcDbLine
 10
-1.5
 20
12.7
 30
0.0
 11
1.5
 21
12.7
 31
0.0
  0
LINE
  5
1A0
330
1B
100
AcDbEntity
 67
     1
  8
0
  6
Continuous
 62
     7
370
    25
100
AcDbLine
 10
-1.5
 20
-12.7
 30
0.0
 11
-1.5
 21
-13.0
 31
0.0
  0
LINE
  5
1A1
330
1B
100
AcDbEntity
 67
     1
  8
0
  6
Continuous
 62
     7
370
    25
100
AcDbLine
 10
-0.5
 20
-13.0
 30
0.0
 11
-0.5
 21
-12.7
 31
0.0
  0
LINE
  5
1A2
330
1B
100
AcDbEntity
 67
     1
  8
0
  6
Continuous
 62
     7
370
    25
100
AcDbLine
 10
-1.5
 20
-13.0
 30
0.0
 11
1.5
 21
-13.0
 31
0.0
  0
LINE
  5
1A3
330
1B
100
AcDbEntity
 67
     1
  8
0
  6
Continuous
 62
     7
370
    25
100
AcDbLine
 10
1.5
 20
-12.7
 30
0.0
 11
-1.5
 21
-12.7
 31
0.0
  0
LINE
  5
1A4
330
1B
100
AcDbEntity
 67
     1
  8
0
  6
Continuous
 62
     7
370
    25
100
AcDbLine
 10
0.5
 20
13.0
 30
0.0
 11
0.5
 21
12.7
 31
0.0
  0
LINE
  5
1A5
330
1B
100
AcDbEntity
 67
     1
  8
0
  6
Continuous
 62
     7
370
    25
100
AcDbLine
 10
0.5
 20
-12.7
 30
0.0
 11
0.5
 21
-13.0
 31
0.0
  0
LINE
  5
1A6
330
1B
100
AcDbEntity
 67
     1
  8
0
  6
Continuous
 62
     7
370
    25
100
AcDbLine
 10
1.5
 20
-13.0
 30
0.0
 11
1.5
 21
-12.7
 31
0.0
  0
LINE
  5
1A7
330
1B
100
AcDbEntity
 67
     1
  8
0
  6
Continuous
 62
     7
370
    25
100
AcDbLine
 10
1.5
 20
12.7
 30
0.0
 11
1.5
 21
13.0
 31
0.0
  0
LINE
  5
1A8
330
1B
100
AcDbEntity
 67
     1
  8
0
  6
Continuous
 62
     7
370
    25
100
AcDbLine
 10
13.5
 20
-2.0
 30
0.0
 11
13.5
 21
2.0
 31
0.0
  0
LINE
  5
1A9
330
1B
100
AcDbEntity
 67
     1
  8
0
  6
Continuous
 62
     7
370
    25
100
AcDbLine
 10
16.3783393542
 20
-2.0
 30
0.0
 11
13.5
 21
-2.0
 31
0.0
  0
LINE
  5
1AA
330
1B
100
AcDbEntity
 67
     1
  8
0
  6
Continuous
 62
     7
370
    25
100
AcDbLine
 10
2.0
 20
-13.5
 30
0.0
 11
2.0
 21
-16.3783393542
 31
0.0
  0
LINE
  5
1AB
330
1B
100
AcDbEntity
 67
     1
  8
0
  6
Continuous
 62
     7
370
    25
100
AcDbLine
 10
-2.0
 20
-13.5
 30
0.0
 11
2.0
 21
-13.5
 31
0.0
  0
LINE
  5
1AC
330
1B
100
AcDbEntity
 67
     1
  8
0
  6
Continuous
 62
     7
370
    25
100
AcDbLine
 10
-2.0
 20
-16.3783393542
 30
0.0
 11
-2.0
 21
-13.5
 31
0.0
  0
LINE
  5
1AD
330
1B
100
AcDbEntity
 67
     1
  8
0
  6
Continuous
 62
     7
370
    25
100
AcDbLine
 10
-13.5
 20
2.0
 30
0.0
 11
-13.5
 21
-2.0
 31
0.0
  0
LINE
  5
1AE
330
1B
100
AcDbEntity
 67
     1
  8
0
  6
Continuous
 62
     7
370
    25
100
AcDbLine
 10
-2.0
 20
13.5
 30
0.0
 11
-2.0
 21
16.3783393542
 31
0.0
  0
LINE
  5
1AF
330
1B
100
AcDbEntity
 67
     1
  8
0
  6
Continuous
 62
     7
370
    25
100
AcDbLine
 10
2.0
 20
13.5
 30
0.0
 11
-2.0
 21
13.5
 31
0.0
  0
LINE
  5
1B0
330
1B
100
AcDbEntity
 67
     1
  8
0
  6
Continuous
 62
     7
370
    25
100
AcDbLine
 10
2.0
 20
16.3783393542
 30
0.0
 11
2.0
 21
13.5
 31
0.0
  0
LINE
  5
1B1
330
1B
100
AcDbEntity
 67
     1
  8
0
  6
Continuous
 62
     7
370
    25
100
AcDbLine
 10
13.5
 20
2.0
 30
0.0
 11
16.3783393542
 21
2.0
 31
0.0
  0
LINE
  5
1B2
330
1B
100
AcDbEntity
 67
     1
  8
0
  6
Continuous
 62
     7
370
    25
100
AcDbLine
 10
-9.0
 20
3.5
 30
0.0
 11
-9.0
 21
-3.5
 31
0.0
  0
LINE
  5
1B3
330
1B
100
AcDbEntity
 67
     1
  8
0
  6
Continuous
 62
     7
370
    25
100
AcDbLine
 10
-12.0
 20
3.5
 30
0.0
 11
-9.0
 21
3.5
 31
0.0
  0
LINE
  5
1B4
330
1B
100
AcDbEntity
 67
     1
  8
0
  6
Continuous
 62
     7
370
    25
100
AcDbLine
 10
-12.0
 20
-3.5
 30
0.0
 11
-12.0
 21
3.5
 31
0.0
  0
LINE
  5
1B5
330
1B
100
AcDbEntity
 67
     1
  8
0
  6
Continuous
 62
     7
370
    25
100
AcDbLine
 10
-9.0
 20
-3.5
 30
0.0
 11
-12.0
 21
-3.5
 31
0.0
  0
LINE
  5
1B6
330
1B
100
AcDbEntity
 67
     1
  8
0
  6
Continuous
 62
     7
370
    25
100
AcDbLine
 10
-16.3783393542
 20
2.0
 30
0.0
 11
-13.5
 21
2.0
 31
0.0
  0
LINE
  5
1B7
330
1B
100
AcDbEntity
 67
     1
  8
0
  6
Continuous
 62
     7
370
    25
100
AcDbLine
 10
-13.5
 20
-2.0
 30
0.0
 11
-16.3783393542
 21
-2.0
 31
0.0
  0
LINE
  5
1B8
330
1B
100
AcDbEntity
 67
     1
  8
0
  6
Continuous
 62
     7
370
    25
100
AcDbLine
 10
10.6
 20
0.1
 30
0.0
 11
10.6
 21
1.4966629547
 31
0.0
  0
LINE
  5
1B9
330
1B
100
AcDbEntity
 67
     1
  8
0
  6
Continuous
 62
     7
370
    25
100
AcDbLine
 10
11.9966629547
 20
0.1
 30
0.0
 11
10.6
 21
0.1
 31
0.0
  0
LINE
  5
1BA
330
1B
100
AcDbEntity
 67
     1
  8
0
  6
Continuous
 62
     7
370
    25
100
AcDbLine
 10
11.9966629547
 20
-0.1
 30
0.0
 11
11.9966629547
 21
0.1
 31
0.0
  0
LINE
  5
1BB
330
1B
100
AcDbEntity
 67
     1
  8
0
  6
Continuous
 62
     7
370
    25
100
AcDbLine
 10
10.6
 20
-0.1
 30
0.0
 11
11.9966629547
 21
-0.1
 31
0.0
  0
LINE
  5
1BC
330
1B
100
AcDbEntity
 67
     1
  8
0
  6
Continuous
 62
     7
370
    25
100
AcDbLine
 10
10.6
 20
-1.4966629547
 30
0.0
 11
10.6
 21
-0.1
 31
0.0
  0
LINE
  5
1BD
330
1B
100
AcDbEntity
 67
     1
  8
0
  6
Continuous
 62
     7
370
    25
100
AcDbLine
 10
10.4
 20
-1.4966629547
 30
0.0
 11
10.6
 21
-1.4966629547
 31
0.0
  0
LINE
  5
1BE
330
1B
100
AcDbEntity
 67
     1
  8
0
  6
Continuous
 62
     7
370
    25
100
AcDbLine
 10
10.4
 20
-0.1
 30
0.0
 11
10.4
 21
-1.4966629547
 31
0.0
  0
LINE
  5
1BF
330
1B
100
AcDbEntity
 67
     1
  8
0
  6
Continuous
 62
     7
370
    25
100
AcDbLine
 10
10.4
 20
1.4966629547
 30
0.0
 11
10.4
 21
0.1
 31
0.0
  0
LINE
  5
1C0
330
1B
100
AcDbEntity
 67
     1
  8
0
  6
Continuous
 62
     7
370
    25
100
AcDbLine
 10
10.6
 20
1.4966629547
 30
0.0
 11
10.4
 21
1.4966629547
 31
0.0
  0
LINE
  5
1C1
330
1B
100
AcDbEntity
 67
     1
  8
0
  6
Continuous
 62
     7
370
    25
100
AcDbLine
 10
9.0033370453
 20
-0.1
 30
0.0
 11
10.4
 21
-0.1
 31
0.0
  0
LINE
  5
1C2
330
1B
100
AcDbEntity
 67
     1
  8
0
  6
Continuous
 62
     7
370
    25
100
AcDbLine
 10
9.0033370453
 20
0.1
 30
0.0
 11
9.0033370453
 21
-0.1
 31
0.0
  0
LINE
  5
1C3
330
1B
100
AcDbEntity
 67
     1
  8
0
  6
Continuous
 62
     7
370
    25
100
AcDbLine
 10
10.4
 20
0.1
 30
0.0
 11
9.0033370453
 21
0.1
 31
0.0
  0
LINE
  5
1C4
330
1B
100
AcDbEntity
 67
     1
  8
0
  6
Continuous
 62
     7
370
    25
100
AcDbLine
 10
0.75
 20
-14.7
 30
0.0
 11
0.75
 21
-16.4829457319
 31
0.0
  0
LINE
  5
1C5
330
1B
100
AcDbEntity
 67
     1
  8
0
  6
Continuous
 62
     7
370
    25
100
AcDbLine
 10
-0.75
 20
-14.7
 30
0.0
 11
0.75
 21
-14.7
 31
0.0
  0
LINE
  5
1C6
330
1B
100
AcDbEntity
 67
     1
  8
0
  6
Continuous
 62
     7
370
    25
100
AcDbLine
 10
-0.75
 20
-16.4829457319
 30
0.0
 11
-0.75
 21
-14.7
 31
0.0
  0
LINE
  5
1C7
330
1B
100
AcDbEntity
 67
     1
  8
0
  6
Continuous
 62
     7
370
    25
100
AcDbLine
 10
-14.7
 20
0.75
 30
0.0
 11
-14.7
 21
-0.75
 31
0.0
  0
LINE
  5
1C8
330
1B
100
AcDbEntity
 67
     1
  8
0
  6
Continuous
 62
     7
370
    25
100
AcDbLine
 10
-16.4829457319
 20
0.75
 30
0.0
 11
-14.7
 21
0.75
 31
0.0
  0
LINE
  5
1C9
330
1B
100
AcDbEntity
 67
     1
  8
0
  6
Continuous
 62
     7
370
    25
100
AcDbLine
 10
-0.75
 20
14.7
 30
0.0
 11
-0.75
 21
16.4829457319
 31
0.0
  0
LINE
  5
1CA
330
1B
100
AcDbEntity
 67
     1
  8
0
  6
Continuous
 62
     7
370
    25
100
AcDbLine
 10
0.75
 20
14.7
 30
0.0
 11
-0.75
 21
14.7
 31
0.0
  0
LINE
  5
1CB
330
1B
100
AcDbEntity
 67
     1
  8
0
  6
Continuous
 62
     7
370
    25
100
AcDbLine
 10
0.75
 20
16.4829457319
 30
0.0
 11
0.75
 21
14.7
 31
0.0
  0
LINE
  5
1CC
330
1B
100
AcDbEntity
 67
     1
  8
0
  6
Continuous
 62
     7
370
    25
100
AcDbLine
 10
14.7
 20
0.75
 30
0.0
 11
16.4829457319
 21
0.75
 31
0.0
  0
LINE
  5
1CD
330
1B
100
AcDbEntity
 67
     1
  8
0
  6
Continuous
 62
     7
370
    25
100
AcDbLine
 10
14.7
 20
-0.75
 30
0.0
 11
14.7
 21
0.75
 31
0.0
  0
LINE
  5
1CE
330
1B
100
AcDbEntity
 67
     1
  8
0
  6
Continuous
 62
     7
370
    25
100
AcDbLine
 10
16.4829457319
 20
-0.75
 30
0.0
 11
14.7
 21
-0.75
 31
0.0
  0
LINE
  5
1CF
330
1B
100
AcDbEntity
 67
     1
  8
0
  6
Continuous
 62
     7
370
    25
100
AcDbLine
 10
-14.7
 20
-0.75
 30
0.0
 11
-16.4829457319
 21
-0.75
 31
0.0
  0
LINE
  5
1D0
330
1B
100
AcDbEntity
 67
     1
  8
0
  6
Continuous
 62
     7
370
    25
100
AcDbLine
 10
-8.4934289916
 20
-15.8701500927
 30
0.0
 11
-8.4939008488
 21
-15.8710317677
 31
0.0
  0
LINE
  5
1D1
330
1B
100
AcDbEntity
 67
     1
  8
0
  6
Continuous
 62
     7
370
    25
100
AcDbLine
 10
-9.3386345077
 20
-15.3879792543
 30
0.0
 11
-9.3391533207
 21
-15.3888341421
 31
0.0
  0
LINE
  5
1D2
330
1B
100
AcDbEntity
 67
     1
  8
0
  6
Continuous
 62
     7
370
    25
100
AcDbLine
 10
-7.6211645633
 20
-16.3069877874
 30
0.0
 11
-7.6215879613
 21
-16.3078937312
 31
0.0
  0
LINE
  5
1D3
330
1B
100
AcDbEntity
 67
     1
  8
0
  6
Continuous
 62
     7
370
    25
100
AcDbLine
 10
-4.1394152798
 20
-17.5175694987
 30
0.0
 11
-4.1396452474
 21
-17.518542697
 31
0.0
  0
LINE
  5
1D4
330
1B
100
AcDbEntity
 67
     1
  8
0
  6
Continuous
 62
     7
370
    25
100
AcDbLine
 10
-4.8639840139
 20
-17.3303681298
 30
0.0
 11
-4.8642542352
 21
-17.331330928
 31
0.0
  0
LINE
  5
1D5
330
1B
100
AcDbEntity
 67
     1
  8
0
  6
Continuous
 62
     7
370
    25
100
AcDbLine
 10
-3.3591716855
 20
-17.6837769039
 30
0.0
 11
-3.3593583061
 21
-17.684759336
 31
0.0
  0
LINE
  5
1D6
330
1B
100
AcDbEntity
 67
     1
  8
0
  6
Continuous
 62
     7
370
    25
100
AcDbLine
 10
1.9376706127
 20
-17.8954025548
 30
0.0
 11
1.9377782611
 21
-17.8963967438
 31
0.0
  0
LINE
  5
1D7
330
1B
100
AcDbEntity
 67
     1
  8
0
  6
Continuous
 62
     7
370
    25
100
AcDbLine
 10
1.1896798113
 20
-17.9606420249
 30
0.0
 11
1.1897459047
 21
-17.9616398383
 31
0.0
  0
LINE
  5
1D8
330
1B
100
AcDbEntity
 67
     1
  8
0
  6
Continuous
 62
     7
370
    25
100
AcDbLine
 10
2.7628626232
 20
-17.7866969988
 30
0.0
 11
2.7630161156
 21
-17.7876851486
 31
0.0
  0
LINE
  5
1D9
330
1B
100
AcDbEntity
 67
     1
  8
0
  6
Continuous
 62
     7
370
    25
100
AcDbLine
 10
7.473166013
 20
-16.3753409046
 30
0.0
 11
7.4735811889
 21
-16.3762506458
 31
0.0
  0
LINE
  5
1DA
330
1B
100
AcDbEntity
 67
     1
  8
0
  6
Continuous
 62
     7
370
    25
100
AcDbLine
 10
6.5036918586
 20
-16.7839802255
 30
0.0
 11
6.5040531748
 21
-16.7849126688
 31
0.0
  0
LINE
  5
1DB
330
1B
100
AcDbEntity
 67
     1
  8
0
  6
Continuous
 62
     7
370
    25
100
AcDbLine
 10
5.9754764083
 20
-16.9792132236
 30
0.0
 11
5.9758083792
 21
-16.9801565133
 31
0.0
  0
LINE
  5
1DC
330
1B
100
AcDbEntity
 67
     1
  8
0
  6
Continuous
 62
     7
370
    25
100
AcDbLine
 10
9.0049738359
 20
-15.5855845644
 30
0.0
 11
9.0054741122
 21
-15.5864504302
 31
0.0
  0
LINE
  5
1DD
330
1B
100
AcDbEntity
 67
     1
  8
0
  6
Continuous
 62
     7
370
    25
100
AcDbLine
 10
8.21338092
 20
-16.0168777814
 30
0.0
 11
8.2138372189
 21
-16.0177676079
 31
0.0
  0
LINE
  5
1DE
330
1B
100
AcDbEntity
 67
     1
  8
0
  6
Continuous
 62
     7
370
    25
100
AcDbLine
 10
9.4671125586
 20
-15.3092710409
 30
0.0
 11
9.4676385093
 21
-15.310121556
 31
0.0
  0
LINE
  5
1DF
330
1B
100
AcDbEntity
 67
     1
  8
0
  6
Continuous
 62
     7
370
    25
100
AcDbLine
 10
4.2186982682
 20
-17.498645231
 30
0.0
 11
4.2189326404
 21
-17.499617378
 31
0.0
  0
LINE
  5
1E0
330
1B
100
AcDbEntity
 67
     1
  8
0
  6
Continuous
 62
     7
370
    25
100
AcDbLine
 10
3.3615980603
 20
-17.6833158226
 30
0.0
 11
3.3617848158
 21
-17.684298229
 31
0.0
  0
LINE
  5
1E1
330
1B
100
AcDbEntity
 67
     1
  8
0
  6
Continuous
 62
     7
370
    25
100
AcDbLine
 10
5.0634189436
 20
-17.2731522485
 30
0.0
 11
5.0637002447
 21
-17.2741118681
 31
0.0
  0
LINE
  5
1E2
330
1B
100
AcDbEntity
 67
     1
  8
0
  6
Continuous
 62
     7
370
    25
100
AcDbLine
 10
-5.5425584564
 20
-17.1254210388
 30
0.0
 11
-5.5428663763
 21
-17.1263724511
 31
0.0
  0
LINE
  5
1E3
330
1B
100
AcDbEntity
 67
     1
  8
0
  6
Continuous
 62
     7
370
    25
100
AcDbLine
 10
-7.2974695616
 20
-16.454389627
 30
0.0
 11
-7.2978749765
 21
-16.4553037598
 31
0.0
  0
LINE
  5
1E4
330
1B
100
AcDbEntity
 67
     1
  8
0
  6
Continuous
 62
     7
370
    25
100
AcDbLine
 10
-0.1333797383
 20
-17.9995058223
 30
0.0
 11
-0.1333871483
 21
-18.0005057948
 31
0.0
  0
LINE
  5
1E5
330
1B
100
AcDbEntity
 67
     1
  8
0
  6
Continuous
 62
     7
370
    25
100
AcDbLine
 10
-1.4507942192
 20
-17.9414379617
 30
0.0
 11
-1.4508748188
 21
-17.9424347083
 31
0.0
  0
LINE
  5
1E6
330
1B
100
AcDbEntity
 67
     1
  8
0
  6
Continuous
 62
     7
370
    25
100
AcDbLine
 10
0.301327823
 20
-17.9974776439
 30
0.0
 11
0.3013445635
 21
-17.9984775038
 31
0.0
  0
LINE
  5
1E7
330
1B
100
AcDbEntity
 67
     1
  8
0
  6
Continuous
 62
     7
370
    25
100
AcDbLine
 10
5.5496078357
 20
-17.1231379388
 30
0.0
 11
5.5499161472
 21
-17.1240892242
 31
0.0
  0
LINE
  5
1E8
330
1B
100
AcDbEntity
 67
     1
  8
0
  6
Continuous
 62
     7
370
    25
100
AcDbLine
 10
0.920913672
 20
-17.9764267308
 30
0.0
 11
0.9209648339
 21
-17.9774254212
 31
0.0
  0
LINE
  5
1E9
330
1B
100
AcDbEntity
 67
     1
  8
0
  6
Continuous
 62
     7
370
    25
100
AcDbLine
 10
-5.1226461414
 20
-17.2556801231
 30
0.0
 11
-5.1229307329
 21
-17.256638772
 31
0.0
  0
LINE
  5
1EA
330
1B
100
AcDbEntity
 67
     1
  8
0
  6
Continuous
 62
     7
370
    25
100
AcDbLine
 10
3.0504958343
 20
-17.7396300741
 30
0.0
 11
3.0506653062
 21
-17.7406156091
 31
0.0
  0
LINE
  5
1EB
330
1B
100
AcDbEntity
 67
     1
  8
0
  6
Continuous
 62
     7
370
    25
100
AcDbLine
 10
7.8330919875
 20
-16.2062540371
 30
0.0
 11
7.8335271592
 21
-16.2071543846
 31
0.0
  0
LINE
  5
1EC
330
1B
100
AcDbEntity
 67
     1
  8
0
  6
Continuous
 62
     7
370
    25
100
AcDbLine
 10
-1.7853513768
 20
-17.9112400593
 30
0.0
 11
-1.7854505629
 21
-17.9122351282
 31
0.0
  0
LINE
  5
1ED
330
1B
100
AcDbEntity
 67
     1
  8
0
  6
Continuous
 62
     7
370
    25
100
AcDbLine
 10
-2.9287108324
 20
-17.7601422534
 30
0.0
 11
-2.9288735385
 21
-17.761128928
 31
0.0
  0
LINE
  5
1EE
330
1B
100
AcDbEntity
 67
     1
  8
0
  6
Continuous
 62
     7
370
    25
100
AcDbLine
 10
-4.5567127029
 20
-17.4147170618
 30
0.0
 11
-4.5233134268
 21
-17.4233477625
 31
0.0
  0
LINE
  5
1EF
330
1B
100
AcDbEntity
 67
     1
  8
0
  6
Continuous
 62
     7
370
    25
100
AcDbLine
 10
-4.1395640482
 20
-17.5181990709
 30
0.0
 11
-4.0723042799
 21
-17.5343188876
 31
0.0
  0
LINE
  5
1F0
330
1B
100
AcDbEntity
 67
     1
  8
0
  6
Continuous
 62
     7
370
    25
100
AcDbLine
 10
2.1462654323
 20
-17.87158484
 30
0.0
 11
2.1463846693
 21
-17.8725777058
 31
0.0
  0
LINE
  5
1F1
330
1B
100
AcDbEntity
 67
     1
  8
0
  6
Continuous
 62
     7
370
    25
100
AcDbLine
 10
1.9746111222
 20
-17.8923702152
 30
0.0
 11
2.1463846693
 21
-17.8725777058
 31
0.0
  0
LINE
  5
1F2
330
1B
100
AcDbEntity
 67
     1
  8
0
  6
Continuous
 62
     7
370
    25
100
AcDbLine
 10
0.980165776
 20
-17.9742948694
 30
0.0
 11
1.0054130834
 21
-17.9728889282
 31
0.0
  0
LINE
  5
1F3
330
1B
100
AcDbEntity
 67
     1
  8
0
  6
Continuous
 62
     7
370
    25
100
AcDbLine
 10
5.5616639451
 20
-17.1202773097
 30
0.0
 11
5.5945438328
 21
-17.1095610786
 31
0.0
  0
LINE
  5
1F4
330
1B
100
AcDbEntity
 67
     1
  8
0
  6
Continuous
 62
     7
370
    25
100
AcDbLine
 10
2.3570170305
 20
-17.8450124886
 30
0.0
 11
2.3571479759
 21
-17.8460038782
 31
0.0
  0
LINE
  5
1F5
330
1B
100
AcDbEntity
 67
     1
  8
0
  6
Continuous
 62
     7
370
    25
100
AcDbLine
 10
2.6555676089
 20
-17.804043408
 30
0.0
 11
2.6799963656
 21
-17.8003825937
 31
0.0
  0
LINE
  5
1F6
330
1B
100
AcDbEntity
 67
     1
  8
0
  6
Continuous
 62
     7
370
    25
100
AcDbLine
 10
0.4815956077
 20
-17.9935562263
 30
0.0
 11
0.481622363
 21
-17.9945558684
 31
0.0
  0
LINE
  5
1F7
330
1B
100
AcDbEntity
 67
     1
  8
0
  6
Continuous
 62
     7
370
    25
100
AcDbLine
 10
0.3013445635
 20
-17.9984775038
 30
0.0
 11
0.481622363
 21
-17.9945558684
 31
0.0
  0
ARC
  5
1F8
330
1B
100
AcDbEntity
 67
     1
  8
0
  6
Continuous
 62
     7
370
    25
100
AcDbCircle
 10
0.0
 20
0.0
 30
0.0
 40
16.50000000000002
100
AcDbArc
 50
276.9620626911
 51
353.0379373089
  0
ARC
  5
1F9
330
1B
100
AcDbEntity
 67
     1
  8
0
  6
Continuous
 62
     7
370
    25
100
AcDbCircle
 10
0.0
 20
0.0
 30
0.0
 40
16.50000000000002
100
AcDbArc
 50
6.9620626911
 51
83.0379373089
  0
ARC
  5
1FA
330
1B
100
AcDbEntity
 67
     1
  8
0
  6
Continuous
 62
     7
370
    25
100
AcDbCircle
 10
5.4378467222
 20
2.5357095704
 30
0.0
 40
0.5000000000000064
100
AcDbArc
 50
25.0
 51
205.0
  0
ARC
  5
1FB
330
1B
100
AcDbEntity
 67
     1
  8
0
  6
Continuous
 62
     7
370
    25
100
AcDbCircle
 10
0.0
 20
0.0
 30
0.0
 40
5.499999999999986
100
AcDbArc
 50
330.0
 51
25.0
  0
ARC
  5
1FC
330
1B
100
AcDbEntity
 67
     1
  8
0
  6
Continuous
 62
     7
370
    25
100
AcDbCircle
 10
5.1961524227
 20
-3.0
 30
0.0
 40
0.5000000000000046
100
AcDbArc
 50
150.0
 51
330.0
  0
ARC
  5
1FD
330
1B
100
AcDbEntity
 67
     1
  8
0
  6
Continuous
 62
     7
370
    25
100
AcDbCircle
 10
0.0
 20
0.0
 30
0.0
 40
6.50000000000002
100
AcDbArc
 50
330.0
 51
25.0
  0
ARC
  5
1FE
330
1B
100
AcDbEntity
 67
     1
  8
0
  6
Continuous
 62
     7
370
    25
100
AcDbCircle
 10
-2.5357095704
 20
-5.4378467222
 30
0.0
 40
0.750000000000003
100
AcDbArc
 50
65.0
 51
245.0
  0
ARC
  5
1FF
330
1B
100
AcDbEntity
 67
     1
  8
0
  6
Continuous
 62
     7
370
    25
100
AcDbCircle
 10
0.0
 20
0.0
 30
0.0
 40
6.750000000000028
100
AcDbArc
 50
245.0
 51
295.0
  0
ARC
  5
200
330
1B
100
AcDbEntity
 67
     1
  8
0
  6
Continuous
 62
     7
370
    25
100
AcDbCircle
 10
2.5357095704
 20
-5.4378467222
 30
0.0
 40
0.7500000000000038
100
AcDbArc
 50
295.0
 51
115.0
  0
ARC
  5
201
330
1B
100
AcDbEntity
 67
     1
  8
0
  6
Continuous
 62
     7
370
    25
100
AcDbCircle
 10
0.0
 20
0.0
 30
0.0
 40
5.249999999999958
100
AcDbArc
 50
245.0
 51
295.0
  0
ARC
  5
202
330
1B
100
AcDbEntity
 67
     1
  8
0
  6
Continuous
 62
     7
370
    25
100
AcDbCircle
 10
2.5357095704
 20
5.4378467222
 30
0.0
 40
0.7500000000000034
100
AcDbArc
 50
245.0
 51
65.0
  0
ARC
  5
203
330
1B
100
AcDbEntity
 67
     1
  8
0
  6
Continuous
 62
     7
370
    25
100
AcDbCircle
 10
0.0
 20
0.0
 30
0.0
 40
6.749999999999968
100
AcDbArc
 50
65.0
 51
115.0
  0
ARC
  5
204
330
1B
100
AcDbEntity
 67
     1
  8
0
  6
Continuous
 62
     7
370
    25
100
AcDbCircle
 10
-2.5357095704
 20
5.4378467222
 30
0.0
 40
0.7500000000000039
100
AcDbArc
 50
115.0
 51
295.0
  0
ARC
  5
205
330
1B
100
AcDbEntity
 67
     1
  8
0
  6
Continuous
 62
     7
370
    25
100
AcDbCircle
 10
0.0
 20
0.0
 30
0.0
 40
5.250000000000014
100
AcDbArc
 50
65.0
 51
115.0
  0
ARC
  5
206
330
1B
100
AcDbEntity
 67
     1
  8
0
  6
Continuous
 62
     7
370
    25
100
AcDbCircle
 10
-5.4378467222
 20
2.5357095704
 30
0.0
 40
0.500000000000006
100
AcDbArc
 50
335.0
 51
155.0
  0
ARC
  5
207
330
1B
100
AcDbEntity
 67
     1
  8
0
  6
Continuous
 62
     7
370
    25
100
AcDbCircle
 10
0.0
 20
0.0
 30
0.0
 40
6.50000000000001
100
AcDbArc
 50
155.0
 51
210.0
  0
ARC
  5
208
330
1B
100
AcDbEntity
 67
     1
  8
0
  6
Continuous
 62
     7
370
    25
100
AcDbCircle
 10
-5.1961524227
 20
-3.0
 30
0.0
 40
0.5000000000000053
100
AcDbArc
 50
210.0
 51
30.0
  0
ARC
  5
209
330
1B
100
AcDbEntity
 67
     1
  8
0
  6
Continuous
 62
     7
370
    25
100
AcDbCircle
 10
0.0
 20
0.0
 30
0.0
 40
5.499999999999999
100
AcDbArc
 50
155.0
 51
210.0
  0
ARC
  5
20A
330
1B
100
AcDbEntity
 67
     1
  8
0
  6
Continuous
 62
     7
370
    25
100
AcDbCircle
 10
0.0
 20
0.0
 30
0.0
 40
16.50000000000002
100
AcDbArc
 50
96.9620626911
 51
173.0379373089
  0
ARC
  5
20B
330
1B
100
AcDbEntity
 67
     1
  8
0
  6
Continuous
 62
     7
370
    25
100
AcDbCircle
 10
0.0
 20
0.0
 30
0.0
 40
16.50000000000002
100
AcDbArc
 50
186.9620626911
 51
263.0379373089
  0
ARC
  5
20C
330
1B
100
AcDbEntity
 67
     1
  8
0
  6
Continuous
 62
     7
370
    25
100
AcDbCircle
 10
0.0000000001
 20
0.0
 30
0.0
 40
16.5000000000767
100
AcDbArc
 50
177.3947487349
 51
182.6052512651
  0
ARC
  5
20D
330
1B
100
AcDbEntity
 67
     1
  8
0
  6
Continuous
 62
     7
370
    25
100
AcDbCircle
 10
0.0
 20
0.0
 30
0.0
 40
16.49999999999963
100
AcDbArc
 50
87.3947487349
 51
92.6052512651
  0
ARC
  5
20E
330
1B
100
AcDbEntity
 67
     1
  8
0
  6
Continuous
 62
     7
370
    25
100
AcDbCircle
 10
0.0
 20
0.0
 30
0.0
 40
16.49999999999963
100
AcDbArc
 50
267.3947487349
 51
272.6052512651
  0
ARC
  5
20F
330
1B
100
AcDbEntity
 67
     1
  8
0
  6
Continuous
 62
     7
370
    25
100
AcDbCircle
 10
0.0
 20
0.0
 30
0.0
 40
16.49999999999963
100
AcDbArc
 50
357.3947487349
 51
2.6052512651
  0
ARC
  5
210
330
1B
100
AcDbEntity
 67
     1
  8
0
  6
Continuous
 62
     7
370
    25
100
AcDbCircle
 10
0.0
 20
0.0
 30
0.0
 40
18.00100000005036
100
AcDbArc
 50
283.5546146519
 51
286.337870932
  0
ARC
  5
211
330
1B
100
AcDbEntity
 67
     1
  8
0
  6
Continuous
 62
     7
370
    25
100
AcDbCircle
 10
0.0
 20
0.0
 30
0.0
 40
18.00100000001352
100
AcDbArc
 50
246.0828657386
 51
252.0660805101
  0
ARC
  5
212
330
1B
100
AcDbEntity
 67
     1
  8
0
  6
Continuous
 62
     7
370
    25
100
AcDbCircle
 10
0.0
 20
0.0000000001
 30
0.0
 40
18.00100000008925
100
AcDbArc
 50
266.5248605415
 51
270.9592010555
  0
ARC
  5
213
330
1B
100
AcDbEntity
 67
     1
  8
0
  6
Continuous
 62
     7
370
    25
100
AcDbCircle
 10
0.0
 20
0.0
 30
0.0
 40
18.00099999999077
100
AcDbArc
 50
260.6359936773
 51
264.3076905213
  0
ARC
  5
214
330
1B
100
AcDbEntity
 67
     1
  8
0
  6
Continuous
 62
     7
370
    25
100
AcDbCircle
 10
0.0
 20
0.0
 30
0.0
 40
18.00100000003075
100
AcDbArc
 50
289.2311994166
 51
291.4798188971
  0
ARC
  5
215
330
1B
100
AcDbEntity
 67
     1
  8
0
  6
Continuous
 62
     7
370
    25
100
AcDbCircle
 10
0.0
 20
0.0
 30
0.0
 40
18.00099999998883
100
AcDbArc
 50
253.5206068604
 51
257.5932813041
  0
ARC
  5
216
330
1B
100
AcDbEntity
 67
     1
  8
0
  6
Continuous
 62
     7
370
    25
100
AcDbCircle
 10
0.0
 20
0.0
 30
0.0
 40
18.00100000001468
100
AcDbArc
 50
298.4379596664
 51
300.4900215
  0
VIEWPORT
  5
329
330
1B
100
AcDbEntity
 67
     1
  8
0
100
AcDbViewport
 10
0.0
 20
0.0
 30
0.0
 40
205.6
 41
156.0
 68
     1
 69
     1
 12
0.0
 22
-0.0005
 13
0.0
 23
0.0
 14
10.0
 24
10.0
 15
10.0
 25
10.0
 16
0.0
 26
0.0
 36
1.0
 17
0.0
 27
0.0
 37
0.0
 42
50.0
 43
0.0
 44
0.0
 45
36.72102
 50
0.0
 51
0.0
 72
   100
 90
   557152
  1

281
     0
 71
     1
 74
     0
110
0.0
120
0.0
130
0.0
111
1.0
121
0.0
131
0.0
112
0.0
122
1.0
132
0.0
 79
     0
146
0.0
  0
MTEXT
  5
32E
330
1B
100
AcDbEntity
 67
     1
  8
0
  6
Continuous
 62
     7
100
AcDbMText
 10
-18.0
 20
-19.0205663917
 30
0.0
 40
4.83362
 41
0.0
 71
     1
 72
     1
  1
SOLIDWORKS Educational Product.
  7
SLDTEXTSTYLE0
 73
     1
 44
1.0
  0
MTEXT
  5
32F
330
1B
100
AcDbEntity
 67
     1
  8
0
  6
Continuous
 62
     7
100
AcDbMText
 10
-18.0
 20
-26.2709963917
 30
0.0
 40
4.83362
 41
0.0
 71
     1
 72
     1
  1
For Instructional Use Only.
  7
SLDTEXTSTYLE0
 73
     1
 44
1.0
  0
ENDSEC
  0
SECTION
  2
OBJECTS
  0
DICTIONARY
  5
C
330
0
100
AcDbDictionary
281
     1
  3
ACAD_GROUP
350
D
  3
ACAD_LAYOUT
350
1A
  3
ACAD_MLINESTYLE
350
17
  3
ACAD_PLOTSETTINGS
350
19
  3
ACAD_PLOTSTYLENAME
350
E
  3
ACAD_SCALELIST
350
47
  3
DWGPROPS
350
334
  0
DICTIONARY
  5
D
102
{ACAD_REACTORS
330
C
102
}
330
C
100
AcDbDictionary
281
     1
  0
DICTIONARY
  5
1A
102
{ACAD_REACTORS
330
C
102
}
330
C
100
AcDbDictionary
281
     1
  3
_Back
350
1E
  3
_Right
350
26
  3
Model
350
22
  0
DICTIONARY
  5
17
102
{ACAD_REACTORS
330
C
102
}
330
C
100
AcDbDictionary
281
     1
  3
Standard
350
18
  0
DICTIONARY
  5
19
102
{ACAD_REACTORS
330
C
102
}
330
C
100
AcDbDictionary
281
     1
  0
ACDBDICTIONARYWDFLT
  5
E
102
{ACAD_REACTORS
330
C
102
}
330
C
100
AcDbDictionary
281
     1
  3
Normal
350
F
100
AcDbDictionaryWithDefault
340
F
  0
DICTIONARY
  5
47
102
{ACAD_REACTORS
330
C
102
}
330
C
100
AcDbDictionary
281
     1
  3
A0
350
48
  3
A1
350
49
  3
A2
350
4A
  3
A3
350
4B
  3
A4
350
4C
  3
A5
350
4D
  3
A6
350
4E
  3
A7
350
4F
  3
A8
350
50
  3
A9
350
51
  3
B0
350
52
  3
B1
350
53
  3
B2
350
54
  3
B3
350
55
  3
B4
350
56
  3
B5
350
57
  3
B6
350
58
  0
XRECORD
  5
334
102
{ACAD_REACTORS
330
C
102
}
330
C
100
AcDbXrecord
280
     1
  1
DWGPROPS COOKIE
  2

  3

  4

  6

  7

  8
Yoav
  9

300
=
301
=
302
=
303
=
304
=
305
=
306
=
307
=
308
=
309
=
 40
0.0
 41
2461085.961651505
 42
2461085.961806088
  1

 90
        0
  0
LAYOUT
  5
1E
102
{ACAD_REACTORS
330
1A
102
}
330
1A
100
AcDbPlotSettings
  1

  2
none_device
  4
ISO_A4_(210.00_x_297.00_MM)
  6

 40
7.5
 41
20.0
 42
7.5
 43
20.0
 44
210.0
 45
297.0
 46
0.0
 47
0.0
 48
0.0
 49
0.0
140
0.0
141
0.0
142
1.0
143
0.1846205128
 70
   688
 72
     1
 73
     1
 74
     1
  7

 75
     0
147
5.4165162079
148
18.0
149
18.001
100
AcDbLayout
  1
_Back
 70
     1
 71
     1
 10
-21.6924102564
 20
-19.3856538462
 11
33.1398820513
 21
19.3846538462
 12
0.0
 22
0.0
 32
0.0
 14
-18.0
 24
-18.001
 34
0.0
 15
18.0
 25
18.0
 35
0.0
146
0.0
 13
0.0
 23
0.0
 33
0.0
 16
1.0
 26
0.0
 36
0.0
 17
0.0
 27
1.0
 37
0.0
 76
     0
330
1B
331
329
  0
LAYOUT
  5
26
102
{ACAD_REACTORS
330
1A
102
}
330
1A
100
AcDbPlotSettings
  1

  2
none_device
  4
ISO_A4_(210.00_x_297.00_MM)
  6

 40
7.5
 41
20.0
 42
7.5
 43
20.0
 44
210.0
 45
297.0
 46
0.0
 47
0.0
 48
0.0
 49
0.0
140
0.0
141
0.0
142
1.0
143
0.1846205128
 70
   688
 72
     1
 73
     1
 74
     1
  7

 75
     0
147
5.4165162079
148
18.0
149
18.001
100
AcDbLayout
  1
_Right
 70
     1
 71
     2
 10
0.0
 20
0.0
 11
0.0
 21
0.0
 12
0.0
 22
0.0
 32
0.0
 14
0.0
 24
0.0
 34
0.0
 15
0.0
 25
0.0
 35
0.0
146
0.0
 13
0.0
 23
0.0
 33
0.0
 16
1.0
 26
0.0
 36
0.0
 17
0.0
 27
1.0
 37
0.0
 76
     0
330
23
331
32B
  0
LAYOUT
  5
22
102
{ACAD_REACTORS
330
1A
102
}
330
1A
100
AcDbPlotSettings
  1

  2
none_device
  4
ANSI_A_(11.00_x_8.50_Inches)
  6

 40
6.35
 41
19.05
 42
6.35000508
 43
19.05000254
 44
279.4
 45
215.9
 46
133.34999746
 47
88.9029672725
 48
0.0
 49
0.0
140
0.0
141
0.0
142
0.2337435071
143
1.0
 70
  1696
 72
     0
 73
     0
 74
     0
  7

 75
     0
147
0.0179189148
148
-1300.4909072572
149
0.0
100
AcDbLayout
  1
Model
 70
     1
 71
     0
 10
0.0
 20
0.0
 11
420.0
 21
297.0
 12
0.0
 22
0.0
 32
0.0
 14
-18.0
 24
-18.001
 34
0.0
 15
18.0
 25
18.0
 35
0.0
146
0.0
 13
0.0
 23
0.0
 33
0.0
 16
1.0
 26
0.0
 36
0.0
 17
0.0
 27
1.0
 37
0.0
 76
     0
330
1F
331
29
  0
MLINESTYLE
  5
18
102
{ACAD_REACTORS
330
17
102
}
330
17
100
AcDbMlineStyle
  2
Standard
 70
     0
  3

 62
   256
 51
90.0
 52
90.0
 71
     2
 49
0.5
 62
   256
  6
BYLAYER
 49
-0.5
 62
   256
  6
BYLAYER
  0
ACDBPLACEHOLDER
  5
F
102
{ACAD_REACTORS
330
E
102
}
330
E
  0
SCALE
  5
48
102
{ACAD_REACTORS
330
47
102
}
330
47
100
AcDbScale
 70
     0
300
1:1
140
1.0
141
1.0
290
     1
  0
SCALE
  5
49
102
{ACAD_REACTORS
330
47
102
}
330
47
100
AcDbScale
 70
     0
300
1:2
140
1.0
141
2.0
290
     0
  0
SCALE
  5
4A
102
{ACAD_REACTORS
330
47
102
}
330
47
100
AcDbScale
 70
     0
300
1:4
140
1.0
141
4.0
290
     0
  0
SCALE
  5
4B
102
{ACAD_REACTORS
330
47
102
}
330
47
100
AcDbScale
 70
     0
300
1:5
140
1.0
141
5.0
290
     0
  0
SCALE
  5
4C
102
{ACAD_REACTORS
330
47
102
}
330
47
100
AcDbScale
 70
     0
300
1:8
140
1.0
141
8.0
290
     0
  0
SCALE
  5
4D
102
{ACAD_REACTORS
330
47
102
}
330
47
100
AcDbScale
 70
     0
300
1:10
140
1.0
141
10.0
290
     0
  0
SCALE
  5
4E
102
{ACAD_REACTORS
330
47
102
}
330
47
100
AcDbScale
 70
     0
300
1:16
140
1.0
141
16.0
290
     0
  0
SCALE
  5
4F
102
{ACAD_REACTORS
330
47
102
}
330
47
100
AcDbScale
 70
     0
300
1:20
140
1.0
141
20.0
290
     0
  0
SCALE
  5
50
102
{ACAD_REACTORS
330
47
102
}
330
47
100
AcDbScale
 70
     0
300
1:30
140
1.0
141
30.0
290
     0
  0
SCALE
  5
51
102
{ACAD_REACTORS
330
47
102
}
330
47
100
AcDbScale
 70
     0
300
1:40
140
1.0
141
40.0
290
     0
  0
SCALE
  5
52
102
{ACAD_REACTORS
330
47
102
}
330
47
100
AcDbScale
 70
     0
300
1:50
140
1.0
141
50.0
290
     0
  0
SCALE
  5
53
102
{ACAD_REACTORS
330
47
102
}
330
47
100
AcDbScale
 70
     0
300
1:100
140
1.0
141
100.0
290
     0
  0
SCALE
  5
54
102
{ACAD_REACTORS
330
47
102
}
330
47
100
AcDbScale
 70
     0
300
2:1
140
2.0
141
1.0
290
     0
  0
SCALE
  5
55
102
{ACAD_REACTORS
330
47
102
}
330
47
100
AcDbScale
 70
     0
300
4:1
140
4.0
141
1.0
290
     0
  0
SCALE
  5
56
102
{ACAD_REACTORS
330
47
102
}
330
47
100
AcDbScale
 70
     0
300
8:1
140
8.0
141
1.0
290
     0
  0
SCALE
  5
57
102
{ACAD_REACTORS
330
47
102
}
330
47
100
AcDbScale
 70
     0
300
10:1
140
10.0
141
1.0
290
     0
  0
SCALE
  5
58
102
{ACAD_REACTORS
330
47
102
}
330
47
100
AcDbScale
 70
     0
300
100:1
140
100.0
141
1.0
290
     0
  0
ENDSEC
  0
EOF
