  0
SECTION
  2
HEADER
  9
$ACADVER
  1
AC1015
  9
$ACADMAINTVER
 70
     6
  9
$DWGCODEPAGE
  3
ANSI_1252
  9
$INSBASE
 10
0.0
 20
0.0
 30
0.0
  9
$EXTMIN
 10
-14.5
 20
-31.5
 30
0.0
  9
$EXTMAX
 10
14.5
 20
31.5
 30
0.0
  9
$LIMMIN
 10
0.0
 20
0.0
  9
$LIMMAX
 10
420.0
 20
297.0
  9
$ORTHOMODE
 70
     0
  9
$REGENMODE
 70
     1
  9
$FILLMODE
 70
     1
  9
$QTEXTMODE
 70
     0
  9
$MIRRTEXT
 70
     1
  9
$LTSCALE
 40
1.0
  9
$ATTMODE
 70
     1
  9
$TEXTSIZE
 40
3.5
  9
$TRACEWID
 40
1.0
  9
$TEXTSTYLE
  7
Standard
  9
$CLAYER
  8
0
  9
$CELTYPE
  6
ByLayer
  9
$CECOLOR
 62
   256
  9
$CELTSCALE
 40
1.0
  9
$DISPSILH
 70
     0
  9
$DIMSCALE
 40
1.0
  9
$DIMASZ
 40
3.302
  9
$DIMEXO
 40
0.0
  9
$DIMDLI
 40
3.75
  9
$DIMRND
 40
0.0
  9
$DIMDLE
 40
0.0
  9
$DIMEXE
 40
1.0
  9
$DIMTP
 40
0.0
  9
$DIMTM
 40
0.0
  9
$DIMTXT
 40
3.5
  9
$DIMCEN
 40
2.5
  9
$DIMTSZ
 40
0.0
  9
$DIMTOL
 70
     0
  9
$DIMLIM
 70
     0
  9
$DIMTIH
 70
     1
  9
$DIMTOH
 70
     1
  9
$DIMSE1
 70
     0
  9
$DIMSE2
 70
     0
  9
$DIMTAD
 70
     1
  9
$DIMZIN
 70
     0
  9
$DIMBLK
  1

  9
$DIMASO
 70
     1
  9
$DIMSHO
 70
     1
  9
$DIMPOST
  1

  9
$DIMAPOST
  1

  9
$DIMALT
 70
     0
  9
$DIMALTD
 70
     3
  9
$DIMALTF
 40
0.0393700787
  9
$DIMLFAC
 40
1.0
  9
$DIMTOFL
 70
     1
  9
$DIMTVP
 40
0.0
  9
$DIMTIX
 70
     0
  9
$DIMSOXD
 70
     0
  9
$DIMSAH
 70
     0
  9
$DIMBLK1
  1

  9
$DIMBLK2
  1

  9
$DIMSTYLE
  2
ISO-25
  9
$DIMCLRD
 70
     0
  9
$DIMCLRE
 70
     0
  9
$DIMCLRT
 70
     0
  9
$DIMTFAC
 40
1.0
  9
$DIMGAP
 40
1.524
  9
$DIMJUST
 70
     0
  9
$DIMSD1
 70
     0
  9
$DIMSD2
 70
     0
  9
$DIMTOLJ
 70
     0
  9
$DIMTZIN
 70
     0
  9
$DIMALTZ
 70
     0
  9
$DIMALTTZ
 70
     0
  9
$DIMUPT
 70
     0
  9
$DIMDEC
 70
     2
  9
$DIMTDEC
 70
     2
  9
$DIMALTU
 70
     2
  9
$DIMALTTD
 70
     3
  9
$DIMTXSTY
  7
Standard
  9
$DIMAUNIT
 70
     0
  9
$DIMADEC
 70
     2
  9
$DIMALTRND
 40
0.0
  9
$DIMAZIN
 70
     0
  9
$DIMDSEP
 70
    44
  9
$DIMATFIT
 70
     3
  9
$DIMFRAC
 70
     0
  9
$DIMLDRBLK
  1

  9
$DIMLUNIT
 70
     2
  9
$DIMLWD
 70
    -2
  9
$DIMLWE
 70
    -2
  9
$DIMTMOVE
 70
     0
  9
$LUNITS
 70
     2
  9
$LUPREC
 70
     2
  9
$SKETCHINC
 40
1.0
  9
$FILLETRAD
 40
0.0
  9
$AUNITS
 70
     0
  9
$AUPREC
 70
     2
  9
$MENU
  1
.
  9
$ELEVATION
 40
0.0
  9
$PELEVATION
 40
0.0
  9
$THICKNESS
 40
0.0
  9
$LIMCHECK
 70
     0
  9
$CHAMFERA
 40
0.0
  9
$CHAMFERB
 40
0.0
  9
$CHAMFERC
 40
0.0
  9
$CHAMFERD
 40
0.0
  9
$SKPOLY
 70
     0
  9
$TDCREATE
 40
2461086.110118114
  9
$TDUCREATE
 40
2461086.02678478
  9
$TDUPDATE
 40
2461086.110158021
  9
$TDUUPDATE
 40
2461086.026824688
  9
$TDINDWG
 40
0.0000000116
  9
$TDUSRTIMER
 40
0.0000000116
  9
$USRTIMER
 70
     1
  9
$ANGBASE
 50
0.0
  9
$ANGDIR
 70
     0
  9
$PDMODE
 70
     0
  9
$PDSIZE
 40
-1.0
  9
$PLINEWID
 40
0.0
  9
$SPLFRAME
 70
     0
  9
$SPLINETYPE
 70
     6
  9
$SPLINESEGS
 70
     8
  9
$HANDSEED
  5
138
  9
$SURFTAB1
 70
     6
  9
$SURFTAB2
 70
     6
  9
$SURFTYPE
 70
     6
  9
$SURFU
 70
     6
  9
$SURFV
 70
     6
  9
$UCSBASE
  2

  9
$UCSNAME
  2

  9
$UCSORG
 10
0.0
 20
0.0
 30
0.0
  9
$UCSXDIR
 10
1.0
 20
0.0
 30
0.0
  9
$UCSYDIR
 10
0.0
 20
1.0
 30
0.0
  9
$UCSORTHOREF
  2

  9
$UCSORTHOVIEW
 70
     0
  9
$UCSORGTOP
 10
0.0
 20
0.0
 30
0.0
  9
$UCSORGBOTTOM
 10
0.0
 20
0.0
 30
0.0
  9
$UCSORGLEFT
 10
0.0
 20
0.0
 30
0.0
  9
$UCSORGRIGHT
 10
0.0
 20
0.0
 30
0.0
  9
$UCSORGFRONT
 10
0.0
 20
0.0
 30
0.0
  9
$UCSORGBACK
 10
0.0
 20
0.0
 30
0.0
  9
$PUCSBASE
  2

  9
$PUCSNAME
  2

  9
$PUCSORG
 10
0.0
 20
0.0
 30
0.0
  9
$PUCSXDIR
 10
1.0
 20
0.0
 30
0.0
  9
$PUCSYDIR
 10
0.0
 20
1.0
 30
0.0
  9
$PUCSORTHOREF
  2

  9
$PUCSORTHOVIEW
 70
     0
  9
$PUCSORGTOP
 10
0.0
 20
0.0
 30
0.0
  9
$PUCSORGBOTTOM
 10
0.0
 20
0.0
 30
0.0
  9
$PUCSORGLEFT
 10
0.0
 20
0.0
 30
0.0
  9
$PUCSORGRIGHT
 10
0.0
 20
0.0
 30
0.0
  9
$PUCSORGFRONT
 10
0.0
 20
0.0
 30
0.0
  9
$PUCSORGBACK
 10
0.0
 20
0.0
 30
0.0
  9
$USERI1
 70
     0
  9
$USERI2
 70
     0
  9
$USERI3
 70
     0
  9
$USERI4
 70
     0
  9
$USERI5
 70
     0
  9
$USERR1
 40
0.0
  9
$USERR2
 40
0.0
  9
$USERR3
 40
0.0
  9
$USERR4
 40
0.0
  9
$USERR5
 40
0.0
  9
$WORLDVIEW
 70
     1
  9
$SHADEDGE
 70
     3
  9
$SHADEDIF
 70
    70
  9
$TILEMODE
 70
     1
  9
$MAXACTVP
 70
    64
  9
$PINSBASE
 10
0.0
 20
0.0
 30
0.0
  9
$PLIMCHECK
 70
     0
  9
$PEXTMIN
 10
1.0000000000E+20
 20
1.0000000000E+20
 30
1.0000000000E+20
  9
$PEXTMAX
 10
-1.0000000000E+20
 20
-1.0000000000E+20
 30
-1.0000000000E+20
  9
$PLIMMIN
 10
0.0
 20
0.0
  9
$PLIMMAX
 10
420.0
 20
297.0
  9
$UNITMODE
 70
     0
  9
$VISRETAIN
 70
     1
  9
$PLINEGEN
 70
     0
  9
$PSLTSCALE
 70
     1
  9
$TREEDEPTH
 70
  3020
  9
$CMLSTYLE
  2
Standard
  9
$CMLJUST
 70
     0
  9
$CMLSCALE
 40
20.0
  9
$PROXYGRAPHICS
 70
     1
  9
$MEASUREMENT
 70
     1
  9
$CELWEIGHT
370
    -1
  9
$ENDCAPS
280
     0
  9
$JOINSTYLE
280
     0
  9
$LWDISPLAY
290
     1
  9
$INSUNITS
 70
     4
  9
$HYPERLINKBASE
  1

  9
$STYLESHEET
  1

  9
$XEDIT
290
     1
  9
$CEPSNTYPE
380
     0
  9
$PSTYLEMODE
290
     1
  9
$FINGERPRINTGUID
  2
{ac9f2b25-b3cf-4915-afff-0d2bd944a874}
  9
$VERSIONGUID
  2
{FAEB1C32-E019-11D5-929B-00C0DF256EC4}
  9
$EXTNAMES
290
     1
  9
$PSVPSCALE
 40
0.0
  9
$OLESTARTUP
290
     0
  0
ENDSEC
  0
SECTION
  2
CLASSES
  0
CLASS
  1
ACDBDICTIONARYWDFLT
  2
AcDbDictionaryWithDefault
  3
ObjectDBX Classes
 90
        0
280
     0
281
     0
  0
CLASS
  1
VISUALSTYLE
  2
AcDbVisualStyle
  3
ObjectDBX Classes
 90
     4095
280
     0
281
     0
  0
CLASS
  1
MATERIAL
  2
AcDbMaterial
  3
ObjectDBX Classes
 90
     1153
280
     0
281
     0
  0
CLASS
  1
SCALE
  2
AcDbScale
  3
ObjectDBX Classes
 90
     1153
280
     0
281
     0
  0
CLASS
  1
TABLESTYLE
  2
AcDbTableStyle
  3
ObjectDBX Classes
 90
     4095
280
     0
281
     0
  0
CLASS
  1
MLEADERSTYLE
  2
AcDbMLeaderStyle
  3
ACDB_MLEADERSTYLE_CLASS
 90
     4095
280
     0
281
     0
  0
CLASS
  1
SUN
  2
AcDbSun
  3
SCENEOE
 90
     1153
280
     0
281
     0
  0
CLASS
  1
ACDBPLACEHOLDER
  2
AcDbPlaceHolder
  3
ObjectDBX Classes
 90
        0
280
     0
281
     0
  0
CLASS
  1
LAYOUT
  2
AcDbLayout
  3
ObjectDBX Classes
 90
        0
280
     0
281
     0
  0
ENDSEC
  0
SECTION
  2
TABLES
  0
TABLE
  2
VPORT
  5
8
330
0
100
AcDbSymbolTable
 70
     1
  0
VPORT
  5
29
330
8
100
AcDbSymbolTableRecord
100
AcDbViewportTableRecord
  2
*Active
 70
     0
 10
0.0
 20
0.0
 11
1.0
 21
1.0
 12
0.0
 22
0.0
 13
0.0
 23
0.0
 14
10.0
 24
10.0
 15
10.0
 25
10.0
 16
0.0
 26
0.0
 36
1.0
 17
0.0
 27
0.0
 37
0.0
 40
64.26
 41
0.4603174603
 42
50.0
 43
0.0
 44
0.0
 50
0.0
 51
0.0
 71
     0
 72
   100
 73
     1
 74
     3
 75
     0
 76
     0
 77
     0
 78
     0
281
     0
 65
     1
110
0.0
120
0.0
130
0.0
111
1.0
121
0.0
131
0.0
112
0.0
122
1.0
132
0.0
 79
     0
146
0.0
  0
ENDTAB
  0
TABLE
  2
LTYPE
  5
5
330
0
100
AcDbSymbolTable
 70
     6
  0
LTYPE
  5
14
330
5
100
AcDbSymbolTableRecord
100
AcDbLinetypeTableRecord
  2
ByBlock
 70
     0
  3

 72
    65
 73
     0
 40
0.0
  0
LTYPE
  5
15
330
5
100
AcDbSymbolTableRecord
100
AcDbLinetypeTableRecord
  2
ByLayer
 70
     0
  3

 72
    65
 73
     0
 40
0.0
  0
LTYPE
  5
16
330
5
100
AcDbSymbolTableRecord
100
AcDbLinetypeTableRecord
  2
Continuous
 70
     0
  3
Solid line
 72
    65
 73
     0
 40
0.0
  0
LTYPE
  5
5E
330
5
100
AcDbSymbolTableRecord
100
AcDbLinetypeTableRecord
  2
HIDDEN
 70
     0
  3
Hidden __ __ __ __ __ __ __ __ __ __ __ __ __ __
 72
    65
 73
     2
 40
1.905
 49
1.27
 74
     0
 49
-0.635
 74
     0
  0
LTYPE
  5
5F
330
5
100
AcDbSymbolTableRecord
100
AcDbLinetypeTableRecord
  2
PHANTOM
 70
     0
  3
Phantom ______  __  __  ______  __  __  ______
 72
    65
 73
     6
 40
12.7
 49
6.35
 74
     0
 49
-1.27
 74
     0
 49
1.27
 74
     0
 49
-1.27
 74
     0
 49
1.27
 74
     0
 49
-1.27
 74
     0
  0
LTYPE
  5
60
330
5
100
AcDbSymbolTableRecord
100
AcDbLinetypeTableRecord
  2
CENTER
 70
     0
  3
Center ____ _ ____ _ ____ _ ____ _ ____ _ ____
 72
    65
 73
     4
 40
10.16
 49
6.35
 74
     0
 49
-1.27
 74
     0
 49
1.27
 74
     0
 49
-1.27
 74
     0
  0
LTYPE
  5
61
330
5
100
AcDbSymbolTableRecord
100
AcDbLinetypeTableRecord
  2
CENTERX2
 70
     0
  3
Center (2x) ________  __  ________  __  _____
 72
    65
 73
     4
 40
20.32
 49
12.7
 74
     0
 49
-2.54
 74
     0
 49
2.54
 74
     0
 49
-2.54
 74
     0
  0
LTYPE
  5
62
330
5
100
AcDbSymbolTableRecord
100
AcDbLinetypeTableRecord
  2
DOT2
 70
     0
  3
Dot (.5x) ........................................
 72
    65
 73
     2
 40
0.635
 49
0.0
 74
     0
 49
-0.635
 74
     0
  0
ENDTAB
  0
TABLE
  2
LAYER
  5
2
330
0
100
AcDbSymbolTable
 70
     1
  0
LAYER
  5
10
330
2
100
AcDbSymbolTableRecord
100
AcDbLayerTableRecord
  2
0
 70
     0
 62
     7
  6
Continuous
370
    -3
390
F
  0
ENDTAB
  0
TABLE
  2
STYLE
  5
3
330
0
100
AcDbSymbolTable
 70
     2
  0
STYLE
  5
11
330
3
100
AcDbSymbolTableRecord
100
AcDbTextStyleTableRecord
  2
Standard
 70
     0
 40
0.0
 41
1.0
 50
0.0
 71
     0
 42
3.5
  3
txt
  4

  0
STYLE
  5
134
330
3
100
AcDbSymbolTableRecord
100
AcDbTextStyleTableRecord
  2
SLDTEXTSTYLE0
 70
     0
 40
0.0
 41
0.7
 50
0.0
 71
     0
 42
3.5
  3
TXT
  4

  0
ENDTAB
  0
TABLE
  2
VIEW
  5
6
330
0
100
AcDbSymbolTable
 70
     0
  0
ENDTAB
  0
TABLE
  2
UCS
  5
7
330
0
100
AcDbSymbolTable
 70
     0
  0
ENDTAB
  0
TABLE
  2
APPID
  5
9
330
0
100
AcDbSymbolTable
 70
     1
  0
APPID
  5
12
330
9
100
AcDbSymbolTableRecord
100
AcDbRegAppTableRecord
  2
ACAD
 70
     0
  0
ENDTAB
  0
TABLE
  2
DIMSTYLE
  5
A
330
0
100
AcDbSymbolTable
 70
     1
100
AcDbDimStyleTable
  0
DIMSTYLE
105
27
330
A
100
AcDbSymbolTableRecord
100
AcDbDimStyleTableRecord
  2
ISO-25
 70
     0
 41
2.5
 42
0.625
 43
3.75
 44
1.25
 73
     0
 74
     0
 77
     1
 78
     8
140
2.5
141
2.5
143
0.0393700787
147
0.625
171
     3
172
     1
178
     0
271
     2
272
     2
274
     3
278
    44
283
     0
284
     8
340
11
  0
ENDTAB
  0
TABLE
  2
BLOCK_RECORD
  5
1
330
0
100
AcDbSymbolTable
 70
     1
  0
BLOCK_RECORD
  5
1F
330
1
100
AcDbSymbolTableRecord
100
AcDbBlockTableRecord
  2
*Model_Space
340
22
  0
BLOCK_RECORD
  5
1B
330
1
100
AcDbSymbolTableRecord
100
AcDbBlockTableRecord
  2
*Paper_Space
340
1E
  0
BLOCK_RECORD
  5
23
330
1
100
AcDbSymbolTableRecord
100
AcDbBlockTableRecord
  2
*Paper_Space0
340
26
  0
ENDTAB
  0
ENDSEC
  0
SECTION
  2
BLOCKS
  0
BLOCK
  5
20
330
1F
100
AcDbEntity
  8
0
100
AcDbBlockBegin
  2
*Model_Space
 70
     0
 10
0.0
 20
0.0
 30
0.0
  3
*Model_Space
  1

  0
ENDBLK
  5
21
330
1F
100
AcDbEntity
  8
0
100
AcDbBlockEnd
  0
BLOCK
  5
1C
330
1B
100
AcDbEntity
 67
     1
  8
0
100
AcDbBlockBegin
  2
*Paper_Space
 70
     0
 10
0.0
 20
0.0
 30
0.0
  3
*Paper_Space
  1

  0
ENDBLK
  5
1D
330
1B
100
AcDbEntity
 67
     1
  8
0
100
AcDbBlockEnd
  0
BLOCK
  5
24
330
23
100
AcDbEntity
  8
0
100
AcDbBlockBegin
  2
*Paper_Space0
 70
     0
 10
0.0
 20
0.0
 30
0.0
  3
*Paper_Space0
  1

  0
ENDBLK
  5
25
330
23
100
AcDbEntity
  8
0
100
AcDbBlockEnd
  0
ENDSEC
  0
SECTION
  2
ENTITIES
  0
SPLINE
  5
69
330
1F
100
AcDbEntity
  8
0
  6
Continuous
 62
     7
370
    25
100
AcDbSpline
210
0.0
220
0.0
230
1.0
 70
     8
 71
     3
 72
     8
 73
     4
 74
     0
 42
0.00000001
 43
0.00000001
 40
0.0
 40
0.0
 40
0.0
 40
0.0
 40
1.0
 40
1.0
 40
1.0
 40
1.0
 10
7.9110020664838
 20
-0.0111224219119066
 30
0.0
 10
7.31722492819716
 20
1.773205656756062
 30
0.0
 10
6.723447789910521
 20
3.557562279723331
 30
0.0
 10
6.129670651623882
 20
5.317842105871108
 30
0.0
  0
SPLINE
  5
6A
330
1F
100
AcDbEntity
  8
0
  6
Continuous
 62
     7
370
    25
100
AcDbSpline
210
0.0
220
0.0
230
1.0
 70
     8
 71
     3
 72
     8
 73
     4
 74
     0
 42
0.00000001
 43
0.00000001
 40
0.0
 40
0.0
 40
0.0
 40
0.0
 40
1.0
 40
1.0
 40
1.0
 40
1.0
 10
4.645545826521805
 20
1.94295274153921
 30
0.0
 10
5.140254101555601
 20
0.9716068704881441
 30
0.0
 10
5.634962376589399
 20
-0.0023524022731553
 30
0.0
 10
6.129670651623194
 20
-0.9750007598651163
 30
0.0
  0
SPLINE
  5
6B
330
1F
100
AcDbEntity
  8
0
  6
Continuous
 62
     7
370
    25
100
AcDbSpline
210
0.0
220
0.0
230
1.0
 70
     8
 71
     3
 72
    17
 73
    13
 74
     0
 42
0.00000001
 43
0.00000001
 40
0.0
 40
0.0
 40
0.0
 40
0.0
 40
0.0623002448595524
 40
0.1241712791300032
 40
0.1859147079292789
 40
0.2478340010311227
 40
0.3720125037634291
 40
0.4966199801402822
 40
0.6216707004631099
 40
0.7472697602645669
 40
0.8731451205141884
 40
1.0
 40
1.0
 40
1.0
 40
1.0
 10
2.906061491431135
 20
3.024962914504285
 30
0.0
 10
2.950851971013308
 20
3.024021013610287
 30
0.0
 10
3.040124351163706
 20
3.022143700943459
 30
0.0
 10
3.17313255323675
 20
3.007667194385436
 30
0.0
 10
3.304567784187982
 20
2.984621913351859
 30
0.0
 10
3.477488946657481
 20
2.941430435899522
 30
0.0
 10
3.688114453172154
 20
2.865098005808299
 30
0.0
 10
3.925931081418689
 20
2.738709135794483
 30
0.0
 10
4.145347834193911
 20
2.580776007163112
 30
0.0
 10
4.340813922443496
 20
2.39316116967385
 30
0.0
 10
4.512440306998392
 20
2.181155260766514
 30
0.0
 10
4.601062827102119
 20
2.022558475114303
 30
0.0
 10
4.645545826521801
 20
1.94295274153921
 30
0.0
  0
SPLINE
  5
6D
330
1F
100
AcDbEntity
  8
0
  6
Continuous
 62
     7
370
    25
100
AcDbSpline
210
0.0
220
0.0
230
1.0
 70
     8
 71
     3
 72
     8
 73
     4
 74
     0
 42
0.00000001
 43
0.00000001
 40
0.0
 40
0.0
 40
0.0
 40
0.0
 40
1.0
 40
1.0
 40
1.0
 40
1.0
 10
-2.518487400016738
 20
2.733710823733518
 30
0.0
 10
-2.338386031024051
 20
2.830833044614357
 30
0.0
 10
-2.158284662031363
 20
2.927918384637433
 30
0.0
 10
-1.978183293038675
 20
3.024962914504227
 30
0.0
  0
SPLINE
  5
6E
330
1F
100
AcDbEntity
  8
0
  6
Continuous
 62
     7
370
    25
100
AcDbSpline
210
0.0
220
0.0
230
1.0
 70
     8
 71
     3
 72
     8
 73
     4
 74
     0
 42
0.00000001
 43
0.00000001
 40
0.0
 40
0.0
 40
0.0
 40
0.0
 40
1.0
 40
1.0
 40
1.0
 40
1.0
 10
-2.902394360907112
 20
3.485369365252294
 30
0.0
 10
-2.774425504666912
 20
3.235107523383523
 30
0.0
 10
-2.646456648426711
 20
2.984532061201405
 30
0.0
 10
-2.518487792186511
 20
2.733710612250403
 30
0.0
  0
SPLINE
  5
71
330
1F
100
AcDbEntity
  8
0
  6
Continuous
 62
     7
370
    25
100
AcDbSpline
210
0.0
220
0.0
230
1.0
 70
     8
 71
     3
 72
     8
 73
     4
 74
     0
 42
0.00000001
 43
0.00000001
 40
0.0
 40
0.0
 40
0.0
 40
0.0
 40
1.0
 40
1.0
 40
1.0
 40
1.0
 10
5.978435642633203
 20
0.364903221321091
 30
0.0
 10
5.395066631465441
 20
1.512312039231061
 30
0.0
 10
4.811702923875298
 20
2.659025082183288
 30
0.0
 10
4.228333912707534
 20
3.7986412737172
 30
0.0
  0
SPLINE
  5
72
330
1F
100
AcDbEntity
  8
0
  6
Continuous
 62
     7
370
    25
100
AcDbSpline
210
0.0
220
0.0
230
1.0
 70
     8
 71
     3
 72
    14
 73
    10
 74
     0
 42
0.00000001
 43
0.00000001
 40
0.0
 40
0.0
 40
0.0
 40
0.0
 40
0.25
 40
0.25
 40
0.5
 40
0.5
 40
0.75
 40
0.75
 40
1.0
 40
1.0
 40
1.0
 40
1.0
 10
7.170377013000095
 20
0.6678189967279242
 30
0.0
 10
7.170337978088018
 20
0.5222606719507428
 30
0.0
 10
7.122970783604203
 20
0.3803330169626501
 30
0.0
 10
6.948676672076952
 20
0.1508742672542796
 30
0.0
 10
6.826599254879945
 20
0.0694290933385884
 30
0.0
 10
6.552289309256635
 20
-0.0002446005258128
 30
0.0
 10
6.407421533948314
 20
0.0133517216427981
 30
0.0
 10
6.149968846886499
 20
0.1329834198016718
 30
0.0
 10
6.044947464126852
 20
0.2355231704758609
 30
0.0
 10
5.978435642633196
 20
0.364903221321091
 30
0.0
  0
SPLINE
  5
73
330
1F
100
AcDbEntity
  8
0
  6
Continuous
 62
     7
370
    25
100
AcDbSpline
210
0.0
220
0.0
230
1.0
 70
     8
 71
     3
 72
     8
 73
     4
 74
     0
 42
0.00000001
 43
0.00000001
 40
0.0
 40
0.0
 40
0.0
 40
0.0
 40
1.0
 40
1.0
 40
1.0
 40
1.0
 10
5.978435642632994
 20
4.237605735936604
 30
0.0
 10
6.375751026815389
 20
3.053847038065028
 30
0.0
 10
6.773061628817705
 20
1.861518294682488
 30
0.0
 10
7.170377013000102
 20
0.6678189967279242
 30
0.0
  0
SPLINE
  5
74
330
1F
100
AcDbEntity
  8
0
  6
Continuous
 62
     7
370
    25
100
AcDbSpline
210
0.0
220
0.0
230
1.0
 70
     8
 71
     3
 72
    10
 73
     6
 74
     0
 42
0.00000001
 43
0.00000001
 40
0.0
 40
0.0
 40
0.0
 40
0.0
 40
0.5
 40
0.5
 40
1.0
 40
1.0
 40
1.0
 40
1.0
 10
5.255225603572671
 20
4.765200546872326
 30
0.0
 10
5.415338841212241
 20
4.764529243202272
 30
0.0
 10
5.569959335077477
 20
4.714380009387937
 30
0.0
 10
5.829110843184694
 20
4.525395923989867
 30
0.0
 10
5.92592002320614
 20
4.392168027921151
 30
0.0
 10
5.978435642633008
 20
4.237605735936604
 30
0.0
  0
SPLINE
  5
76
330
1F
100
AcDbEntity
  8
0
  6
Continuous
 62
     7
370
    25
100
AcDbSpline
210
0.0
220
0.0
230
1.0
 70
     8
 71
     3
 72
    18
 73
    14
 74
     0
 42
0.00000001
 43
0.00000001
 40
0.0
 40
0.0
 40
0.0
 40
0.0
 40
0.25
 40
0.25
 40
0.375
 40
0.375
 40
0.5
 40
0.5
 40
0.625
 40
0.625
 40
0.75
 40
0.75
 40
1.0
 40
1.0
 40
1.0
 40
1.0
 10
-1.978183293038682
 20
3.798641273717158
 30
0.0
 10
-2.103622696584314
 20
3.79901622001556
 30
0.0
 10
-2.223761332766319
 20
3.849705162987357
 30
0.0
 10
-2.35660630830328
 20
3.985785043188963
 30
0.0
 10
-2.390798574488944
 20
4.038157080206934
 30
0.0
 10
-2.438721516798999
 20
4.156609178334406
 30
0.0
 10
-2.450737199490786
 20
4.218347552463555
 30
0.0
 10
-2.450723965376437
 20
4.346457914891605
 30
0.0
 10
-2.438733787944149
 20
4.408150659062698
 30
0.0
 10
-2.390786354585624
 20
4.526411757230446
 30
0.0
 10
-2.356615715398968
 20
4.578675882493099
 30
0.0
 10
-2.223742661328628
 20
4.714343861594979
 30
0.0
 10
-2.104097231906521
 20
4.764415463254257
 30
0.0
 10
-1.978183293038683
 20
4.765200546872268
 30
0.0
  0
SPLINE
  5
78
330
1F
100
AcDbEntity
  8
0
  6
Continuous
 62
     7
370
    25
100
AcDbSpline
210
0.0
220
0.0
230
1.0
 70
     8
 71
     3
 72
     8
 73
     4
 74
     0
 42
0.00000001
 43
0.00000001
 40
0.0
 40
0.0
 40
0.0
 40
0.0
 40
1.0
 40
1.0
 40
1.0
 40
1.0
 10
6.129671043792968
 20
-0.9750005477253932
 30
0.0
 10
6.723447910116279
 20
-0.6538037821373162
 30
0.0
 10
7.317224776439592
 20
-0.332464034335429
 30
0.0
 10
7.911001642762905
 20
-0.0111226512220429
 30
0.0
  0
SPLINE
  5
7A
330
1F
100
AcDbEntity
  8
0
  6
Continuous
 62
     7
370
    25
100
AcDbSpline
210
0.0
220
0.0
230
1.0
 70
     8
 71
     3
 72
     8
 73
     4
 74
     0
 42
0.00000001
 43
0.00000001
 40
0.0
 40
0.0
 40
0.0
 40
0.0
 40
1.0
 40
1.0
 40
1.0
 40
1.0
 10
-11.59548471509816
 20
1.01543801309716
 30
0.0
 10
-11.93660063505735
 20
0.2014142526700331
 30
0.0
 10
-12.27771570703269
 20
-0.6135639807541646
 30
0.0
 10
-12.61883162699189
 20
-1.427199704257785
 30
0.0
  0
SPLINE
  5
7C
330
1F
100
AcDbEntity
  8
0
  6
Continuous
 62
     7
370
    25
100
AcDbSpline
210
0.0
220
0.0
230
1.0
 70
     8
 71
     3
 72
     8
 73
     4
 74
     0
 42
0.00000001
 43
0.00000001
 40
0.0
 40
0.0
 40
0.0
 40
0.0
 40
1.0
 40
1.0
 40
1.0
 40
1.0
 10
10.90114491051887
 20
4.735220747931104
 30
0.0
 10
10.31798352809148
 20
2.757441513226917
 30
0.0
 10
9.734822145664088
 20
0.7527500261306815
 30
0.0
 10
9.151660763236697
 20
-1.244894712280699
 30
0.0
  0
SPLINE
  5
7F
330
1F
100
AcDbEntity
  8
0
  6
Continuous
 62
     7
370
    25
100
AcDbSpline
210
0.0
220
0.0
230
1.0
 70
     8
 71
     3
 72
     8
 73
     4
 74
     0
 42
0.00000001
 43
0.00000001
 40
0.0
 40
0.0
 40
0.0
 40
0.0
 40
1.0
 40
1.0
 40
1.0
 40
1.0
 10
11.964733600833
 20
0.7141709006216087
 30
0.0
 10
12.31288279186465
 20
-0.0683103652641034
 30
0.0
 10
12.66103125802278
 20
-0.8514111922106351
 30
0.0
 10
13.00918044905444
 20
-1.633092716995307
 30
0.0
  0
SPLINE
  5
82
330
1F
100
AcDbEntity
  8
0
  6
Continuous
 62
     7
370
    25
100
AcDbSpline
210
0.0
220
0.0
230
1.0
 70
     8
 71
     3
 72
     8
 73
     4
 74
     0
 42
0.00000001
 43
0.00000001
 40
0.0
 40
0.0
 40
0.0
 40
0.0
 40
1.0
 40
1.0
 40
1.0
 40
1.0
 10
-9.151660763236713
 20
-1.244894712280699
 30
0.0
 10
-9.734822145664102
 20
0.7527500261306815
 30
0.0
 10
-10.31798352809149
 20
2.757441513226917
 30
0.0
 10
-10.90114491051888
 20
4.735220747931104
 30
0.0
  0
SPLINE
  5
86
330
1F
100
AcDbEntity
  8
0
  6
Continuous
 62
     7
370
    25
100
AcDbSpline
210
0.0
220
0.0
230
1.0
 70
     8
 71
     3
 72
     8
 73
     4
 74
     0
 42
0.00000001
 43
0.00000001
 40
0.0
 40
0.0
 40
0.0
 40
0.0
 40
1.0
 40
1.0
 40
1.0
 40
1.0
 10
-13.00918044905445
 20
-1.633092716995307
 30
0.0
 10
-12.6610312580228
 20
-0.851411192210634
 30
0.0
 10
-12.31288279186466
 20
-0.0683103652641043
 30
0.0
 10
-11.96473360083301
 20
0.7141709006216087
 30
0.0
  0
SPLINE
  5
88
330
1F
100
AcDbEntity
  8
0
  6
Continuous
 62
     7
370
    25
100
AcDbSpline
210
0.0
220
0.0
230
1.0
 70
     8
 71
     3
 72
     8
 73
     4
 74
     0
 42
0.00000001
 43
0.00000001
 40
0.0
 40
0.0
 40
0.0
 40
0.0
 40
1.0
 40
1.0
 40
1.0
 40
1.0
 10
-7.370329740546596
 20
5.950509769710721
 30
0.0
 10
-7.964106748109967
 20
5.634600353667465
 30
0.0
 10
-8.557883755673338
 20
5.317818283601653
 30
0.0
 10
-9.151660763236707
 20
5.000302901707681
 30
0.0
  0
SPLINE
  5
89
330
1F
100
AcDbEntity
  8
0
  6
Continuous
 62
     7
370
    25
100
AcDbSpline
210
0.0
220
0.0
230
1.0
 70
     8
 71
     3
 72
     8
 73
     4
 74
     0
 42
0.00000001
 43
0.00000001
 40
0.0
 40
0.0
 40
0.0
 40
0.0
 40
1.0
 40
1.0
 40
1.0
 40
1.0
 10
-5.886204523275469
 20
3.060467770501795
 30
0.0
 10
-6.380912798309258
 20
4.029230010587424
 30
0.0
 10
-6.875621073343046
 20
4.99387300632354
 30
0.0
 10
-7.370329348376836
 20
5.950509978358276
 30
0.0
  0
SPLINE
  5
8A
330
1F
100
AcDbEntity
  8
0
  6
Continuous
 62
     7
370
    25
100
AcDbSpline
210
0.0
220
0.0
230
1.0
 70
     8
 71
     3
 72
    17
 73
    13
 74
     0
 42
0.00000001
 43
0.00000001
 40
0.0
 40
0.0
 40
0.0
 40
0.0
 40
0.0623002448584057
 40
0.1241712791284649
 40
0.1859147079281297
 40
0.2478340010311715
 40
0.3720125037660739
 40
0.4966199801403524
 40
0.6216707004875951
 40
0.7472697602650099
 40
0.8731451205356502
 40
1.0
 40
1.0
 40
1.0
 40
1.0
 10
-4.146720188184813
 20
1.97854926985224
 30
0.0
 10
-4.191510667766174
 20
1.979493532698204
 30
0.0
 10
-4.28078304791549
 20
1.981375552996574
 30
0.0
 10
-4.413791249987746
 20
1.995887732271395
 30
0.0
 10
-4.545226480939824
 20
2.018987717106146
 30
0.0
 10
-4.718147643412001
 20
2.062275932271814
 30
0.0
 10
-4.928773149928339
 20
2.13876166951425
 30
0.0
 10
-5.166589778187745
 20
2.265337670049934
 30
0.0
 10
-5.386006530967252
 20
2.423398574029733
 30
0.0
 10
-5.581472619219388
 20
2.611003241929857
 30
0.0
 10
-5.753099003752279
 20
2.822817306631268
 30
0.0
 10
-5.841721523860817
 20
2.981046530247351
 30
0.0
 10
-5.886204523275466
 20
3.060467770501795
 30
0.0
  0
SPLINE
  5
8C
330
1F
100
AcDbEntity
  8
0
  6
Continuous
 62
     7
370
    25
100
AcDbSpline
210
0.0
220
0.0
230
1.0
 70
     8
 71
     3
 72
     8
 73
     4
 74
     0
 42
0.00000001
 43
0.00000001
 40
0.0
 40
0.0
 40
0.0
 40
0.0
 40
1.0
 40
1.0
 40
1.0
 40
1.0
 10
1.277828703263076
 20
2.270325804935256
 30
0.0
 10
1.097727334270384
 20
2.173096277032148
 30
0.0
 10
0.917625965277694
 20
2.075836119879869
 30
0.0
 10
0.7375245962850021
 20
1.97854926985224
 30
0.0
  0
SPLINE
  5
8D
330
1F
100
AcDbEntity
  8
0
  6
Continuous
 62
     7
370
    25
100
AcDbSpline
210
0.0
220
0.0
230
1.0
 70
     8
 71
     3
 72
     8
 73
     4
 74
     0
 42
0.00000001
 43
0.00000001
 40
0.0
 40
0.0
 40
0.0
 40
0.0
 40
1.0
 40
1.0
 40
1.0
 40
1.0
 10
1.66173566415344
 20
1.516485264532841
 30
0.0
 10
1.53376680791324
 20
1.767924583242254
 30
0.0
 10
1.405797951673041
 20
2.01922744390821
 30
0.0
 10
1.277829095432842
 20
2.270326016652031
 30
0.0
  0
SPLINE
  5
90
330
1F
100
AcDbEntity
  8
0
  6
Continuous
 62
     7
370
    25
100
AcDbSpline
210
0.0
220
0.0
230
1.0
 70
     8
 71
     3
 72
     8
 73
     4
 74
     0
 42
0.00000001
 43
0.00000001
 40
0.0
 40
0.0
 40
0.0
 40
0.0
 40
1.0
 40
1.0
 40
1.0
 40
1.0
 10
-9.151660686795356
 20
5.000302674732898
 30
0.0
 10
-8.557883573989182
 20
3.237219914028497
 30
0.0
 10
-7.964106461183007
 20
1.451499356088339
 30
0.0
 10
-7.370329348376834
 20
-0.3327352342759188
 30
0.0
  0
SPLINE
  5
91
330
1F
100
AcDbEntity
  8
0
  6
Continuous
 62
     7
370
    25
100
AcDbSpline
210
0.0
220
0.0
230
1.0
 70
     8
 71
     3
 72
     8
 73
     4
 74
     0
 42
0.00000001
 43
0.00000001
 40
0.0
 40
0.0
 40
0.0
 40
0.0
 40
1.0
 40
1.0
 40
1.0
 40
1.0
 10
-7.21909433938658
 20
4.628420479742198
 30
0.0
 10
-6.635725328218916
 20
3.492635225918755
 30
0.0
 10
-6.052361620628867
 20
2.348200053264732
 30
0.0
 10
-5.468992609461206
 20
1.201503322921903
 30
0.0
  0
SPLINE
  5
92
330
1F
100
AcDbEntity
  8
0
  6
Continuous
 62
     7
370
    25
100
AcDbSpline
210
0.0
220
0.0
230
1.0
 70
     8
 71
     3
 72
    14
 73
    10
 74
     0
 42
0.00000001
 43
0.00000001
 40
0.0
 40
0.0
 40
0.0
 40
0.0
 40
0.25
 40
0.25
 40
0.5
 40
0.5
 40
0.75
 40
0.75
 40
1.0
 40
1.0
 40
1.0
 40
1.0
 10
-8.41103570975343
 20
4.328356540918175
 30
0.0
 10
-8.410996674845457
 20
4.472648674336313
 30
0.0
 10
-8.363629480369735
 20
4.613177521837679
 30
0.0
 10
-8.18933536881801
 20
4.8402041484327
 30
0.0
 10
-8.067257951636309
 20
4.920698021096889
 30
0.0
 10
-7.792948006007037
 20
4.989557184804162
 30
0.0
 10
-7.648080230643489
 20
4.976127197223731
 30
0.0
 10
-7.390627543698233
 20
4.857872271582289
 30
0.0
 10
-7.285606160852793
 20
4.756489875352472
 30
0.0
 10
-7.21909433938658
 20
4.628420479742156
 30
0.0
  0
SPLINE
  5
93
330
1F
100
AcDbEntity
  8
0
  6
Continuous
 62
     7
370
    25
100
AcDbSpline
210
0.0
220
0.0
230
1.0
 70
     8
 71
     3
 72
     8
 73
     4
 74
     0
 42
0.00000001
 43
0.00000001
 40
0.0
 40
0.0
 40
0.0
 40
0.0
 40
1.0
 40
1.0
 40
1.0
 40
1.0
 10
-7.21909433938658
 20
0.7593461847354608
 30
0.0
 10
-7.616409723568892
 20
1.952971637973344
 30
0.0
 10
-8.01372032557112
 20
3.145041065081445
 30
0.0
 10
-8.41103570975343
 20
4.328356540918175
 30
0.0
  0
SPLINE
  5
94
330
1F
100
AcDbEntity
  8
0
  6
Continuous
 62
     7
370
    25
100
AcDbSpline
210
0.0
220
0.0
230
1.0
 70
     8
 71
     3
 72
    10
 73
     6
 74
     0
 42
0.00000001
 43
0.00000001
 40
0.0
 40
0.0
 40
0.0
 40
0.0
 40
0.5
 40
0.5
 40
1.0
 40
1.0
 40
1.0
 40
1.0
 10
-6.495884300326349
 20
0.2266777607165318
 30
0.0
 10
-6.655997537968692
 20
0.2273563821503856
 30
0.0
 10
-6.81061803186372
 20
0.2780677363492751
 30
0.0
 10
-7.069769539905549
 20
0.4689780203266272
 30
0.0
 10
-7.166578719970091
 20
0.6034955995460334
 30
0.0
 10
-7.21909433938658
 20
0.7593461847354608
 30
0.0
  0
SPLINE
  5
96
330
1F
100
AcDbEntity
  8
0
  6
Continuous
 62
     7
370
    25
100
AcDbSpline
210
0.0
220
0.0
230
1.0
 70
     8
 71
     3
 72
    18
 73
    14
 74
     0
 42
0.00000001
 43
0.00000001
 40
0.0
 40
0.0
 40
0.0
 40
0.0
 40
0.25
 40
0.25
 40
0.375
 40
0.375
 40
0.5
 40
0.5
 40
0.625
 40
0.625
 40
0.75
 40
0.75
 40
1.0
 40
1.0
 40
1.0
 40
1.0
 10
0.7375245962850039
 20
1.201503322921903
 30
0.0
 10
0.8629639998282566
 20
1.201126047050182
 30
0.0
 10
0.9831026360125105
 20
1.150135748791436
 30
0.0
 10
1.115947611549648
 20
1.01311728190306
 30
0.0
 10
1.150139877738953
 20
0.9603694280098463
 30
0.0
 10
1.198062820041593
 20
0.8410104524248624
 30
0.0
 10
1.210078502737099
 20
0.7787739345221669
 30
0.0
 10
1.210065268622748
 20
0.6495679359707535
 30
0.0
 10
1.198075091190459
 20
0.5873177129964877
 30
0.0
 10
1.150127657831932
 20
0.4679390632300459
 30
0.0
 10
1.115957018645269
 20
0.4151558561854239
 30
0.0
 10
0.9830839645750251
 20
0.2781024466227878
 30
0.0
 10
0.863438535152491
 20
0.2274714023934098
 30
0.0
 10
0.7375245962850022
 20
0.2266777607165318
 30
0.0
  0
SPLINE
  5
9A
330
1F
100
AcDbEntity
  8
0
  6
Continuous
 62
     7
370
    25
100
AcDbSpline
210
0.0
220
0.0
230
1.0
 70
     8
 71
     3
 72
    19
 73
    15
 74
     0
 42
0.00000001
 43
0.00000001
 40
0.0
 40
0.0
 40
0.0
 40
0.0
 40
0.0509792286716497
 40
0.1014288142113021
 40
0.1516395972428981
 40
0.2019065636375042
 40
0.2525237170020051
 40
0.3785449949356243
 40
0.5041690287507646
 40
0.6291481004645351
 40
0.7534035400314932
 40
0.8360328101933304
 40
0.9177398139454447
 40
1.0
 40
1.0
 40
1.0
 40
1.0
 10
9.151660763236702
 20
-1.244894712280699
 30
0.0
 10
9.142482444512373
 20
-1.27928077822643
 30
0.0
 10
9.124221164204304
 20
-1.347695659838923
 30
0.0
 10
9.106731254102806
 20
-1.452189028255746
 30
0.0
 10
9.096808880564815
 20
-1.557081644174132
 30
0.0
 10
9.095128046058303
 20
-1.662569525381358
 30
0.0
 10
9.104631088123817
 20
-1.820607483064018
 30
0.0
 10
9.144675802463457
 20
-2.028964745552929
 30
0.0
 10
9.244351358495525
 20
-2.27351052382057
 30
0.0
 10
9.387260929024345
 20
-2.494132353964285
 30
0.0
 10
9.550372576702232
 20
-2.660559453390125
 30
0.0
 10
9.71295241360687
 20
-2.779870816318582
 30
0.0
 10
9.864016582541911
 20
-2.863865712999287
 30
0.0
 10
9.972152478047246
 20
-2.901863960415664
 30
0.0
 10
10.02640283687777
 20
-2.920927182185237
 30
0.0
  0
SPLINE
  5
9C
330
1F
100
AcDbEntity
  8
0
  6
Continuous
 62
     7
370
    25
100
AcDbSpline
210
0.0
220
0.0
230
1.0
 70
     8
 71
     3
 72
     8
 73
     4
 74
     0
 42
0.00000001
 43
0.00000001
 40
0.0
 40
0.0
 40
0.0
 40
0.0
 40
1.0
 40
1.0
 40
1.0
 40
1.0
 10
12.16803445762646
 20
4.682180135772332
 30
0.0
 10
12.54927308624351
 20
3.74247629758441
 30
0.0
 10
12.93050994662517
 20
2.796777912307265
 30
0.0
 10
13.31174857524222
 20
1.848705240893751
 30
0.0
  0
SPLINE
  5
9D
330
1F
100
AcDbEntity
  8
0
  6
Continuous
 62
     7
370
    25
100
AcDbSpline
210
0.0
220
0.0
230
1.0
 70
     8
 71
     3
 72
     8
 73
     4
 74
     0
 42
0.00000001
 43
0.00000001
 40
0.0
 40
0.0
 40
0.0
 40
0.0
 40
1.0
 40
1.0
 40
1.0
 40
1.0
 10
11.02432034001069
 20
1.848705240893751
 30
0.0
 10
11.40555896862773
 20
2.79677791230727
 30
0.0
 10
11.7867958290094
 20
3.742476297584406
 30
0.0
 10
12.16803445762645
 20
4.682180135772332
 30
0.0
  0
SPLINE
  5
9F
330
1F
100
AcDbEntity
  8
0
  6
Continuous
 62
     7
370
    25
100
AcDbSpline
210
0.0
220
0.0
230
1.0
 70
     8
 71
     3
 72
     8
 73
     4
 74
     0
 42
0.00000001
 43
0.00000001
 40
0.0
 40
0.0
 40
0.0
 40
0.0
 40
1.0
 40
1.0
 40
1.0
 40
1.0
 10
12.16803445762645
 20
3.760250170044654
 30
0.0
 10
11.91123009669286
 20
3.124883519292855
 30
0.0
 10
11.65442598237664
 20
2.48733201747235
 30
0.0
 10
11.39762162144305
 20
1.848705240893751
 30
0.0
  0
SPLINE
  5
A0
330
1F
100
AcDbEntity
  8
0
  6
Continuous
 62
     7
370
    25
100
AcDbSpline
210
0.0
220
0.0
230
1.0
 70
     8
 71
     3
 72
     8
 73
     4
 74
     0
 42
0.00000001
 43
0.00000001
 40
0.0
 40
0.0
 40
0.0
 40
0.0
 40
1.0
 40
1.0
 40
1.0
 40
1.0
 10
12.93844729380986
 20
1.848705240893736
 30
0.0
 10
12.68164293287626
 20
2.487332017472356
 30
0.0
 10
12.42483881856006
 20
3.12488351929283
 30
0.0
 10
12.16803445762645
 20
3.760250170044654
 30
0.0
  0
SPLINE
  5
A4
330
1F
100
AcDbEntity
  8
0
  6
Continuous
 62
     7
370
    25
100
AcDbSpline
210
0.0
220
0.0
230
1.0
 70
     8
 71
     3
 72
     8
 73
     4
 74
     0
 42
0.00000001
 43
0.00000001
 40
0.0
 40
0.0
 40
0.0
 40
0.0
 40
1.0
 40
1.0
 40
1.0
 40
1.0
 10
12.61883162699188
 20
-1.427199704257785
 30
0.0
 10
12.27771570703269
 20
-0.6135639807541744
 30
0.0
 10
11.93660063505734
 20
0.201414252670043
 30
0.0
 10
11.59548471509815
 20
1.01543801309716
 30
0.0
  0
SPLINE
  5
A9
330
1F
100
AcDbEntity
  8
0
  6
Continuous
 62
     7
370
    25
100
AcDbSpline
210
0.0
220
0.0
230
1.0
 70
     8
 71
     3
 72
    19
 73
    15
 74
     0
 42
0.00000001
 43
0.00000001
 40
0.0
 40
0.0
 40
0.0
 40
0.0
 40
0.0496735967680816
 40
0.0988655005065105
 40
0.1478893738542678
 40
0.1970620949729386
 40
0.2466976912455945
 40
0.3709276138666213
 40
0.4959305189812273
 40
0.6215287783551025
 40
0.7475741302907055
 40
0.8319080950175443
 40
0.9155921028387051
 40
1.0
 40
1.0
 40
1.0
 40
1.0
 10
-10.02640283687779
 20
-2.920927182185237
 30
0.0
 10
-9.993520088629946
 20
-2.909872987461616
 30
0.0
 10
-9.928073461546933
 20
-2.887871792356908
 30
0.0
 10
-9.833860277248705
 20
-2.84533994241401
 30
0.0
 10
-9.743492499271358
 20
-2.796086514970894
 30
0.0
 10
-9.657184860575029
 20
-2.739421301179812
 30
0.0
 10
-9.534228970250398
 20
-2.643983952777646
 30
0.0
 10
-9.38725233787864
 20
-2.494160184783006
 30
0.0
 10
-9.2443669230127
 20
-2.27353961746772
 30
0.0
 10
-9.144702517153162
 20
-2.028973846568271
 30
0.0
 10
-9.100090308374504
 20
-1.797412195635095
 30
0.0
 10
-9.093112267878544
 20
-1.592095065718176
 30
0.0
 10
-9.108370465006946
 20
-1.415928024100587
 30
0.0
 10
-9.137189294308673
 20
-1.302069260825612
 30
0.0
 10
-9.151660763236714
 20
-1.244894712280699
 30
0.0
  0
SPLINE
  5
AD
330
1F
100
AcDbEntity
  8
0
  6
Continuous
 62
     7
370
    25
100
AcDbSpline
210
0.0
220
0.0
230
1.0
 70
     8
 71
     3
 72
     8
 73
     4
 74
     0
 42
0.00000001
 43
0.00000001
 40
0.0
 40
0.0
 40
0.0
 40
0.0
 40
1.0
 40
1.0
 40
1.0
 40
1.0
 10
-11.39762162144306
 20
1.848705240893736
 30
0.0
 10
-11.65442598237667
 20
2.48733201747237
 30
0.0
 10
-11.91123009669286
 20
3.124883519292818
 30
0.0
 10
-12.16803445762647
 20
3.760250170044654
 30
0.0
  0
SPLINE
  5
AF
330
1F
100
AcDbEntity
  8
0
  6
Continuous
 62
     7
370
    25
100
AcDbSpline
210
0.0
220
0.0
230
1.0
 70
     8
 71
     3
 72
     8
 73
     4
 74
     0
 42
0.00000001
 43
0.00000001
 40
0.0
 40
0.0
 40
0.0
 40
0.0
 40
1.0
 40
1.0
 40
1.0
 40
1.0
 10
-12.16803445762647
 20
4.682180135772332
 30
0.0
 10
-11.78679582900942
 20
3.742476297584407
 30
0.0
 10
-11.40555896862775
 20
2.796777912307271
 30
0.0
 10
-11.0243203400107
 20
1.848705240893751
 30
0.0
  0
SPLINE
  5
B0
330
1F
100
AcDbEntity
  8
0
  6
Continuous
 62
     7
370
    25
100
AcDbSpline
210
0.0
220
0.0
230
1.0
 70
     8
 71
     3
 72
     8
 73
     4
 74
     0
 42
0.00000001
 43
0.00000001
 40
0.0
 40
0.0
 40
0.0
 40
0.0
 40
1.0
 40
1.0
 40
1.0
 40
1.0
 10
-13.31174857524223
 20
1.848705240893751
 30
0.0
 10
-12.93050994662518
 20
2.79677791230727
 30
0.0
 10
-12.54927308624352
 20
3.742476297584409
 30
0.0
 10
-12.16803445762647
 20
4.682180135772332
 30
0.0
  0
SPLINE
  5
B2
330
1F
100
AcDbEntity
  8
0
  6
Continuous
 62
     7
370
    25
100
AcDbSpline
210
0.0
220
0.0
230
1.0
 70
     8
 71
     3
 72
     8
 73
     4
 74
     0
 42
0.00000001
 43
0.00000001
 40
0.0
 40
0.0
 40
0.0
 40
0.0
 40
1.0
 40
1.0
 40
1.0
 40
1.0
 10
-12.16803445762647
 20
3.760250170044654
 30
0.0
 10
-12.42483881856006
 20
3.124883519292857
 30
0.0
 10
-12.68164293287628
 20
2.487332017472344
 30
0.0
 10
-12.93844729380987
 20
1.848705240893751
 30
0.0
  0
SPLINE
  5
B9
330
1F
100
AcDbEntity
  8
0
  6
Continuous
 62
     7
370
    25
100
AcDbSpline
210
0.0
220
0.0
230
1.0
 70
     8
 71
     3
 72
     9
 73
     5
 74
     0
 42
0.00000001
 43
0.00000001
 40
0.0
 40
0.0
 40
0.0
 40
0.0
 40
0.5492554467272833
 40
1.0
 40
1.0
 40
1.0
 40
1.0
 10
-9.151660763236709
 20
4.846447427808984
 30
0.0
 10
-8.854772194093396
 20
3.988929059434918
 30
0.0
 10
-8.314243063408737
 20
2.42769125381359
 30
0.0
 10
-7.773713932724081
 20
0.8524486247785172
 30
0.0
 10
-7.530073371182734
 20
0.1424165896579633
 30
0.0
  0
SPLINE
  5
BF
330
1F
100
AcDbEntity
  8
0
  6
Continuous
 62
     7
370
    25
100
AcDbSpline
210
0.0
220
0.0
230
1.0
 70
     8
 71
     3
 72
    15
 73
    11
 74
     0
 42
0.00000001
 43
0.00000001
 40
0.0
 40
0.0
 40
0.0
 40
0.0
 40
0.0840248808152893
 40
0.1672087650076334
 40
0.2509823884851525
 40
0.3763280156674361
 40
0.5015095857082302
 40
0.7507466080870564
 40
0.9999751367748186
 40
1.0
 40
1.0
 40
1.0
 40
1.0
 10
0.7375245962850003
 20
1.164533989908922
 30
0.0
 10
0.7582462594110568
 20
1.163725618265496
 30
0.0
 10
0.7994821846107465
 20
1.162116965889522
 30
0.0
 10
0.8603240152315901
 20
1.149540462736362
 30
0.0
 10
0.9286710300769664
 20
1.126369297274263
 30
0.0
 10
1.001976474343375
 20
1.087469120799207
 30
0.0
 10
1.097588134358332
 20
1.008801027195348
 30
0.0
 10
1.185558820825201
 20
0.8778193164561412
 30
0.0
 10
1.210068749995922
 20
0.7536887206197932
 30
0.0
 10
1.210071887731488
 20
0.6922732614187413
 30
0.0
 10
1.21007188804448
 20
0.6922671351775698
 30
0.0
  0
SPLINE
  5
C1
330
1F
100
AcDbEntity
  8
0
  6
Continuous
 62
     7
370
    25
100
AcDbSpline
210
0.0
220
0.0
230
1.0
 70
     8
 71
     3
 72
     8
 73
     4
 74
     0
 42
0.00000001
 43
0.00000001
 40
0.0
 40
0.0
 40
0.0
 40
0.0
 40
1.0
 40
1.0
 40
1.0
 40
1.0
 10
5.978435642632988
 20
4.107217867138554
 30
0.0
 10
6.375749432755357
 20
2.959887117014978
 30
0.0
 10
6.773063222877725
 20
1.804236166838845
 30
0.0
 10
7.170377013000095
 20
0.6472707199055265
 30
0.0
  0
SPLINE
  5
C9
330
1F
100
AcDbEntity
  8
0
  6
Continuous
 62
     7
370
    25
100
AcDbSpline
210
0.0
220
0.0
230
1.0
 70
     8
 71
     3
 72
     8
 73
     4
 74
     0
 42
0.00000001
 43
0.00000001
 40
0.0
 40
0.0
 40
0.0
 40
0.0
 40
1.0
 40
1.0
 40
1.0
 40
1.0
 10
-7.219094339386582
 20
4.486007541903977
 30
0.0
 10
-6.635727096078124
 20
3.38517286267274
 30
0.0
 10
-6.052359852769667
 20
2.275944375871452
 30
0.0
 10
-5.46899260946121
 20
1.164533989908922
 30
0.0
  0
SPLINE
  5
D3
330
1F
100
AcDbEntity
  8
0
  6
Continuous
 62
     7
370
    25
100
AcDbSpline
210
0.0
220
0.0
230
1.0
 70
     8
 71
     3
 72
    14
 73
    10
 74
     0
 42
0.00000001
 43
0.00000001
 40
0.0
 40
0.0
 40
0.0
 40
0.0
 40
0.25
 40
0.25
 40
0.5
 40
0.5
 40
0.75
 40
0.75
 40
1.0
 40
1.0
 40
1.0
 40
1.0
 10
2.906061491431135
 20
2.931887132519538
 30
0.0
 10
3.0867820188801
 20
2.931622690294812
 30
0.0
 10
3.261118675147761
 20
2.907912830573479
 30
0.0
 10
3.606165098723538
 20
2.812117555855645
 30
0.0
 10
3.76917265745543
 20
2.741947406963033
 30
0.0
 10
4.075727026778905
 20
2.557245470745237
 30
0.0
 10
4.214253821561932
 20
2.445503032827114
 30
0.0
 10
4.458870867059771
 20
2.18626401498577
 30
0.0
 10
4.561865156986095
 20
2.042035252580546
 30
0.0
 10
4.645545826521801
 20
1.883169580261081
 30
0.0
  0
SPLINE
  5
D6
330
1F
100
AcDbEntity
  8
0
  6
Continuous
 62
     7
370
    25
100
AcDbSpline
210
0.0
220
0.0
230
1.0
 70
     8
 71
     3
 72
     8
 73
     4
 74
     0
 42
0.00000001
 43
0.00000001
 40
0.0
 40
0.0
 40
0.0
 40
0.0
 40
1.0
 40
1.0
 40
1.0
 40
1.0
 10
-2.902394360907112
 20
3.378127230936839
 30
0.0
 10
-2.774425503768807
 20
3.135565751730926
 30
0.0
 10
-2.646456649324818
 20
2.892700307178276
 30
0.0
 10
-2.518487792186511
 20
2.649596439565776
 30
0.0
  0
SPLINE
  5
D9
330
1F
100
AcDbEntity
  8
0
  6
Continuous
 62
     7
370
    25
100
AcDbSpline
210
0.0
220
0.0
230
1.0
 70
     8
 71
     3
 72
     8
 73
     4
 74
     0
 42
0.00000001
 43
0.00000001
 40
0.0
 40
0.0
 40
0.0
 40
0.0
 40
1.0
 40
1.0
 40
1.0
 40
1.0
 10
-2.518487792186511
 20
2.649596439565776
 30
0.0
 10
-2.338386292462737
 20
2.743730352800808
 30
0.0
 10
-2.158284792762448
 20
2.837828519912303
 30
0.0
 10
-1.978183293038675
 20
2.931887132519482
 30
0.0
  0
SPLINE
  5
DB
330
1F
100
AcDbEntity
  8
0
  6
Continuous
 62
     7
370
    25
100
AcDbSpline
210
0.0
220
0.0
230
1.0
 70
     8
 71
     3
 72
    11
 73
     7
 74
     0
 42
0.00000001
 43
0.00000001
 40
0.0
 40
0.0
 40
0.0
 40
0.0
 40
0.2749753925853568
 40
0.5496742846437602
 40
0.8242884443825079
 40
1.0
 40
1.0
 40
1.0
 40
1.0
 10
-1.978183293038687
 20
4.618578991583892
 30
0.0
 10
-2.040217306025799
 20
4.611466817196272
 30
0.0
 10
-2.164222953919137
 20
4.597249620042667
 30
0.0
 10
-2.319429952961359
 20
4.488957468444326
 30
0.0
 10
-2.419348542748335
 20
4.354086507555652
 30
0.0
 10
-2.432629103546443
 20
4.254047137865813
 30
0.0
 10
-2.43781101503347
 20
4.215013006187835
 30
0.0
  0
SPLINE
  5
DD
330
1F
100
AcDbEntity
  8
0
  6
Continuous
 62
     7
370
    25
100
AcDbSpline
210
0.0
220
0.0
230
1.0
 70
     8
 71
     3
 72
    16
 73
    12
 74
     0
 42
0.00000001
 43
0.00000001
 40
0.0
 40
0.0
 40
0.0
 40
0.0
 40
0.0836961985478692
 40
0.1666401339415405
 40
0.2496964310199717
 40
0.374546364997967
 40
0.4992994211887679
 40
0.6241194095021766
 40
0.7490513148518896
 40
0.8742169968239555
 40
1.0
 40
1.0
 40
1.0
 40
1.0
 10
5.255225603572665
 20
4.618578991583947
 30
0.0
 10
5.281662347455597
 20
4.617730091867845
 30
0.0
 10
5.334298221223635
 20
4.61603992236375
 30
0.0
 10
5.412335955011868
 20
4.6035289650813
 30
0.0
 10
5.501274453241988
 20
4.580445523279469
 30
0.0
 10
5.599072064508459
 20
4.541247771618779
 30
0.0
 10
5.700695225784279
 20
4.480582021014102
 30
0.0
 10
5.791914290257985
 20
4.405274803499337
 30
0.0
 10
5.869778967801024
 20
4.316463276707664
 30
0.0
 10
5.934502262443865
 20
4.217063447525008
 30
0.0
 10
5.963767185821082
 20
4.143893059098342
 30
0.0
 10
5.978435642633001
 20
4.107217867138554
 30
0.0
  0
SPLINE
  5
DF
330
1F
100
AcDbEntity
  8
0
  6
Continuous
 62
     7
370
    25
100
AcDbSpline
210
0.0
220
0.0
230
1.0
 70
     8
 71
     3
 72
    15
 73
    11
 74
     0
 42
0.00000001
 43
0.00000001
 40
0.0
 40
0.0
 40
0.0
 40
0.0
 40
0.1325001758830741
 40
0.2646005384706908
 40
0.396702392535671
 40
0.5288132633523609
 40
0.6609119210137339
 40
0.7930167675857975
 40
0.9251062182831757
 40
0.9999999999999999
 40
0.9999999999999999
 40
0.9999999999999999
 40
0.9999999999999999
 10
-7.219094339386582
 20
4.486007541903936
 30
0.0
 10
-7.25781187511672
 20
4.544330126842776
 30
0.0
 10
-7.335130118161872
 20
4.660799310954939
 30
0.0
 10
-7.515708371907939
 20
4.776188871032473
 30
0.0
 10
-7.720832957184496
 20
4.829842362201346
 30
0.0
 10
-7.933180333584241
 20
4.813812946246722
 30
0.0
 10
-8.129177228125497
 20
4.73036403224675
 30
0.0
 10
-8.28386914410965
 20
4.587987474929355
 30
0.0
 10
-8.378904058595479
 20
4.430841724138692
 30
0.0
 10
-8.391497411798305
 20
4.322717707801562
 30
0.0
 10
-8.39605412798664
 20
4.283594652356694
 30
0.0
  0
LINE
  5
E5
330
1F
100
AcDbEntity
  8
0
  6
Continuous
 62
     7
370
    25
100
AcDbLine
 10
9.5148935764
 20
-0.0000174623
 30
0.0
 11
9.5148935466
 21
-0.0000170242
 31
0.0
  0
LINE
  5
E6
330
1F
100
AcDbEntity
  8
0
  6
Continuous
 62
     7
370
    25
100
AcDbLine
 10
5.6339153046
 20
-0.0000011583
 30
0.0
 11
5.6339153059
 21
-0.0000011976
 31
0.0
  0
LINE
  5
E7
330
1F
100
AcDbEntity
  8
0
  6
Continuous
 62
     7
370
    25
100
AcDbLine
 10
-9.0960840175
 20
-1.6314955932
 30
0.0
 11
-9.0960840178
 21
-1.5813071317
 31
0.0
  0
LINE
  5
E8
330
1F
100
AcDbEntity
  8
0
  6
Continuous
 62
     7
370
    25
100
AcDbLine
 10
9.0960615012
 20
-1.5811131568
 30
0.0
 11
9.0960613067
 21
-1.6312891869
 31
0.0
  0
LINE
  5
E9
330
1F
100
AcDbEntity
  8
0
  6
Continuous
 62
     7
370
    25
100
AcDbLine
 10
14.5
 20
31.5
 30
0.0
 11
-14.5
 21
31.5
 31
0.0
  0
LINE
  5
EA
330
1F
100
AcDbEntity
  8
0
  6
Continuous
 62
     7
370
    25
100
AcDbLine
 10
-14.5
 20
-31.5
 30
0.0
 11
14.5
 21
-31.5
 31
0.0
  0
LINE
  5
EB
330
1F
100
AcDbEntity
  8
0
  6
Continuous
 62
     7
370
    25
100
AcDbLine
 10
-1.978183293
 20
3.0249629145
 30
0.0
 11
2.9060614914
 21
3.0249629145
 31
0.0
  0
LINE
  5
EC
330
1F
100
AcDbEntity
  8
0
  6
Continuous
 62
     7
370
    25
100
AcDbLine
 10
-2.9023943609
 20
5.3178421059
 30
0.0
 11
-2.9023943609
 21
3.3781272309
 31
0.0
  0
LINE
  5
ED
330
1F
100
AcDbEntity
  8
0
  6
Continuous
 62
     7
370
    25
100
AcDbLine
 10
6.1296706516
 20
5.3178421059
 30
0.0
 11
-2.9023943609
 21
5.3178421059
 31
0.0
  0
LINE
  5
EE
330
1F
100
AcDbEntity
  8
0
  6
Continuous
 62
     7
370
    25
100
AcDbLine
 10
5.2552256036
 20
4.7652005469
 30
0.0
 11
-1.978183293
 21
4.7652005469
 31
0.0
  0
LINE
  5
EF
330
1F
100
AcDbEntity
  8
0
  6
Continuous
 62
     7
370
    25
100
AcDbLine
 10
-1.978183293
 20
3.7986412737
 30
0.0
 11
4.2283339127
 21
3.7986412737
 31
0.0
  0
LINE
  5
F0
330
1F
100
AcDbEntity
  8
0
  6
Continuous
 62
     7
370
    25
100
AcDbLine
 10
-12.618831627
 20
-1.3832858672
 30
0.0
 11
-12.0311116808
 21
-0.0236149806
 31
0.0
  0
LINE
  5
F1
330
1F
100
AcDbEntity
  8
0
  6
Continuous
 62
     7
370
    25
100
AcDbLine
 10
-12.618831627
 20
-1.3832858672
 30
0.0
 11
-12.618831627
 21
-1.4271997043
 31
0.0
  0
LINE
  5
F2
330
1F
100
AcDbEntity
  8
0
  6
Continuous
 62
     7
370
    25
100
AcDbLine
 10
9.1516607632
 20
-1.2065902596
 30
0.0
 11
9.1516607632
 21
-1.2448947123
 31
0.0
  0
LINE
  5
F3
330
1F
100
AcDbEntity
  8
0
  6
Continuous
 62
     7
370
    25
100
AcDbLine
 10
9.5149217745
 20
0.0001490061
 30
0.0
 11
9.1516607632
 21
-1.2065902596
 31
0.0
  0
LINE
  5
F4
330
1F
100
AcDbEntity
  8
0
  6
Continuous
 62
     7
370
    25
100
AcDbLine
 10
12.2680680949
 20
0.0314656663
 30
0.0
 11
11.9647336008
 21
0.6921964114
 31
0.0
  0
LINE
  5
F5
330
1F
100
AcDbEntity
  8
0
  6
Continuous
 62
     7
370
    25
100
AcDbLine
 10
11.9647336008
 20
0.7141709006
 30
0.0
 11
11.9647336008
 21
0.6921964114
 31
0.0
  0
LINE
  5
F6
330
1F
100
AcDbEntity
  8
0
  6
Continuous
 62
     7
370
    25
100
AcDbLine
 10
-9.1516607632
 20
-1.2065902596
 30
0.0
 11
-9.5149217745
 21
0.0001490061
 31
0.0
  0
LINE
  5
F7
330
1F
100
AcDbEntity
  8
0
  6
Continuous
 62
     7
370
    25
100
AcDbLine
 10
-9.1516607632
 20
-1.2065902596
 30
0.0
 11
-9.1516607632
 21
-1.2448947123
 31
0.0
  0
LINE
  5
F8
330
1F
100
AcDbEntity
  8
0
  6
Continuous
 62
     7
370
    25
100
AcDbLine
 10
-11.9647336008
 20
0.6921964114
 30
0.0
 11
-12.2680680949
 21
0.0314656663
 31
0.0
  0
LINE
  5
F9
330
1F
100
AcDbEntity
  8
0
  6
Continuous
 62
     7
370
    25
100
AcDbLine
 10
-11.9647336008
 20
0.6921964114
 30
0.0
 11
-11.9647336008
 21
0.7141709006
 31
0.0
  0
LINE
  5
FA
330
1F
100
AcDbEntity
  8
0
  6
Continuous
 62
     7
370
    25
100
AcDbLine
 10
0.7375245963
 20
1.9785492699
 30
0.0
 11
-4.1467201882
 21
1.9785492699
 31
0.0
  0
LINE
  5
FB
330
1F
100
AcDbEntity
  8
0
  6
Continuous
 62
     7
370
    25
100
AcDbLine
 10
1.6617356642
 20
1.5164852645
 30
0.0
 11
1.6617356642
 21
-0.3327352343
 31
0.0
  0
LINE
  5
FC
330
1F
100
AcDbEntity
  8
0
  6
Continuous
 62
     7
370
    25
100
AcDbLine
 10
-7.3703293484
 20
-0.3327352343
 30
0.0
 11
1.6617356642
 21
-0.3327352343
 31
0.0
  0
LINE
  5
FD
330
1F
100
AcDbEntity
  8
0
  6
Continuous
 62
     7
370
    25
100
AcDbLine
 10
-6.4958843003
 20
0.2266777607
 30
0.0
 11
0.7375245963
 21
0.2266777607
 31
0.0
  0
LINE
  5
FE
330
1F
100
AcDbEntity
  8
0
  6
Continuous
 62
     7
370
    25
100
AcDbLine
 10
0.7375245963
 20
1.2015033229
 30
0.0
 11
-5.4689926095
 21
1.2015033229
 31
0.0
  0
LINE
  5
FF
330
1F
100
AcDbEntity
  8
0
  6
Continuous
 62
     7
370
    25
100
AcDbLine
 10
14.0458527766
 20
4.7352207479
 30
0.0
 11
14.0458527766
 21
-2.9209271822
 31
0.0
  0
LINE
  5
100
330
1F
100
AcDbEntity
  8
0
  6
Continuous
 62
     7
370
    25
100
AcDbLine
 10
10.0264028369
 20
-2.9209271822
 30
0.0
 11
14.0458527766
 21
-2.9209271822
 31
0.0
  0
LINE
  5
101
330
1F
100
AcDbEntity
  8
0
  6
Continuous
 62
     7
370
    25
100
AcDbLine
 10
14.0458527766
 20
4.7352207479
 30
0.0
 11
10.9011449105
 21
4.7352207479
 31
0.0
  0
LINE
  5
102
330
1F
100
AcDbEntity
  8
0
  6
Continuous
 62
     7
370
    25
100
AcDbLine
 10
11.02432034
 20
1.8487052409
 30
0.0
 11
11.3976216214
 21
1.8487052409
 31
0.0
  0
LINE
  5
103
330
1F
100
AcDbEntity
  8
0
  6
Continuous
 62
     7
370
    25
100
AcDbLine
 10
12.9384472938
 20
1.8487052409
 30
0.0
 11
13.3117485752
 21
1.8487052409
 31
0.0
  0
LINE
  5
104
330
1F
100
AcDbEntity
  8
0
  6
Continuous
 62
     7
370
    25
100
AcDbLine
 10
12.8720308629
 20
1.0154380131
 30
0.0
 11
12.8720308629
 21
0.7141709006
 31
0.0
  0
LINE
  5
105
330
1F
100
AcDbEntity
  8
0
  6
Continuous
 62
     7
370
    25
100
AcDbLine
 10
12.8720308629
 20
1.0154380131
 30
0.0
 11
11.5954847151
 21
1.0154380131
 31
0.0
  0
LINE
  5
106
330
1F
100
AcDbEntity
  8
0
  6
Continuous
 62
     7
370
    25
100
AcDbLine
 10
12.618831627
 20
-1.4271997043
 30
0.0
 11
11.3106355747
 21
-1.4271997043
 31
0.0
  0
LINE
  5
107
330
1F
100
AcDbEntity
  8
0
  6
Continuous
 62
     7
370
    25
100
AcDbLine
 10
11.3106355747
 20
-1.4271997043
 30
0.0
 11
11.3106355747
 21
-1.633092717
 31
0.0
  0
LINE
  5
108
330
1F
100
AcDbEntity
  8
0
  6
Continuous
 62
     7
370
    25
100
AcDbLine
 10
11.3106355747
 20
-1.633092717
 30
0.0
 11
13.0091804491
 21
-1.633092717
 31
0.0
  0
LINE
  5
109
330
1F
100
AcDbEntity
  8
0
  6
Continuous
 62
     7
370
    25
100
AcDbLine
 10
11.9647336008
 20
0.7141709006
 30
0.0
 11
12.8720308629
 21
0.7141709006
 31
0.0
  0
LINE
  5
10A
330
1F
100
AcDbEntity
  8
0
  6
Continuous
 62
     7
370
    25
100
AcDbLine
 10
-14.0458527766
 20
-2.9209271822
 30
0.0
 11
-10.0264028369
 21
-2.9209271822
 31
0.0
  0
LINE
  5
10B
330
1F
100
AcDbEntity
  8
0
  6
Continuous
 62
     7
370
    25
100
AcDbLine
 10
-14.0458527766
 20
4.7352207479
 30
0.0
 11
-14.0458527766
 21
-2.9209271822
 31
0.0
  0
LINE
  5
10C
330
1F
100
AcDbEntity
  8
0
  6
Continuous
 62
     7
370
    25
100
AcDbLine
 10
-10.9011449105
 20
4.7352207479
 30
0.0
 11
-14.0458527766
 21
4.7352207479
 31
0.0
  0
LINE
  5
10D
330
1F
100
AcDbEntity
  8
0
  6
Continuous
 62
     7
370
    25
100
AcDbLine
 10
-11.3976216214
 20
1.8487052409
 30
0.0
 11
-11.02432034
 21
1.8487052409
 31
0.0
  0
LINE
  5
10E
330
1F
100
AcDbEntity
  8
0
  6
Continuous
 62
     7
370
    25
100
AcDbLine
 10
-13.3117485752
 20
1.8487052409
 30
0.0
 11
-12.9384472938
 21
1.8487052409
 31
0.0
  0
LINE
  5
10F
330
1F
100
AcDbEntity
  8
0
  6
Continuous
 62
     7
370
    25
100
AcDbLine
 10
-11.3106355747
 20
-1.4271997043
 30
0.0
 11
-11.3106355747
 21
-1.633092717
 31
0.0
  0
LINE
  5
110
330
1F
100
AcDbEntity
  8
0
  6
Continuous
 62
     7
370
    25
100
AcDbLine
 10
-11.3106355747
 20
-1.4271997043
 30
0.0
 11
-12.618831627
 21
-1.4271997043
 31
0.0
  0
LINE
  5
111
330
1F
100
AcDbEntity
  8
0
  6
Continuous
 62
     7
370
    25
100
AcDbLine
 10
-11.5954847151
 20
1.0154380131
 30
0.0
 11
-12.8720308629
 21
1.0154380131
 31
0.0
  0
LINE
  5
112
330
1F
100
AcDbEntity
  8
0
  6
Continuous
 62
     7
370
    25
100
AcDbLine
 10
-12.8720308629
 20
1.0154380131
 30
0.0
 11
-12.8720308629
 21
0.7141709006
 31
0.0
  0
LINE
  5
113
330
1F
100
AcDbEntity
  8
0
  6
Continuous
 62
     7
370
    25
100
AcDbLine
 10
-12.8720308629
 20
0.7141709006
 30
0.0
 11
-11.9647336008
 21
0.7141709006
 31
0.0
  0
LINE
  5
114
330
1F
100
AcDbEntity
  8
0
  6
Continuous
 62
     7
370
    25
100
AcDbLine
 10
-13.0091804491
 20
-1.633092717
 30
0.0
 11
-11.3106355747
 21
-1.633092717
 31
0.0
  0
LINE
  5
115
330
1F
100
AcDbEntity
  8
0
  6
Continuous
 62
     7
370
    25
100
AcDbLine
 10
-9.1516607632
 20
4.8464474278
 30
0.0
 11
-9.1516607632
 21
5.0003029017
 31
0.0
  0
LINE
  5
116
330
1F
100
AcDbEntity
  8
0
  6
Continuous
 62
     7
370
    25
100
AcDbLine
 10
4.6455458265
 20
1.8831695803
 30
0.0
 11
5.6339852501
 21
-0.0004152708
 31
0.0
  0
LINE
  5
117
330
1F
100
AcDbEntity
  8
0
  6
Continuous
 62
     7
370
    25
100
AcDbLine
 10
4.6455458265
 20
1.8831695803
 30
0.0
 11
4.6455458265
 21
1.9429527415
 31
0.0
  0
LINE
  5
118
330
1F
100
AcDbEntity
  8
0
  6
Continuous
 62
     7
370
    25
100
AcDbLine
 10
12.0311116808
 20
-0.0236149806
 30
0.0
 11
12.618831627
 21
-1.3832858672
 31
0.0
  0
LINE
  5
119
330
1F
100
AcDbEntity
  8
0
  6
Continuous
 62
     7
370
    25
100
AcDbLine
 10
12.618831627
 20
-1.4271997043
 30
0.0
 11
12.618831627
 21
-1.3832858672
 31
0.0
  0
LINE
  5
11A
330
1F
100
AcDbEntity
  8
0
  6
Continuous
 62
     7
370
    25
100
AcDbLine
 10
0.7375245963
 20
1.1645339899
 30
0.0
 11
0.7375245963
 21
1.2015033229
 31
0.0
  0
LINE
  5
11B
330
1F
100
AcDbEntity
  8
0
  6
Continuous
 62
     7
370
    25
100
AcDbLine
 10
5.9784356426
 20
4.1072178671
 30
0.0
 11
5.9784356426
 21
4.2376057359
 31
0.0
  0
LINE
  5
11C
330
1F
100
AcDbEntity
  8
0
  6
Continuous
 62
     7
370
    25
100
AcDbLine
 10
12.8720308629
 20
0.9841937665
 30
0.0
 11
11.5954847151
 21
0.9841937665
 31
0.0
  0
LINE
  5
11D
330
1F
100
AcDbEntity
  8
0
  6
Continuous
 62
     7
370
    25
100
AcDbLine
 10
-11.5954847151
 20
0.9841937665
 30
0.0
 11
-12.8720308629
 21
0.9841937665
 31
0.0
  0
LINE
  5
11E
330
1F
100
AcDbEntity
  8
0
  6
Continuous
 62
     7
370
    25
100
AcDbLine
 10
-9.1153569908
 20
-1.5831917794
 30
0.0
 11
-9.1516607632
 21
-1.2065902596
 31
0.0
  0
LINE
  5
11F
330
1F
100
AcDbEntity
  8
0
  6
Continuous
 62
     7
370
    25
100
AcDbLine
 10
9.1516607632
 20
-1.2065902596
 30
0.0
 11
9.1153753704
 21
-1.5830011259
 31
0.0
  0
LINE
  5
120
330
1F
100
AcDbEntity
  8
0
  6
Continuous
 62
     7
370
    25
100
AcDbLine
 10
0.7375245963
 20
1.1645339899
 30
0.0
 11
-5.4689926095
 21
1.1645339899
 31
0.0
  0
LINE
  5
121
330
1F
100
AcDbEntity
  8
0
  6
Continuous
 62
     7
370
    25
100
AcDbLine
 10
-5.4689926095
 20
1.1645339899
 30
0.0
 11
-5.4689926095
 21
1.2015033229
 31
0.0
  0
LINE
  5
122
330
1F
100
AcDbEntity
  8
0
  6
Continuous
 62
     7
370
    25
100
AcDbLine
 10
-7.2190943394
 20
4.4860075419
 30
0.0
 11
-7.2190943394
 21
4.6284204797
 31
0.0
  0
LINE
  5
123
330
1F
100
AcDbEntity
  8
0
  6
Continuous
 62
     7
370
    25
100
AcDbLine
 10
-13.0091804491
 20
-1.5828437103
 30
0.0
 11
-11.3106355747
 21
-1.5828437103
 31
0.0
  0
LINE
  5
124
330
1F
100
AcDbEntity
  8
0
  6
Continuous
 62
     7
370
    25
100
AcDbLine
 10
11.3106355747
 20
-1.5828437103
 30
0.0
 11
13.0091804491
 21
-1.5828437103
 31
0.0
  0
LINE
  5
125
330
1F
100
AcDbEntity
  8
0
  6
Continuous
 62
     7
370
    25
100
AcDbLine
 10
13.2880591114
 20
1.8487052409
 30
0.0
 11
12.1680344576
 21
4.5381130547
 31
0.0
  0
LINE
  5
126
330
1F
100
AcDbEntity
  8
0
  6
Continuous
 62
     7
370
    25
100
AcDbLine
 10
12.1680344576
 20
4.5381130547
 30
0.0
 11
12.1680344576
 21
4.6821801358
 31
0.0
  0
LINE
  5
127
330
1F
100
AcDbEntity
  8
0
  6
Continuous
 62
     7
370
    25
100
AcDbLine
 10
-11.0480098038
 20
1.8487052409
 30
0.0
 11
-12.1680344576
 21
4.5381130547
 31
0.0
  0
LINE
  5
128
330
1F
100
AcDbEntity
  8
0
  6
Continuous
 62
     7
370
    25
100
AcDbLine
 10
-12.1680344576
 20
4.5381130547
 30
0.0
 11
-12.1680344576
 21
4.6821801358
 31
0.0
  0
LINE
  5
129
330
1F
100
AcDbEntity
  8
0
  6
Continuous
 62
     7
370
    25
100
AcDbLine
 10
12.1680344576
 20
4.5381130547
 30
0.0
 11
11.0480098038
 21
1.8487052409
 31
0.0
  0
LINE
  5
12A
330
1F
100
AcDbEntity
  8
0
  6
Continuous
 62
     7
370
    25
100
AcDbLine
 10
-12.1680344576
 20
4.5381130547
 30
0.0
 11
-13.2880591114
 21
1.8487052409
 31
0.0
  0
LINE
  5
12B
330
1F
100
AcDbEntity
  8
0
  6
Continuous
 62
     7
370
    25
100
AcDbLine
 10
2.9060614914
 20
2.9318871325
 30
0.0
 11
2.9060614914
 21
3.0249629145
 31
0.0
  0
LINE
  5
12C
330
1F
100
AcDbEntity
  8
0
  6
Continuous
 62
     7
370
    25
100
AcDbLine
 10
-2.5184877922
 20
2.6495964396
 30
0.0
 11
-2.5184877922
 21
2.7337106123
 31
0.0
  0
LINE
  5
12D
330
1F
100
AcDbEntity
  8
0
  6
Continuous
 62
     7
370
    25
100
AcDbLine
 10
-1.978183293
 20
2.9318871325
 30
0.0
 11
-1.978183293
 21
3.0249629145
 31
0.0
  0
LINE
  5
12E
330
1F
100
AcDbEntity
  8
0
  6
Continuous
 62
     7
370
    25
100
AcDbLine
 10
-1.978183293
 20
2.9318871325
 30
0.0
 11
2.9060614914
 21
2.9318871325
 31
0.0
  0
LINE
  5
12F
330
1F
100
AcDbEntity
  8
0
  6
Continuous
 62
     7
370
    25
100
AcDbLine
 10
-1.978183293
 20
4.6185789916
 30
0.0
 11
-1.978183293
 21
4.7652005469
 31
0.0
  0
LINE
  5
130
330
1F
100
AcDbEntity
  8
0
  6
Continuous
 62
     7
370
    25
100
AcDbLine
 10
5.2552256036
 20
4.6185789916
 30
0.0
 11
5.2552256036
 21
4.7652005469
 31
0.0
  0
LINE
  5
131
330
1F
100
AcDbEntity
  8
0
  6
Continuous
 62
     7
370
    25
100
AcDbLine
 10
5.2552256036
 20
4.6185789916
 30
0.0
 11
-1.978183293
 21
4.6185789916
 31
0.0
  0
LINE
  5
132
330
1F
100
AcDbEntity
  8
0
  6
Continuous
 62
     7
370
    25
100
AcDbLine
 10
14.5
 20
-31.5
 30
0.0
 11
14.5
 21
31.5
 31
0.0
  0
LINE
  5
133
330
1F
100
AcDbEntity
  8
0
  6
Continuous
 62
     7
370
    25
100
AcDbLine
 10
-14.5
 20
-31.5
 30
0.0
 11
-14.5
 21
31.5
 31
0.0
  0
MTEXT
  5
135
330
1F
100
AcDbEntity
  8
0
  6
Continuous
 62
     7
100
AcDbMText
 10
-14.5
 20
-32.5195663917
 30
0.0
 40
4.83362
 41
0.0
 71
     1
 72
     1
  1
SOLIDWORKS Educational Product.
  7
SLDTEXTSTYLE0
 73
     1
 44
1.0
  0
MTEXT
  5
136
330
1F
100
AcDbEntity
  8
0
  6
Continuous
 62
     7
100
AcDbMText
 10
-14.5
 20
-39.7699963917
 30
0.0
 40
4.83362
 41
0.0
 71
     1
 72
     1
  1
For Instructional Use Only.
  7
SLDTEXTSTYLE0
 73
     1
 44
1.0
  0
ENDSEC
  0
SECTION
  2
OBJECTS
  0
DICTIONARY
  5
C
330
0
100
AcDbDictionary
281
     1
  3
ACAD_GROUP
350
D
  3
ACAD_LAYOUT
350
1A
  3
ACAD_MLINESTYLE
350
17
  3
ACAD_PLOTSETTINGS
350
19
  3
ACAD_PLOTSTYLENAME
350
E
  3
ACAD_SCALELIST
350
47
  3
DWGPROPS
350
137
  0
DICTIONARY
  5
D
102
{ACAD_REACTORS
330
C
102
}
330
C
100
AcDbDictionary
281
     1
  0
DICTIONARY
  5
1A
102
{ACAD_REACTORS
330
C
102
}
330
C
100
AcDbDictionary
281
     1
  3
Layout1
350
1E
  3
Layout2
350
26
  3
Model
350
22
  0
DICTIONARY
  5
17
102
{ACAD_REACTORS
330
C
102
}
330
C
100
AcDbDictionary
281
     1
  3
Standard
350
18
  0
DICTIONARY
  5
19
102
{ACAD_REACTORS
330
C
102
}
330
C
100
AcDbDictionary
281
     1
  0
ACDBDICTIONARYWDFLT
  5
E
102
{ACAD_REACTORS
330
C
102
}
330
C
100
AcDbDictionary
281
     1
  3
Normal
350
F
100
AcDbDictionaryWithDefault
340
F
  0
DICTIONARY
  5
47
102
{ACAD_REACTORS
330
C
102
}
330
C
100
AcDbDictionary
281
     1
  3
A0
350
48
  3
A1
350
49
  3
A2
350
4A
  3
A3
350
4B
  3
A4
350
4C
  3
A5
350
4D
  3
A6
350
4E
  3
A7
350
4F
  3
A8
350
50
  3
A9
350
51
  3
B0
350
52
  3
B1
350
53
  3
B2
350
54
  3
B3
350
55
  3
B4
350
56
  3
B5
350
57
  3
B6
350
58
  0
XRECORD
  5
137
102
{ACAD_REACTORS
330
C
102
}
330
C
100
AcDbXrecord
280
     1
  1
DWGPROPS COOKIE
  2

  3

  4

  6

  7

  8
Yoav
  9

300
=
301
=
302
=
303
=
304
=
305
=
306
=
307
=
308
=
309
=
 40
0.0
 41
2461086.02678478
 42
2461086.026824688
  1

 90
        0
  0
LAYOUT
  5
1E
102
{ACAD_REACTORS
330
1A
102
}
330
1A
100
AcDbPlotSettings
  1

  2
none_device
  4

  6

 40
0.0
 41
0.0
 42
0.0
 43
0.0
 44
0.0
 45
0.0
 46
0.0
 47
0.0
 48
0.0
 49
0.0
140
0.0
141
0.0
142
1.0
143
1.0
 70
   688
 72
     1
 73
     0
 74
     5
  7

 75
    16
147
1.0
148
0.0
149
0.0
100
AcDbLayout
  1
Layout1
 70
     1
 71
     1
 10
0.0
 20
0.0
 11
420.0
 21
297.0
 12
0.0
 22
0.0
 32
0.0
 14
1.0000000000E+20
 24
1.0000000000E+20
 34
1.0000000000E+20
 15
-1.0000000000E+20
 25
-1.0000000000E+20
 35
-1.0000000000E+20
146
0.0
 13
0.0
 23
0.0
 33
0.0
 16
1.0
 26
0.0
 36
0.0
 17
0.0
 27
1.0
 37
0.0
 76
     0
330
1B
  0
LAYOUT
  5
26
102
{ACAD_REACTORS
330
1A
102
}
330
1A
100
AcDbPlotSettings
  1

  2
none_device
  4

  6

 40
0.0
 41
0.0
 42
0.0
 43
0.0
 44
0.0
 45
0.0
 46
0.0
 47
0.0
 48
0.0
 49
0.0
140
0.0
141
0.0
142
1.0
143
1.0
 70
   688
 72
     1
 73
     0
 74
     5
  7

 75
    16
147
1.0
148
0.0
149
0.0
100
AcDbLayout
  1
Layout2
 70
     1
 71
     2
 10
0.0
 20
0.0
 11
0.0
 21
0.0
 12
0.0
 22
0.0
 32
0.0
 14
0.0
 24
0.0
 34
0.0
 15
0.0
 25
0.0
 35
0.0
146
0.0
 13
0.0
 23
0.0
 33
0.0
 16
1.0
 26
0.0
 36
0.0
 17
0.0
 27
1.0
 37
0.0
 76
     0
330
23
  0
LAYOUT
  5
22
102
{ACAD_REACTORS
330
1A
102
}
330
1A
100
AcDbPlotSettings
  1

  2
none_device
  4
ANSI_A_(11.00_x_8.50_Inches)
  6

 40
6.35
 41
19.05
 42
6.35000508
 43
19.05000254
 44
279.4
 45
215.9
 46
133.34999746
 47
88.89999873
 48
0.0
 49
0.0
140
0.0
141
0.0
142
0.1335714286
143
1.0
 70
  1696
 72
     0
 73
     0
 74
     0
  7

 75
     0
147
0.0179189148
148
-1300.4909072572
149
0.0
100
AcDbLayout
  1
Model
 70
     1
 71
     0
 10
0.0
 20
0.0
 11
420.0
 21
297.0
 12
0.0
 22
0.0
 32
0.0
 14
-14.5
 24
-31.5
 34
0.0
 15
14.5
 25
31.5
 35
0.0
146
0.0
 13
0.0
 23
0.0
 33
0.0
 16
1.0
 26
0.0
 36
0.0
 17
0.0
 27
1.0
 37
0.0
 76
     0
330
1F
331
29
  0
MLINESTYLE
  5
18
102
{ACAD_REACTORS
330
17
102
}
330
17
100
AcDbMlineStyle
  2
Standard
 70
     0
  3

 62
   256
 51
90.0
 52
90.0
 71
     2
 49
0.5
 62
   256
  6
BYLAYER
 49
-0.5
 62
   256
  6
BYLAYER
  0
ACDBPLACEHOLDER
  5
F
102
{ACAD_REACTORS
330
E
102
}
330
E
  0
SCALE
  5
48
102
{ACAD_REACTORS
330
47
102
}
330
47
100
AcDbScale
 70
     0
300
1:1
140
1.0
141
1.0
290
     1
  0
SCALE
  5
49
102
{ACAD_REACTORS
330
47
102
}
330
47
100
AcDbScale
 70
     0
300
1:2
140
1.0
141
2.0
290
     0
  0
SCALE
  5
4A
102
{ACAD_REACTORS
330
47
102
}
330
47
100
AcDbScale
 70
     0
300
1:4
140
1.0
141
4.0
290
     0
  0
SCALE
  5
4B
102
{ACAD_REACTORS
330
47
102
}
330
47
100
AcDbScale
 70
     0
300
1:5
140
1.0
141
5.0
290
     0
  0
SCALE
  5
4C
102
{ACAD_REACTORS
330
47
102
}
330
47
100
AcDbScale
 70
     0
300
1:8
140
1.0
141
8.0
290
     0
  0
SCALE
  5
4D
102
{ACAD_REACTORS
330
47
102
}
330
47
100
AcDbScale
 70
     0
300
1:10
140
1.0
141
10.0
290
     0
  0
SCALE
  5
4E
102
{ACAD_REACTORS
330
47
102
}
330
47
100
AcDbScale
 70
     0
300
1:16
140
1.0
141
16.0
290
     0
  0
SCALE
  5
4F
102
{ACAD_REACTORS
330
47
102
}
330
47
100
AcDbScale
 70
     0
300
1:20
140
1.0
141
20.0
290
     0
  0
SCALE
  5
50
102
{ACAD_REACTORS
330
47
102
}
330
47
100
AcDbScale
 70
     0
300
1:30
140
1.0
141
30.0
290
     0
  0
SCALE
  5
51
102
{ACAD_REACTORS
330
47
102
}
330
47
100
AcDbScale
 70
     0
300
1:40
140
1.0
141
40.0
290
     0
  0
SCALE
  5
52
102
{ACAD_REACTORS
330
47
102
}
330
47
100
AcDbScale
 70
     0
300
1:50
140
1.0
141
50.0
290
     0
  0
SCALE
  5
53
102
{ACAD_REACTORS
330
47
102
}
330
47
100
AcDbScale
 70
     0
300
1:100
140
1.0
141
100.0
290
     0
  0
SCALE
  5
54
102
{ACAD_REACTORS
330
47
102
}
330
47
100
AcDbScale
 70
     0
300
2:1
140
2.0
141
1.0
290
     0
  0
SCALE
  5
55
102
{ACAD_REACTORS
330
47
102
}
330
47
100
AcDbScale
 70
     0
300
4:1
140
4.0
141
1.0
290
     0
  0
SCALE
  5
56
102
{ACAD_REACTORS
330
47
102
}
330
47
100
AcDbScale
 70
     0
300
8:1
140
8.0
141
1.0
290
     0
  0
SCALE
  5
57
102
{ACAD_REACTORS
330
47
102
}
330
47
100
AcDbScale
 70
     0
300
10:1
140
10.0
141
1.0
290
     0
  0
SCALE
  5
58
102
{ACAD_REACTORS
330
47
102
}
330
47
100
AcDbScale
 70
     0
300
100:1
140
100.0
141
1.0
290
     0
  0
ENDSEC
  0
EOF
