  0
SECTION
  2
HEADER
  9
$ACADVER
  1
AC1015
  9
$ACADMAINTVER
 70
     6
  9
$DWGCODEPAGE
  3
ANSI_1252
  9
$INSBASE
 10
0.0
 20
0.0
 30
0.0
  9
$EXTMIN
 10
-50.6044249786
 20
19.7782906624
 30
0.0
  9
$EXTMAX
 10
14.3955750214
 20
84.7782906624
 30
0.0
  9
$LIMMIN
 10
0.0
 20
0.0
  9
$LIMMAX
 10
420.0
 20
297.0
  9
$ORTHOMODE
 70
     0
  9
$REGENMODE
 70
     1
  9
$FILLMODE
 70
     1
  9
$QTEXTMODE
 70
     0
  9
$MIRRTEXT
 70
     1
  9
$LTSCALE
 40
1.0
  9
$ATTMODE
 70
     1
  9
$TEXTSIZE
 40
3.5
  9
$TRACEWID
 40
1.0
  9
$TEXTSTYLE
  7
Standard
  9
$CLAYER
  8
0
  9
$CELTYPE
  6
ByLayer
  9
$CECOLOR
 62
   256
  9
$CELTSCALE
 40
1.0
  9
$DISPSILH
 70
     0
  9
$DIMSCALE
 40
1.0
  9
$DIMASZ
 40
3.302
  9
$DIMEXO
 40
0.0
  9
$DIMDLI
 40
3.75
  9
$DIMRND
 40
0.0
  9
$DIMDLE
 40
0.0
  9
$DIMEXE
 40
1.0
  9
$DIMTP
 40
0.0
  9
$DIMTM
 40
0.0
  9
$DIMTXT
 40
3.5
  9
$DIMCEN
 40
2.5
  9
$DIMTSZ
 40
0.0
  9
$DIMTOL
 70
     0
  9
$DIMLIM
 70
     0
  9
$DIMTIH
 70
     1
  9
$DIMTOH
 70
     1
  9
$DIMSE1
 70
     0
  9
$DIMSE2
 70
     0
  9
$DIMTAD
 70
     1
  9
$DIMZIN
 70
     0
  9
$DIMBLK
  1

  9
$DIMASO
 70
     1
  9
$DIMSHO
 70
     1
  9
$DIMPOST
  1

  9
$DIMAPOST
  1

  9
$DIMALT
 70
     0
  9
$DIMALTD
 70
     3
  9
$DIMALTF
 40
0.0393700787
  9
$DIMLFAC
 40
1.0
  9
$DIMTOFL
 70
     1
  9
$DIMTVP
 40
0.0
  9
$DIMTIX
 70
     0
  9
$DIMSOXD
 70
     0
  9
$DIMSAH
 70
     0
  9
$DIMBLK1
  1

  9
$DIMBLK2
  1

  9
$DIMSTYLE
  2
ISO-25
  9
$DIMCLRD
 70
     0
  9
$DIMCLRE
 70
     0
  9
$DIMCLRT
 70
     0
  9
$DIMTFAC
 40
1.0
  9
$DIMGAP
 40
1.524
  9
$DIMJUST
 70
     0
  9
$DIMSD1
 70
     0
  9
$DIMSD2
 70
     0
  9
$DIMTOLJ
 70
     0
  9
$DIMTZIN
 70
     0
  9
$DIMALTZ
 70
     0
  9
$DIMALTTZ
 70
     0
  9
$DIMUPT
 70
     0
  9
$DIMDEC
 70
     2
  9
$DIMTDEC
 70
     2
  9
$DIMALTU
 70
     2
  9
$DIMALTTD
 70
     3
  9
$DIMTXSTY
  7
Standard
  9
$DIMAUNIT
 70
     0
  9
$DIMADEC
 70
     2
  9
$DIMALTRND
 40
0.0
  9
$DIMAZIN
 70
     0
  9
$DIMDSEP
 70
    44
  9
$DIMATFIT
 70
     3
  9
$DIMFRAC
 70
     0
  9
$DIMLDRBLK
  1

  9
$DIMLUNIT
 70
     2
  9
$DIMLWD
 70
    -2
  9
$DIMLWE
 70
    -2
  9
$DIMTMOVE
 70
     0
  9
$LUNITS
 70
     2
  9
$LUPREC
 70
     2
  9
$SKETCHINC
 40
1.0
  9
$FILLETRAD
 40
0.0
  9
$AUNITS
 70
     0
  9
$AUPREC
 70
     2
  9
$MENU
  1
.
  9
$ELEVATION
 40
0.0
  9
$PELEVATION
 40
0.0
  9
$THICKNESS
 40
0.0
  9
$LIMCHECK
 70
     0
  9
$CHAMFERA
 40
0.0
  9
$CHAMFERB
 40
0.0
  9
$CHAMFERC
 40
0.0
  9
$CHAMFERD
 40
0.0
  9
$SKPOLY
 70
     0
  9
$TDCREATE
 40
2461086.15033529
  9
$TDUCREATE
 40
2461086.067001956
  9
$TDUPDATE
 40
2461086.15036603
  9
$TDUUPDATE
 40
2461086.067032697
  9
$TDINDWG
 40
0.0000000116
  9
$TDUSRTIMER
 40
0.0000000116
  9
$USRTIMER
 70
     1
  9
$ANGBASE
 50
0.0
  9
$ANGDIR
 70
     0
  9
$PDMODE
 70
     0
  9
$PDSIZE
 40
-1.0
  9
$PLINEWID
 40
0.0
  9
$SPLFRAME
 70
     0
  9
$SPLINETYPE
 70
     6
  9
$SPLINESEGS
 70
     8
  9
$HANDSEED
  5
217
  9
$SURFTAB1
 70
     6
  9
$SURFTAB2
 70
     6
  9
$SURFTYPE
 70
     6
  9
$SURFU
 70
     6
  9
$SURFV
 70
     6
  9
$UCSBASE
  2

  9
$UCSNAME
  2

  9
$UCSORG
 10
0.0
 20
0.0
 30
0.0
  9
$UCSXDIR
 10
1.0
 20
0.0
 30
0.0
  9
$UCSYDIR
 10
0.0
 20
1.0
 30
0.0
  9
$UCSORTHOREF
  2

  9
$UCSORTHOVIEW
 70
     0
  9
$UCSORGTOP
 10
0.0
 20
0.0
 30
0.0
  9
$UCSORGBOTTOM
 10
0.0
 20
0.0
 30
0.0
  9
$UCSORGLEFT
 10
0.0
 20
0.0
 30
0.0
  9
$UCSORGRIGHT
 10
0.0
 20
0.0
 30
0.0
  9
$UCSORGFRONT
 10
0.0
 20
0.0
 30
0.0
  9
$UCSORGBACK
 10
0.0
 20
0.0
 30
0.0
  9
$PUCSBASE
  2

  9
$PUCSNAME
  2

  9
$PUCSORG
 10
0.0
 20
0.0
 30
0.0
  9
$PUCSXDIR
 10
1.0
 20
0.0
 30
0.0
  9
$PUCSYDIR
 10
0.0
 20
1.0
 30
0.0
  9
$PUCSORTHOREF
  2

  9
$PUCSORTHOVIEW
 70
     0
  9
$PUCSORGTOP
 10
0.0
 20
0.0
 30
0.0
  9
$PUCSORGBOTTOM
 10
0.0
 20
0.0
 30
0.0
  9
$PUCSORGLEFT
 10
0.0
 20
0.0
 30
0.0
  9
$PUCSORGRIGHT
 10
0.0
 20
0.0
 30
0.0
  9
$PUCSORGFRONT
 10
0.0
 20
0.0
 30
0.0
  9
$PUCSORGBACK
 10
0.0
 20
0.0
 30
0.0
  9
$USERI1
 70
     0
  9
$USERI2
 70
     0
  9
$USERI3
 70
     0
  9
$USERI4
 70
     0
  9
$USERI5
 70
     0
  9
$USERR1
 40
0.0
  9
$USERR2
 40
0.0
  9
$USERR3
 40
0.0
  9
$USERR4
 40
0.0
  9
$USERR5
 40
0.0
  9
$WORLDVIEW
 70
     1
  9
$SHADEDGE
 70
     3
  9
$SHADEDIF
 70
    70
  9
$TILEMODE
 70
     1
  9
$MAXACTVP
 70
    64
  9
$PINSBASE
 10
0.0
 20
0.0
 30
0.0
  9
$PLIMCHECK
 70
     0
  9
$PEXTMIN
 10
1.0000000000E+20
 20
1.0000000000E+20
 30
1.0000000000E+20
  9
$PEXTMAX
 10
-1.0000000000E+20
 20
-1.0000000000E+20
 30
-1.0000000000E+20
  9
$PLIMMIN
 10
0.0
 20
0.0
  9
$PLIMMAX
 10
420.0
 20
297.0
  9
$UNITMODE
 70
     0
  9
$VISRETAIN
 70
     1
  9
$PLINEGEN
 70
     0
  9
$PSLTSCALE
 70
     1
  9
$TREEDEPTH
 70
  3020
  9
$CMLSTYLE
  2
Standard
  9
$CMLJUST
 70
     0
  9
$CMLSCALE
 40
20.0
  9
$PROXYGRAPHICS
 70
     1
  9
$MEASUREMENT
 70
     1
  9
$CELWEIGHT
370
    -1
  9
$ENDCAPS
280
     0
  9
$JOINSTYLE
280
     0
  9
$LWDISPLAY
290
     1
  9
$INSUNITS
 70
     4
  9
$HYPERLINKBASE
  1

  9
$STYLESHEET
  1

  9
$XEDIT
290
     1
  9
$CEPSNTYPE
380
     0
  9
$PSTYLEMODE
290
     1
  9
$FINGERPRINTGUID
  2
{b0ef2966-5b73-4f9c-8997-325d6ef643de}
  9
$VERSIONGUID
  2
{FAEB1C32-E019-11D5-929B-00C0DF256EC4}
  9
$EXTNAMES
290
     1
  9
$PSVPSCALE
 40
0.0
  9
$OLESTARTUP
290
     0
  0
ENDSEC
  0
SECTION
  2
CLASSES
  0
CLASS
  1
ACDBDICTIONARYWDFLT
  2
AcDbDictionaryWithDefault
  3
ObjectDBX Classes
 90
        0
280
     0
281
     0
  0
CLASS
  1
VISUALSTYLE
  2
AcDbVisualStyle
  3
ObjectDBX Classes
 90
     4095
280
     0
281
     0
  0
CLASS
  1
MATERIAL
  2
AcDbMaterial
  3
ObjectDBX Classes
 90
     1153
280
     0
281
     0
  0
CLASS
  1
SCALE
  2
AcDbScale
  3
ObjectDBX Classes
 90
     1153
280
     0
281
     0
  0
CLASS
  1
TABLESTYLE
  2
AcDbTableStyle
  3
ObjectDBX Classes
 90
     4095
280
     0
281
     0
  0
CLASS
  1
MLEADERSTYLE
  2
AcDbMLeaderStyle
  3
ACDB_MLEADERSTYLE_CLASS
 90
     4095
280
     0
281
     0
  0
CLASS
  1
SUN
  2
AcDbSun
  3
SCENEOE
 90
     1153
280
     0
281
     0
  0
CLASS
  1
ACDBPLACEHOLDER
  2
AcDbPlaceHolder
  3
ObjectDBX Classes
 90
        0
280
     0
281
     0
  0
CLASS
  1
LAYOUT
  2
AcDbLayout
  3
ObjectDBX Classes
 90
        0
280
     0
281
     0
  0
ENDSEC
  0
SECTION
  2
TABLES
  0
TABLE
  2
VPORT
  5
8
330
0
100
AcDbSymbolTable
 70
     1
  0
VPORT
  5
29
330
8
100
AcDbSymbolTableRecord
100
AcDbViewportTableRecord
  2
*Active
 70
     0
 10
0.0
 20
0.0
 11
1.0
 21
1.0
 12
-18.1044249786
 22
52.2782906624
 13
0.0
 23
0.0
 14
10.0
 24
10.0
 15
10.0
 25
10.0
 16
0.0
 26
0.0
 36
1.0
 17
0.0
 27
0.0
 37
0.0
 40
66.3
 41
1.0
 42
50.0
 43
0.0
 44
0.0
 50
0.0
 51
0.0
 71
     0
 72
   100
 73
     1
 74
     3
 75
     0
 76
     0
 77
     0
 78
     0
281
     0
 65
     1
110
0.0
120
0.0
130
0.0
111
1.0
121
0.0
131
0.0
112
0.0
122
1.0
132
0.0
 79
     0
146
0.0
  0
ENDTAB
  0
TABLE
  2
LTYPE
  5
5
330
0
100
AcDbSymbolTable
 70
     6
  0
LTYPE
  5
14
330
5
100
AcDbSymbolTableRecord
100
AcDbLinetypeTableRecord
  2
ByBlock
 70
     0
  3

 72
    65
 73
     0
 40
0.0
  0
LTYPE
  5
15
330
5
100
AcDbSymbolTableRecord
100
AcDbLinetypeTableRecord
  2
ByLayer
 70
     0
  3

 72
    65
 73
     0
 40
0.0
  0
LTYPE
  5
16
330
5
100
AcDbSymbolTableRecord
100
AcDbLinetypeTableRecord
  2
Continuous
 70
     0
  3
Solid line
 72
    65
 73
     0
 40
0.0
  0
LTYPE
  5
5E
330
5
100
AcDbSymbolTableRecord
100
AcDbLinetypeTableRecord
  2
HIDDEN
 70
     0
  3
Hidden __ __ __ __ __ __ __ __ __ __ __ __ __ __
 72
    65
 73
     2
 40
1.905
 49
1.27
 74
     0
 49
-0.635
 74
     0
  0
LTYPE
  5
5F
330
5
100
AcDbSymbolTableRecord
100
AcDbLinetypeTableRecord
  2
PHANTOM
 70
     0
  3
Phantom ______  __  __  ______  __  __  ______
 72
    65
 73
     6
 40
12.7
 49
6.35
 74
     0
 49
-1.27
 74
     0
 49
1.27
 74
     0
 49
-1.27
 74
     0
 49
1.27
 74
     0
 49
-1.27
 74
     0
  0
LTYPE
  5
60
330
5
100
AcDbSymbolTableRecord
100
AcDbLinetypeTableRecord
  2
CENTER
 70
     0
  3
Center ____ _ ____ _ ____ _ ____ _ ____ _ ____
 72
    65
 73
     4
 40
10.16
 49
6.35
 74
     0
 49
-1.27
 74
     0
 49
1.27
 74
     0
 49
-1.27
 74
     0
  0
LTYPE
  5
61
330
5
100
AcDbSymbolTableRecord
100
AcDbLinetypeTableRecord
  2
CENTERX2
 70
     0
  3
Center (2x) ________  __  ________  __  _____
 72
    65
 73
     4
 40
20.32
 49
12.7
 74
     0
 49
-2.54
 74
     0
 49
2.54
 74
     0
 49
-2.54
 74
     0
  0
LTYPE
  5
62
330
5
100
AcDbSymbolTableRecord
100
AcDbLinetypeTableRecord
  2
DOT2
 70
     0
  3
Dot (.5x) ........................................
 72
    65
 73
     2
 40
0.635
 49
0.0
 74
     0
 49
-0.635
 74
     0
  0
ENDTAB
  0
TABLE
  2
LAYER
  5
2
330
0
100
AcDbSymbolTable
 70
     1
  0
LAYER
  5
10
330
2
100
AcDbSymbolTableRecord
100
AcDbLayerTableRecord
  2
0
 70
     0
 62
     7
  6
Continuous
370
    -3
390
F
  0
ENDTAB
  0
TABLE
  2
STYLE
  5
3
330
0
100
AcDbSymbolTable
 70
     2
  0
STYLE
  5
11
330
3
100
AcDbSymbolTableRecord
100
AcDbTextStyleTableRecord
  2
Standard
 70
     0
 40
0.0
 41
1.0
 50
0.0
 71
     0
 42
3.5
  3
txt
  4

  0
STYLE
  5
213
330
3
100
AcDbSymbolTableRecord
100
AcDbTextStyleTableRecord
  2
SLDTEXTSTYLE0
 70
     0
 40
0.0
 41
0.7
 50
0.0
 71
     0
 42
3.5
  3
TXT
  4

  0
ENDTAB
  0
TABLE
  2
VIEW
  5
6
330
0
100
AcDbSymbolTable
 70
     0
  0
ENDTAB
  0
TABLE
  2
UCS
  5
7
330
0
100
AcDbSymbolTable
 70
     0
  0
ENDTAB
  0
TABLE
  2
APPID
  5
9
330
0
100
AcDbSymbolTable
 70
     1
  0
APPID
  5
12
330
9
100
AcDbSymbolTableRecord
100
AcDbRegAppTableRecord
  2
ACAD
 70
     0
  0
ENDTAB
  0
TABLE
  2
DIMSTYLE
  5
A
330
0
100
AcDbSymbolTable
 70
     1
100
AcDbDimStyleTable
  0
DIMSTYLE
105
27
330
A
100
AcDbSymbolTableRecord
100
AcDbDimStyleTableRecord
  2
ISO-25
 70
     0
 41
2.5
 42
0.625
 43
3.75
 44
1.25
 73
     0
 74
     0
 77
     1
 78
     8
140
2.5
141
2.5
143
0.0393700787
147
0.625
171
     3
172
     1
178
     0
271
     2
272
     2
274
     3
278
    44
283
     0
284
     8
340
11
  0
ENDTAB
  0
TABLE
  2
BLOCK_RECORD
  5
1
330
0
100
AcDbSymbolTable
 70
     1
  0
BLOCK_RECORD
  5
1F
330
1
100
AcDbSymbolTableRecord
100
AcDbBlockTableRecord
  2
*Model_Space
340
22
  0
BLOCK_RECORD
  5
1B
330
1
100
AcDbSymbolTableRecord
100
AcDbBlockTableRecord
  2
*Paper_Space
340
1E
  0
BLOCK_RECORD
  5
23
330
1
100
AcDbSymbolTableRecord
100
AcDbBlockTableRecord
  2
*Paper_Space0
340
26
  0
ENDTAB
  0
ENDSEC
  0
SECTION
  2
BLOCKS
  0
BLOCK
  5
20
330
1F
100
AcDbEntity
  8
0
100
AcDbBlockBegin
  2
*Model_Space
 70
     0
 10
0.0
 20
0.0
 30
0.0
  3
*Model_Space
  1

  0
ENDBLK
  5
21
330
1F
100
AcDbEntity
  8
0
100
AcDbBlockEnd
  0
BLOCK
  5
1C
330
1B
100
AcDbEntity
 67
     1
  8
0
100
AcDbBlockBegin
  2
*Paper_Space
 70
     0
 10
0.0
 20
0.0
 30
0.0
  3
*Paper_Space
  1

  0
ENDBLK
  5
1D
330
1B
100
AcDbEntity
 67
     1
  8
0
100
AcDbBlockEnd
  0
BLOCK
  5
24
330
23
100
AcDbEntity
  8
0
100
AcDbBlockBegin
  2
*Paper_Space0
 70
     0
 10
0.0
 20
0.0
 30
0.0
  3
*Paper_Space0
  1

  0
ENDBLK
  5
25
330
23
100
AcDbEntity
  8
0
100
AcDbBlockEnd
  0
ENDSEC
  0
SECTION
  2
ENTITIES
  0
CIRCLE
  5
63
330
1F
100
AcDbEntity
  8
0
  6
Continuous
 62
     7
370
    25
100
AcDbCircle
 10
-18.0756086243
 20
52.6984756265
 30
0.0
 40
24.50000000000005
  0
CIRCLE
  5
64
330
1F
100
AcDbEntity
  8
0
  6
Continuous
 62
     7
370
    25
100
AcDbCircle
 10
-18.0756086243
 20
52.6984756265
 30
0.0
 40
27.99999999999989
  0
CIRCLE
  5
6B
330
1F
100
AcDbEntity
  8
0
  6
Continuous
 62
     7
370
    25
100
AcDbCircle
 10
-18.0756086243
 20
52.6984756265
 30
0.0
 40
7.999999999999981
  0
CIRCLE
  5
6C
330
1F
100
AcDbEntity
  8
0
  6
Continuous
 62
     7
370
    25
100
AcDbCircle
 10
-18.0756086243
 20
52.6984756265
 30
0.0
 40
1.999999999999998
  0
SPLINE
  5
95
330
1F
100
AcDbEntity
  8
0
  6
Continuous
 62
     7
370
    25
100
AcDbSpline
210
0.0
220
0.0
230
1.0
 70
    24
 71
     3
 72
    32
 73
    28
 74
     0
 42
0.00000001
 43
0.00000001
 40
0.0
 40
0.0
 40
0.0
 40
0.0
 40
0.0157515385872829
 40
0.0278832014918676
 40
0.0352742898190455
 40
0.0411879001147247
 40
0.0467408448293476
 40
0.0518924170744517
 40
0.057384496083849
 40
0.0636046125624978
 40
0.082591541301571
 40
0.104636401881983
 40
0.1264198384514851
 40
0.1496820812219508
 40
0.1717512555582295
 40
0.2122153054978636
 40
0.2542571683412758
 40
0.2963227036508721
 40
0.3370854746539653
 40
0.3793519997752235
 40
0.4215364377632399
 40
0.4633644374368706
 40
0.625311600763329
 40
0.7167754441501982
 40
0.808957849794201
 40
0.9029495005587738
 40
1.0
 40
1.0
 40
1.0
 40
1.0
 10
-40.18437466899733
 20
42.14137072125475
 30
0.0
 10
-40.15326625193695
 20
42.15948152182916
 30
0.0
 10
-40.09819847197494
 20
42.19154106311126
 30
0.0
 10
-40.00535093252415
 20
42.24559534904792
 30
0.0
 10
-39.91968259221876
 20
42.29547002521034
 30
0.0
 10
-39.8404358414049
 20
42.34160615927897
 30
0.0
 10
-39.75438635200004
 20
42.39170273407789
 30
0.0
 10
-39.66398522539819
 20
42.44433275933473
 30
0.0
 10
-39.57842768265401
 20
42.49414293100851
 30
0.0
 10
-39.44394148440969
 20
42.57243854829071
 30
0.0
 10
-39.28234344348377
 20
42.66651822732887
 30
0.0
 10
-39.09646687732532
 20
42.77473245805036
 30
0.0
 10
-38.89600224955291
 20
42.89143961446928
 30
0.0
 10
-38.66660146486801
 20
43.02499291790414
 30
0.0
 10
-38.32770860586506
 20
43.22229067733635
 30
0.0
 10
-37.84502810101839
 20
43.50329920141095
 30
0.0
 10
-37.25380099091071
 20
43.84750174519732
 30
0.0
 10
-36.63642087998164
 20
44.20693012903128
 30
0.0
 10
-35.9413244527865
 20
44.61160365351459
 30
0.0
 10
-35.27491038092396
 20
44.99957879002057
 30
0.0
 10
-34.60039738583865
 20
45.39226898428954
 30
0.0
 10
-33.29134288666823
 20
46.15437863871209
 30
0.0
 10
-31.7293092579632
 20
47.06376851493424
 30
0.0
 10
-29.937145606488
 20
48.10713624481853
 30
0.0
 10
-28.52862948396663
 20
48.92715079429951
 30
0.0
 10
-27.12916219899089
 20
49.74189726177224
 30
0.0
 10
-26.2318551144798
 20
50.26429445189762
 30
0.0
 10
-25.776018009369
 20
50.52967519721349
 30
0.0
  0
SPLINE
  5
96
330
1F
100
AcDbEntity
  8
0
  6
Continuous
 62
     7
370
    25
100
AcDbSpline
210
0.0
220
0.0
230
1.0
 70
    24
 71
     3
 72
    32
 73
    28
 74
     0
 42
0.00000001
 43
0.00000001
 40
0.0
 40
0.0
 40
0.0
 40
0.0
 40
0.0157515385872827
 40
0.0278832014918674
 40
0.0352742898190452
 40
0.0411879001147244
 40
0.0467408448293479
 40
0.0518924170744513
 40
0.057384496083849
 40
0.0636046125624975
 40
0.0825915413015709
 40
0.1046364018819827
 40
0.1264198384514849
 40
0.1496820812219506
 40
0.1717512555582296
 40
0.2122153054978632
 40
0.2542571683412757
 40
0.2963227036508723
 40
0.3370854746539655
 40
0.379351999775224
 40
0.42153643776324
 40
0.4633644374368708
 40
0.6253116007633296
 40
0.7167754441501987
 40
0.8089578497942012
 40
0.902949500558774
 40
1.0
 40
1.0
 40
1.0
 40
1.0
 10
-14.86718964343894
 20
28.40946478527771
 30
0.0
 10
-14.8748010088008
 20
28.44464719319384
 30
0.0
 10
-14.8882745645958
 20
28.50692670725263
 30
0.0
 10
-14.91099177789335
 20
28.61193365764253
 30
0.0
 10
-14.93195244062147
 20
28.70882121345328
 30
0.0
 10
-14.95134191881362
 20
28.79844620169199
 30
0.0
 10
-14.97239583813682
 20
28.89576482228721
 30
0.0
 10
-14.99451448217952
 20
28.99800497504105
 30
0.0
 10
-15.01544803582273
 20
29.09476722312606
 30
0.0
 10
-15.04835307206993
 20
29.24686587464333
 30
0.0
 10
-15.08789162296632
 20
29.42962696413463
 30
0.0
 10
-15.13337045445085
 20
29.6398461199323
 30
0.0
 10
-15.18241857930861
 20
29.86656380516058
 30
0.0
 10
-15.23854657782248
 20
30.12600715669465
 30
0.0
 10
-15.3214642448767
 20
30.50928177919196
 30
0.0
 10
-15.43956275398128
 20
31.05517462811828
 30
0.0
 10
-15.58421960161616
 20
31.72382945933362
 30
0.0
 10
-15.73527536193676
 20
32.42206231572916
 30
0.0
 10
-15.9053461456361
 20
33.20818929850552
 30
0.0
 10
-16.06839915387452
 20
33.96187765467647
 30
0.0
 10
-16.23343374361114
 20
34.72472557753161
 30
0.0
 10
-16.55372300977445
 20
36.20521522394694
 30
0.0
 10
-16.93590924035338
 20
37.97181441146418
 30
0.0
 10
-17.37440189374504
 20
39.99868169038363
 30
0.0
 10
-17.71902665577554
 20
41.5916585584387
 30
0.0
 10
-18.0614374186647
 20
43.17440154371279
 30
0.0
 10
-18.28098353214074
 20
44.18922090311734
 30
0.0
 10
-18.39251420712674
 20
44.70475491258457
 30
0.0
  0
SPLINE
  5
97
330
1F
100
AcDbEntity
  8
0
  6
Continuous
 62
     7
370
    25
100
AcDbSpline
210
0.0
220
0.0
230
1.0
 70
    24
 71
     3
 72
    32
 73
    28
 74
     0
 42
0.00000001
 43
0.00000001
 40
0.0
 40
0.0
 40
0.0
 40
0.0
 40
0.0157515385872827
 40
0.0278832014918675
 40
0.0352742898190452
 40
0.0411879001147246
 40
0.0467408448293477
 40
0.0518924170744513
 40
0.0573844960838487
 40
0.0636046125624976
 40
0.0825915413015708
 40
0.1046364018819827
 40
0.1264198384514848
 40
0.1496820812219504
 40
0.1717512555582295
 40
0.2122153054978631
 40
0.2542571683412755
 40
0.2963227036508721
 40
0.3370854746539655
 40
0.379351999775224
 40
0.42153643776324
 40
0.4633644374368707
 40
0.6253116007633293
 40
0.7167754441501983
 40
0.8089578497942008
 40
0.9029495005587737
 40
1.0
 40
1.0
 40
1.0
 40
1.0
 10
-1.203220778479952
 20
34.93411443949731
 30
0.0
 10
-1.230058202921328
 20
34.95810375709498
 30
0.0
 10
-1.277565518417852
 20
35.00056938497771
 30
0.0
 10
-1.357665666867791
 20
35.07216894942116
 30
0.0
 10
-1.431572275664428
 20
35.13823226018565
 30
0.0
 10
-1.499938939357549
 20
35.19934354946042
 30
0.0
 10
-1.574174367847518
 20
35.26570078410996
 30
0.0
 10
-1.652163980751437
 20
35.33541379242627
 30
0.0
 10
-1.725975003804475
 20
35.40139166143143
 30
0.0
 10
-1.841997081584421
 20
35.50510096029816
 30
0.0
 10
-1.981408714288431
 20
35.62971761049319
 30
0.0
 10
-2.141765581370997
 20
35.77305669363854
 30
0.0
 10
-2.314707659734211
 20
35.92764538946959
 30
0.0
 10
-2.512613140229249
 20
36.10454826017109
 30
0.0
 10
-2.804978112691925
 20
36.36588616143511
 30
0.0
 10
-3.221389579498673
 20
36.73810619135484
 30
0.0
 10
-3.731444876250499
 20
37.19403215149607
 30
0.0
 10
-4.26406252910343
 20
37.67012605016073
 30
0.0
 10
-4.863726530267993
 20
38.20615104045923
 30
0.0
 10
-5.438646085498664
 20
38.72005757547959
 30
0.0
 10
-6.020552632051498
 20
39.24020961122769
 30
0.0
 10
-7.14988207182813
 20
40.24968958805547
 30
0.0
 10
-8.497458176517084
 20
41.45425492304236
 30
0.0
 10
-10.04356887992254
 20
42.83628548212847
 30
0.0
 10
-11.25870447937346
 20
43.92246548733488
 30
0.0
 10
-12.46603359052114
 20
45.00166746349688
 30
0.0
 10
-13.24014598057113
 20
45.69362760377651
 30
0.0
 10
-13.63339947984896
 20
46.04514729267877
 30
0.0
  0
SPLINE
  5
98
330
1F
100
AcDbEntity
  8
0
  6
Continuous
 62
     7
370
    25
100
AcDbSpline
210
0.0
220
0.0
230
1.0
 70
    24
 71
     3
 72
    32
 73
    28
 74
     0
 42
0.00000001
 43
0.00000001
 40
0.0
 40
0.0
 40
0.0
 40
0.0
 40
0.0157515385872826
 40
0.0278832014918676
 40
0.0352742898190452
 40
0.0411879001147244
 40
0.0467408448293479
 40
0.0518924170744515
 40
0.057384496083849
 40
0.0636046125624977
 40
0.0825915413015708
 40
0.1046364018819826
 40
0.1264198384514848
 40
0.1496820812219505
 40
0.1717512555582297
 40
0.212215305497863
 40
0.2542571683412759
 40
0.2963227036508722
 40
0.3370854746539654
 40
0.3793519997752241
 40
0.4215364377632403
 40
0.4633644374368711
 40
0.6253116007633294
 40
0.7167754441501983
 40
0.808957849794201
 40
0.9029495005587738
 40
1.0
 40
1.0
 40
1.0
 40
1.0
 10
-42.16728664930328
 20
57.15280497422441
 30
0.0
 10
-42.13147414974848
 20
57.14917185090061
 30
0.0
 10
-42.06807925435587
 20
57.14274053569154
 30
0.0
 10
-41.96119170495745
 20
57.13189695723222
 30
0.0
 10
-41.8625689626594
 20
57.12189183081674
 30
0.0
 10
-41.77133885529864
 20
57.1126366759125
 30
0.0
 10
-41.67227732815567
 20
57.10258703544535
 30
0.0
 10
-41.56820612775039
 20
57.09202917128534
 30
0.0
 10
-41.46971093734935
 20
57.08203698481474
 30
0.0
 10
-41.31488830830324
 20
57.06633046581622
 30
0.0
 10
-41.1288540990574
 20
57.04745757972779
 30
0.0
 10
-40.91487006927294
 20
57.02574922708003
 30
0.0
 10
-40.68409203325393
 20
57.00233714817715
 30
0.0
 10
-40.42000223776698
 20
56.97554564220879
 30
0.0
 10
-40.02986344225663
 20
56.93596665791235
 30
0.0
 10
-39.47419404476272
 20
56.87959484713505
 30
0.0
 10
-38.79356408611122
 20
56.81054597848845
 30
0.0
 10
-38.08282638110757
 20
56.73844272500808
 30
0.0
 10
-37.28262042909291
 20
56.65726305466218
 30
0.0
 10
-36.51543405617111
 20
56.57943317012949
 30
0.0
 10
-35.73892407530919
 20
56.50065741982676
 30
0.0
 10
-34.23191992341803
 20
56.34777415277227
 30
0.0
 10
-32.43368221418306
 20
56.16534568661086
 30
0.0
 10
-30.37051519909469
 20
55.95604054743794
 30
0.0
 10
-28.74900926027363
 20
55.7915412491685
 30
0.0
 10
-27.13792048571862
 20
55.62809875628642
 30
0.0
 10
-26.10492644098139
 20
55.52330308985838
 30
0.0
 10
-25.58015958794102
 20
55.47006629496698
 30
0.0
  0
SPLINE
  5
99
330
1F
100
AcDbEntity
  8
0
  6
Continuous
 62
     7
370
    25
100
AcDbSpline
210
0.0
220
0.0
230
1.0
 70
    24
 71
     3
 72
    32
 73
    28
 74
     0
 42
0.00000001
 43
0.00000001
 40
0.0
 40
0.0
 40
0.0
 40
0.0
 40
0.0157515385872852
 40
0.02788320149187
 40
0.0352742898190481
 40
0.0411879001147274
 40
0.0467408448293508
 40
0.0518924170744543
 40
0.0573844960838518
 40
0.0636046125625003
 40
0.0825915413015735
 40
0.1046364018819854
 40
0.1264198384514874
 40
0.1496820812219532
 40
0.1717512555582322
 40
0.2122153054978657
 40
0.2542571683412783
 40
0.2963227036508741
 40
0.3370854746539673
 40
0.3793519997752255
 40
0.4215364377632413
 40
0.4633644374368726
 40
0.6253116007633305
 40
0.7167754441501992
 40
0.8089578497942017
 40
0.9029495005587743
 40
0.9999999999999999
 40
0.9999999999999999
 40
0.9999999999999999
 40
0.9999999999999999
 10
2.020640254345337
 20
66.71242514145466
 30
0.0
 10
1.989531837284963
 20
66.69431434088025
 30
0.0
 10
1.934464057322966
 20
66.66225479959816
 30
0.0
 10
1.841616517872152
 20
66.60820051366153
 30
0.0
 10
1.75594817756677
 20
66.55832583749907
 30
0.0
 10
1.676701426752889
 20
66.51218970343047
 30
0.0
 10
1.590651937348045
 20
66.46209312863154
 30
0.0
 10
1.500250810746201
 20
66.4094631033747
 30
0.0
 10
1.414693268002008
 20
66.3596529317009
 30
0.0
 10
1.280207069757705
 20
66.28135731441874
 30
0.0
 10
1.118609028831753
 20
66.18727763538055
 30
0.0
 10
0.9327324626733323
 20
66.07906340465907
 30
0.0
 10
0.7322678349009036
 20
65.96235624824016
 30
0.0
 10
0.5028670502160021
 20
65.82880294480528
 30
0.0
 10
0.1639741912130323
 20
65.63150518537311
 30
0.0
 10
-0.3187063136335863
 20
65.35049666129845
 30
0.0
 10
-0.909933423741311
 20
65.00629411751214
 30
0.0
 10
-1.527313534670366
 20
64.64686573367814
 30
0.0
 10
-2.222409961865512
 20
64.24219220919488
 30
0.0
 10
-2.888824033728057
 20
63.85421707268889
 30
0.0
 10
-3.563337028813359
 20
63.4615268784199
 30
0.0
 10
-4.872391527983815
 20
62.6994172239974
 30
0.0
 10
-6.434425156688836
 20
61.79002734777524
 30
0.0
 10
-8.226588808164033
 20
60.74665961789095
 30
0.0
 10
-9.635104930685415
 20
59.92664506840998
 30
0.0
 10
-11.03457221566115
 20
59.11189860093725
 30
0.0
 10
-11.93187930017226
 20
58.58950141081189
 30
0.0
 10
-12.38771640528306
 20
58.32412066549603
 30
0.0
  0
SPLINE
  5
9A
330
1F
100
AcDbEntity
  8
0
  6
Continuous
 62
     7
370
    25
100
AcDbSpline
210
0.0
220
0.0
230
1.0
 70
    24
 71
     3
 72
    32
 73
    28
 74
     0
 42
0.00000001
 43
0.00000001
 40
0.0
 40
0.0
 40
0.0
 40
0.0
 40
0.0157515385872826
 40
0.0278832014918674
 40
0.0352742898190453
 40
0.0411879001147243
 40
0.0467408448293477
 40
0.0518924170744516
 40
0.057384496083849
 40
0.063604612562498
 40
0.082591541301571
 40
0.1046364018819831
 40
0.1264198384514853
 40
0.1496820812219508
 40
0.1717512555582301
 40
0.2122153054978639
 40
0.2542571683412757
 40
0.2963227036508727
 40
0.3370854746539655
 40
0.379351999775224
 40
0.4215364377632399
 40
0.4633644374368708
 40
0.6253116007633289
 40
0.7167754441501982
 40
0.808957849794201
 40
0.9029495005587739
 40
1.0
 40
1.0
 40
1.0
 40
1.0
 10
-34.94799647006665
 20
70.46283681343725
 30
0.0
 10
-34.92115904562527
 20
70.43884749583957
 30
0.0
 10
-34.87365173012875
 20
70.39638186795682
 30
0.0
 10
-34.79355158167882
 20
70.32478230351344
 30
0.0
 10
-34.71964497288216
 20
70.25871899274891
 30
0.0
 10
-34.65127830918907
 20
70.19760770347413
 30
0.0
 10
-34.57704288069908
 20
70.13125046882462
 30
0.0
 10
-34.49905326779517
 20
70.06153746050826
 30
0.0
 10
-34.42524224474212
 20
69.99555959150314
 30
0.0
 10
-34.30922016696219
 20
69.8918502926364
 30
0.0
 10
-34.16980853425816
 20
69.76723364244137
 30
0.0
 10
-34.00945166717562
 20
69.62389455929599
 30
0.0
 10
-33.8365095888124
 20
69.46930586346497
 30
0.0
 10
-33.63860410831736
 20
69.29240299276344
 30
0.0
 10
-33.34623913585468
 20
69.03106509149941
 30
0.0
 10
-32.92982766904795
 20
68.65884506157971
 30
0.0
 10
-32.41977237229611
 20
68.20291910143845
 30
0.0
 10
-31.8871547194432
 20
67.72682520277378
 30
0.0
 10
-31.28749071827863
 20
67.1908002124753
 30
0.0
 10
-30.71257116304798
 20
66.67689367745496
 30
0.0
 10
-30.13066461649515
 20
66.15674164170683
 30
0.0
 10
-29.00133517671851
 20
65.14726166487904
 30
0.0
 10
-27.65375907202958
 20
63.94269632989219
 30
0.0
 10
-26.10764836862412
 20
62.560665770806
 30
0.0
 10
-24.89251276917323
 20
61.47448576559962
 30
0.0
 10
-23.68518365802554
 20
60.39528378943756
 30
0.0
 10
-22.91107126797556
 20
59.70332364915795
 30
0.0
 10
-22.51781776869773
 20
59.3518039602557
 30
0.0
  0
SPLINE
  5
9B
330
1F
100
AcDbEntity
  8
0
  6
Continuous
 62
     7
370
    25
100
AcDbSpline
210
0.0
220
0.0
230
1.0
 70
    24
 71
     3
 72
    32
 73
    28
 74
     0
 42
0.00000001
 43
0.00000001
 40
0.0
 40
0.0
 40
0.0
 40
0.0
 40
0.0157515385872854
 40
0.0278832014918703
 40
0.0352742898190481
 40
0.0411879001147269
 40
0.0467408448293501
 40
0.0518924170744543
 40
0.0573844960838513
 40
0.0636046125625002
 40
0.0825915413015731
 40
0.1046364018819853
 40
0.1264198384514874
 40
0.1496820812219527
 40
0.1717512555582318
 40
0.2122153054978655
 40
0.2542571683412779
 40
0.296322703650874
 40
0.3370854746539673
 40
0.3793519997752258
 40
0.4215364377632416
 40
0.4633644374368723
 40
0.6253116007633304
 40
0.7167754441501994
 40
0.8089578497942018
 40
0.9029495005587742
 40
1.0
 40
1.0
 40
1.0
 40
1.0
 10
-37.6137490562152
 20
67.48059551712296
 30
0.0
 10
-37.58691163177382
 20
67.45660619952528
 30
0.0
 10
-37.53940431627731
 20
67.41414057164256
 30
0.0
 10
-37.45930416782738
 20
67.34254100719912
 30
0.0
 10
-37.38539755903072
 20
67.27647769643461
 30
0.0
 10
-37.31703089533762
 20
67.21536640715989
 30
0.0
 10
-37.24279546684763
 20
67.14900917251032
 30
0.0
 10
-37.16480585394373
 20
67.07929616419398
 30
0.0
 10
-37.09099483089068
 20
67.01331829518885
 30
0.0
 10
-36.97497275311074
 20
66.90960899632208
 30
0.0
 10
-36.83556112040672
 20
66.78499234612708
 30
0.0
 10
-36.67520425332417
 20
66.6416532629817
 30
0.0
 10
-36.50226217496093
 20
66.48706456715064
 30
0.0
 10
-36.30435669446594
 20
66.31016169644919
 30
0.0
 10
-36.01199172200324
 20
66.04882379518516
 30
0.0
 10
-35.59558025519649
 20
65.6766037652654
 30
0.0
 10
-35.08552495844467
 20
65.22067780512417
 30
0.0
 10
-34.55290730559173
 20
64.74458390645951
 30
0.0
 10
-33.95324330442718
 20
64.20855891616101
 30
0.0
 10
-33.37832374919652
 20
63.69465238114065
 30
0.0
 10
-32.79641720264369
 20
63.17450034539253
 30
0.0
 10
-31.66708776286704
 20
62.16502036856479
 30
0.0
 10
-30.31951165817811
 20
60.96045503357786
 30
0.0
 10
-28.77340095477267
 20
59.57842447449172
 30
0.0
 10
-27.55826535532177
 20
58.49224446928532
 30
0.0
 10
-26.35093624417409
 20
57.4130424931233
 30
0.0
 10
-25.5768238541241
 20
56.72108235284366
 30
0.0
 10
-25.18357035484627
 20
56.36956266394142
 30
0.0
  0
SPLINE
  5
9C
330
1F
100
AcDbEntity
  8
0
  6
Continuous
 62
     7
370
    25
100
AcDbSpline
210
0.0
220
0.0
230
1.0
 70
    24
 71
     3
 72
    32
 73
    28
 74
     0
 42
0.00000001
 43
0.00000001
 40
0.0
 40
0.0
 40
0.0
 40
0.0
 40
0.0157515385872853
 40
0.0278832014918702
 40
0.0352742898190478
 40
0.0411879001147267
 40
0.0467408448293505
 40
0.0518924170744538
 40
0.0573844960838512
 40
0.0636046125624999
 40
0.0825915413015732
 40
0.104636401881985
 40
0.1264198384514871
 40
0.1496820812219527
 40
0.1717512555582316
 40
0.2122153054978652
 40
0.2542571683412776
 40
0.2963227036508738
 40
0.3370854746539673
 40
0.3793519997752258
 40
0.4215364377632414
 40
0.4633644374368724
 40
0.6253116007633304
 40
0.7167754441501993
 40
0.8089578497942017
 40
0.9029495005587742
 40
1.0
 40
1.0
 40
1.0
 40
1.0
 10
-42.57100834154526
 20
53.17323102778074
 30
0.0
 10
-42.53519584199046
 20
53.16959790445693
 30
0.0
 10
-42.47180094659785
 20
53.16316658924784
 30
0.0
 10
-42.36491339719945
 20
53.15232301078859
 30
0.0
 10
-42.26629065490139
 20
53.14231788437306
 30
0.0
 10
-42.17506054754065
 20
53.13306272946884
 30
0.0
 10
-42.07599902039764
 20
53.12301308900167
 30
0.0
 10
-41.97192781999236
 20
53.11245522484165
 30
0.0
 10
-41.87343262959135
 20
53.10246303837107
 30
0.0
 10
-41.71861000054521
 20
53.08675651937252
 30
0.0
 10
-41.53257579129938
 20
53.06788363328413
 30
0.0
 10
-41.31859176151491
 20
53.04617528063637
 30
0.0
 10
-41.08781372549591
 20
53.02276320173347
 30
0.0
 10
-40.82372393000896
 20
52.99597169576513
 30
0.0
 10
-40.43358513449863
 20
52.95639271146867
 30
0.0
 10
-39.87791573700468
 20
52.90002090069136
 30
0.0
 10
-39.1972857783532
 20
52.83097203204478
 30
0.0
 10
-38.48654807334957
 20
52.75886877856441
 30
0.0
 10
-37.68634212133488
 20
52.67768910821849
 30
0.0
 10
-36.9191557484131
 20
52.59985922368581
 30
0.0
 10
-36.14264576755117
 20
52.52108347338309
 30
0.0
 10
-34.63564161566001
 20
52.36820020632859
 30
0.0
 10
-32.83740390642504
 20
52.18577174016718
 30
0.0
 10
-30.77423689133667
 20
51.97646660099426
 30
0.0
 10
-29.1527309525156
 20
51.81196730272482
 30
0.0
 10
-27.54164217796061
 20
51.64852480984273
 30
0.0
 10
-26.50864813322336
 20
51.54372914341471
 30
0.0
 10
-25.983881280183
 20
51.49049234852331
 30
0.0
  0
SPLINE
  5
9D
330
1F
100
AcDbEntity
  8
0
  6
Continuous
 62
     7
370
    25
100
AcDbSpline
210
0.0
220
0.0
230
1.0
 70
    24
 71
     3
 72
    32
 73
    28
 74
     0
 42
0.00000001
 43
0.00000001
 40
0.0
 40
0.0
 40
0.0
 40
0.0
 40
0.0157515385872854
 40
0.0278832014918702
 40
0.0352742898190482
 40
0.0411879001147275
 40
0.0467408448293506
 40
0.0518924170744542
 40
0.0573844960838515
 40
0.0636046125625002
 40
0.0825915413015735
 40
0.1046364018819854
 40
0.1264198384514872
 40
0.1496820812219528
 40
0.1717512555582319
 40
0.2122153054978654
 40
0.2542571683412777
 40
0.2963227036508737
 40
0.337085474653967
 40
0.3793519997752255
 40
0.4215364377632412
 40
0.463364437436872
 40
0.6253116007633301
 40
0.716775444150199
 40
0.8089578497942015
 40
0.902949500558774
 40
1.0
 40
1.0
 40
1.0
 40
1.0
 10
-38.17185750289198
 20
38.68452611147965
 30
0.0
 10
-38.14074908583161
 20
38.70263691205405
 30
0.0
 10
-38.08568130586961
 20
38.73469645333613
 30
0.0
 10
-37.99283376641878
 20
38.78875073927281
 30
0.0
 10
-37.9071654261134
 20
38.83862541543522
 30
0.0
 10
-37.82791867529953
 20
38.88476154950385
 30
0.0
 10
-37.74186918589466
 20
38.93485812430276
 30
0.0
 10
-37.65146805929285
 20
38.98748814955963
 30
0.0
 10
-37.56591051654865
 20
39.03729832123339
 30
0.0
 10
-37.43142431830434
 20
39.11559393851561
 30
0.0
 10
-37.26982627737839
 20
39.20967361755374
 30
0.0
 10
-37.08394971121997
 20
39.31788784827523
 30
0.0
 10
-36.88348508344755
 20
39.43459500469417
 30
0.0
 10
-36.65408429876263
 20
39.56814830812898
 30
0.0
 10
-36.3151914397597
 20
39.76544606756124
 30
0.0
 10
-35.83251093491306
 20
40.04645459163584
 30
0.0
 10
-35.24128382480534
 20
40.39065713542217
 30
0.0
 10
-34.6239037138763
 20
40.75008551925618
 30
0.0
 10
-33.92880728668114
 20
41.15475904373944
 30
0.0
 10
-33.2623932148186
 20
41.54273418024544
 30
0.0
 10
-32.58788021973331
 20
41.93542437451445
 30
0.0
 10
-31.27882572056285
 20
42.69753402893693
 30
0.0
 10
-29.71679209185783
 20
43.60692390515911
 30
0.0
 10
-27.92462844038264
 20
44.65029163504344
 30
0.0
 10
-26.51611231786128
 20
45.47030618452438
 30
0.0
 10
-25.11664503288554
 20
46.28505265199715
 30
0.0
 10
-24.21933794837443
 20
46.80744984212249
 30
0.0
 10
-23.76350084326364
 20
47.07283058743838
 30
0.0
  0
SPLINE
  5
9E
330
1F
100
AcDbEntity
  8
0
  6
Continuous
 62
     7
370
    25
100
AcDbSpline
210
0.0
220
0.0
230
1.0
 70
    24
 71
     3
 72
    32
 73
    28
 74
     0
 42
0.00000001
 43
0.00000001
 40
0.0
 40
0.0
 40
0.0
 40
0.0
 40
0.0157515385872828
 40
0.0278832014918673
 40
0.0352742898190455
 40
0.0411879001147248
 40
0.0467408448293474
 40
0.0518924170744512
 40
0.0573844960838485
 40
0.063604612562497
 40
0.0825915413015703
 40
0.1046364018819823
 40
0.1264198384514846
 40
0.1496820812219502
 40
0.1717512555582295
 40
0.2122153054978634
 40
0.2542571683412755
 40
0.296322703650872
 40
0.3370854746539651
 40
0.3793519997752235
 40
0.4215364377632393
 40
0.4633644374368705
 40
0.6253116007633293
 40
0.7167754441501986
 40
0.8089578497942009
 40
0.9029495005587738
 40
1.0
 40
1.0
 40
1.0
 40
1.0
 10
-21.28402760510763
 20
76.98748646765675
 30
0.0
 10
-21.27641623974577
 20
76.95230405974063
 30
0.0
 10
-21.26294268395077
 20
76.89002454568183
 30
0.0
 10
-21.24022547065322
 20
76.78501759529193
 30
0.0
 10
-21.21926480792511
 20
76.68813003948118
 30
0.0
 10
-21.19987532973295
 20
76.59850505124246
 30
0.0
 10
-21.17882141040976
 20
76.5011864306473
 30
0.0
 10
-21.15670276636705
 20
76.39894627789339
 30
0.0
 10
-21.13576921272385
 20
76.30218402980844
 30
0.0
 10
-21.10286417647665
 20
76.15008537829112
 30
0.0
 10
-21.06332562558026
 20
75.96732428879986
 30
0.0
 10
-21.01784679409572
 20
75.75710513300217
 30
0.0
 10
-20.96879866923798
 20
75.5303874477739
 30
0.0
 10
-20.9126706707241
 20
75.2709440962398
 30
0.0
 10
-20.82975300366989
 20
74.88766947374248
 30
0.0
 10
-20.71165449456532
 20
74.34177662481619
 30
0.0
 10
-20.56699764693043
 20
73.67312179360083
 30
0.0
 10
-20.41594188660984
 20
72.9748889372053
 30
0.0
 10
-20.24587110291051
 20
72.18876195442894
 30
0.0
 10
-20.08281809467211
 20
71.43507359825799
 30
0.0
 10
-19.91778350493549
 20
70.67222567540286
 30
0.0
 10
-19.59749423877218
 20
69.19173602898752
 30
0.0
 10
-19.21530800819326
 20
67.42513684147026
 30
0.0
 10
-18.77681535480161
 20
65.39826956255081
 30
0.0
 10
-18.43219059277112
 20
63.80529269449573
 30
0.0
 10
-18.08977982988197
 20
62.22254970922165
 30
0.0
 10
-17.87023371640594
 20
61.20773034981708
 30
0.0
 10
-17.75870304141994
 20
60.69219634034986
 30
0.0
  0
SPLINE
  5
9F
330
1F
100
AcDbEntity
  8
0
  6
Continuous
 62
     7
370
    25
100
AcDbSpline
210
0.0
220
0.0
230
1.0
 70
    24
 71
     3
 72
    32
 73
    28
 74
     0
 42
0.00000001
 43
0.00000001
 40
0.0
 40
0.0
 40
0.0
 40
0.0
 40
0.0157515385872827
 40
0.0278832014918675
 40
0.0352742898190452
 40
0.0411879001147243
 40
0.0467408448293479
 40
0.0518924170744516
 40
0.0573844960838494
 40
0.0636046125624979
 40
0.0825915413015711
 40
0.1046364018819827
 40
0.1264198384514851
 40
0.1496820812219506
 40
0.1717512555582296
 40
0.2122153054978635
 40
0.2542571683412761
 40
0.2963227036508723
 40
0.3370854746539655
 40
0.3793519997752242
 40
0.4215364377632399
 40
0.4633644374368709
 40
0.6253116007633289
 40
0.7167754441501982
 40
0.8089578497942005
 40
0.9029495005587734
 40
1.0
 40
1.0
 40
1.0
 40
1.0
 10
-29.7566655089264
 20
31.16239171927786
 30
0.0
 10
-29.7421435323413
 20
31.19532873349455
 30
0.0
 10
-29.71643688807041
 20
31.25363347616177
 30
0.0
 10
-29.67309396286558
 20
31.35193872650416
 30
0.0
 10
-29.63310241878976
 20
31.44264277412839
 30
0.0
 10
-29.59610858983567
 20
31.52654776206514
 30
0.0
 10
-29.55593911840704
 20
31.61765536327693
 30
0.0
 10
-29.51373822334926
 20
31.7133703971313
 30
0.0
 10
-29.47379840159625
 20
31.80395713435554
 30
0.0
 10
-29.41101779086532
 20
31.94634862328678
 30
0.0
 10
-29.33558087737758
 20
32.11744562770962
 30
0.0
 10
-29.24881030540562
 20
32.31424828373119
 30
0.0
 10
-29.15522976014673
 20
32.52649650845024
 30
0.0
 10
-29.04814128896763
 20
32.76938179868603
 30
0.0
 10
-28.88993992006652
 20
33.12819526364797
 30
0.0
 10
-28.66461585501168
 20
33.63924841750651
 30
0.0
 10
-28.3886202544385
 20
34.26522870101354
 30
0.0
 10
-28.10041595598075
 20
34.91889929605876
 30
0.0
 10
-27.77593226333505
 20
35.65485448336584
 30
0.0
 10
-27.46483801740204
 20
36.3604413255551
 30
0.0
 10
-27.14996304636246
 20
37.07460315723387
 30
0.0
 10
-26.53887252546987
 20
38.46060574829843
 30
0.0
 10
-25.80968673188979
 20
40.11445794321238
 30
0.0
 10
-24.97307204548919
 20
42.01196753210293
 30
0.0
 10
-24.31555102436845
 20
43.503278242702
 30
0.0
 10
-23.66225416568919
 20
44.98500821216892
 30
0.0
 10
-23.2433748493414
 20
45.93506028784726
 30
0.0
 10
-23.03058177297914
 20
46.41769214861952
 30
0.0
  0
SPLINE
  5
A0
330
1F
100
AcDbEntity
  8
0
  6
Continuous
 62
     7
370
    25
100
AcDbSpline
210
0.0
220
0.0
230
1.0
 70
    24
 71
     3
 72
    32
 73
    28
 74
     0
 42
0.00000001
 43
0.00000001
 40
0.0
 40
0.0
 40
0.0
 40
0.0
 40
0.0157515385872855
 40
0.0278832014918702
 40
0.0352742898190479
 40
0.0411879001147272
 40
0.0467408448293505
 40
0.0518924170744541
 40
0.0573844960838513
 40
0.0636046125625002
 40
0.0825915413015734
 40
0.1046364018819852
 40
0.1264198384514873
 40
0.1496820812219529
 40
0.171751255558232
 40
0.2122153054978653
 40
0.254257168341278
 40
0.2963227036508743
 40
0.337085474653968
 40
0.3793519997752257
 40
0.4215364377632416
 40
0.4633644374368728
 40
0.6253116007633301
 40
0.716775444150199
 40
0.8089578497942015
 40
0.9029495005587742
 40
1.0
 40
1.0
 40
1.0
 40
1.0
 10
-26.09662263898331
 20
29.54867359327853
 30
0.0
 10
-26.08210066239821
 20
29.58161060749522
 30
0.0
 10
-26.05639401812732
 20
29.63991535016243
 30
0.0
 10
-26.0130510929225
 20
29.73822060050484
 30
0.0
 10
-25.97305954884668
 20
29.82892464812905
 30
0.0
 10
-25.93606571989259
 20
29.91282963606584
 30
0.0
 10
-25.89589624846395
 20
30.0039372372776
 30
0.0
 10
-25.85369535340617
 20
30.09965227113196
 30
0.0
 10
-25.81375553165317
 20
30.19023900835621
 30
0.0
 10
-25.75097492092224
 20
30.33263049728745
 30
0.0
 10
-25.6755380074345
 20
30.5037275017103
 30
0.0
 10
-25.58876743546255
 20
30.70053015773189
 30
0.0
 10
-25.49518689020364
 20
30.9127783824509
 30
0.0
 10
-25.38809841902455
 20
31.1556636726867
 30
0.0
 10
-25.22989705012345
 20
31.51447713764866
 30
0.0
 10
-25.00457298506858
 20
32.02553029150716
 30
0.0
 10
-24.72857738449543
 20
32.65151057501423
 30
0.0
 10
-24.44037308603766
 20
33.30518117005943
 30
0.0
 10
-24.11588939339198
 20
34.04113635736651
 30
0.0
 10
-23.80479514745895
 20
34.74672319955577
 30
0.0
 10
-23.48992017641938
 20
35.46088503123455
 30
0.0
 10
-22.87882965552677
 20
36.84688762229909
 30
0.0
 10
-22.1496438619467
 20
38.50073981721306
 30
0.0
 10
-21.31302917554611
 20
40.39824940610361
 30
0.0
 10
-20.65550815442537
 20
41.88956011670266
 30
0.0
 10
-20.00221129574612
 20
43.3712900861696
 30
0.0
 10
-19.58333197939831
 20
44.32134216184792
 30
0.0
 10
-19.37053890303605
 20
44.80397402262017
 30
0.0
  0
SPLINE
  5
A1
330
1F
100
AcDbEntity
  8
0
  6
Continuous
 62
     7
370
    25
100
AcDbSpline
210
0.0
220
0.0
230
1.0
 70
    24
 71
     3
 72
    32
 73
    28
 74
     0
 42
0.00000001
 43
0.00000001
 40
0.0
 40
0.0
 40
0.0
 40
0.0
 40
0.0157515385872855
 40
0.0278832014918702
 40
0.0352742898190481
 40
0.041187900114727
 40
0.0467408448293504
 40
0.0518924170744542
 40
0.0573844960838515
 40
0.0636046125625002
 40
0.0825915413015735
 40
0.1046364018819853
 40
0.1264198384514873
 40
0.1496820812219528
 40
0.1717512555582317
 40
0.2122153054978654
 40
0.254257168341278
 40
0.2963227036508742
 40
0.3370854746539674
 40
0.3793519997752258
 40
0.4215364377632418
 40
0.4633644374368724
 40
0.6253116007633304
 40
0.7167754441501993
 40
0.8089578497942016
 40
0.9029495005587741
 40
0.9999999999999999
 40
0.9999999999999999
 40
0.9999999999999999
 40
0.9999999999999999
 10
6.419791092998524
 20
52.22372022515371
 30
0.0
 10
6.383978593443727
 20
52.22735334847753
 30
0.0
 10
6.320583698051101
 20
52.23378466368661
 30
0.0
 10
6.213696148652716
 20
52.24462824214585
 30
0.0
 10
6.115073406354636
 20
52.25463336856142
 30
0.0
 10
6.023843298993893
 20
52.2638885234656
 30
0.0
 10
5.924781771850903
 20
52.27393816393275
 30
0.0
 10
5.820710571445616
 20
52.28449602809279
 30
0.0
 10
5.722215381044601
 20
52.29448821456336
 30
0.0
 10
5.567392751998475
 20
52.31019473356194
 30
0.0
 10
5.381358542752641
 20
52.32906761965029
 30
0.0
 10
5.167374512968153
 20
52.3507759722981
 30
0.0
 10
4.936596476949183
 20
52.37418805120095
 30
0.0
 10
4.672506681462206
 20
52.40097955716934
 30
0.0
 10
4.282367885951897
 20
52.44055854146576
 30
0.0
 10
3.726698488457948
 20
52.49693035224306
 30
0.0
 10
3.046068529806458
 20
52.56597922088969
 30
0.0
 10
2.33533082480282
 20
52.63808247437002
 30
0.0
 10
1.535124872788146
 20
52.71926214471592
 30
0.0
 10
0.7679384998663594
 20
52.79709202924862
 30
0.0
 10
-0.0085714809955721
 20
52.87586777955136
 30
0.0
 10
-1.51557563288672
 20
53.02875104660583
 30
0.0
 10
-3.313813342121708
 20
53.21117951276728
 30
0.0
 10
-5.376980357210071
 20
53.42048465194016
 30
0.0
 10
-6.998486296031128
 20
53.5849839502096
 30
0.0
 10
-8.609575070586136
 20
53.74842644309169
 30
0.0
 10
-9.64256911532338
 20
53.85322210951973
 30
0.0
 10
-10.16733596836374
 20
53.90645890441112
 30
0.0
  0
SPLINE
  5
A2
330
1F
100
AcDbEntity
  8
0
  6
Continuous
 62
     7
370
    25
100
AcDbSpline
210
0.0
220
0.0
230
1.0
 70
    24
 71
     3
 72
    32
 73
    28
 74
     0
 42
0.00000001
 43
0.00000001
 40
0.0
 40
0.0
 40
0.0
 40
0.0
 40
0.0157515385872853
 40
0.0278832014918701
 40
0.0352742898190478
 40
0.041187900114727
 40
0.0467408448293496
 40
0.0518924170744535
 40
0.0573844960838508
 40
0.0636046125624998
 40
0.082591541301573
 40
0.1046364018819847
 40
0.1264198384514869
 40
0.1496820812219525
 40
0.1717512555582312
 40
0.212215305497865
 40
0.2542571683412775
 40
0.296322703650874
 40
0.337085474653967
 40
0.3793519997752254
 40
0.4215364377632411
 40
0.4633644374368722
 40
0.6253116007633306
 40
0.716775444150199
 40
0.8089578497942017
 40
0.902949500558774
 40
1.0
 40
1.0
 40
1.0
 40
1.0
 10
-25.1935842028519
 20
76.14169263401034
 30
0.0
 10
-25.18597283749005
 20
76.10651022609423
 30
0.0
 10
-25.17249928169505
 20
76.04423071203544
 30
0.0
 10
-25.14978206839749
 20
75.93922376164551
 30
0.0
 10
-25.12882140566937
 20
75.84233620583477
 30
0.0
 10
-25.10943192747722
 20
75.75271121759606
 30
0.0
 10
-25.08837800815403
 20
75.65539259700085
 30
0.0
 10
-25.06625936411132
 20
75.553152444247
 30
0.0
 10
-25.04532581046812
 20
75.45639019616205
 30
0.0
 10
-25.01242077422092
 20
75.30429154464474
 30
0.0
 10
-24.97288222332453
 20
75.12153045515345
 30
0.0
 10
-24.92740339184
 20
74.91131129935577
 30
0.0
 10
-24.87835526698224
 20
74.6845936141275
 30
0.0
 10
-24.82222726846836
 20
74.42515026259339
 30
0.0
 10
-24.73930960141415
 20
74.04187564009614
 30
0.0
 10
-24.62121109230958
 20
73.49598279116977
 30
0.0
 10
-24.47655424467471
 20
72.82732795995445
 30
0.0
 10
-24.32549848435412
 20
72.12909510355891
 30
0.0
 10
-24.15542770065477
 20
71.34296812078254
 30
0.0
 10
-23.99237469241638
 20
70.5892797646116
 30
0.0
 10
-23.82734010267975
 20
69.82643184175643
 30
0.0
 10
-23.50705083651645
 20
68.34594219534112
 30
0.0
 10
-23.12486460593753
 20
66.57934300782385
 30
0.0
 10
-22.68637195254588
 20
64.55247572890441
 30
0.0
 10
-22.3417471905154
 20
62.95949886084935
 30
0.0
 10
-21.99933642762624
 20
61.37675587557523
 30
0.0
 10
-21.7797903141502
 20
60.36193651617068
 30
0.0
 10
-21.66825963916421
 20
59.84640250670346
 30
0.0
  0
SPLINE
  5
A3
330
1F
100
AcDbEntity
  8
0
  6
Continuous
 62
     7
370
    25
100
AcDbSpline
210
0.0
220
0.0
230
1.0
 70
    24
 71
     3
 72
    32
 73
    28
 74
     0
 42
0.00000001
 43
0.00000001
 40
0.0
 40
0.0
 40
0.0
 40
0.0
 40
0.0157515385872853
 40
0.0278832014918701
 40
0.0352742898190479
 40
0.0411879001147271
 40
0.0467408448293501
 40
0.0518924170744539
 40
0.0573844960838513
 40
0.0636046125625002
 40
0.0825915413015734
 40
0.104636401881985
 40
0.1264198384514869
 40
0.1496820812219528
 40
0.1717512555582316
 40
0.2122153054978654
 40
0.2542571683412779
 40
0.2963227036508745
 40
0.3370854746539674
 40
0.379351999775226
 40
0.4215364377632417
 40
0.4633644374368726
 40
0.6253116007633305
 40
0.7167754441501992
 40
0.8089578497942016
 40
0.9029495005587741
 40
0.9999999999999999
 40
0.9999999999999999
 40
0.9999999999999999
 40
0.9999999999999999
 10
1.46253180766857
 20
37.91635573581163
 30
0.0
 10
1.435694383227194
 20
37.9403450534093
 30
0.0
 10
1.388187067730678
 20
37.98281068129204
 30
0.0
 10
1.308086919280725
 20
38.05441024573543
 30
0.0
 10
1.234180310484098
 20
38.12047355649996
 30
0.0
 10
1.16581364679097
 20
38.18158484577472
 30
0.0
 10
1.091578218301005
 20
38.24794208042425
 30
0.0
 10
1.013588605397089
 20
38.3176550887406
 30
0.0
 10
0.9397775823440473
 20
38.38363295774572
 30
0.0
 10
0.8237555045641012
 20
38.48734225661248
 30
0.0
 10
0.6843438718600846
 20
38.61195890680749
 30
0.0
 10
0.5239870047775361
 20
38.75529798995288
 30
0.0
 10
0.3510449264143185
 20
38.90988668578388
 30
0.0
 10
0.1531394459192738
 20
39.08678955648543
 30
0.0
 10
-0.1392255265433885
 20
39.3481274577494
 30
0.0
 10
-0.5556369933501504
 20
39.72034748766916
 30
0.0
 10
-1.06569229010197
 20
40.17627344781039
 30
0.0
 10
-1.598309942954904
 20
40.65236734647508
 30
0.0
 10
-2.197973944119469
 20
41.18839233677354
 30
0.0
 10
-2.772893499350129
 20
41.70229887179392
 30
0.0
 10
-3.354800045902977
 20
42.22245090754203
 30
0.0
 10
-4.484129485679594
 20
43.2319308843698
 30
0.0
 10
-5.831705590368562
 20
44.43649621935666
 30
0.0
 10
-7.377816293774011
 20
45.81852677844282
 30
0.0
 10
-8.592951893224926
 20
46.90470678364919
 30
0.0
 10
-9.800281004372616
 20
47.98390875981119
 30
0.0
 10
-10.5743933944226
 20
48.67586890009083
 30
0.0
 10
-10.96764689370043
 20
49.02738858899308
 30
0.0
  0
SPLINE
  5
A4
330
1F
100
AcDbEntity
  8
0
  6
Continuous
 62
     7
370
    25
100
AcDbSpline
210
0.0
220
0.0
230
1.0
 70
    24
 71
     3
 72
    32
 73
    28
 74
     0
 42
0.00000001
 43
0.00000001
 40
0.0
 40
0.0
 40
0.0
 40
0.0
 40
0.015751538587283
 40
0.0278832014918677
 40
0.0352742898190456
 40
0.0411879001147247
 40
0.0467408448293478
 40
0.0518924170744518
 40
0.0573844960838492
 40
0.063604612562498
 40
0.0825915413015713
 40
0.1046364018819831
 40
0.1264198384514852
 40
0.1496820812219508
 40
0.1717512555582299
 40
0.2122153054978637
 40
0.254257168341276
 40
0.2963227036508724
 40
0.3370854746539655
 40
0.3793519997752242
 40
0.4215364377632402
 40
0.4633644374368711
 40
0.6253116007633294
 40
0.7167754441501987
 40
0.808957849794201
 40
0.902949500558774
 40
1.0
 40
1.0
 40
1.0
 40
1.0
 10
4.033157420450666
 20
63.25558053167954
 30
0.0
 10
4.002049003390288
 20
63.23746973110512
 30
0.0
 10
3.946981223428278
 20
63.20541018982303
 30
0.0
 10
3.854133683977481
 20
63.15135590388635
 30
0.0
 10
3.768465343672093
 20
63.10148122772395
 30
0.0
 10
3.689218592858226
 20
63.05534509365532
 30
0.0
 10
3.603169103453364
 20
63.0052485188564
 30
0.0
 10
3.512767976851537
 20
62.95261849359957
 30
0.0
 10
3.427210434107337
 20
62.90280832192577
 30
0.0
 10
3.292724235863028
 20
62.82451270464358
 30
0.0
 10
3.131126194937075
 20
62.73043302560545
 30
0.0
 10
2.945249628778658
 20
62.62221879488393
 30
0.0
 10
2.74478500100623
 20
62.505511638465
 30
0.0
 10
2.515384216321328
 20
62.37195833503019
 30
0.0
 10
2.176491357318369
 20
62.17466057559793
 30
0.0
 10
1.693810852471739
 20
61.89365205152333
 30
0.0
 10
1.102583742364022
 20
61.54944950773702
 30
0.0
 10
0.4852036314349634
 20
61.19002112390302
 30
0.0
 10
-0.2098927957601832
 20
60.78534759941974
 30
0.0
 10
-0.8763068676227309
 20
60.39737246291374
 30
0.0
 10
-1.550819862708029
 20
60.00468226864476
 30
0.0
 10
-2.859874361878493
 20
59.24257261422226
 30
0.0
 10
-4.42190799058351
 20
58.33318273800012
 30
0.0
 10
-6.214071642058701
 20
57.2898150081158
 30
0.0
 10
-7.622587764580087
 20
56.46980045863488
 30
0.0
 10
-9.022055049555817
 20
55.65505399116211
 30
0.0
 10
-9.919362134066928
 20
55.13265680103676
 30
0.0
 10
-10.37519923917773
 20
54.8672760557209
 30
0.0
  0
SPLINE
  5
A5
330
1F
100
AcDbEntity
  8
0
  6
Continuous
 62
     7
370
    25
100
AcDbSpline
210
0.0
220
0.0
230
1.0
 70
    24
 71
     3
 72
    32
 73
    28
 74
     0
 42
0.00000001
 43
0.00000001
 40
0.0
 40
0.0
 40
0.0
 40
0.0
 40
0.0157515385872856
 40
0.0278832014918702
 40
0.0352742898190479
 40
0.0411879001147269
 40
0.0467408448293505
 40
0.0518924170744543
 40
0.0573844960838521
 40
0.0636046125625005
 40
0.0825915413015738
 40
0.1046364018819853
 40
0.1264198384514877
 40
0.1496820812219532
 40
0.1717512555582321
 40
0.2122153054978655
 40
0.2542571683412784
 40
0.2963227036508743
 40
0.3370854746539671
 40
0.3793519997752255
 40
0.421536437763242
 40
0.463364437436873
 40
0.6253116007633304
 40
0.716775444150199
 40
0.8089578497942014
 40
0.902949500558774
 40
0.9999999999999999
 40
0.9999999999999999
 40
0.9999999999999999
 40
0.9999999999999999
 10
-10.05459460956327
 20
75.84827765965585
 30
0.0
 10
-10.06911658614837
 20
75.81534064543915
 30
0.0
 10
-10.09482323041925
 20
75.75703590277193
 30
0.0
 10
-10.13816615562409
 20
75.65873065242955
 30
0.0
 10
-10.1781576996999
 20
75.56802660480531
 30
0.0
 10
-10.215151528654
 20
75.48412161686856
 30
0.0
 10
-10.25532100008263
 20
75.39301401565677
 30
0.0
 10
-10.29752189514041
 20
75.29729898180244
 30
0.0
 10
-10.33746171689341
 20
75.20671224457817
 30
0.0
 10
-10.40024232762434
 20
75.0643207556469
 30
0.0
 10
-10.47567924111209
 20
74.89322375122408
 30
0.0
 10
-10.56244981308404
 20
74.69642109520251
 30
0.0
 10
-10.65603035834295
 20
74.48417287048346
 30
0.0
 10
-10.76311882952204
 20
74.2412875802477
 30
0.0
 10
-10.92132019842314
 20
73.88247411528573
 30
0.0
 10
-11.14664426347801
 20
73.37142096142723
 30
0.0
 10
-11.42263986405119
 20
72.74544067792016
 30
0.0
 10
-11.71084416250894
 20
72.09177008287499
 30
0.0
 10
-12.03532785515464
 20
71.35581489556789
 30
0.0
 10
-12.34642210108765
 20
70.65022805337861
 30
0.0
 10
-12.66129707212723
 20
69.93606622169983
 30
0.0
 10
-13.27238759301986
 20
68.55006363063532
 30
0.0
 10
-14.00157338659993
 20
66.89621143572134
 30
0.0
 10
-14.83818807300056
 20
64.99870184683083
 30
0.0
 10
-15.4957090941213
 20
63.50739113623176
 30
0.0
 10
-16.14900595280055
 20
62.02566116676483
 30
0.0
 10
-16.56788526914837
 20
61.0756090910865
 30
0.0
 10
-16.78067834551064
 20
60.59297723031426
 30
0.0
  0
SPLINE
  5
A6
330
1F
100
AcDbEntity
  8
0
  6
Continuous
 62
     7
370
    25
100
AcDbSpline
210
0.0
220
0.0
230
1.0
 70
    24
 71
     3
 72
    32
 73
    28
 74
     0
 42
0.00000001
 43
0.00000001
 40
0.0
 40
0.0
 40
0.0
 40
0.0
 40
0.0157515385872829
 40
0.0278832014918675
 40
0.0352742898190454
 40
0.0411879001147246
 40
0.0467408448293477
 40
0.0518924170744515
 40
0.0573844960838488
 40
0.0636046125624977
 40
0.0825915413015709
 40
0.1046364018819828
 40
0.126419838451485
 40
0.1496820812219506
 40
0.1717512555582295
 40
0.2122153054978632
 40
0.2542571683412759
 40
0.2963227036508722
 40
0.3370854746539655
 40
0.3793519997752239
 40
0.4215364377632402
 40
0.4633644374368708
 40
0.6253116007633291
 40
0.7167754441501983
 40
0.8089578497942009
 40
0.9029495005587739
 40
1.0
 40
1.0
 40
1.0
 40
1.0
 10
6.016069400756542
 20
48.24414627871003
 30
0.0
 10
5.980256901201741
 20
48.24777940203384
 30
0.0
 10
5.916862005809102
 20
48.25421071724293
 30
0.0
 10
5.809974456410738
 20
48.26505429570221
 30
0.0
 10
5.711351714112654
 20
48.27505942211772
 30
0.0
 10
5.620121606751911
 20
48.28431457702195
 30
0.0
 10
5.521060079608922
 20
48.2943642174891
 30
0.0
 10
5.416988879203638
 20
48.30492208164912
 30
0.0
 10
5.318493688802623
 20
48.31491426811969
 30
0.0
 10
5.163671059756493
 20
48.33062078711826
 30
0.0
 10
4.977636850510662
 20
48.34949367320662
 30
0.0
 10
4.763652820726175
 20
48.37120202585444
 30
0.0
 10
4.532874784707194
 20
48.39461410475729
 30
0.0
 10
4.268784989220224
 20
48.42140561072567
 30
0.0
 10
3.878646193709909
 20
48.46098459502208
 30
0.0
 10
3.322976796215967
 20
48.51735640579942
 30
0.0
 10
2.642346837564476
 20
48.58640527444599
 30
0.0
 10
1.931609132560842
 20
48.65850852792637
 30
0.0
 10
1.131403180546164
 20
48.73968819827225
 30
0.0
 10
0.3642168076243776
 20
48.81751808280494
 30
0.0
 10
-0.4122931732375539
 20
48.89629383310768
 30
0.0
 10
-1.919297325128699
 20
49.04917710016218
 30
0.0
 10
-3.717535034363688
 20
49.23160556632362
 30
0.0
 10
-5.780702049452045
 20
49.44091070549648
 30
0.0
 10
-7.402207988273112
 20
49.60541000376595
 30
0.0
 10
-9.01329676282811
 20
49.76885249664799
 30
0.0
 10
-10.04629080756536
 20
49.87364816307607
 30
0.0
 10
-10.57105766060572
 20
49.92688495796745
 30
0.0
  0
SPLINE
  5
A7
330
1F
100
AcDbEntity
  8
0
  6
Continuous
 62
     7
370
    25
100
AcDbSpline
210
0.0
220
0.0
230
1.0
 70
    24
 71
     3
 72
    32
 73
    28
 74
     0
 42
0.00000001
 43
0.00000001
 40
0.0
 40
0.0
 40
0.0
 40
0.0
 40
0.015751538587283
 40
0.0278832014918676
 40
0.0352742898190457
 40
0.0411879001147248
 40
0.0467408448293478
 40
0.0518924170744509
 40
0.0573844960838487
 40
0.0636046125624972
 40
0.0825915413015705
 40
0.1046364018819824
 40
0.1264198384514845
 40
0.1496820812219501
 40
0.1717512555582291
 40
0.2122153054978631
 40
0.2542571683412755
 40
0.2963227036508721
 40
0.3370854746539658
 40
0.3793519997752243
 40
0.4215364377632401
 40
0.4633644374368706
 40
0.6253116007633291
 40
0.716775444150198
 40
0.8089578497942009
 40
0.9029495005587735
 40
1.0
 40
1.0
 40
1.0
 40
1.0
 10
-6.394551739620192
 20
74.2345595336565
 30
0.0
 10
-6.409073716205287
 20
74.20162251943981
 30
0.0
 10
-6.434780360476176
 20
74.14331777677258
 30
0.0
 10
-6.478123285681016
 20
74.04501252643021
 30
0.0
 10
-6.518114829756824
 20
73.95430847880597
 30
0.0
 10
-6.555108658710926
 20
73.8704034908692
 30
0.0
 10
-6.595278130139555
 20
73.77929588965742
 30
0.0
 10
-6.637479025197337
 20
73.68358085580306
 30
0.0
 10
-6.677418846950337
 20
73.59299411857883
 30
0.0
 10
-6.740199457681274
 20
73.45060262964762
 30
0.0
 10
-6.815636371169005
 20
73.2795056252247
 30
0.0
 10
-6.902406943140968
 20
73.08270296920315
 30
0.0
 10
-6.995987488399875
 20
72.87045474448414
 30
0.0
 10
-7.103075959578965
 20
72.62756945424834
 30
0.0
 10
-7.261277328480075
 20
72.26875598928636
 30
0.0
 10
-7.486601393534929
 20
71.75770283542788
 30
0.0
 10
-7.762596994108115
 20
71.13172255192082
 30
0.0
 10
-8.050801292565867
 20
70.47805195687565
 30
0.0
 10
-8.375284985211561
 20
69.74209676956852
 30
0.0
 10
-8.686379231144583
 20
69.03650992737929
 30
0.0
 10
-9.001254202184155
 20
68.32234809570048
 30
0.0
 10
-9.61234472307681
 20
66.93634550463598
 30
0.0
 10
-10.34153051665685
 20
65.282493309722
 30
0.0
 10
-11.17814520305748
 20
63.38498372083147
 30
0.0
 10
-11.83566622417822
 20
61.89367301023241
 30
0.0
 10
-12.48896308285749
 20
60.41194304076546
 30
0.0
 10
-12.9078423992053
 20
59.46189096508714
 30
0.0
 10
-13.12063547556757
 20
58.97925910431491
 30
0.0
  0
SPLINE
  5
A8
330
1F
100
AcDbEntity
  8
0
  6
Continuous
 62
     7
370
    25
100
AcDbSpline
210
0.0
220
0.0
230
1.0
 70
    24
 71
     3
 72
    32
 73
    28
 74
     0
 42
0.00000001
 43
0.00000001
 40
0.0
 40
0.0
 40
0.0
 40
0.0
 40
0.0157515385872854
 40
0.0278832014918702
 40
0.0352742898190479
 40
0.0411879001147271
 40
0.0467408448293504
 40
0.0518924170744542
 40
0.0573844960838516
 40
0.0636046125625003
 40
0.0825915413015735
 40
0.1046364018819852
 40
0.1264198384514873
 40
0.1496820812219527
 40
0.1717512555582321
 40
0.2122153054978656
 40
0.2542571683412779
 40
0.2963227036508742
 40
0.3370854746539675
 40
0.3793519997752259
 40
0.4215364377632413
 40
0.4633644374368724
 40
0.6253116007633305
 40
0.716775444150199
 40
0.8089578497942015
 40
0.902949500558774
 40
1.0
 40
1.0
 40
1.0
 40
1.0
 10
-10.95763304569468
 20
29.25525861892413
 30
0.0
 10
-10.96524441105654
 20
29.29044102684025
 30
0.0
 10
-10.97871796685154
 20
29.35272054089905
 30
0.0
 10
-11.00143518014909
 20
29.45772749128895
 30
0.0
 10
-11.02239584287721
 20
29.55461504709971
 30
0.0
 10
-11.04178532106936
 20
29.64424003533842
 30
0.0
 10
-11.06283924039256
 20
29.74155865593362
 30
0.0
 10
-11.08495788443526
 20
29.84379880868748
 30
0.0
 10
-11.10589143807847
 20
29.94056105677247
 30
0.0
 10
-11.13879647432567
 20
30.09265970828976
 30
0.0
 10
-11.17833502522206
 20
30.27542079778104
 30
0.0
 10
-11.22381385670659
 20
30.48563995357872
 30
0.0
 10
-11.27286198156435
 20
30.712357638807
 30
0.0
 10
-11.32898998007822
 20
30.97180099034107
 30
0.0
 10
-11.41190764713244
 20
31.35507561283839
 30
0.0
 10
-11.53000615623702
 20
31.90096846176471
 30
0.0
 10
-11.6746630038719
 20
32.56962329298005
 30
0.0
 10
-11.8257187641925
 20
33.26785614937558
 30
0.0
 10
-11.99578954789184
 20
34.05398313215194
 30
0.0
 10
-12.15884255613024
 20
34.8076714883229
 30
0.0
 10
-12.32387714586688
 20
35.57051941117804
 30
0.0
 10
-12.64416641203019
 20
37.05100905759338
 30
0.0
 10
-13.02635264260912
 20
38.81760824511061
 30
0.0
 10
-13.46484529600078
 20
40.84447552403005
 30
0.0
 10
-13.80947005803128
 20
42.43745239208513
 30
0.0
 10
-14.15188082092044
 20
44.02019537735922
 30
0.0
 10
-14.37142693439647
 20
45.03501473676376
 30
0.0
 10
-14.48295760938248
 20
45.550548746231
 30
0.0
  0
CIRCLE
  5
A9
330
1F
100
AcDbEntity
  8
0
  6
Continuous
 62
     7
370
    25
100
AcDbCircle
 10
-18.1044249786
 20
52.2782906624
 30
0.0
 40
28.00000000000011
  0
CIRCLE
  5
AA
330
1F
100
AcDbEntity
  8
0
  6
Continuous
 62
     7
370
    25
100
AcDbCircle
 10
-18.1044249786
 20
52.2782906624
 30
0.0
 40
31.50000000000014
  0
LINE
  5
148
330
1F
100
AcDbEntity
  8
0
  6
Continuous
 62
     7
370
    25
100
AcDbLine
 10
-14.0236139521
 20
58.3182033046
 30
0.0
 11
-20.9164382198
 21
59.0174697877
 31
0.0
  0
LINE
  5
149
330
1F
100
AcDbEntity
  8
0
  6
Continuous
 62
     7
370
    25
100
AcDbLine
 10
-20.9164382198
 20
59.0174697877
 30
0.0
 11
-24.968432892
 21
53.3977421095
 31
0.0
  0
LINE
  5
14A
330
1F
100
AcDbEntity
  8
0
  6
Continuous
 62
     7
370
    25
100
AcDbLine
 10
-24.968432892
 20
53.3977421095
 30
0.0
 11
-22.1276032965
 21
47.0787479483
 31
0.0
  0
LINE
  5
14B
330
1F
100
AcDbEntity
  8
0
  6
Continuous
 62
     7
370
    25
100
AcDbLine
 10
-11.1827843566
 20
51.9992091434
 30
0.0
 11
-14.0236139521
 21
58.3182033046
 31
0.0
  0
LINE
  5
14C
330
1F
100
AcDbEntity
  8
0
  6
Continuous
 62
     7
370
    25
100
AcDbLine
 10
-15.2347790288
 20
46.3794814653
 30
0.0
 11
-11.1827843566
 21
51.9992091434
 31
0.0
  0
LINE
  5
14D
330
1F
100
AcDbEntity
  8
0
  6
Continuous
 62
     7
370
    25
100
AcDbLine
 10
-22.1276032965
 20
47.0787479483
 30
0.0
 11
-15.2347790288
 21
46.3794814653
 31
0.0
  0
LINE
  5
14E
330
1F
100
AcDbEntity
  8
0
  6
Continuous
 62
     7
370
    25
100
AcDbLine
 10
-19.0267042886
 20
60.6417379939
 30
0.0
 11
-22.5057640419
 21
76.7231758946
 31
0.0
  0
LINE
  5
14F
330
1F
100
AcDbEntity
  8
0
  6
Continuous
 62
     7
370
    25
100
AcDbLine
 10
-20.4927880127
 20
60.3245653063
 30
0.0
 11
-23.9718477661
 21
76.406003207
 31
0.0
  0
LINE
  5
150
330
1F
100
AcDbEntity
  8
0
  6
Continuous
 62
     7
370
    25
100
AcDbLine
 10
-23.9718477661
 20
76.406003207
 30
0.0
 11
-25.1935842029
 21
76.141692634
 31
0.0
  0
LINE
  5
151
330
1F
100
AcDbEntity
  8
0
  6
Continuous
 62
     7
370
    25
100
AcDbLine
 10
-22.5057640419
 20
76.7231758946
 30
0.0
 11
-21.2840276051
 21
76.9874864677
 31
0.0
  0
LINE
  5
152
330
1F
100
AcDbEntity
  8
0
  6
Continuous
 62
     7
370
    25
100
AcDbLine
 10
-21.9750885432
 20
45.7132013755
 30
0.0
 11
-28.6129021121
 21
30.6581048049
 31
0.0
  0
LINE
  5
153
330
1F
100
AcDbEntity
  8
0
  6
Continuous
 62
     7
370
    25
100
AcDbLine
 10
-20.602572467
 20
45.1080570782
 30
0.0
 11
-27.2403860358
 21
30.0529605077
 31
0.0
  0
LINE
  5
154
330
1F
100
AcDbEntity
  8
0
  6
Continuous
 62
     7
370
    25
100
AcDbLine
 10
-27.2403860358
 20
30.0529605077
 30
0.0
 11
-26.096622639
 21
29.5486735933
 31
0.0
  0
LINE
  5
155
330
1F
100
AcDbEntity
  8
0
  6
Continuous
 62
     7
370
    25
100
AcDbLine
 10
-28.6129021121
 20
30.6581048049
 30
0.0
 11
-29.7566655089
 21
31.1623917193
 31
0.0
  0
LINE
  5
156
330
1F
100
AcDbEntity
  8
0
  6
Continuous
 62
     7
370
    25
100
AcDbLine
 10
-10.2272124656
 20
51.1484182933
 30
0.0
 11
6.1422324296
 21
49.487763137
 31
0.0
  0
LINE
  5
157
330
1F
100
AcDbEntity
  8
0
  6
Continuous
 62
     7
370
    25
100
AcDbLine
 10
-10.075816831
 20
52.6407585232
 30
0.0
 11
6.2936280642
 21
50.9801033669
 31
0.0
  0
LINE
  5
158
330
1F
100
AcDbEntity
  8
0
  6
Continuous
 62
     7
370
    25
100
AcDbLine
 10
6.2936280642
 20
50.9801033669
 30
0.0
 11
6.419791093
 21
52.2237202252
 31
0.0
  0
LINE
  5
159
330
1F
100
AcDbEntity
  8
0
  6
Continuous
 62
     7
370
    25
100
AcDbLine
 10
6.1422324296
 20
49.487763137
 30
0.0
 11
6.0160694008
 21
48.2441462787
 31
0.0
  0
LINE
  5
15A
330
1F
100
AcDbEntity
  8
0
  6
Continuous
 62
     7
370
    25
100
AcDbLine
 10
-17.12451296
 20
44.7552132591
 30
0.0
 11
-13.6454532066
 21
28.6737753583
 31
0.0
  0
LINE
  5
15B
330
1F
100
AcDbEntity
  8
0
  6
Continuous
 62
     7
370
    25
100
AcDbLine
 10
-15.6584292358
 20
45.0723859467
 30
0.0
 11
-12.1793694825
 21
28.9909480459
 31
0.0
  0
LINE
  5
15C
330
1F
100
AcDbEntity
  8
0
  6
Continuous
 62
     7
370
    25
100
AcDbLine
 10
-12.1793694825
 20
28.9909480459
 30
0.0
 11
-10.9576330457
 21
29.2552586189
 31
0.0
  0
LINE
  5
15D
330
1F
100
AcDbEntity
  8
0
  6
Continuous
 62
     7
370
    25
100
AcDbLine
 10
-13.6454532066
 20
28.6737753583
 30
0.0
 11
-14.8671896434
 21
28.4094647853
 31
0.0
  0
LINE
  5
15E
330
1F
100
AcDbEntity
  8
0
  6
Continuous
 62
     7
370
    25
100
AcDbLine
 10
0.6294841245
 20
36.9844053307
 30
0.0
 11
1.4625318077
 21
37.9163557358
 31
0.0
  0
LINE
  5
15F
330
1F
100
AcDbEntity
  8
0
  6
Continuous
 62
     7
370
    25
100
AcDbLine
 10
-0.3701730953
 20
35.8660648446
 30
0.0
 11
-1.2032207785
 21
34.9341144395
 31
0.0
  0
LINE
  5
160
330
1F
100
AcDbEntity
  8
0
  6
Continuous
 62
     7
370
    25
100
AcDbLine
 10
-11.6375663741
 20
47.9496218716
 30
0.0
 11
0.6294841245
 21
36.9844053307
 31
0.0
  0
LINE
  5
161
330
1F
100
AcDbEntity
  8
0
  6
Continuous
 62
     7
370
    25
100
AcDbLine
 10
-12.6372235939
 20
46.8312813854
 30
0.0
 11
-0.3701730953
 21
35.8660648446
 31
0.0
  0
LINE
  5
162
330
1F
100
AcDbEntity
  8
0
  6
Continuous
 62
     7
370
    25
100
AcDbLine
 10
-14.1761287053
 20
59.6837498775
 30
0.0
 11
-7.5383151365
 21
74.738846448
 31
0.0
  0
LINE
  5
163
330
1F
100
AcDbEntity
  8
0
  6
Continuous
 62
     7
370
    25
100
AcDbLine
 10
-15.5486447815
 20
60.2888941747
 30
0.0
 11
-8.9108312127
 21
75.3439907453
 31
0.0
  0
LINE
  5
164
330
1F
100
AcDbEntity
  8
0
  6
Continuous
 62
     7
370
    25
100
AcDbLine
 10
-8.9108312127
 20
75.3439907453
 30
0.0
 11
-10.0545946096
 21
75.8482776597
 31
0.0
  0
LINE
  5
165
330
1F
100
AcDbEntity
  8
0
  6
Continuous
 62
     7
370
    25
100
AcDbLine
 10
-7.5383151365
 20
74.738846448
 30
0.0
 11
-6.3945517396
 21
74.2345595337
 31
0.0
  0
LINE
  5
166
330
1F
100
AcDbEntity
  8
0
  6
Continuous
 62
     7
370
    25
100
AcDbLine
 10
-39.5554630546
 20
41.0611067807
 30
0.0
 11
-40.184374669
 21
42.1413707213
 31
0.0
  0
LINE
  5
167
330
1F
100
AcDbEntity
  8
0
  6
Continuous
 62
     7
370
    25
100
AcDbLine
 10
-24.5815013986
 20
48.0430101064
 30
0.0
 11
-38.8007691173
 21
39.764790052
 31
0.0
  0
LINE
  5
168
330
1F
100
AcDbEntity
  8
0
  6
Continuous
 62
     7
370
    25
100
AcDbLine
 10
-38.8007691173
 20
39.764790052
 30
0.0
 11
-38.1718575029
 21
38.6845261115
 31
0.0
  0
LINE
  5
169
330
1F
100
AcDbEntity
  8
0
  6
Continuous
 62
     7
370
    25
100
AcDbLine
 10
-25.3361953359
 20
49.339326835
 30
0.0
 11
-39.5554630546
 21
41.0611067807
 31
0.0
  0
LINE
  5
16A
330
1F
100
AcDbEntity
  8
0
  6
Continuous
 62
     7
370
    25
100
AcDbLine
 10
-10.8150219127
 20
56.0576244179
 30
0.0
 11
3.404245806
 21
64.3358444722
 31
0.0
  0
LINE
  5
16B
330
1F
100
AcDbEntity
  8
0
  6
Continuous
 62
     7
370
    25
100
AcDbLine
 10
2.6495518688
 20
65.6321612009
 30
0.0
 11
2.0206402543
 21
66.7124251415
 31
0.0
  0
LINE
  5
16C
330
1F
100
AcDbEntity
  8
0
  6
Continuous
 62
     7
370
    25
100
AcDbLine
 10
-11.5697158499
 20
57.3539411466
 30
0.0
 11
2.6495518688
 21
65.6321612009
 31
0.0
  0
LINE
  5
16D
330
1F
100
AcDbEntity
  8
0
  6
Continuous
 62
     7
370
    25
100
AcDbLine
 10
3.404245806
 20
64.3358444722
 30
0.0
 11
4.0331574205
 21
63.2555805317
 31
0.0
  0
LINE
  5
16E
330
1F
100
AcDbEntity
  8
0
  6
Continuous
 62
     7
370
    25
100
AcDbLine
 10
-36.780701373
 20
68.4125459222
 30
0.0
 11
-37.6137490562
 21
67.4805955171
 31
0.0
  0
LINE
  5
16F
330
1F
100
AcDbEntity
  8
0
  6
Continuous
 62
     7
370
    25
100
AcDbLine
 10
-24.5136508744
 20
57.4473293814
 30
0.0
 11
-36.780701373
 21
68.4125459222
 31
0.0
  0
LINE
  5
170
330
1F
100
AcDbEntity
  8
0
  6
Continuous
 62
     7
370
    25
100
AcDbLine
 10
-35.7810441532
 20
69.5308864083
 30
0.0
 11
-34.9479964701
 21
70.4628368134
 31
0.0
  0
LINE
  5
171
330
1F
100
AcDbEntity
  8
0
  6
Continuous
 62
     7
370
    25
100
AcDbLine
 10
-23.5139936546
 20
58.5656698675
 30
0.0
 11
-35.7810441532
 21
69.5308864083
 31
0.0
  0
LINE
  5
172
330
1F
100
AcDbEntity
  8
0
  6
Continuous
 62
     7
370
    25
100
AcDbLine
 10
-42.4448453127
 20
54.416847886
 30
0.0
 11
-42.5710083415
 21
53.1732310278
 31
0.0
  0
LINE
  5
173
330
1F
100
AcDbEntity
  8
0
  6
Continuous
 62
     7
370
    25
100
AcDbLine
 10
-42.2934496781
 20
55.909188116
 30
0.0
 11
-42.1672866493
 21
57.1528049742
 31
0.0
  0
LINE
  5
174
330
1F
100
AcDbEntity
  8
0
  6
Continuous
 62
     7
370
    25
100
AcDbLine
 10
-25.924004783
 20
54.2485329596
 30
0.0
 11
-42.2934496781
 21
55.909188116
 31
0.0
  0
LINE
  5
175
330
1F
100
AcDbEntity
  8
0
  6
Continuous
 62
     7
370
    25
100
AcDbLine
 10
-26.0754004176
 20
52.7561927297
 30
0.0
 11
-42.4448453127
 21
54.416847886
 31
0.0
  0
LINE
  5
176
330
1F
100
AcDbEntity
  8
0
  6
Continuous
 62
     7
370
    25
100
AcDbLine
 10
13.1642079751
 20
48.4674386311
 30
0.0
 11
14.1568629895
 21
48.3464592015
 31
0.0
  0
LINE
  5
177
330
1F
100
AcDbEntity
  8
0
  6
Continuous
 62
     7
370
    25
100
AcDbLine
 10
11.4040604521
 20
41.2556191358
 30
0.0
 11
12.3408377674
 21
40.9056930556
 31
0.0
  0
LINE
  5
178
330
1F
100
AcDbEntity
  8
0
  6
Continuous
 62
     7
370
    25
100
AcDbLine
 10
0.7603864938
 20
27.0519376143
 30
0.0
 11
1.3592693977
 21
26.2511010096
 31
0.0
  0
LINE
  5
179
330
1F
100
AcDbEntity
  8
0
  6
Continuous
 62
     7
370
    25
100
AcDbLine
 10
6.1401208031
 20
32.1672986471
 30
0.0
 11
6.9097889231
 21
31.5288544562
 31
0.0
  0
LINE
  5
17A
330
1F
100
AcDbEntity
  8
0
  6
Continuous
 62
     7
370
    25
100
AcDbLine
 10
-29.0979940909
 20
81.7976307325
 30
0.0
 11
-29.4469962849
 21
82.7347526395
 31
0.0
  0
LINE
  5
17B
330
1F
100
AcDbEntity
  8
0
  6
Continuous
 62
     7
370
    25
100
AcDbLine
 10
-35.7009751035
 20
78.4051240661
 30
0.0
 11
-36.2595957424
 21
79.2345473487
 31
0.0
  0
LINE
  5
17C
330
1F
100
AcDbEntity
  8
0
  6
Continuous
 62
     7
370
    25
100
AcDbLine
 10
-7.1108558663
 20
22.7589505923
 30
0.0
 11
-6.7618536723
 21
21.8218286854
 31
0.0
  0
LINE
  5
17D
330
1F
100
AcDbEntity
  8
0
  6
Continuous
 62
     7
370
    25
100
AcDbLine
 10
-0.5078748537
 20
26.1514572588
 30
0.0
 11
0.0507457852
 21
25.3220339761
 31
0.0
  0
LINE
  5
17E
330
1F
100
AcDbEntity
  8
0
  6
Continuous
 62
     7
370
    25
100
AcDbLine
 10
4.1804175752
 20
74.5411699091
 30
0.0
 11
4.8878728944
 21
75.2479279804
 31
0.0
  0
LINE
  5
17F
330
1F
100
AcDbEntity
  8
0
  6
Continuous
 62
     7
370
    25
100
AcDbLine
 10
-1.6484924763
 20
79.138154502
 30
0.0
 11
-1.1260819207
 21
79.9908485921
 31
0.0
  0
LINE
  5
180
330
1F
100
AcDbEntity
  8
0
  6
Continuous
 62
     7
370
    25
100
AcDbLine
 10
-49.3730579323
 20
56.0891426938
 30
0.0
 11
-50.3657129467
 21
56.2101221234
 31
0.0
  0
LINE
  5
181
330
1F
100
AcDbEntity
  8
0
  6
Continuous
 62
     7
370
    25
100
AcDbLine
 10
-47.6129104093
 20
63.3009621891
 30
0.0
 11
-48.5496877246
 21
63.6508882693
 31
0.0
  0
LINE
  5
182
330
1F
100
AcDbEntity
  8
0
  6
Continuous
 62
     7
370
    25
100
AcDbLine
 10
-26.3264784729
 20
21.870268097
 30
0.0
 11
-26.5874960442
 21
20.9049340474
 31
0.0
  0
LINE
  5
183
330
1F
100
AcDbEntity
  8
0
  6
Continuous
 62
     7
370
    25
100
AcDbLine
 10
-33.2143969342
 20
24.6388487813
 30
0.0
 11
-33.6940785836
 21
23.7614061819
 31
0.0
  0
LINE
  5
184
330
1F
100
AcDbEntity
  8
0
  6
Continuous
 62
     7
370
    25
100
AcDbLine
 10
-49.5230548438
 20
54.5409654938
 30
0.0
 11
-50.5204716649
 21
54.6127964408
 31
0.0
  0
LINE
  5
185
330
1F
100
AcDbEntity
  8
0
  6
Continuous
 62
     7
370
    25
100
AcDbLine
 10
-49.1800996788
 20
47.125384499
 30
0.0
 11
-50.1666290343
 21
46.9618001764
 31
0.0
  0
LINE
  5
186
330
1F
100
AcDbEntity
  8
0
  6
Continuous
 62
     7
370
    25
100
AcDbLine
 10
13.3142048866
 20
50.0156158311
 30
0.0
 11
14.3116217077
 21
49.9437848841
 31
0.0
  0
LINE
  5
187
330
1F
100
AcDbEntity
  8
0
  6
Continuous
 62
     7
370
    25
100
AcDbLine
 10
12.9712497216
 20
57.4311968258
 30
0.0
 11
13.9577790771
 21
57.5947811485
 31
0.0
  0
LINE
  5
188
330
1F
100
AcDbEntity
  8
0
  6
Continuous
 62
     7
370
    25
100
AcDbLine
 10
9.5499027627
 20
67.3610012006
 30
0.0
 11
10.4278179291
 21
67.8398174081
 31
0.0
  0
LINE
  5
189
330
1F
100
AcDbEntity
  8
0
  6
Continuous
 62
     7
370
    25
100
AcDbLine
 10
5.2522247476
 20
73.4139693496
 30
0.0
 11
5.9937056913
 21
74.0849432762
 31
0.0
  0
LINE
  5
18A
330
1F
100
AcDbEntity
  8
0
  6
Continuous
 62
     7
370
    25
100
AcDbLine
 10
-24.8154062707
 20
21.50146935
 30
0.0
 11
-25.0284532959
 21
20.5244274036
 31
0.0
  0
LINE
  5
18B
330
1F
100
AcDbEntity
  8
0
  6
Continuous
 62
     7
370
    25
100
AcDbLine
 10
-17.4264975892
 20
20.785586516
 30
0.0
 11
-17.4049760848
 21
19.7858181304
 31
0.0
  0
LINE
  5
18C
330
1F
100
AcDbEntity
  8
0
  6
Continuous
 62
     7
370
    25
100
AcDbLine
 10
7.1033140218
 20
33.3886137332
 30
0.0
 11
7.9035597043
 21
32.7889414498
 31
0.0
  0
LINE
  5
18D
330
1F
100
AcDbEntity
  8
0
  6
Continuous
 62
     7
370
    25
100
AcDbLine
 10
10.8239675485
 20
39.8124130039
 30
0.0
 11
11.742329216
 21
39.416670856
 31
0.0
  0
LINE
  5
18E
330
1F
100
AcDbEntity
  8
0
  6
Continuous
 62
     7
370
    25
100
AcDbLine
 10
-34.5603574809
 20
25.4184268229
 30
0.0
 11
-35.0827680365
 21
24.5657327327
 31
0.0
  0
LINE
  5
18F
330
1F
100
AcDbEntity
  8
0
  6
Continuous
 62
     7
370
    25
100
AcDbLine
 10
-40.3892675324
 20
30.0154114157
 30
0.0
 11
-41.0967228516
 21
29.3086533444
 31
0.0
  0
LINE
  5
190
330
1F
100
AcDbEntity
  8
0
  6
Continuous
 62
     7
370
    25
100
AcDbLine
 10
-48.8878487404
 20
45.5976603403
 30
0.0
 11
-49.8651002884
 21
45.385576838
 31
0.0
  0
LINE
  5
191
330
1F
100
AcDbEntity
  8
0
  6
Continuous
 62
     7
370
    25
100
AcDbLine
 10
-46.4695750752
 20
38.5790841161
 30
0.0
 11
-47.3700560306
 21
38.1441886702
 31
0.0
  0
LINE
  5
192
330
1F
100
AcDbEntity
  8
0
  6
Continuous
 62
     7
370
    25
100
AcDbLine
 10
-15.8727318146
 20
20.8574449446
 30
0.0
 11
-15.8018844126
 21
19.859957779
 31
0.0
  0
LINE
  5
193
330
1F
100
AcDbEntity
  8
0
  6
Continuous
 62
     7
370
    25
100
AcDbLine
 10
-8.5814383509
 20
22.2522565306
 30
0.0
 11
-8.2791213151
 21
21.2990490978
 31
0.0
  0
LINE
  5
194
330
1F
100
AcDbEntity
  8
0
  6
Continuous
 62
     7
370
    25
100
AcDbLine
 10
-20.3361181426
 20
83.6991363802
 30
0.0
 11
-20.4069655446
 21
84.6966235459
 31
0.0
  0
LINE
  5
195
330
1F
100
AcDbEntity
  8
0
  6
Continuous
 62
     7
370
    25
100
AcDbLine
 10
-27.6274116063
 20
82.3043247943
 30
0.0
 11
-27.9297286421
 21
83.2575322271
 31
0.0
  0
LINE
  5
196
330
1F
100
AcDbEntity
  8
0
  6
Continuous
 62
     7
370
    25
100
AcDbLine
 10
-45.7587527199
 20
37.1955801243
 30
0.0
 11
-46.6366678863
 21
36.7167639167
 31
0.0
  0
LINE
  5
197
330
1F
100
AcDbEntity
  8
0
  6
Continuous
 62
     7
370
    25
100
AcDbLine
 10
-41.4610747048
 20
31.1426119752
 30
0.0
 11
-42.2025556485
 21
30.4716380486
 31
0.0
  0
LINE
  5
198
330
1F
100
AcDbEntity
  8
0
  6
Continuous
 62
     7
370
    25
100
AcDbLine
 10
-11.3934436865
 20
83.0551119749
 30
0.0
 11
-11.1803966613
 21
84.0321539213
 31
0.0
  0
LINE
  5
199
330
1F
100
AcDbEntity
  8
0
  6
Continuous
 62
     7
370
    25
100
AcDbLine
 10
-18.782352368
 20
83.7709948089
 30
0.0
 11
-18.8038738724
 21
84.7707631945
 31
0.0
  0
LINE
  5
19A
330
1F
100
AcDbEntity
  8
0
  6
Continuous
 62
     7
370
    25
100
AcDbLine
 10
-2.994453023
 20
79.9177325435
 30
0.0
 11
-2.5147713736
 21
80.795175143
 31
0.0
  0
LINE
  5
19B
330
1F
100
AcDbEntity
  8
0
  6
Continuous
 62
     7
370
    25
100
AcDbLine
 10
-9.8823714843
 20
82.6863132278
 30
0.0
 11
-9.621353913
 21
83.6516472775
 31
0.0
  0
LINE
  5
19C
330
1F
100
AcDbEntity
  8
0
  6
Continuous
 62
     7
370
    25
100
AcDbLine
 10
-43.312163979
 20
71.1679675916
 30
0.0
 11
-44.1124096615
 21
71.7676398751
 31
0.0
  0
LINE
  5
19D
330
1F
100
AcDbEntity
  8
0
  6
Continuous
 62
     7
370
    25
100
AcDbLine
 10
-47.0328175057
 20
64.744168321
 30
0.0
 11
-47.9511791732
 21
65.1399104689
 31
0.0
  0
LINE
  5
19E
330
1F
100
AcDbEntity
  8
0
  6
Continuous
 62
     7
370
    25
100
AcDbLine
 10
12.6789987832
 20
58.9589209846
 30
0.0
 11
13.6562503312
 21
59.1710044868
 31
0.0
  0
LINE
  5
19F
330
1F
100
AcDbEntity
  8
0
  6
Continuous
 62
     7
370
    25
100
AcDbLine
 10
10.260725118
 20
65.9774972088
 30
0.0
 11
11.1612060734
 21
66.4123926547
 31
0.0
  0
LINE
  5
1A0
330
1F
100
AcDbEntity
  8
0
  6
Continuous
 62
     7
370
    25
100
AcDbLine
 10
-36.969236451
 20
77.5046437106
 30
0.0
 11
-37.5681193549
 21
78.3054803153
 31
0.0
  0
LINE
  5
1A1
330
1F
100
AcDbEntity
  8
0
  6
Continuous
 62
     7
370
    25
100
AcDbLine
 10
-42.3489707603
 20
72.3892826777
 30
0.0
 11
-43.1186388803
 21
73.0277268687
 31
0.0
  0
LINE
  5
1A2
330
1F
100
AcDbEntity
  8
0
  6
Continuous
 62
     7
370
    25
100
AcDbLine
 10
-25.0244194362
 20
20.5429268407
 30
0.0
 11
-25.6034687578
 21
20.6552872883
 31
0.0
  0
LINE
  5
1A3
330
1F
100
AcDbEntity
  8
0
  6
Continuous
 62
     7
370
    25
100
AcDbLine
 10
-25.3727289492
 20
21.6283027768
 30
0.0
 11
-25.6034687578
 21
20.6552872883
 31
0.0
  0
LINE
  5
1A4
330
1F
100
AcDbEntity
  8
0
  6
Continuous
 62
     7
370
    25
100
AcDbLine
 10
-20.4056241108
 20
84.6777369964
 30
0.0
 11
-19.8183747592
 21
84.7330649822
 31
0.0
  0
LINE
  5
1A5
330
1F
100
AcDbEntity
  8
0
  6
Continuous
 62
     7
370
    25
100
AcDbLine
 10
-19.7656378429
 20
83.7344565416
 30
0.0
 11
-19.8183747592
 21
84.7330649822
 31
0.0
  0
LINE
  5
1A6
330
1F
100
AcDbEntity
  8
0
  6
Continuous
 62
     7
370
    25
100
AcDbLine
 10
10.4111953711
 20
67.8307514409
 30
0.0
 11
10.7054756743
 21
67.3195547173
 31
0.0
  0
LINE
  5
1A7
330
1F
100
AcDbEntity
  8
0
  6
Continuous
 62
     7
370
    25
100
AcDbLine
 10
9.8190171927
 20
66.8567465926
 30
0.0
 11
10.7054756743
 21
67.3195547173
 31
0.0
  0
LINE
  5
1A8
330
1F
100
AcDbEntity
  8
0
  6
Continuous
 62
     7
370
    25
100
AcDbLine
 10
4.8744778449
 20
75.2345461328
 30
0.0
 11
5.3008584881
 21
74.8269648107
 31
0.0
  0
LINE
  5
1A9
330
1F
100
AcDbEntity
  8
0
  6
Continuous
 62
     7
370
    25
100
AcDbLine
 10
4.5806959199
 20
74.1331594523
 30
0.0
 11
5.3008584881
 21
74.8269648107
 31
0.0
  0
LINE
  5
1AA
330
1F
100
AcDbEntity
  8
0
  6
Continuous
 62
     7
370
    25
100
AcDbLine
 10
13.6377469255
 20
59.1669888707
 30
0.0
 11
13.7760860487
 21
58.5935908641
 31
0.0
  0
LINE
  5
1AB
330
1F
100
AcDbEntity
  8
0
  6
Continuous
 62
     7
370
    25
100
AcDbLine
 10
12.7951472479
 20
58.3992739348
 30
0.0
 11
13.7760860487
 21
58.5935908641
 31
0.0
  0
LINE
  5
1AC
330
1F
100
AcDbEntity
  8
0
  6
Continuous
 62
     7
370
    25
100
AcDbLine
 10
-2.5238537272
 20
80.7785615326
 30
0.0
 11
-1.999915568
 21
80.5076154267
 31
0.0
  0
LINE
  5
1AD
330
1F
100
AcDbEntity
  8
0
  6
Continuous
 62
     7
370
    25
100
AcDbLine
 10
-2.4954389345
 20
79.6390208185
 30
0.0
 11
-1.999915568
 21
80.5076154267
 31
0.0
  0
LINE
  5
1AE
330
1F
100
AcDbEntity
  8
0
  6
Continuous
 62
     7
370
    25
100
AcDbLine
 10
-11.184430521
 20
84.0136544842
 30
0.0
 11
-10.6053811994
 21
83.9012940365
 31
0.0
  0
LINE
  5
1AF
330
1F
100
AcDbEntity
  8
0
  6
Continuous
 62
     7
370
    25
100
AcDbLine
 10
-10.836121008
 20
82.9282785481
 30
0.0
 11
-10.6053811994
 21
83.9012940365
 31
0.0
  0
LINE
  5
1B0
330
1F
100
AcDbEntity
  8
0
  6
Continuous
 62
     7
370
    25
100
AcDbLine
 10
-29.4403882328
 20
82.7170090535
 30
0.0
 11
-28.892514301
 21
82.9355431285
 31
0.0
  0
LINE
  5
1B1
330
1F
100
AcDbEntity
  8
0
  6
Continuous
 62
     7
370
    25
100
AcDbLine
 10
-28.5605730911
 20
81.9922430527
 30
0.0
 11
-28.892514301
 21
82.9355431285
 31
0.0
  0
LINE
  5
1B2
330
1F
100
AcDbEntity
  8
0
  6
Continuous
 62
     7
370
    25
100
AcDbLine
 10
1.3479300722
 20
26.2662641522
 30
0.0
 11
0.883817048
 21
25.9022283191
 31
0.0
  0
LINE
  5
1B3
330
1F
100
AcDbEntity
  8
0
  6
Continuous
 62
     7
370
    25
100
AcDbLine
 10
0.2995634472
 20
26.7137994681
 30
0.0
 11
0.883817048
 21
25.9022283191
 31
0.0
  0
LINE
  5
1B4
330
1F
100
AcDbEntity
  8
0
  6
Continuous
 62
     7
370
    25
100
AcDbLine
 10
-50.5015864473
 20
54.6114363845
 30
0.0
 11
-50.4727769776
 21
55.2005823778
 31
0.0
  0
LINE
  5
1B5
330
1F
100
AcDbEntity
  8
0
  6
Continuous
 62
     7
370
    25
100
AcDbLine
 10
-49.4768276853
 20
55.1106657096
 30
0.0
 11
-50.4727769776
 21
55.2005823778
 31
0.0
  0
LINE
  5
1B6
330
1F
100
AcDbEntity
  8
0
  6
Continuous
 62
     7
370
    25
100
AcDbLine
 10
7.8884077503
 20
32.8002957215
 30
0.0
 11
7.5456553106
 21
32.3202501485
 31
0.0
  0
LINE
  5
1B7
330
1F
100
AcDbEntity
  8
0
  6
Continuous
 62
     7
370
    25
100
AcDbLine
 10
6.756422071
 20
32.9343437028
 30
0.0
 11
7.5456553106
 21
32.3202501485
 31
0.0
  0
LINE
  5
1B8
330
1F
100
AcDbEntity
  8
0
  6
Continuous
 62
     7
370
    25
100
AcDbLine
 10
-33.68499623
 20
23.7780197923
 30
0.0
 11
-34.2089343892
 21
24.0489658982
 31
0.0
  0
LINE
  5
1B9
330
1F
100
AcDbEntity
  8
0
  6
Continuous
 62
     7
370
    25
100
AcDbLine
 10
-33.7134110227
 20
24.9175605063
 30
0.0
 11
-34.2089343892
 21
24.0489658982
 31
0.0
  0
LINE
  5
1BA
330
1F
100
AcDbEntity
  8
0
  6
Continuous
 62
     7
370
    25
100
AcDbLine
 10
12.3231007059
 20
40.9123186007
 30
0.0
 11
12.1294766151
 21
40.3551537253
 31
0.0
  0
LINE
  5
1BB
330
1F
100
AcDbEntity
  8
0
  6
Continuous
 62
     7
370
    25
100
AcDbLine
 10
11.1992027199
 20
40.7220194772
 30
0.0
 11
12.1294766151
 21
40.3551537253
 31
0.0
  0
LINE
  5
1BC
330
1F
100
AcDbEntity
  8
0
  6
Continuous
 62
     7
370
    25
100
AcDbLine
 10
-44.0972577075
 20
71.7562856034
 30
0.0
 11
-43.7545052678
 21
72.2363311764
 31
0.0
  0
LINE
  5
1BD
330
1F
100
AcDbEntity
  8
0
  6
Continuous
 62
     7
370
    25
100
AcDbLine
 10
-42.9652720282
 20
71.6222376221
 30
0.0
 11
-43.7545052678
 21
72.2363311764
 31
0.0
  0
LINE
  5
1BE
330
1F
100
AcDbEntity
  8
0
  6
Continuous
 62
     7
370
    25
100
AcDbLine
 10
-48.5319506632
 20
63.6442627241
 30
0.0
 11
-48.3383265723
 21
64.2014275996
 31
0.0
  0
LINE
  5
1BF
330
1F
100
AcDbEntity
  8
0
  6
Continuous
 62
     7
370
    25
100
AcDbLine
 10
-47.4080526771
 20
63.8345618477
 30
0.0
 11
-48.3383265723
 21
64.2014275996
 31
0.0
  0
LINE
  5
1C0
330
1F
100
AcDbEntity
  8
0
  6
Continuous
 62
     7
370
    25
100
AcDbLine
 10
-41.0833278021
 20
29.3220351921
 30
0.0
 11
-41.5097084453
 21
29.7296165142
 31
0.0
  0
LINE
  5
1C1
330
1F
100
AcDbEntity
  8
0
  6
Continuous
 62
     7
370
    25
100
AcDbLine
 10
-40.7895458771
 20
30.4234218726
 30
0.0
 11
-41.5097084453
 21
29.7296165142
 31
0.0
  0
LINE
  5
1C2
330
1F
100
AcDbEntity
  8
0
  6
Continuous
 62
     7
370
    25
100
AcDbLine
 10
14.2927364901
 20
49.9451449404
 30
0.0
 11
14.2639270204
 21
49.355998947
 31
0.0
  0
LINE
  5
1C3
330
1F
100
AcDbEntity
  8
0
  6
Continuous
 62
     7
370
    25
100
AcDbLine
 10
13.2679777281
 20
49.4459156152
 30
0.0
 11
14.2639270204
 21
49.355998947
 31
0.0
  0
LINE
  5
1C4
330
1F
100
AcDbEntity
  8
0
  6
Continuous
 62
     7
370
    25
100
AcDbLine
 10
-46.6200453283
 20
36.725829884
 30
0.0
 11
-46.9143256315
 21
37.2370266075
 31
0.0
  0
LINE
  5
1C5
330
1F
100
AcDbEntity
  8
0
  6
Continuous
 62
     7
370
    25
100
AcDbLine
 10
-46.0278671499
 20
37.6998347323
 30
0.0
 11
-46.9143256315
 21
37.2370266075
 31
0.0
  0
LINE
  5
1C6
330
1F
100
AcDbEntity
  8
0
  6
Continuous
 62
     7
370
    25
100
AcDbLine
 10
-49.8465968827
 20
45.3895924542
 30
0.0
 11
-49.9849360059
 21
45.9629904608
 31
0.0
  0
LINE
  5
1C7
330
1F
100
AcDbEntity
  8
0
  6
Continuous
 62
     7
370
    25
100
AcDbLine
 10
-49.0039972051
 20
46.1573073901
 30
0.0
 11
-49.9849360059
 21
45.9629904608
 31
0.0
  0
LINE
  5
1C8
330
1F
100
AcDbEntity
  8
0
  6
Continuous
 62
     7
370
    25
100
AcDbLine
 10
-6.7684617244
 20
21.8395722713
 30
0.0
 11
-7.3163356562
 21
21.6210381963
 31
0.0
  0
LINE
  5
1C9
330
1F
100
AcDbEntity
  8
0
  6
Continuous
 62
     7
370
    25
100
AcDbLine
 10
-7.6482768661
 20
22.5643382722
 30
0.0
 11
-7.3163356562
 21
21.6210381963
 31
0.0
  0
LINE
  5
1CA
330
1F
100
AcDbEntity
  8
0
  6
Continuous
 62
     7
370
    25
100
AcDbLine
 10
-37.5567800294
 20
78.2903171727
 30
0.0
 11
-37.0926670052
 21
78.6543530057
 31
0.0
  0
LINE
  5
1CB
330
1F
100
AcDbEntity
  8
0
  6
Continuous
 62
     7
370
    25
100
AcDbLine
 10
-36.5084134044
 20
77.8427818567
 30
0.0
 11
-37.0926670052
 21
78.6543530057
 31
0.0
  0
LINE
  5
1CC
330
1F
100
AcDbEntity
  8
0
  6
Continuous
 62
     7
370
    25
100
AcDbLine
 10
-15.8032258464
 20
19.8788443285
 30
0.0
 11
-16.390475198
 21
19.8235163426
 31
0.0
  0
LINE
  5
1CD
330
1F
100
AcDbEntity
  8
0
  6
Continuous
 62
     7
370
    25
100
AcDbLine
 10
-16.4432121143
 20
20.8221247832
 30
0.0
 11
-16.390475198
 21
19.8235163426
 31
0.0
  0
LINE
  5
1CE
330
1F
100
AcDbEntity
  8
0
  6
Continuous
 62
     7
370
    25
100
AcDbLine
 10
14.3939865618
 20
51.9569694017
 30
0.0
 11
14.3897803663
 21
51.6645977399
 31
0.0
  0
LINE
  5
1CF
330
1F
100
AcDbEntity
  8
0
  6
Continuous
 62
     7
370
    25
100
AcDbLine
 10
-50.602836519
 20
52.5996119232
 30
0.0
 11
-50.5986303235
 21
52.891983585
 31
0.0
  0
LINE
  5
1D0
330
1F
100
AcDbEntity
  8
0
  6
Continuous
 62
     7
370
    25
100
AcDbLine
 10
-13.7974694697
 20
20.0649373094
 30
0.0
 11
-14.0874638136
 21
20.0274918661
 31
0.0
  0
LINE
  5
1D1
330
1F
100
AcDbEntity
  8
0
  6
Continuous
 62
     7
370
    25
100
AcDbLine
 10
-47.173917979
 20
64.4114920824
 30
0.0
 11
-48.0967590267
 21
64.7966730799
 31
0.0
  0
LINE
  5
1D2
330
1F
100
AcDbEntity
  8
0
  6
Continuous
 62
     7
370
    25
100
AcDbLine
 10
-48.3173910646
 20
64.1931714067
 30
0.0
 11
-48.0967590306
 21
64.7966730705
 31
0.0
  0
LINE
  5
1D3
330
1F
100
AcDbEntity
  8
0
  6
Continuous
 62
     7
370
    25
100
AcDbLine
 10
-41.2170770091
 20
30.8760637662
 30
0.0
 11
-41.9508119941
 21
30.1966279917
 31
0.0
  0
LINE
  5
1D4
330
1F
100
AcDbEntity
  8
0
  6
Continuous
 62
     7
370
    25
100
AcDbLine
 10
-41.4935014238
 20
29.7452303753
 30
0.0
 11
-41.9508119872
 21
30.1966279842
 31
0.0
  0
LINE
  5
1D5
330
1F
100
AcDbEntity
  8
0
  6
Continuous
 62
     7
370
    25
100
AcDbLine
 10
-19.1435805736
 20
83.76114561
 30
0.0
 11
-19.1765696401
 21
84.7606013226
 31
0.0
  0
LINE
  5
1D6
330
1F
100
AcDbEntity
  8
0
  6
Continuous
 62
     7
370
    25
100
AcDbLine
 10
-19.8171879323
 20
84.7105916281
 30
0.0
 11
-19.1765696503
 21
84.7606013223
 31
0.0
  0
LINE
  5
1D7
330
1F
100
AcDbEntity
  8
0
  6
Continuous
 62
     7
370
    25
100
AcDbLine
 10
-34.2511480978
 20
25.2314177838
 30
0.0
 11
-34.7637424826
 21
24.3727868988
 31
0.0
  0
LINE
  5
1D8
330
1F
100
AcDbEntity
  8
0
  6
Continuous
 62
     7
370
    25
100
AcDbLine
 10
-34.197782799
 20
24.0685133338
 30
0.0
 11
-34.7637424738
 21
24.3727868936
 31
0.0
  0
LINE
  5
1D9
330
1F
100
AcDbEntity
  8
0
  6
Continuous
 62
     7
370
    25
100
AcDbLine
 10
-8.2376172657
 20
22.3634765137
 30
0.0
 11
-7.9243852748
 21
21.413799874
 31
0.0
  0
LINE
  5
1DA
330
1F
100
AcDbEntity
  8
0
  6
Continuous
 62
     7
370
    25
100
AcDbLine
 10
-7.3238058838
 20
21.6422668539
 30
0.0
 11
-7.9243852651
 21
21.4137998772
 31
0.0
  0
LINE
  5
1DB
330
1F
100
AcDbEntity
  8
0
  6
Continuous
 62
     7
370
    25
100
AcDbLine
 10
13.2058671606
 20
48.8263917416
 30
0.0
 11
14.1998446888
 21
48.7168076488
 31
0.0
  0
LINE
  5
1DC
330
1F
100
AcDbEntity
  8
0
  6
Continuous
 62
     7
370
    25
100
AcDbLine
 10
14.2415135095
 20
49.3580224921
 30
0.0
 11
14.1998446899
 21
48.716807659
 31
0.0
  0
LINE
  5
1DD
330
1F
100
AcDbEntity
  8
0
  6
Continuous
 62
     7
370
    25
100
AcDbLine
 10
10.9650680218
 20
40.1450892424
 30
0.0
 11
11.8879090694
 21
39.759908245
 31
0.0
  0
LINE
  5
1DE
330
1F
100
AcDbEntity
  8
0
  6
Continuous
 62
     7
370
    25
100
AcDbLine
 10
12.1085411074
 20
40.3634099182
 30
0.0
 11
11.8879090734
 21
39.7599082544
 31
0.0
  0
LINE
  5
1DF
330
1F
100
AcDbEntity
  8
0
  6
Continuous
 62
     7
370
    25
100
AcDbLine
 10
-25.9771077077
 20
21.7779485882
 30
0.0
 11
-26.2270341436
 21
20.8096837604
 31
0.0
  0
LINE
  5
1E0
330
1F
100
AcDbEntity
  8
0
  6
Continuous
 62
     7
370
    25
100
AcDbLine
 10
-25.5982760344
 20
20.6771846815
 30
0.0
 11
-26.2270341337
 21
20.8096837579
 31
0.0
  0
LINE
  5
1E1
330
1F
100
AcDbEntity
  8
0
  6
Continuous
 62
     7
370
    25
100
AcDbLine
 10
-10.2317422495
 20
82.7786327367
 30
0.0
 11
-9.9818158136
 21
83.7468975644
 31
0.0
  0
LINE
  5
1E2
330
1F
100
AcDbEntity
  8
0
  6
Continuous
 62
     7
370
    25
100
AcDbLine
 10
-10.6105739228
 20
83.8793966434
 30
0.0
 11
-9.9818158235
 21
83.746897567
 31
0.0
  0
LINE
  5
1E3
330
1F
100
AcDbEntity
  8
0
  6
Continuous
 62
     7
370
    25
100
AcDbLine
 10
-46.310556309
 20
38.2545908877
 30
0.0
 11
-47.2059890496
 21
37.8093940694
 31
0.0
  0
LINE
  5
1E4
330
1F
100
AcDbEntity
  8
0
  6
Continuous
 62
     7
370
    25
100
AcDbLine
 10
-46.8943761753
 20
37.247441952
 30
0.0
 11
-47.2059890451
 21
37.8093940603
 31
0.0
  0
LINE
  5
1E5
330
1F
100
AcDbEntity
  8
0
  6
Continuous
 62
     7
370
    25
100
AcDbLine
 10
12.9100926397
 20
57.7873465621
 30
0.0
 11
13.8946805006
 21
57.9622372255
 31
0.0
  0
LINE
  5
1E6
330
1F
100
AcDbEntity
  8
0
  6
Continuous
 62
     7
370
    25
100
AcDbLine
 10
13.754010344
 20
58.5892178256
 30
0.0
 11
13.8946804988
 21
57.9622372356
 31
0.0
  0
LINE
  5
1E7
330
1F
100
AcDbEntity
  8
0
  6
Continuous
 62
     7
370
    25
100
AcDbLine
 10
-0.2093152285
 20
26.3550376445
 30
0.0
 11
0.3587834938
 21
25.5320772313
 31
0.0
  0
LINE
  5
1E8
330
1F
100
AcDbEntity
  8
0
  6
Continuous
 62
     7
370
    25
100
AcDbLine
 10
0.8706686131
 20
25.9204924606
 30
0.0
 11
0.3587835022
 21
25.5320772371
 31
0.0
  0
LINE
  5
1E9
330
1F
100
AcDbEntity
  8
0
  6
Continuous
 62
     7
370
    25
100
AcDbLine
 10
5.0082270518
 20
73.6805175587
 30
0.0
 11
5.7419620369
 21
74.3599533332
 31
0.0
  0
LINE
  5
1EA
330
1F
100
AcDbEntity
  8
0
  6
Continuous
 62
     7
370
    25
100
AcDbLine
 10
5.2846514666
 20
74.8113509496
 30
0.0
 11
5.74196203
 21
74.3599533407
 31
0.0
  0
LINE
  5
1EB
330
1F
100
AcDbEntity
  8
0
  6
Continuous
 62
     7
370
    25
100
AcDbLine
 10
-49.4147171178
 20
55.7301895833
 30
0.0
 11
-50.408694646
 21
55.839773676
 31
0.0
  0
LINE
  5
1EC
330
1F
100
AcDbEntity
  8
0
  6
Continuous
 62
     7
370
    25
100
AcDbLine
 10
-50.4503634667
 20
55.1985588328
 30
0.0
 11
-50.4086946471
 21
55.8397736659
 31
0.0
  0
LINE
  5
1ED
330
1F
100
AcDbEntity
  8
0
  6
Continuous
 62
     7
370
    25
100
AcDbLine
 10
-1.9577018594
 20
79.325163541
 30
0.0
 11
-1.4451074746
 21
80.1837944261
 31
0.0
  0
LINE
  5
1EE
330
1F
100
AcDbEntity
  8
0
  6
Continuous
 62
     7
370
    25
100
AcDbLine
 10
-2.0110671582
 20
80.488067991
 30
0.0
 11
-1.4451074834
 21
80.1837944313
 31
0.0
  0
LINE
  5
1EF
330
1F
100
AcDbEntity
  8
0
  6
Continuous
 62
     7
370
    25
100
AcDbLine
 10
6.3692314431
 20
32.4467465634
 30
0.0
 11
7.1461729168
 21
31.8171737348
 31
0.0
  0
LINE
  5
1F0
330
1F
100
AcDbEntity
  8
0
  6
Continuous
 62
     7
370
    25
100
AcDbLine
 10
7.5278938765
 20
32.3340701217
 30
0.0
 11
7.1461729232
 21
31.8171737428
 31
0.0
  0
LINE
  5
1F1
330
1F
100
AcDbEntity
  8
0
  6
Continuous
 62
     7
370
    25
100
AcDbLine
 10
10.1017063518
 20
66.3019904372
 30
0.0
 11
10.9971390924
 21
66.7471872554
 31
0.0
  0
LINE
  5
1F2
330
1F
100
AcDbEntity
  8
0
  6
Continuous
 62
     7
370
    25
100
AcDbLine
 10
10.6855262181
 20
67.3091393729
 30
0.0
 11
10.9971390879
 21
66.7471872646
 31
0.0
  0
LINE
  5
1F3
330
1F
100
AcDbEntity
  8
0
  6
Continuous
 62
     7
370
    25
100
AcDbLine
 10
-17.0652693836
 20
20.7954357149
 30
0.0
 11
-17.0322803171
 21
19.7959800022
 31
0.0
  0
LINE
  5
1F4
330
1F
100
AcDbEntity
  8
0
  6
Continuous
 62
     7
370
    25
100
AcDbLine
 10
-16.3916620249
 20
19.8459896967
 30
0.0
 11
-17.0322803069
 21
19.7959800026
 31
0.0
  0
LINE
  5
1F5
330
1F
100
AcDbEntity
  8
0
  6
Continuous
 62
     7
370
    25
100
AcDbLine
 10
-42.5780814003
 20
72.1098347615
 30
0.0
 11
-43.355022874
 21
72.73940759
 31
0.0
  0
LINE
  5
1F6
330
1F
100
AcDbEntity
  8
0
  6
Continuous
 62
     7
370
    25
100
AcDbLine
 10
-43.7367438337
 20
72.2225112032
 30
0.0
 11
-43.3550228804
 21
72.7394075821
 31
0.0
  0
LINE
  5
1F7
330
1F
100
AcDbEntity
  8
0
  6
Continuous
 62
     7
370
    25
100
AcDbLine
 10
-27.9712326915
 20
82.1931048112
 30
0.0
 11
-28.2844646824
 21
83.1427814508
 31
0.0
  0
LINE
  5
1F8
330
1F
100
AcDbEntity
  8
0
  6
Continuous
 62
     7
370
    25
100
AcDbLine
 10
-28.8850440734
 20
82.914314471
 30
0.0
 11
-28.2844646921
 21
83.1427814476
 31
0.0
  0
LINE
  5
1F9
330
1F
100
AcDbEntity
  8
0
  6
Continuous
 62
     7
370
    25
100
AcDbLine
 10
-49.1189425969
 20
46.7692347628
 30
0.0
 11
-50.1035304578
 21
46.5943440993
 31
0.0
  0
LINE
  5
1FA
330
1F
100
AcDbEntity
  8
0
  6
Continuous
 62
     7
370
    25
100
AcDbLine
 10
-49.9628603012
 20
45.9673634993
 30
0.0
 11
-50.103530456
 21
46.5943440893
 31
0.0
  0
LINE
  5
1FB
330
1F
100
AcDbEntity
  8
0
  6
Continuous
 62
     7
370
    25
100
AcDbLine
 10
-35.9995347287
 20
78.2015436803
 30
0.0
 11
-36.567633451
 21
79.0245040936
 31
0.0
  0
LINE
  5
1FC
330
1F
100
AcDbEntity
  8
0
  6
Continuous
 62
     7
370
    25
100
AcDbLine
 10
-37.0795185703
 20
78.6360888643
 30
0.0
 11
-36.5676334594
 21
79.0245040878
 31
0.0
  0
ARC
  5
1FD
330
1F
100
AcDbEntity
  8
0
  6
Continuous
 62
     7
370
    25
100
AcDbCircle
 10
-18.1044249786
 20
52.2782906624
 30
0.0
 40
32.49999999999964
100
AcDbArc
 50
339.5172060818
 51
353.0513683999
  0
ARC
  5
1FE
330
1F
100
AcDbEntity
  8
0
  6
Continuous
 62
     7
370
    25
100
AcDbCircle
 10
-18.1044249786
 20
52.2782906624
 30
0.0
 40
32.49999999999859
100
AcDbArc
 50
306.7899333546
 51
320.3240956726
  0
ARC
  5
1FF
330
1F
100
AcDbEntity
  8
0
  6
Continuous
 62
     7
370
    25
100
AcDbCircle
 10
-18.1044249786
 20
52.2782906624
 30
0.0
 40
32.50000000000018
100
AcDbArc
 50
110.4262969909
 51
123.9604593089
  0
ARC
  5
200
330
1F
100
AcDbEntity
  8
0
  6
Continuous
 62
     7
370
    25
100
AcDbCircle
 10
-18.1044249786
 20
52.2782906624
 30
0.0
 40
32.49999999999926
100
AcDbArc
 50
290.4262969909
 51
303.9604593089
  0
ARC
  5
201
330
1F
100
AcDbEntity
  8
0
  6
Continuous
 62
     7
370
    25
100
AcDbCircle
 10
-18.1044249786
 20
52.2782906624
 30
0.0
 40
32.49999999999812
100
AcDbArc
 50
44.9717515364
 51
58.5059138544
  0
ARC
  5
202
330
1F
100
AcDbEntity
  8
0
  6
Continuous
 62
     7
370
    25
100
AcDbCircle
 10
-18.1044249786
 20
52.2782906624
 30
0.0
 40
32.50000000000031
100
AcDbArc
 50
159.5172060818
 51
173.0513683999
  0
ARC
  5
203
330
1F
100
AcDbEntity
  8
0
  6
Continuous
 62
     7
370
    25
100
AcDbCircle
 10
-18.1044249786
 20
52.2782906624
 30
0.0
 40
32.49999999999875
100
AcDbArc
 50
241.3353879
 51
254.869550218
  0
ARC
  5
204
330
1F
100
AcDbEntity
  8
0
  6
Continuous
 62
     7
370
    25
100
AcDbCircle
 10
-18.1044249786
 20
52.2782906624
 30
0.0
 40
32.49999999999784
100
AcDbArc
 50
175.8808424455
 51
189.4150047635
  0
ARC
  5
205
330
1F
100
AcDbEntity
  8
0
  6
Continuous
 62
     7
370
    25
100
AcDbCircle
 10
-18.1044249786
 20
52.2782906624
 30
0.0
 40
32.49999999999937
100
AcDbArc
 50
355.8808424455
 51
9.4150047635
  0
ARC
  5
206
330
1F
100
AcDbEntity
  8
0
  6
Continuous
 62
     7
370
    25
100
AcDbCircle
 10
-18.1044249786
 20
52.2782906624
 30
0.0
 40
32.50000000000018
100
AcDbArc
 50
28.6081151727
 51
42.1422774908
  0
ARC
  5
207
330
1F
100
AcDbEntity
  8
0
  6
Continuous
 62
     7
370
    25
100
AcDbCircle
 10
-18.1044249786
 20
52.2782906624
 30
0.0
 40
32.49999999999868
100
AcDbArc
 50
257.6990242637
 51
271.2331865817
  0
ARC
  5
208
330
1F
100
AcDbEntity
  8
0
  6
Continuous
 62
     7
370
    25
100
AcDbCircle
 10
-18.1044249786
 20
52.2782906624
 30
0.0
 40
32.49999999999933
100
AcDbArc
 50
323.1535697182
 51
336.6877320362
  0
ARC
  5
209
330
1F
100
AcDbEntity
  8
0
  6
Continuous
 62
     7
370
    25
100
AcDbCircle
 10
-18.1044249786
 20
52.2782906624
 30
0.0
 40
32.49999999999933
100
AcDbArc
 50
224.9717515364
 51
238.5059138544
  0
ARC
  5
20A
330
1F
100
AcDbEntity
  8
0
  6
Continuous
 62
     7
370
    25
100
AcDbCircle
 10
-18.1044249786
 20
52.2782906624
 30
0.0
 40
32.49999999999827
100
AcDbArc
 50
192.2444788091
 51
205.7786411271
  0
ARC
  5
20B
330
1F
100
AcDbEntity
  8
0
  6
Continuous
 62
     7
370
    25
100
AcDbCircle
 10
-18.1044249786
 20
52.2782906624
 30
0.0
 40
32.49999999999923
100
AcDbArc
 50
274.0626606273
 51
287.5968229453
  0
ARC
  5
20C
330
1F
100
AcDbEntity
  8
0
  6
Continuous
 62
     7
370
    25
100
AcDbCircle
 10
-18.1044249786
 20
52.2782906624
 30
0.0
 40
32.49999999999778
100
AcDbArc
 50
94.0626606273
 51
107.5968229453
  0
ARC
  5
20D
330
1F
100
AcDbEntity
  8
0
  6
Continuous
 62
     7
370
    25
100
AcDbCircle
 10
-18.1044249786
 20
52.2782906624
 30
0.0
 40
32.49999999999924
100
AcDbArc
 50
208.6081151727
 51
222.1422774908
  0
ARC
  5
20E
330
1F
100
AcDbEntity
  8
0
  6
Continuous
 62
     7
370
    25
100
AcDbCircle
 10
-18.1044249786
 20
52.2782906624
 30
0.0
 40
32.49999999999928
100
AcDbArc
 50
77.6990242637
 51
91.2331865817
  0
ARC
  5
20F
330
1F
100
AcDbEntity
  8
0
  6
Continuous
 62
     7
370
    25
100
AcDbCircle
 10
-18.1044249786
 20
52.2782906624
 30
0.0
 40
32.50000000000029
100
AcDbArc
 50
61.3353879
 51
74.869550218
  0
ARC
  5
210
330
1F
100
AcDbEntity
  8
0
  6
Continuous
 62
     7
370
    25
100
AcDbCircle
 10
-18.1044249786
 20
52.2782906624
 30
0.0
 40
32.49999999999878
100
AcDbArc
 50
143.1535697182
 51
156.6877320362
  0
ARC
  5
211
330
1F
100
AcDbEntity
  8
0
  6
Continuous
 62
     7
370
    25
100
AcDbCircle
 10
-18.1044249786
 20
52.2782906624
 30
0.0
 40
32.49999999999814
100
AcDbArc
 50
12.2444788091
 51
25.7786411271
  0
ARC
  5
212
330
1F
100
AcDbEntity
  8
0
  6
Continuous
 62
     7
370
    25
100
AcDbCircle
 10
-18.1044249786
 20
52.2782906624
 30
0.0
 40
32.49999999999705
100
AcDbArc
 50
126.7899333546
 51
140.3240956726
  0
MTEXT
  5
214
330
1F
100
AcDbEntity
  8
0
  6
Continuous
 62
     7
100
AcDbMText
 10
-50.6044249786
 20
18.7587242707
 30
0.0
 40
4.83362
 41
0.0
 71
     1
 72
     1
  1
SOLIDWORKS Educational Product.
  7
SLDTEXTSTYLE0
 73
     1
 44
1.0
  0
MTEXT
  5
215
330
1F
100
AcDbEntity
  8
0
  6
Continuous
 62
     7
100
AcDbMText
 10
-50.6044249786
 20
11.5082942707
 30
0.0
 40
4.83362
 41
0.0
 71
     1
 72
     1
  1
For Instructional Use Only.
  7
SLDTEXTSTYLE0
 73
     1
 44
1.0
  0
ENDSEC
  0
SECTION
  2
OBJECTS
  0
DICTIONARY
  5
C
330
0
100
AcDbDictionary
281
     1
  3
ACAD_GROUP
350
D
  3
ACAD_LAYOUT
350
1A
  3
ACAD_MLINESTYLE
350
17
  3
ACAD_PLOTSETTINGS
350
19
  3
ACAD_PLOTSTYLENAME
350
E
  3
ACAD_SCALELIST
350
47
  3
DWGPROPS
350
216
  0
DICTIONARY
  5
D
102
{ACAD_REACTORS
330
C
102
}
330
C
100
AcDbDictionary
281
     1
  0
DICTIONARY
  5
1A
102
{ACAD_REACTORS
330
C
102
}
330
C
100
AcDbDictionary
281
     1
  3
Layout1
350
1E
  3
Layout2
350
26
  3
Model
350
22
  0
DICTIONARY
  5
17
102
{ACAD_REACTORS
330
C
102
}
330
C
100
AcDbDictionary
281
     1
  3
Standard
350
18
  0
DICTIONARY
  5
19
102
{ACAD_REACTORS
330
C
102
}
330
C
100
AcDbDictionary
281
     1
  0
ACDBDICTIONARYWDFLT
  5
E
102
{ACAD_REACTORS
330
C
102
}
330
C
100
AcDbDictionary
281
     1
  3
Normal
350
F
100
AcDbDictionaryWithDefault
340
F
  0
DICTIONARY
  5
47
102
{ACAD_REACTORS
330
C
102
}
330
C
100
AcDbDictionary
281
     1
  3
A0
350
48
  3
A1
350
49
  3
A2
350
4A
  3
A3
350
4B
  3
A4
350
4C
  3
A5
350
4D
  3
A6
350
4E
  3
A7
350
4F
  3
A8
350
50
  3
A9
350
51
  3
B0
350
52
  3
B1
350
53
  3
B2
350
54
  3
B3
350
55
  3
B4
350
56
  3
B5
350
57
  3
B6
350
58
  0
XRECORD
  5
216
102
{ACAD_REACTORS
330
C
102
}
330
C
100
AcDbXrecord
280
     1
  1
DWGPROPS COOKIE
  2

  3

  4

  6

  7

  8
Yoav
  9

300
=
301
=
302
=
303
=
304
=
305
=
306
=
307
=
308
=
309
=
 40
0.0
 41
2461086.067001956
 42
2461086.067032697
  1

 90
        0
  0
LAYOUT
  5
1E
102
{ACAD_REACTORS
330
1A
102
}
330
1A
100
AcDbPlotSettings
  1

  2
none_device
  4

  6

 40
0.0
 41
0.0
 42
0.0
 43
0.0
 44
0.0
 45
0.0
 46
0.0
 47
0.0
 48
0.0
 49
0.0
140
0.0
141
0.0
142
1.0
143
1.0
 70
   688
 72
     1
 73
     0
 74
     5
  7

 75
    16
147
1.0
148
0.0
149
0.0
100
AcDbLayout
  1
Layout1
 70
     1
 71
     1
 10
0.0
 20
0.0
 11
420.0
 21
297.0
 12
0.0
 22
0.0
 32
0.0
 14
1.0000000000E+20
 24
1.0000000000E+20
 34
1.0000000000E+20
 15
-1.0000000000E+20
 25
-1.0000000000E+20
 35
-1.0000000000E+20
146
0.0
 13
0.0
 23
0.0
 33
0.0
 16
1.0
 26
0.0
 36
0.0
 17
0.0
 27
1.0
 37
0.0
 76
     0
330
1B
  0
LAYOUT
  5
26
102
{ACAD_REACTORS
330
1A
102
}
330
1A
100
AcDbPlotSettings
  1

  2
none_device
  4

  6

 40
0.0
 41
0.0
 42
0.0
 43
0.0
 44
0.0
 45
0.0
 46
0.0
 47
0.0
 48
0.0
 49
0.0
140
0.0
141
0.0
142
1.0
143
1.0
 70
   688
 72
     1
 73
     0
 74
     5
  7

 75
    16
147
1.0
148
0.0
149
0.0
100
AcDbLayout
  1
Layout2
 70
     1
 71
     2
 10
0.0
 20
0.0
 11
0.0
 21
0.0
 12
0.0
 22
0.0
 32
0.0
 14
0.0
 24
0.0
 34
0.0
 15
0.0
 25
0.0
 35
0.0
146
0.0
 13
0.0
 23
0.0
 33
0.0
 16
1.0
 26
0.0
 36
0.0
 17
0.0
 27
1.0
 37
0.0
 76
     0
330
23
  0
LAYOUT
  5
22
102
{ACAD_REACTORS
330
1A
102
}
330
1A
100
AcDbPlotSettings
  1

  2
none_device
  4
ANSI_A_(11.00_x_8.50_Inches)
  6

 40
6.35
 41
19.05
 42
6.35000508
 43
19.05000254
 44
279.4
 45
215.9
 46
192.8831959116
 47
-83.0079108774
 48
0.0
 49
0.0
140
0.0
141
0.0
142
0.1294615385
143
1.0
 70
  1696
 72
     0
 73
     0
 74
     0
  7

 75
     0
147
0.0179189148
148
-1300.4909072572
149
0.0
100
AcDbLayout
  1
Model
 70
     1
 71
     0
 10
0.0
 20
0.0
 11
420.0
 21
297.0
 12
0.0
 22
0.0
 32
0.0
 14
-50.6044249786
 24
19.7782906624
 34
0.0
 15
14.3955750214
 25
84.7782906624
 35
0.0
146
0.0
 13
0.0
 23
0.0
 33
0.0
 16
1.0
 26
0.0
 36
0.0
 17
0.0
 27
1.0
 37
0.0
 76
     0
330
1F
331
29
  0
MLINESTYLE
  5
18
102
{ACAD_REACTORS
330
17
102
}
330
17
100
AcDbMlineStyle
  2
Standard
 70
     0
  3

 62
   256
 51
90.0
 52
90.0
 71
     2
 49
0.5
 62
   256
  6
BYLAYER
 49
-0.5
 62
   256
  6
BYLAYER
  0
ACDBPLACEHOLDER
  5
F
102
{ACAD_REACTORS
330
E
102
}
330
E
  0
SCALE
  5
48
102
{ACAD_REACTORS
330
47
102
}
330
47
100
AcDbScale
 70
     0
300
1:1
140
1.0
141
1.0
290
     1
  0
SCALE
  5
49
102
{ACAD_REACTORS
330
47
102
}
330
47
100
AcDbScale
 70
     0
300
1:2
140
1.0
141
2.0
290
     0
  0
SCALE
  5
4A
102
{ACAD_REACTORS
330
47
102
}
330
47
100
AcDbScale
 70
     0
300
1:4
140
1.0
141
4.0
290
     0
  0
SCALE
  5
4B
102
{ACAD_REACTORS
330
47
102
}
330
47
100
AcDbScale
 70
     0
300
1:5
140
1.0
141
5.0
290
     0
  0
SCALE
  5
4C
102
{ACAD_REACTORS
330
47
102
}
330
47
100
AcDbScale
 70
     0
300
1:8
140
1.0
141
8.0
290
     0
  0
SCALE
  5
4D
102
{ACAD_REACTORS
330
47
102
}
330
47
100
AcDbScale
 70
     0
300
1:10
140
1.0
141
10.0
290
     0
  0
SCALE
  5
4E
102
{ACAD_REACTORS
330
47
102
}
330
47
100
AcDbScale
 70
     0
300
1:16
140
1.0
141
16.0
290
     0
  0
SCALE
  5
4F
102
{ACAD_REACTORS
330
47
102
}
330
47
100
AcDbScale
 70
     0
300
1:20
140
1.0
141
20.0
290
     0
  0
SCALE
  5
50
102
{ACAD_REACTORS
330
47
102
}
330
47
100
AcDbScale
 70
     0
300
1:30
140
1.0
141
30.0
290
     0
  0
SCALE
  5
51
102
{ACAD_REACTORS
330
47
102
}
330
47
100
AcDbScale
 70
     0
300
1:40
140
1.0
141
40.0
290
     0
  0
SCALE
  5
52
102
{ACAD_REACTORS
330
47
102
}
330
47
100
AcDbScale
 70
     0
300
1:50
140
1.0
141
50.0
290
     0
  0
SCALE
  5
53
102
{ACAD_REACTORS
330
47
102
}
330
47
100
AcDbScale
 70
     0
300
1:100
140
1.0
141
100.0
290
     0
  0
SCALE
  5
54
102
{ACAD_REACTORS
330
47
102
}
330
47
100
AcDbScale
 70
     0
300
2:1
140
2.0
141
1.0
290
     0
  0
SCALE
  5
55
102
{ACAD_REACTORS
330
47
102
}
330
47
100
AcDbScale
 70
     0
300
4:1
140
4.0
141
1.0
290
     0
  0
SCALE
  5
56
102
{ACAD_REACTORS
330
47
102
}
330
47
100
AcDbScale
 70
     0
300
8:1
140
8.0
141
1.0
290
     0
  0
SCALE
  5
57
102
{ACAD_REACTORS
330
47
102
}
330
47
100
AcDbScale
 70
     0
300
10:1
140
10.0
141
1.0
290
     0
  0
SCALE
  5
58
102
{ACAD_REACTORS
330
47
102
}
330
47
100
AcDbScale
 70
     0
300
100:1
140
100.0
141
1.0
290
     0
  0
ENDSEC
  0
EOF
